<svg xmlns="http://www.w3.org/2000/svg" fill="none" viewBox="0 0 235 251">
    <g clip-path="url(#a)">
        <mask id="b" width="235" height="251" x="0" y="0" maskUnits="userSpaceOnUse" style="mask-type:luminance">
            <path fill="#fff" d="M0 0h235v251H0V0Z" />
        </mask>
        <g mask="url(#b)">
            <path fill="#161112"
                d="m32.733 251.441 24.109.04.012-7.658a6.163 6.163 0 0 0-6.147-6.177 6.098 6.098 0 0 0-2.599.578l-.002.001-7.962 2.879a11.246 11.246 0 0 0-7.411 10.337Z" />
            <path fill="#161112"
                d="m43.138 199.137-.003-.128a9.037 9.037 0 0 1 .003-.577c.195-4.943 4.355-8.794 9.293-8.599 4.938.196 8.781 4.363 8.586 9.306a9.26 9.26 0 0 1-.024.387l-.003.038a3.139 3.139 0 0 1-.007.08l-4.114 44.914a6.163 6.163 0 0 1-6.378 5.645 6.164 6.164 0 0 1-5.91-5.912v-.033l-1.443-45.121Z" />
            <path fill="#161112"
                d="M41.696 154.042a11.79 11.79 0 0 1 .003-.851c.256-6.484 5.707-11.529 12.182-11.273 6.474.256 11.511 5.715 11.256 12.2-.01.239-.026.476-.05.711l-4.094 44.697c-.39 4.757-4.46 8.404-9.268 8.214-4.745-.188-8.48-4.043-8.591-8.732l-1.436-44.911-.002-.055ZM94.835 240.081l-7.987-2.808-.002-.001a6.101 6.101 0 0 0-2.604-.554 6.164 6.164 0 0 0-6.092 6.231l.08 7.658 24.108-.256a11.248 11.248 0 0 0-7.503-10.27Z" />
            <path fill="#161112"
                d="m84.752 197.516-.017-.127a8.611 8.611 0 0 0-.093-.568c-.967-4.852-5.678-8.002-10.525-7.034-4.846.968-7.99 5.688-7.023 10.539.026.128.054.254.084.379l.01.037.019.077L78.3 244.532a6.158 6.158 0 0 0 7.183 4.573 6.167 6.167 0 0 0 4.911-6.766l-.001-.012-.003-.021-5.639-44.79Z" />
            <path fill="#161112"
                d="M79.117 152.753c-.036-.279-.081-.56-.137-.84-1.268-6.365-7.441-10.491-13.795-9.221-6.355 1.27-10.475 7.452-9.207 13.817.047.234.1.466.16.694l11.04 43.502c1.13 4.636 5.72 7.599 10.44 6.656 4.657-.931 7.741-5.324 7.118-9.972l-5.613-44.582-.006-.054Z" />
            <path fill="#161112"
                d="M79.197 154.675c.408-10.37-7.653-19.11-18.008-19.519-10.355-.41-19.08 7.665-19.49 18.035l37.498 1.484ZM4.174 28.366c5.337 1.13 8.805 6.314 7.816 11.687l-.932 4.927c-.01.048-.018.097-.029.145A5.277 5.277 0 1 1 .734 42.8l3.44-14.434Z" />
            <path fill="#161112"
                d="M3.46 39.327a5.273 5.273 0 0 1 7.047 2.19l15.737 28.848.076.144a6.172 6.172 0 0 1-2.676 8.302 6.153 6.153 0 0 1-8.36-2.825L1.114 46.332a5.288 5.288 0 0 1 2.347-7.005Z" />
            <path fill="#00AEEF"
                d="M17.79 67.96a6.153 6.153 0 0 1 8.318 2.168L43.02 98.104a7.052 7.052 0 0 1-2.529 9.79c-3.378 1.927 1.396 16.798-.528 13.414-.034-.06-9.135-16.172-9.167-16.233L15.407 76.23a6.172 6.172 0 0 1 2.383-8.27Z" />
            <path fill="#161112"
                d="M98.168 26.994c-5.273 1.401-8.471 6.756-7.21 12.072l1.182 4.872.036.143a5.276 5.276 0 0 0 6.454 3.754 5.287 5.287 0 0 0 3.709-6.602l-4.171-14.239Z" />
            <path fill="#161112"
                d="M97.191 37.44A5.28 5.28 0 0 0 92 42.692l-.344 32.873v.162a6.162 6.162 0 0 0 6.26 6.066 6.163 6.163 0 0 0 6.057-6.268l-.006-.162-1.417-32.844a5.28 5.28 0 0 0-5.359-5.077Z" />
            <path fill="#00AEEF"
                d="M102.227 71.323a6.15 6.15 0 0 0-8.592-.23L69.631 93.265l-.15.142a7.054 7.054 0 0 0-.135 9.966c2.712 2.791-7.59 18.257-4.804 15.542.05-.048 14.853-15.504 14.9-15.554l22.782-23.43h-.001a6.172 6.172 0 0 0 .004-8.608Z" />
            <g style="mix-blend-mode:multiply">
                <mask id="c" width="34" height="34" x="38" y="56" maskUnits="userSpaceOnUse"
                    style="mask-type:luminance">
                    <path fill="#fff" d="M38.974 89.125h32.853V56.221H38.974v32.904Z" />
                </mask>
                <g mask="url(#c)">
                    <path fill="#161112"
                        d="M38.98 73.112c-.242-9.082 6.914-16.642 15.982-16.885 9.07-.242 16.617 6.926 16.859 16.008.242 9.083-6.914 16.642-15.983 16.884-9.068.243-16.616-6.924-16.858-16.007Z" />
                </g>
            </g>
            <path fill="#00AEEF"
                d="M80.72 95.38a7.03 7.03 0 0 0-6.95-3.937v-.006L36.502 94.74c-.019 0-.037.003-.055.005l-.06.005v.002a7.038 7.038 0 0 0-6.236 5.43c-.875 3.794 1.483 7.577 5.271 8.455a7.008 7.008 0 0 0 2.206.153l4.173 47.266c.434 4.912 4.762 8.543 9.667 8.108l19.62-1.738c4.904-.435 8.53-4.769 8.096-9.682l-4.174-47.271a6.996 6.996 0 0 0 2.453-.674 7.052 7.052 0 0 0 3.257-9.418Z" />
        </g>
        <mask id="d" width="235" height="251" x="0" y="0" maskUnits="userSpaceOnUse" style="mask-type:luminance">
            <path fill="#fff" d="M0 0h235v251H0V0Z" />
        </mask>
        <g mask="url(#d)">
            <path fill="#161112"
                d="m219.075 224.583-8.407-22.629-7.166 2.67a6.17 6.17 0 0 0-3.623 7.93 6.127 6.127 0 0 0 1.45 2.236l.001.001 5.483 6.461a11.216 11.216 0 0 0 12.262 3.331Z" />
            <path fill="#161112"
                d="M160.69 203.578a9.703 9.703 0 0 1-.668-.22c-4.626-1.733-6.977-6.895-5.247-11.531 1.731-4.636 6.886-6.988 11.512-5.256.122.046.241.094.36.144l.034.015.074.032 41.305 17.967a6.174 6.174 0 0 1 3.358 7.834 6.156 6.156 0 0 1-7.456 3.771l-.011-.003-.021-.006-43.24-12.747Z" />
            <path fill="#161112"
                d="M129.885 163.345c-.162-.23-.318-.467-.465-.712-3.353-5.554-1.578-12.771 3.967-16.128 5.545-3.358 12.752-1.58 16.105 3.973.123.205.239.412.349.62l21.162 39.566c2.29 4.186.899 9.475-3.219 11.969-4.063 2.46-9.3 1.302-11.972-2.55l-25.896-36.693-.031-.045ZM225.828 193.906l-7.658-3.613-.002-.001a6.09 6.09 0 0 0-2.533-.819 6.163 6.163 0 0 0-6.698 5.574l-.702 7.626 24.006 2.219a11.248 11.248 0 0 0-6.413-10.986Z" />
            <path fill="#161112"
                d="m206.336 150.917-.042-.121a8.854 8.854 0 0 0-.206-.538c-1.926-4.555-7.176-6.686-11.727-4.757-4.551 1.93-6.676 7.189-4.75 11.745.05.12.104.237.159.353l.016.034.034.072 19.692 40.563a6.155 6.155 0 0 0 7.957 3.025 6.172 6.172 0 0 0 3.443-7.622l-.003-.011-.007-.02-14.566-42.723Z" />
            <path fill="#161112"
                d="M153.966 140.395c-.28-.027-.563-.045-.848-.053-6.478-.176-11.866 4.934-12.042 11.421-.177 6.488 4.926 11.886 11.404 12.062.238.007.475.006.711-.002l44.801-1.112c4.765-.073 8.67-3.897 8.801-8.715.128-4.754-3.463-8.743-8.126-9.168L154.02 140.4l-.054-.005Z" />
            <path fill="#161112"
                d="M163.921 148.357c-3.289-9.843-13.92-15.151-23.748-11.858-9.826 3.293-15.127 13.942-11.839 23.784l35.587-11.926Z" />
            <path fill="#00AEEF"
                d="m166.615 137.428-37.357-3.627-5.589 54.194c10.498 2.59 52.904-9.474 74.998-43.166l-32.052-7.401Z" />
            <path fill="#161112"
                d="M117.808 28.295c4.863 2.477 6.869 8.384 4.523 13.318l-2.176 4.516a5.273 5.273 0 0 1-7.162 2.447 5.29 5.29 0 0 1-2.245-7.234l7.06-13.047Z" />
            <path fill="#161112"
                d="M116.412 38.68a5.285 5.285 0 0 1 4.173 6.093L115.07 77.18l-.03.16a6.158 6.158 0 0 1-7.239 4.851 6.167 6.167 0 0 1-4.81-7.409l7.243-32.063a5.277 5.277 0 0 1 6.178-4.04Z" />
            <path fill="#161112"
                d="M104.54 71.882a6.151 6.151 0 0 1 8.589-.32l24.232 21.923.152.14a7.055 7.055 0 0 1 .238 9.965 7.028 7.028 0 0 1-9.949.238c-.049-.048-.099-.096-.147-.145L104.633 80.49a6.174 6.174 0 0 1-.093-8.608ZM197.712 27.115c-5.437.45-9.525 5.158-9.216 10.614l.308 5.004.01.147a5.279 5.279 0 0 0 5.695 4.832 5.282 5.282 0 0 0 4.81-5.845l-1.607-14.752Z" />
            <path fill="#161112"
                d="M195.135 37.267a5.277 5.277 0 0 0-6.206 3.995l-7.464 32.013a6.167 6.167 0 0 0 4.759 7.442 6.157 6.157 0 0 0 7.303-4.96l5.739-32.368a5.285 5.285 0 0 0-4.131-6.122Z" />
            <path fill="#161112"
                d="M190.752 69.46a6.152 6.152 0 0 0-8.408 1.785l-18.172 27.172a7.053 7.053 0 0 0 2.079 9.896 7.028 7.028 0 0 0 9.814-2.372l16.69-28.11a6.174 6.174 0 0 0-2.003-8.371Z" />
            <g style="mix-blend-mode:multiply">
                <mask id="e" width="34" height="34" x="135" y="56" maskUnits="userSpaceOnUse"
                    style="mask-type:luminance">
                    <path fill="#fff" d="M135.959 89.578h32.854V56.673h-32.854v32.905Z" />
                </mask>
                <g mask="url(#e)">
                    <path fill="#161112"
                        d="M135.98 72.298c.457-9.074 8.173-16.06 17.233-15.603 9.06.457 16.035 8.185 15.578 17.259-.456 9.074-8.171 16.06-17.232 15.603-9.06-.457-16.036-8.184-15.579-17.26Z" />
                </g>
            </g>
            <path fill="#161112"
                d="M135.98 72.298c.447-8.874 7.838-15.748 16.638-15.618a13.164 13.164 0 0 0-9.483-4.745c-7.288-.37-13.495 5.252-13.862 12.553-.013.25-.016.5-.015.75-.025.177-.041.349-.049.515-.242 4.808 3.324 17.353-6.441 19.162 7.68 5.535 14.974 2.06 16.256-2.226a16.398 16.398 0 0 1-3.044-10.391Z" />
            <path fill="#00AEEF"
                d="m126.998 102.96 10.014 12.741 1.074-7.63-11.088-5.111ZM175.848 106.4l-10.921 17.434.727-12.707 10.194-4.727Z" />
            <path fill="#00AEEF"
                d="M176.797 100.492a7.037 7.037 0 0 0-6.109-5.148l.001-.006-10.267-.997c-1.47 2.357-5.289 3.795-9.594 3.369-4.283-.424-7.734-2.565-8.733-5.148l-8.646-.84-.055-.004-.059-.006v.002a7.034 7.034 0 0 0-7.127 4.19 7.052 7.052 0 0 0 3.63 9.281c.699.306 1.42.485 2.139.556l-4.57 47.229c-.475 4.909 3.113 9.274 8.014 9.75l19.604 1.903c4.901.475 9.26-3.118 9.735-8.027l4.571-47.234a6.996 6.996 0 0 0 2.536-.211c3.75-1.028 5.956-4.903 4.93-8.659Z" />
        </g>
        <path stroke="#161112" stroke-linecap="round" stroke-miterlimit="10" stroke-width="3"
            d="M97.773 15.116 91.91 8.46M105.059 12.519l-1.18-8.798M112.468 14.374l4.004-7.92" />
        <mask id="f" width="235" height="251" x="0" y="0" maskUnits="userSpaceOnUse" style="mask-type:luminance">
            <path fill="#fff" d="M0 0h235v251H0V0Z" />
        </mask>
        <g fill="#B6B8BA" mask="url(#f)">
            <path
                d="M150.703 247.809h70.218a.912.912 0 0 0 0-1.827h-70.218a.912.912 0 0 0 0 1.827ZM163.934 251.008h70.218a.913.913 0 0 0 .912-.914.913.913 0 0 0-.912-.914h-70.218a.914.914 0 0 0 0 1.828Z" />
        </g>
    </g>
    <defs>
        <clipPath id="a">
            <path fill="#fff" d="M0 0h235v251H0z" />
        </clipPath>
    </defs>
</svg>