<svg xmlns="http://www.w3.org/2000/svg" viewBox="0 0 2048 256" fill="#E6E6E6">
  <path
    d="M450.4 101c0-2.2-1.8-4-4-4-2 0-3.6 1.4-4 3.3 0 0-8.2-.8-9.2-9.5-1-8.6 2.9-10.1 2.9-10.1v-6.9h1.6v-1.3H431c.1-.5.2-1 .2-1.5 0-2.9-2.4-5.2-5.3-5.2-.9 0-1.7.2-2.4.6.7-.7 1.1-1.7 1.1-2.8 0-2.2-1.8-4-4-4-1 0-2 .4-2.7 1 .7-.9 1.1-2 1.1-3.2 0-2.9-2.4-5.2-5.3-5.2s-5.3 2.3-5.3 5.2c0 1 .3 2 .8 2.8-.6-.4-1.3-.6-2.1-.6-2.2 0-4 1.8-4 4 0 1.1.4 2.1 1.1 2.8-.7-.4-1.5-.6-2.4-.6-2.9 0-5.3 2.3-5.3 5.2 0 .5.1 1 .2 1.5h-7.9v1.3h2.4v6.9s4.5 7.4 2.5 12.8c-1.6 4.5-6.8 6.7-8.6 7.3-.1-2.1-1.9-3.8-4-3.8-2.2 0-4 1.8-4 4 0 1.7 1 3.1 2.4 3.7l-2.4 1.7v1.4h1.3V256h69.9V107.8h1.7v-1.4l-3.1-1.5c2.2-.4 3.5-2 3.5-3.9zm-33-40c-.1.1-.2.3-.3.4l-.1-.1c.2 0 .3-.2.4-.3zm-11.8 19.7h16.5v21.7h-16.5V80.7zm-1.6 37.9h19.7v24.3H404v-24.3zm-19.1 0h16.5v24.3h-16.5v-24.3zm0 35.2H410v30.5h-25.1v-30.5zm18.3 86.5h-18.4v-43.8h18.4v43.8zm17.3 13.3h-13.1v-38.7h13.1v38.7zm0-42.4h-13.1v-14.6h13.1v14.6zm21.7 29.1h-18.4v-43.8h18.4v43.8zm.4-56h-25.1v-30.5h25.1v30.5zm.5-41.4h-16.5v-24.3h16.5v24.3zM512.7 224h-5.6l-11.7 9.5v8.2l22.7-18.5V215l-5.4 4.4v4.6z" />
  <path d="M542.2 72.4V60.5h1.9v-2.1H535V48h1.9v-2.1h-7.8V35h1.8v-2.1h-8v-9.1h1v-2.1h-7.7v-9.1h2v-2.1h-8.3V0h-17.2v10.4h-7.9v2.1h1.7v9.1h-7.6v2.1h1.1v9.1h-7.8V35h1.1v11H466v2h1.4v10.4h-8.6v2.1h2.2v11.9h-8.4v2.1h2.4V256h93.5V74.5h2.1v-2.1h-8.4zM482.4 224h-21.5v-62.9h21.5V224zm0-78.4h-21.5V108h21.5v37.6zm2.5-50.9h-15.5V69.2h15.5v25.5zm57.3 13.3v37.6h-21.5V108h21.5zm0 53.1v72.5h-21.5v-72.5h21.5zm-24-91.9h15.5v25.5h-15.5V69.2zm-24.4-32.9h16.3v22.1h-16.3V36.3zm-2.3 32.9h21v25.5h-21V69.2zm-.7 38.8h21.5v37.6h-21.5V108zm12.5 143.1h-5.4V250h5.4v1.1zm4.8-3.4h-5.4v-1.1h5.4v1.1zm4.6-3.3h-5.4v-1.1h5.4v1.1zm5.4-3h-5.4v-1.1h5.4v1.1zm27.4-3.1h-27.4v-13.6l-22.7 18.5v9.6h3v1.1H493v-1.1h1.2v-8.7l-5.2 4.3-.7-.9 6-4.9v-8.2l-5.2 4.3-.7-.9 17-13.9h-14.2V161h21.5v57l5.4-4.4v-.2h1.1v23.7h26.3v1.2zM715.7 224h-5.6l-11.7 9.5v8.2l22.7-18.5V215l-5.4 4.4v4.6z" />
  <path
    d="M745.2 72.4V60.5h1.9v-2.1H738V48h1.9v-2.1h-7.8V35h1.8v-2.1h-8v-9.1h1v-2.1h-7.7v-9.1h2v-2.1h-8.3V0h-17.2v10.4h-7.9v2.1h1.7v9.1h-7.6v2.1h1.1v9.1h-7.8V35h1.1v11H669v2h1.4v10.4h-8.6v2.1h2.2v11.9h-8.4v2.1h2.4V256h93.5V74.5h2.1v-2.1h-8.4zM685.4 224h-21.5v-62.9h21.5V224zm0-78.4h-21.5V108h21.5v37.6zm2.5-50.9h-15.5V69.2h15.5v25.5zm57.3 13.3v37.6h-21.5V108h21.5zm0 53.1v72.5h-21.5v-72.5h21.5zm-24-91.9h15.5v25.5h-15.5V69.2zm-24.4-32.9h16.3v22.1h-16.3V36.3zm-2.3 32.9h21v25.5h-21V69.2zm-.7 38.8h21.5v37.6h-21.5V108zm12.5 143.1h-5.4V250h5.4v1.1zm4.8-3.4h-5.4v-1.1h5.4v1.1zm4.6-3.3h-5.4v-1.1h5.4v1.1zm5.4-3h-5.4v-1.1h5.4v1.1zm27.4-3.1h-27.4v-13.6l-22.7 18.5v9.6h3v1.1H696v-1.1h1.2v-8.7l-5.2 4.3-.7-.9 6-4.9v-8.2l-5.2 4.3-.7-.9 17-13.9h-14.2V161h21.5v57l5.4-4.4v-.2h1.1v23.7h26.3v1.2zM651.3 189.3V134h2.1v-1.2h-2.1v-24.9H647c.7-1.7 1-3.6 1-5.6 0-7-4.6-12.9-10.9-15h.4V84h-2.9s-8-4.4-15-16.4c-4.4-7.7-4.2-17.1-4.2-17.1h2.2V48h-8.1c-.8-2.9-3.4-5-6.6-5-3.1 0-5.8 2.1-6.6 5h-8.1v2.6h2.1s1 8.4-5 18.2c-6.1 10-13.5 15.3-13.5 15.3h-3.7v3.3h1.1c-6.3 2.1-10.9 8-10.9 15 0 2 .4 3.8 1 5.6h-4.8v24.9h-2.1v1.2h2.1v55.3h-2.1v1.2h1.1V256h98.9v-65.4h.9v-1.2h-2v-.1zm-20.9-40.5V179h-22.1v-30.2h22.1zm-18.7-36.5h7.7v21.2h-7.7v-21.2zm-15.5-36h13.7v21.2h-13.7V76.3zm0 36h13.7v21.2h-13.7v-21.2zm-9.5 0h7.7v21.2h-7.7v-21.2zm-12.6 36.5h22.1V179h-22.1v-30.2zm45.3 97.9h-58.3v-28.9h58.3v28.9zm-37.5-34.6v-7.3h18.5v7.3h-18.5zm21.6 0v-7.3H622v7.3h-18.5zm24.8 39.1-7 .5v-33.9l7-.5v33.9zm15.4.5-14-.5v-33.9l14 .5v33.9zm0-39.6h-18.5v-7.3h18.5v7.3zm8.1-17.9H554v-3.6h97.7l.1 3.6zM72.4 101c0-2.2-1.8-4-4-4-2 0-3.6 1.4-4 3.3 0 0-8.2-.8-9.2-9.5-1-8.6 2.9-10.1 2.9-10.1v-6.9h1.6v-1.3H53c.1-.5.2-1 .2-1.5 0-2.9-2.4-5.2-5.3-5.2-.9 0-1.7.2-2.4.6.7-.7 1.1-1.7 1.1-2.8 0-2.2-1.8-4-4-4-1 0-2 .4-2.7 1 .7-.9 1.1-2 1.1-3.2 0-2.9-2.4-5.2-5.3-5.2s-5.3 2.3-5.3 5.2c0 1 .3 2 .8 2.8-.6-.4-1.3-.6-2.1-.6-2.2 0-4 1.8-4 4 0 1.1.4 2.1 1.1 2.8-.7-.4-1.5-.6-2.4-.6-2.9 0-5.3 2.3-5.3 5.2 0 .5.1 1 .2 1.5h-7.9v1.3h2.4v6.9s4.5 7.4 2.5 12.8c-1.6 4.5-6.8 6.7-8.6 7.3-.1-2.1-1.9-3.8-4-3.8-2.2 0-4 1.8-4 4 0 1.7 1 3.1 2.4 3.7l-2.4 1.7v1.4H.4V256h69.9V107.8H72v-1.4l-3.1-1.5c2.2-.4 3.5-2 3.5-3.9zm-33-40c-.1.1-.2.3-.3.4l-.1-.1c.2 0 .3-.2.4-.3zM27.6 80.7h16.5v21.7H27.6V80.7zM26 118.6h19.7v24.3H26v-24.3zm-19.1 0h16.5v24.3H6.9v-24.3zm0 35.2H32v30.5H6.9v-30.5zm18.3 86.5H6.9v-43.8h18.4v43.8zm17.3 13.3h-13v-38.7h13.1v38.7zm0-42.4h-13v-14.6h13.1v14.6zm21.7 29.1H45.8v-43.8h18.4v43.8zm.4-56H39.5v-30.5h25.1v30.5zm.5-41.4H48.6v-24.3h16.5v24.3zM134.7 224h-5.6l-11.7 9.5v8.2l22.7-18.5V215l-5.4 4.4v4.6z" />
  <path d="M164.2 72.4V60.5h1.9v-2.1H157V48h1.9v-2.1h-7.8V35h1.8v-2.1h-8v-9.1h1v-2.1h-7.7v-9.1h2v-2.1h-8.3V0h-17.2v10.4h-7.9v2.1h1.7v9.1h-7.6v2.1h1.1v9.1h-7.8V35h1.1v11H88v2h1.4v10.4h-8.6v2.1H83v11.9h-8.4v2.1H77V256h93.5V74.5h2.1v-2.1h-8.4zM104.4 224H82.8v-62.9h21.5V224zm0-78.4H82.8V108h21.5v37.6zm2.5-50.9H91.4V69.2h15.5v25.5zm57.3 13.3v37.6h-21.5V108h21.5zm0 53.1v72.5h-21.5v-72.5h21.5zm-24-91.9h15.5v25.5h-15.5V69.2zm-24.4-32.9h16.3v22.1h-16.3V36.3zm-2.3 32.9h21v25.5h-21V69.2zm-.7 38.8h21.5v37.6h-21.5V108zm12.5 143.1h-5.4V250h5.4v1.1zm4.8-3.4h-5.4v-1.1h5.4v1.1zm4.6-3.3h-5.4v-1.1h5.4v1.1zm5.4-3h-5.4v-1.1h5.4v1.1zm27.4-3.1h-27.4v-13.6l-22.7 18.5v9.6h3v1.1H115v-1.1h1.2v-8.7l-5.2 4.3-.7-.9 6-4.9v-8.2l-5.2 4.3-.7-.9 17-13.9h-14.2V161h21.5v57l5.4-4.4v-.2h1.1v23.7h26.3v1.2zM337.7 224h-5.6l-11.7 9.5v8.2l22.7-18.5V215l-5.4 4.4v4.6z" />
  <path
    d="M367.2 72.4V60.5h1.9v-2.1H360V48h1.9v-2.1h-7.8V35h1.8v-2.1h-8v-9.1h1v-2.1h-7.7v-9.1h2v-2.1h-8.3V0h-17.2v10.4h-7.9v2.1h1.7v9.1h-7.6v2.1h1.1v9.1h-7.8V35h1.1v11H291v2h1.4v10.4h-8.6v2.1h2.2v11.9h-8.4v2.1h2.4V256h93.5V74.5h2.1v-2.1h-8.4zM307.4 224h-21.5v-62.9h21.5V224zm0-78.4h-21.5V108h21.5v37.6zm2.5-50.9h-15.5V69.2h15.5v25.5zm57.3 13.3v37.6h-21.5V108h21.5zm0 53.1v72.5h-21.5v-72.5h21.5zm-24-91.9h15.5v25.5h-15.5V69.2zm-24.4-32.9h16.3v22.1h-16.3V36.3zm-2.3 32.9h21v25.5h-21V69.2zm-.7 38.8h21.5v37.6h-21.5V108zm12.5 143.1h-5.4V250h5.4v1.1zm4.8-3.4h-5.4v-1.1h5.4v1.1zm4.6-3.3h-5.4v-1.1h5.4v1.1zm5.4-3h-5.4v-1.1h5.4v1.1zm27.4-3.1h-27.4v-13.6l-22.7 18.5v9.6h3v1.1H318v-1.1h1.2v-8.7l-5.2 4.3-.7-.9 6-4.9v-8.2l-5.2 4.3-.7-.9 17-13.9h-14.2V161h21.5v57l5.4-4.4v-.2h1.1v23.7h26.3v1.2zM273.3 189.3V134h2.1v-1.2h-2.1v-24.9H269c.7-1.7 1-3.6 1-5.6 0-7-4.6-12.9-10.9-15h.4V84h-2.9s-8-4.4-15-16.4c-4.4-7.7-4.2-17.1-4.2-17.1h2.2V48h-8.1c-.8-2.9-3.4-5-6.6-5-3.1 0-5.8 2.1-6.6 5h-8.1v2.6h2.1s1 8.4-5 18.2c-6.1 10-13.5 15.3-13.5 15.3h-3.7v3.3h1.1c-6.3 2.1-10.9 8-10.9 15 0 2 .4 3.8 1 5.6h-4.8v24.9h-2.1v1.2h2.1v55.3h-2.1v1.2h1.1V256h98.9v-65.4h.9v-1.2h-2v-.1zm-20.9-40.5V179h-22.1v-30.2h22.1zm-18.7-36.5h7.7v21.2h-7.7v-21.2zm-15.5-36h13.7v21.2h-13.7V76.3zm0 36h13.7v21.2h-13.7v-21.2zm-9.5 0h7.7v21.2h-7.7v-21.2zm-12.6 36.5h22.1V179h-22.1v-30.2zm45.3 97.9h-58.3v-28.9h58.3v28.9zm-37.5-34.6v-7.3h18.5v7.3h-18.5zm21.6 0v-7.3H244v7.3h-18.5zm24.8 39.1-7 .5v-33.9l7-.5v33.9zm15.4.5-14-.5v-33.9l14 .5v33.9zm0-39.6h-18.5v-7.3h18.5v7.3zm8.1-17.9H176v-3.6h97.7l.1 3.6zM1029.3 189.3V134h2.1v-1.2h-2.1v-24.9h-4.3c.7-1.7 1-3.6 1-5.6 0-7-4.6-12.9-10.9-15h.4V84h-2.9s-8-4.4-15-16.4c-4.4-7.7-4.2-17.1-4.2-17.1h2.2V48h-8.1c-.8-2.9-3.4-5-6.6-5-3.1 0-5.8 2.1-6.6 5h-8.1v2.6h2.1s1 8.4-5 18.2c-6.1 10-13.5 15.3-13.5 15.3h-3.7v3.3h1.1c-6.3 2.1-10.9 8-10.9 15 0 2 .4 3.8 1 5.6h-4.8v24.9h-2.1v1.2h2.1v55.3h-2.1v1.2h1.1V256h98.9v-65.4h.9v-1.2h-2v-.1zm-20.9-40.5V179h-22.1v-30.2h22.1zm-18.7-36.5h7.7v21.2h-7.7v-21.2zm-15.5-36h13.7v21.2h-13.7V76.3zm0 36h13.7v21.2h-13.7v-21.2zm-9.5 0h7.7v21.2h-7.7v-21.2zm-12.6 36.5h22.1V179h-22.1v-30.2zm45.3 97.9h-58.3v-28.9h58.3v28.9zm-37.5-34.6v-7.3h18.5v7.3h-18.5zm21.6 0v-7.3h18.5v7.3h-18.5zm24.8 39.1-7 .5v-33.9l7-.5v33.9zm15.4.5-14-.5v-33.9l14 .5v33.9zm0-39.6h-18.5v-7.3h18.5v7.3zm8.1-17.9H932v-3.6h97.7l.1 3.6zM828.4 101c0-2.2-1.8-4-4-4-2 0-3.6 1.4-4 3.3 0 0-8.2-.8-9.2-9.5-1-8.6 2.9-10.1 2.9-10.1v-6.9h1.6v-1.3H809c.1-.5.2-1 .2-1.5 0-2.9-2.4-5.2-5.3-5.2-.9 0-1.7.2-2.4.6.7-.7 1.1-1.7 1.1-2.8 0-2.2-1.8-4-4-4-1 0-2 .4-2.7 1 .7-.9 1.1-2 1.1-3.2 0-2.9-2.4-5.2-5.3-5.2s-5.3 2.3-5.3 5.2c0 1 .3 2 .8 2.8-.6-.4-1.3-.6-2.1-.6-2.2 0-4 1.8-4 4 0 1.1.4 2.1 1.1 2.8-.7-.4-1.5-.6-2.4-.6-2.9 0-5.3 2.3-5.3 5.2 0 .5.1 1 .2 1.5h-7.9v1.3h2.4v6.9s4.5 7.4 2.5 12.8c-1.6 4.5-6.8 6.7-8.6 7.3-.1-2.1-1.9-3.8-4-3.8-2.2 0-4 1.8-4 4 0 1.7 1 3.1 2.4 3.7l-2.4 1.7v1.4h1.3V256h69.9V107.8h1.7v-1.4l-3.1-1.5c2.2-.4 3.5-2 3.5-3.9zm-33-40c-.1.1-.2.3-.3.4l-.1-.1c.2 0 .3-.2.4-.3zm-11.8 19.7h16.5v21.7h-16.5V80.7zm-1.6 37.9h19.7v24.3H782v-24.3zm-19.1 0h16.5v24.3h-16.5v-24.3zm0 35.2H788v30.5h-25.1v-30.5zm18.3 86.5h-18.4v-43.8h18.4v43.8zm17.3 13.3h-13.1v-38.7h13.1v38.7zm0-42.4h-13.1v-14.6h13.1v14.6zm21.7 29.1h-18.4v-43.8h18.4v43.8zm.4-56h-25.1v-30.5h25.1v30.5zm.5-41.4h-16.5v-24.3h16.5v24.3zM890.7 224h-5.6l-11.7 9.5v8.2l22.7-18.5V215l-5.4 4.4v4.6z" />
  <path
    d="M920.2 72.4V60.5h1.9v-2.1H913V48h1.9v-2.1h-7.8V35h1.8v-2.1h-8v-9.1h1v-2.1h-7.7v-9.1h2v-2.1h-8.3V0h-17.2v10.4h-7.9v2.1h1.7v9.1h-7.6v2.1h1.1v9.1h-7.8V35h1.1v11H844v2h1.4v10.4h-8.6v2.1h2.2v11.9h-8.4v2.1h2.4V256h93.5V74.5h2.1v-2.1h-8.4zM860.4 224h-21.5v-62.9h21.5V224zm0-78.4h-21.5V108h21.5v37.6zm2.5-50.9h-15.5V69.2h15.5v25.5zm57.3 13.3v37.6h-21.5V108h21.5zm0 53.1v72.5h-21.5v-72.5h21.5zm-24-91.9h15.5v25.5h-15.5V69.2zm-24.4-32.9h16.3v22.1h-16.3V36.3zm-2.3 32.9h21v25.5h-21V69.2zm-.7 38.8h21.5v37.6h-21.5V108zm12.5 143.1h-5.4V250h5.4v1.1zm4.8-3.4h-5.4v-1.1h5.4v1.1zm4.6-3.3h-5.4v-1.1h5.4v1.1zm5.4-3h-5.4v-1.1h5.4v1.1zm27.4-3.1h-27.4v-13.6l-22.7 18.5v9.6h3v1.1H871v-1.1h1.2v-8.7l-5.2 4.3-.7-.9 6-4.9v-8.2l-5.2 4.3-.7-.9 17-13.9h-14.2V161h21.5v57l5.4-4.4v-.2h1.1v23.7h26.3v1.2zM1337.8 99.8l-33-20.8h-3.1V67.4h-9.3V79h-42.8v-9h-6.3c.6-.6.9-1.3.9-2.1 0-1.1-.8-2.2-2.1-3V44.3c1.2-1.5 2-3.2 2-5.1 0-1.2-.3-2.4-.9-3.5h.1s-.1-.2-.4-.4c-.4-.7-.9-1.3-1.5-2-2.4-3.1-6.2-8.6-6.9-12.4-1-5.7-.8-20.8-3.3-20.8s-2.7 16.5-3.6 20.8c-.8 3.8-4.3 8.8-6.6 11.9-.9.8-1.7 1.8-2.3 2.8-.6 1.1-.9 2.3-.9 3.5 0 2 .8 3.8 2.2 5.3v20.4c-1.3.9-2.1 1.9-2.1 3 0 .7.3 1.4.9 2.1h-6.3v8.7h-36.9V67.4h-9.3v11.3h-3.6l-33.4 21.1h-13.9l7.7 3.4V256h219.5V103.4h.6l8.2-3.6h-13.6zm-184.4 141.8H1137v-21.3h16.4v21.3zm0-36H1137V173h16.4v32.6zm0-54.7H1137v-26.2h16.4v26.2zm29.5 90.7h-16.4v-21.3h16.4v21.3zm0-36h-16.4V173h16.4v32.6zm0-54.7h-16.4v-26.2h16.4v26.2zm29.6 95.6h-16.4v-18c0-4.5 3.7-8.2 8.2-8.2 4.5 0 8.2 3.7 8.2 8.2v18zm0-40.9h-16.4V173h16.4v32.6zm0-54.7h-16.4v-26.2h16.4v26.2zm13.1-26.2h16.4v26.2h-16.4v-26.2zm16.5 122h-16.4v-18c0-4.5 3.7-8.2 8.2-8.2 4.5 0 8.2 3.7 8.2 8.2v18zm1.5-37h-16.4V181c0-4.5 3.7-8.2 8.2-8.2s8.2 3.7 8.2 8.2v28.7zm41.1-85h16.4v26.2h-16.4v-26.2zm-13.1 122h-16.4v-18c0-4.5 3.7-8.2 8.2-8.2s8.2 3.7 8.2 8.2v18zm0-41.1h-16.4V173h16.4v32.6zm0-54.7h-16.4v-26.2h16.4v26.2zm13.1 22.1h16.4v32.6h-16.4V173zm17.2 68.6h-16.4v-21.3h16.4v21.3zm12.4-116.9h16.4v26.2h-16.4v-26.2zm0 48.3h16.4v32.6h-16.4V173zm17.2 68.6H1315v-21.3h16.4v21.3z" />
</svg>