<svg xmlns="http://www.w3.org/2000/svg" viewBox="0 0 2048 256">
      <path fill="none" stroke="#efefef" stroke-miterlimit="10" stroke-width="2"
            d="M186 232.7h46.1v-21.3l8.6-26.4h-8.6l-.1-5h10.8l6.8-25.9-.9-2.3-23.1 26.4-4.6-6 25.8-22.1 2.9-11.3-26.5-27.8 6-5.8 23 28.8 6.8 1.3 29.8-30.1 4.1 5.9-30.3 26.1 1.8 10.7 19.8 21h4.3l12.4-31.1 9.7 28.9h3.6V162l3.6-.3v-4.1l3.6.4v-3.9l4.9.1v4.1l3.6-.3v4.1l3.6-.3v5h2.4l2.5-23.3h1.8l2.5 11.4 3.7-1s6.3-6.4 6.4-11.8-.6-7.9-.6-7.9h10.1s-1.2.7-.4 7.2c.8 6.6 7.6 14 7.6 14l2.8-15.1 12.3-8.6 11 7.5 14.5-81.6 13.8 81.8 5.8-.1 1.2 26.4h11s-2.4 4.4 0 7.8 10.6 2.5 10.6 2.5v10.4l48.8-2-1-27.6 14.6-40.2 10.8 38.4 1.6 13.8 15.8-.7 3.1-12.3 4.3 11.6 15 1v-12.6l12.6-37.9 12.1 36.4 1.3 14-.1 15.9h48.5l.4-8.2s2.9 1.8 5-3.1 4.5-11.2 4.5-11.2h13.5s1.6 5 3.8 9.4 6.8 6 6.8 6V56.8l7.1-1.2V40.2l7.3-.5 7-9.4 6.7 9.4 7.4.5v15.4l7.6 1.2v42l2.7.1V84.6s16.6-1.9 28.7-1.9 30.3 2 30.3 2v129.9l5.1-53.3 3.5-6.9 3.4 6 2.4 44.5 3.9-.5 1.8-39.6 9.1-15.6 6.4 9.6 11.9.1 2.3-8.7 3.8.2 1.3 8.1 29.8.5 1.5-8.8 3.9.1 2.3 7.9 12.9-.2 3.5-28.9s4.9-10 12.2-8.8c7.3 1.3 10.2 7.6 10.2 7.6l4 28.3 12.8 1.3 2.2-8.2h3.7l2.3 9.5 29.3-1.9 2.4-8.8h4.9l.9 10.7 12.5-.7 4.9-12.8 4.9.2 7.3 16.3 1.2 47.7h4.9l-1.1-23.1 2.4-1.3V65.5l3.5-.4V47.9l6.5-4 .5-13.5 12-4.7-8.9-2.1-.3-2.4 10.9-1.3 2.4-17.6h2.3l2.6 17.6 10.9 1.3v3.5l-10 .6 13.7 6v13.6l5.8 2.8v18.1l4 .6-1.2 129.9h.9l.7-34.2 8.1-.3-.4-16.2 5.3-.2v-16l6.1-.3-1.3-15.4 5.9-.9.3-15.1 6.9.2V85.8h11.4l-.1 10.5 5 .2v16.1l6.2-.4V129l5.9-.5v16.8l5.4-.1v17.7l2 .2v-17.6l4.7.1v-17.9h6l.3-15.1 5.6.2-.8-10.4h9.7v10.4l4.9.1-.4 13.3 7.6.5-.1 17.4 7.5.2V158l6.1 1.4v16.4l4.9-.1 1.2 23.9 4.4-.5-1-141.5 69.4-.6.1 59.7-36.1-.1v22.6l36.7-1.1v46.1s9-3.6 9-9.8v-13.6l3.7-.2v9.6l11.2.3-.2-11.1h3.7s-2.4 10 2.4 15.1c4.9 5 3.7 20.4 3.7 20.4l32.8 1.5-.1-57.1h8.5l.5-11.6h10.4l-.1 11.2 8 .3v33.1s6.9-17.4 13.5-17c6.6.4 15 14.5 15 14.5v-24.7l7.5-.7v-13.6h9.7v12.9l9.9 1.2.2 74.9s21.5-1.4 37.4-1.4 43.1 1.4 43.1 1.4l-1-95.4 12.7-46.6 4.9 45.2 3.7 42.7 8.5-8.8 8.7 10h19.1l7.5-10 5.9 9.1 12.9.3 3.7 64 81.4-.8" />
      <path fill="#efefef"
            d="M1384.3 175.1h-4.4s-3.2-8.4-17.2-8.4-18.1 8.5-18.1 8.5h-5.2v19.2h-7.3v-12.2h3.7l-24.9-26.8v-7.5l1.9-.1s-.7-5.4-6.2-5.4-6.2 5.4-6.2 5.4l1.9.2-.2 7.6-25 26.8h3.9s.2 17 0 16.9c-1.7-.9-1.8-5.2-1.8-5.2l-2.9-.1s.2-8.4-9.8-8.4-10.9 8.4-10.9 8.4l-3 .1s-.1 3.7-1.9 5.3h-.3l-7.8-13.4-1.5-.8h-19.4l-1.6.9-6.1 12.5-1.6.9h-5.6V192l2.3-.1-8.2-13.8-1.5-.8h-20.2l-1.5.9-5.7 9v-12.8h-7.4v-5.2h-6.6v-5.8h-6.9v-5.7h-10.8v5.6h-6.9v5.8h-6.6v5.3h-7.4v13.9l-24.3-21.9-30.1 24.3v-28.3h-17.3v-13.3h-47.1v12.4h-16v10.4h-7.4v-5.4h-6.8v-6h-7.1v-5.8h-11.2v5.9h-7.2v5.9H938v5.4h-7.7v13.2l-5.8-9.3-1.5-.9h-20.8l-1.6.9-8.5 14.3 2.4.1v7.6h-5.8l-1.6-.9-6.3-12.9-1.6-.9h-20l-1.5.8-8 13.9h-3.2v-22.9h2.4l-6.5-24.5-1.3-.3-3-.8s-3.7-1.3-3.9.2c-.2-2.4-.8-4.1-4.4-4.7s-4.9 4.6-4.9 5.3c0-.6-4.4 0-4.4 0l-2 .1-1.8 1.4-6 23.4h2.9v28.9l-2.4-8.4-1.3-1.1h-4.5l-1.9 1.8-2.3 7.8v-48.3h3.7l-3.9-9.8-2.5-15.6-1.4-1.4h-17l-6.1-5.5-5.8 5.5H764l-3.7 19.8-3 7.1h2.7l-.2 40.1H753v-19.3h-4.4s-3.2-8.4-17.2-8.4-18.1 8.5-18.1 8.5h-5.2v19.2h-7.3v-12.2h3.7L679.6 151v-7.5l1.9-.1s-.7-5.4-6.2-5.4-6.2 5.4-6.2 5.4l1.9.2-.2 7.6-25 32.8h3.9s.2 17 0 16.9c-1.7-.9-1.8-5.2-1.8-5.2l-2.9-.1s.2-8.4-9.8-8.4-10.9 8.4-10.9 8.4l-3 .1s-.1 3.7-1.8 5.3h-4.8l-7.8-13.4-1.5-.8H586l-1.6.9-6.1 12.5-1.6.9h-5.6v-7.3l2.3-.1-8.2-13.8-1.5-.8h-20.2l-1.5.9-5.7 9v-12.8h-7.4V171h-6.6v-5.8h-6.9v-5.7h-10.8v5.6h-6.9v5.8H491v5.3h-2.8v-56.9h-15.5c-.3-6.6-6.9-11.9-14.9-11.9s-14.6 5.3-14.9 11.9H428V193l-28.4-25.5-30.1 24.3v-28.3h-17.3v-13.3h-47.1v12.4h-16V173h-7.4v-5.4h-6.9v-6h-7.1v-5.8h-11.2v5.9h-7.2v5.9h-6.8v5.4h-7.6v13.2l-5.8-9.3-1.5-.9h-20.9l-1.6.9-8.5 14.3 2.4.2v7.6h-5.8l-1.6-.9-6.3-12.9-1.6-.9h-20l-1.5.8-8 13.9h-5.8v53.9l1668.7-.4V194h-7.6v-19.3h-4.4s-3.2-8.4-17.2-8.4-18.1 8.5-18.1 8.5h-5.2V194h-7.3v-12.2h3.7l-24.9-32.7v-7.5l1.9-.1s-.7-5.4-6.2-5.4-6.2 5.4-6.2 5.4l1.9.2-.2 7.6-25 32.8h3.9s.2 17 0 16.9c-1.7-.9-1.8-5.2-1.8-5.2l-2.9-.1s.2-8.4-9.8-8.4-10.9 8.4-10.9 8.4h-1v-22.5h-7.7v-5.4h-6.8v-6h-7.1V154H1647v5.9h-7.2v5.9h-6.8v5.4h-7.7V184l-5.8-9.3-1.5-.9h-20.8l-1.6.9-8.5 14.3 2.4.1v7.6h-5.8l-1.6-.9-6.3-12.9-1.6-.9h-20l-1.5.8-8 13.9h-5V191l-16.1-25.9-16.5 23.8-14.8-23.8-16.3 23.5-14.6-23.5-14.4 20.7v-29.1h-15.6c-.3-4.6-6.9-8.3-14.9-8.3s-14.6 3.7-14.9 8.3h-16.9l.7 17.9" />
      <path fill="none" stroke="#E8E8E8" stroke-miterlimit="10" stroke-width="4" d="M0 254h2048" />
      <path fill="#efefef"
            d="M161.9 213.7c0-4-2.5-7.4-6-8.6v-.4c0-5-3.6-9-8.1-9-1.9 0-3.7.8-5.1 2-1.2-.6-2.5-1-3.9-1-4.7 0-8.6 4.1-8.9 9.3-4.6 1.1-8.1 5.7-8.1 11.2 0 6.3 4.5 11.3 10.1 11.5 0 .2-.1.3-.1.5 0 2.5 2 4.5 4.5 4.5.9 0 1.8-.3 2.5-.8v17.8h6v-18.6c1 .4 2 .6 3.1.6 5 0 9.1-4.2 9.1-9.5 0-.5 0-.9-.1-1.4 2.9-1.5 4.9-4.6 5-8.1zm-22.7 11.9v.1s-.1-.1 0-.1c-.1 0-.1 0 0 0zm5.4-11.3z" />
      <path fill="#efefef"
            d="M126.9 216.7c0-4-2.5-7.4-6-8.6v-.4c0-5-3.6-9-8.1-9-1.9 0-3.7.8-5.1 2-1.2-.6-2.5-1-3.9-1-4.7 0-8.6 4.1-8.9 9.3-4.6 1.1-8.1 5.7-8.1 11.2 0 6.3 4.5 11.3 10.1 11.5 0 .2-.1.3-.1.5 0 2.5 2 4.5 4.5 4.5.9 0 1.8-.3 2.5-.8v17.8h6v-18.6c1 .4 2 .6 3.1.6 5 0 9.1-4.2 9.1-9.5 0-.5 0-.9-.1-1.4 2.9-1.5 4.9-4.6 5-8.1zm-22.7 11.9v.1s-.1-.1 0-.1c-.1 0-.1 0 0 0zm5.4-11.3z" />
      <path fill="#efefef"
            d="M96.3 222.7c0-3.4-2.1-6.2-5-7.2v-.4c0-4.2-3-7.5-6.7-7.5-1.6 0-3.1.6-4.2 1.7-1-.5-2.1-.8-3.2-.8-3.9 0-7.2 3.4-7.5 7.8-3.9.9-6.8 4.8-6.8 9.4 0 5.2 3.8 9.5 8.4 9.6v.4c0 2.1 1.7 3.8 3.8 3.8.8 0 1.5-.2 2.1-.6v14.9h5v-15.5c.8.3 1.7.5 2.6.5 4.2 0 7.6-3.6 7.6-7.9 0-.4 0-.8-.1-1.2 2.4-1.4 4-4 4-7zm-19 10v.1-.1zm4.6-9.5c0 .1 0 .1 0 0 0 .1 0 0 0 0zm1772-5.5c0-4-2.5-7.4-6-8.6v-.4c0-5-3.6-9-8.1-9-1.9 0-3.7.8-5.1 2-1.2-.6-2.5-1-3.9-1-4.7 0-8.6 4.1-8.9 9.3-4.6 1.1-8.1 5.7-8.1 11.2 0 6.3 4.5 11.3 10.1 11.5 0 .2-.1.3-.1.5 0 2.5 2 4.5 4.5 4.5.9 0 1.8-.3 2.5-.8v17.8h6v-18.6c1 .4 2 .6 3.1.6 5 0 9.1-4.2 9.1-9.5 0-.5 0-.9-.1-1.4 2.9-1.5 4.9-4.6 5-8.1zm-22.7 11.9v.1s-.1-.1 0-.1c-.1 0-.1 0 0 0zm5.4-11.3zm76.3-6c0-4.4-2.2-8.1-5.3-9.4v-.5c0-5.4-3.2-9.8-7.1-9.8-1.7 0-3.2.8-4.4 2.2-1-.7-2.2-1.1-3.4-1.1-4.1 0-7.5 4.5-7.8 10.1-4 1.2-7.1 6.2-7.1 12.2 0 6.8 3.9 12.4 8.8 12.5 0 .2-.1.4-.1.6 0 2.7 1.8 4.9 3.9 4.9.8 0 1.6-.3 2.2-.8v19.4h5.2v-20.3c.8.4 1.8.6 2.7.6 4.4 0 8-4.6 8-10.4 0-.5 0-1-.1-1.5 2.7-1.5 4.5-4.8 4.5-8.7zm-19.9 13v.1-.1zm4.8-12.3z" />
      <path fill="#efefef"
            d="M1882.3 222.1c0-3.4-2.1-6.2-5-7.2v-.4c0-4.2-3-7.5-6.7-7.5-1.6 0-3.1.6-4.2 1.7-1-.5-2.1-.8-3.2-.8-3.9 0-7.2 3.4-7.5 7.8-3.9.9-6.8 4.8-6.8 9.4 0 5.2 3.8 9.5 8.4 9.6v.4c0 2.1 1.7 3.8 3.8 3.8.8 0 1.5-.2 2.1-.6v14.9h5v-15.5c.8.3 1.7.5 2.6.5 4.2 0 7.6-3.6 7.6-7.9 0-.4 0-.8-.1-1.2 2.3-1.4 4-4 4-7zm-19 10v.1-.1zm4.6-9.4zm60 5c0-2.5-1.6-4.7-3.8-5.4v-.3c0-3.1-2.3-5.7-5.1-5.7-1.2 0-2.3.5-3.2 1.3-.7-.4-1.6-.6-2.4-.6-3 0-5.4 2.6-5.6 5.9-2.9.7-5.1 3.6-5.1 7.1 0 3.9 2.8 7.2 6.3 7.2v.3c0 1.6 1.3 2.8 2.8 2.8.6 0 1.1-.2 1.6-.5V251h3.8v-11.7c.6.2 1.3.4 2 .4 3.2 0 5.7-2.7 5.7-6 0-.3 0-.6-.1-.9 1.8-.9 3.1-2.8 3.1-5.1zm-14.4 7.5s0 .1 0 0c0 .1 0 .1 0 0 0 .1 0 0 0 0zm3.5-7.1z" />
</svg>