<svg xmlns="http://www.w3.org/2000/svg" viewBox="0 0 2048 256">
  <path
    d="M592.8 157.1h-3V186h4l10.1-17.5 1.9-1.1H631l2 1.1 7.9 16.3 2 1.1h7.3v-9.5l-3-.2 10.7-18 2-1.1h26.3l1.9 1.1 7.4 11.7v-16.6h9.6v-6.8h8.5V139h9v-7.4H737v7.3h9v7.5h8.6v6.9h9.4v-13.2h20.2v-15.6h59.3v16.8h21.8V177l29.1-18 25.6 14.9.5 82-787.1-.3V158h8.5v-6.6h8.4v-7.3h8.7V137h13.7v7.2h8.8v7.2h8.3v6.6h9.3v16.1l7.1-11.3 1.9-1.1h25.4l1.9 1.1 10.4 17.4-3 .2v9.2h7.1l2-1.1 7.7-15.8 2-1.1H286l1.9 1 9.8 16.9h6c2.2-2 2.3-6.7 2.3-6.7l3.8-.2s1-10.6 13.7-10.6 12.4 10.6 12.4 10.6l3.7.2s.2 5.4 2.3 6.6c.3.2 0-21.3 0-21.3H337l31.5-41.3.2-9.6-2.4-.3s.8-6.8 7.8-6.8 7.9 6.8 7.9 6.8l-2.4.2v9.4l31.4 41.3h-4.6v15.3h9.2v-24.2h6.6s5.2-10.8 22.9-10.8 21.7 10.7 21.7 10.7h5.6v24.4h8.2l.3-50.6h-3.4l3.8-8.9 4.6-24.9h5.3l7.4-6.9 7.7 6.9h21.4l1.8 1.8 3.2 19.7 4.9 12.3H533v60.8l2.9-9.8 2.4-2.2h5.7l1.6 1.4 3.1 10.6V157h-3.6l24.2-14.9 23.5 15zm368 98.6h192.1V151.8h3.8v-3.9h-3.7l-34.1-15.1v-7.6h-7.4l-.1 7.6h-37.8l-.2-7.6h-5.9l-.2-25.2-7.6-7.6V78.6h-4.9v13.8l-7.7 8.9v23.9h-6.3v7.6H1008v-7.6h-7.5v7.6l-32.8 13.8h-10.1v4.7h3.8z"
    fill="#efefef"/>
  <path d="M975.3 165.6h12.6v17.7h-12.6zm25.2 0h12.6v17.7h-12.6zm25.2 0h12.6v17.7h-12.6zm-50.4 34h12.6v22.7h-12.6zm75.6-34h12.6v17.7h-12.6zm25.2 0h12.6v17.7h-12.6zm25.2 0h12.6v17.7h-12.6zm25.2 0h12.6v17.7h-12.6zm-126 34h12.6v22.7h-12.6zm25.2 0h12.6v22.7h-12.6zm25.2 0h12.6v22.7h-12.6zm25.2 0h12.6v22.7h-12.6zm25.2 0h12.6v22.7h-12.6zm25.2 0h12.6v22.7h-12.6zm-151.2 31.5h12.6v17.6h-12.6zm25.2 0h12.6v17.6h-12.6zm25.2 0h12.6v17.6h-12.6z" fill="#f9f9f9" stroke="#F0F0F0"/>
  <path fill="#f9f9f9" d="M1050.9 230.5h12.6v25.2h-12.6z"/>
  <path d="M1076.1 231.1h12.6v17.6h-12.6zm25.2 0h12.6v17.6h-12.6zm25.2 0h12.6v17.6h-12.6z" fill="#f9f9f9" stroke="#F0F0F0"/>
  <path
    d="M1521.6 156.5h3v8.4l-.1 20.5h-4l-10.1-17.5-1.9-1.1h-25.2l-2 1.1-7.9 16.3-2 1.1h-7.3v-9.5l3.1-.2-10.7-18-2-1.1h-26.3l-1.9 1.1-7.4 11.7v-16.6h-9.6v-6.8h-8.5v-7.5h-9V131h-14.1v7.3h-9v7.5h-8.6v6.9h-9.4v-13.2h-20.2v-15.6h-59.3v16.8H1249v35.7l-29.1-18-25.6 14.9-.5 82 787.1-.3v-97.6h-8.5v-6.6h-8.3v-7.3h-8.7v-7.1h-13.7v7.2h-8.8v7.2h-8.3v6.6h-9.3v16.1l-7.1-11.3-1.9-1.1h-25.4l-1.9 1.1-10.4 17.4 3 .2v9.2h-7.1l-2-1.1-7.7-15.8-2-1.1h-24.4l-1.9 1-9.8 16.9h-6c-2.2-2-2.3-6.7-2.3-6.7l-3.8-.2s-1-10.6-13.7-10.6-12.4 10.6-12.4 10.6l-3.7.2s-.2 5.4-2.3 6.6c-.3.2 0-21.3 0-21.3h4.9l-31.5-41.3-.2-9.6 2.4-.3s-.8-6.8-7.8-6.8-7.9 6.8-7.9 6.8l2.4.2v9.4l-31.3 41.3h4.6v15.3h-9.2v-24.2h-6.6s-5.2-10.8-22.9-10.8-21.7 10.7-21.7 10.7h-5.6v24.4h-8.2l-.3-50.6h3.4l-3.8-8.9-4.6-24.9h-5.3l-7.4-6.9-7.7 6.9h-21.4l-1.8 1.8-3.2 19.7-4.9 12.3h4.6v60.8l-2.9-9.8-2.4-2.2h-5.7l-1.6 1.4-3.1 10.6v-36.4h3.6l-24.2-14.9-23.6 15zM139 204.5c0-5.6-3.5-10.3-8.3-11.9v-.6c0-6.9-5-12.5-11.2-12.5-2.7 0-5.1 1-7 2.8-1.6-.9-3.5-1.4-5.4-1.4-6.5 0-11.9 5.7-12.4 12.9-6.4 1.6-11.2 7.9-11.2 15.6 0 8.7 6.2 15.7 13.9 15.9 0 .2-.1.5-.1.7 0 3.4 2.8 6.2 6.2 6.2 1.3 0 2.5-.4 3.5-1.1v24.6h8.3v-25.8c1.3.5 2.8.8 4.3.8 7 0 12.6-5.9 12.6-13.2 0-.7-.1-1.3-.2-1.9 4.2-1.9 7-6.1 7-11.1zM107.5 221v.2-.2c0 .1 0 0 0 0zm7.6-15.6z"
    fill="#efefef"/>
  <path d="M88.5 218.3c0-4-2.5-7.4-6-8.6v-.4c0-5-3.6-9-8.1-9-1.9 0-3.7.8-5.1 2-1.2-.6-2.5-1-3.9-1-4.7 0-8.6 4.1-8.9 9.3-4.6 1.1-8.1 5.7-8.1 11.2 0 6.3 4.5 11.3 10.1 11.5 0 .2-.1.3-.1.5 0 2.5 2 4.5 4.5 4.5.9 0 1.8-.3 2.5-.8v17.8h6v-18.6c1 .4 2 .6 3.1.6 5 0 9.1-4.3 9.1-9.5 0-.5 0-.9-.1-1.4 3-1.4 5-4.5 5-8.1zm-22.7 11.9v.1-.1c0 .1 0 0 0 0zm5.5-11.3c0 .1 0 .1 0 0 0 .1-.1.1 0 0-.1.1 0 .1 0 0z" fill="#efefef"/>
  <path
    d="M58 224.4c0-3.4-2.1-6.2-5-7.2v-.4c0-4.2-3-7.5-6.7-7.5-1.6 0-3.1.6-4.2 1.7-1-.5-2.1-.8-3.3-.8-3.9 0-7.2 3.4-7.5 7.8-3.9.9-6.8 4.8-6.8 9.4 0 5.2 3.7 9.5 8.4 9.6v.4c0 2.1 1.7 3.8 3.8 3.8.8 0 1.5-.2 2.1-.6v14.9h5V240c.8.3 1.7.5 2.6.5 4.2 0 7.6-3.6 7.6-7.9 0-.4 0-.8-.1-1.2 2.4-1.5 4.1-4 4.1-7zm-19 9.9v.1-.1c-.1.1 0 0 0 0zm4.6-9.4c-.1 0-.1 0 0 0-.1 0-.1 0 0 0zM2036.3 204c0-5.6-3.5-10.3-8.3-11.9v-.6c0-6.9-5-12.5-11.2-12.5-2.7 0-5.1 1-7 2.8-1.6-.9-3.5-1.4-5.4-1.4-6.5 0-11.9 5.7-12.4 12.9-6.4 1.6-11.2 7.9-11.2 15.6 0 8.7 6.2 15.7 13.9 15.9 0 .2-.1.5-.1.7 0 3.4 2.8 6.2 6.2 6.2 1.3 0 2.5-.4 3.5-1.1v24.6h8.3v-25.8c1.3.5 2.8.8 4.3.8 7 0 12.6-5.9 12.6-13.2 0-.7-.1-1.3-.2-1.9 4.2-1.8 7-6.1 7-11.1zm-31.5 16.5v.2-.2c0 .1 0 .1 0 0zm7.6-15.6c0 .1 0 .1 0 0 0 .1 0 0 0 0zm-817.6 14.2c0-4-2.5-7.4-6-8.6v-.4c0-5-3.6-9-8.1-9-1.9 0-3.7.8-5.1 2-1.2-.6-2.5-1-3.9-1-4.7 0-8.6 4.1-8.9 9.3-4.6 1.1-8.1 5.7-8.1 11.2 0 6.3 4.5 11.3 10.1 11.5 0 .2-.1.3-.1.5 0 2.5 2 4.5 4.5 4.5.9 0 1.8-.3 2.5-.8v17.8h6v-18.6c1 .4 2 .6 3.1.6 5 0 9.1-4.3 9.1-9.5 0-.5 0-.9-.1-1.4 3-1.4 5-4.5 5-8.1zm-22.7 11.9v.1s-.1 0 0-.1c-.1 0 0 0 0 0zm5.4-11.3s0 .1 0 0c0 .1 0 .1 0 0 0 .1 0 0 0 0zm-225.7 5.5c0-3.4-2.1-6.2-5-7.2v-.4c0-4.2-3-7.5-6.7-7.5-1.6 0-3.1.6-4.2 1.7-1-.5-2.1-.8-3.3-.8-3.9 0-7.2 3.4-7.5 7.8-3.9.9-6.8 4.8-6.8 9.4 0 5.2 3.7 9.5 8.4 9.6v.4c0 2.1 1.7 3.8 3.8 3.8.8 0 1.5-.2 2.1-.6v14.9h5v-15.5c.8.3 1.7.5 2.6.5 4.2 0 7.6-3.6 7.6-7.9 0-.4 0-.8-.1-1.2 2.4-1.5 4.1-4.1 4.1-7zm-19 9.9v.1-.1zm4.6-9.4z"
    fill="#efefef"/>
</svg>
