<svg xmlns="http://www.w3.org/2000/svg" viewBox="0 0 2048 256" fill="#E6E6E6">
  <path
    d="M1212.3 189.3V134h2.1v-1.2h-2.1v-24.9h-4.3c.7-1.7 1-3.6 1-5.6 0-7-4.6-12.9-10.9-15h.4V84h-2.9s-8-4.4-15-16.4c-4.4-7.7-4.2-17.1-4.2-17.1h2.2V48h-8.1c-.8-2.9-3.4-5-6.6-5-3.1 0-5.8 2.1-6.6 5h-8.1v2.6h2.1s1 8.4-5 18.2c-6.1 10-13.5 15.3-13.5 15.3h-3.7v3.3h1.1c-6.3 2.1-10.9 8-10.9 15 0 2 .4 3.8 1 5.6h-4.8v24.9h-2.1v1.2h2.1v55.3h-2.1v1.2h1.1V256h98.9v-65.4h.9v-1.2h-2v-.1zm-20.8-40.5V179h-22.1v-30.2h22.1zm-18.8-36.5h7.7v21.2h-7.7v-21.2zm-15.5-36h13.7v21.2h-13.7V76.3zm0 36h13.7v21.2h-13.7v-21.2zm-9.4 0h7.7v21.2h-7.7v-21.2zm-12.7 36.5h22.1V179h-22.1v-30.2zm45.3 97.9h-58.3v-28.9h58.3v28.9zm-37.5-34.6v-7.3h18.5v7.3h-18.5zm21.6 0v-7.3h18.5v7.3h-18.5zm24.9 39.1-7 .5v-33.9l7-.5v33.9zm15.3.5-14-.5v-33.9l14 .5v33.9zm0-39.6h-18.5v-7.3h18.5v7.3zm8.1-17.9h-97.7v-3.6h97.7v3.6zM1488.3 189.3V134h2.1v-1.2h-2.1v-24.9h-4.3c.7-1.7 1-3.6 1-5.6 0-7-4.6-12.9-10.9-15h.4V84h-2.9s-8-4.4-15-16.4c-4.5-7.7-4.2-17.1-4.2-17.1h2.2V48h-8.1c-.8-2.9-3.4-5-6.6-5-3.1 0-5.8 2.1-6.6 5h-8.1v2.6h2.1s1 8.4-5 18.2c-6.1 10-13.5 15.3-13.5 15.3h-3.7v3.3h1.1c-6.3 2.1-10.9 8-10.9 15 0 2 .4 3.8 1 5.6h-4.8v24.9h-2.1v1.2h2.1v55.3h-2.1v1.2h1.1V256h98.9v-65.4h.9v-1.2h-2v-.1zm-20.8-40.5V179h-22.1v-30.2h22.1zm-18.8-36.5h7.7v21.2h-7.7v-21.2zm-15.5-36h13.7v21.2h-13.7V76.3zm0 36h13.7v21.2h-13.7v-21.2zm-9.4 0h7.7v21.2h-7.7v-21.2zm-12.7 36.5h22.1V179h-22.1v-30.2zm45.3 97.9h-58.3v-28.9h58.3v28.9zm-37.5-34.6v-7.3h18.5v7.3h-18.5zm21.7 0v-7.3h18.5v7.3h-18.5zm24.8 39.1-7 .5v-33.9l7-.5v33.9zm15.3.5-14-.5v-33.9l14 .5v33.9zm0-39.6h-18.5v-7.3h18.5v7.3zm8.1-17.9h-97.7v-3.6h97.7v3.6z" />
  <path
    d="M1287.4 101c0-2.2-1.8-4-4-4-2 0-3.6 1.4-4 3.3 0 0-8.2-.8-9.2-9.5-1-8.6 2.9-10.1 2.9-10.1v-6.9h1.6v-1.3h-6.8c.1-.5.2-1 .2-1.5 0-2.9-2.4-5.2-5.3-5.2-.9 0-1.7.2-2.4.6.7-.7 1.1-1.7 1.1-2.8 0-2.2-1.8-4-4-4-1 0-2 .4-2.7 1 .7-.9 1.1-2 1.1-3.2 0-2.9-2.4-5.2-5.3-5.2s-5.3 2.3-5.3 5.2c0 1 .3 2 .8 2.8-.6-.4-1.3-.6-2.1-.6-2.2 0-4 1.8-4 4 0 1.1.4 2.1 1.1 2.8-.7-.4-1.5-.6-2.4-.6-2.9 0-5.3 2.3-5.3 5.2 0 .5.1 1 .2 1.5h-7.9v1.3h2.4v6.9s4.5 7.4 2.5 12.8c-1.6 4.5-6.8 6.7-8.6 7.3-.1-2.1-1.9-3.8-4-3.8s-4 1.8-4 4c0 1.7 1 3.1 2.4 3.7l-2.4 1.7v1.4h1.3V256h69.9V107.8h1.7v-1.4l-3.1-1.5c2.3-.4 3.6-2 3.6-3.9zm-32.9-40c-.1.1-.2.3-.3.4l-.1-.1c.1 0 .3-.2.4-.3zm-11.8 19.7h16.5v21.7h-16.5V80.7zm-1.6 37.9h19.7v24.3h-19.7v-24.3zm-19.2 0h16.5v24.3h-16.5v-24.3zm0 35.2h25.1v30.5h-25.1v-30.5zm18.4 86.5h-18.4v-43.8h18.4v43.8zm17.3 13.3h-13.1v-38.7h13.1v38.7zm0-42.4h-13.1v-14.6h13.1v14.6zm21.6 29.1h-18.4v-43.8h18.4v43.8zm.4-56h-25.1v-30.5h25.1v30.5zm.6-41.4h-16.5v-24.3h16.5v24.3zM1665.1 101c0-2.2-1.8-4-4-4-2 0-3.6 1.4-4 3.3 0 0-8.2-.8-9.2-9.5-1-8.6 2.9-10.1 2.9-10.1v-6.9h1.6v-1.3h-6.8c.1-.5.2-1 .2-1.5 0-2.9-2.3-5.2-5.3-5.2-.9 0-1.7.2-2.4.6.7-.7 1.1-1.7 1.1-2.8 0-2.2-1.8-4-4-4-1 0-2 .4-2.7 1 .7-.9 1.1-2 1.1-3.2 0-2.9-2.4-5.2-5.3-5.2s-5.3 2.3-5.3 5.2c0 1 .3 2 .8 2.8-.6-.4-1.3-.6-2.1-.6-2.2 0-4 1.8-4 4 0 1.1.4 2.1 1.1 2.8-.7-.4-1.5-.6-2.4-.6-2.9 0-5.3 2.3-5.3 5.2 0 .5.1 1 .2 1.5h-7.9v1.3h2.5v6.9s4.5 7.4 2.5 12.8c-1.6 4.5-6.8 6.7-8.6 7.3-.1-2.1-1.9-3.8-4-3.8-2.2 0-4 1.8-4 4 0 1.7 1 3.1 2.4 3.7l-2.4 1.7v1.4h1.3V256h69.9V107.8h1.7v-1.4l-3.1-1.5c2.2-.4 3.5-2 3.5-3.9zm-33-40c-.1.1-.2.3-.3.4l-.1-.1c.2 0 .3-.2.4-.3zm-11.8 19.7h16.5v21.7h-16.5V80.7zm-1.6 37.9h19.7v24.3h-19.7v-24.3zm-19.1 0h16.5v24.3h-16.5v-24.3zm0 35.2h25.1v30.5h-25.1v-30.5zm18.3 86.5h-18.4v-43.8h18.4v43.8zm17.3 13.3h-13.1v-38.7h13.1v38.7zm0-42.4h-13.1v-14.6h13.1v14.6zm21.6 29.1h-18.4v-43.8h18.4v43.8zm.5-56h-25.1v-30.5h25.1v30.5zm.5-41.4h-16.5v-24.3h16.5v24.3zM1349.8 224h-5.6l-11.7 9.5v8.2l22.7-18.5V215l-5.4 4.4v4.6z" />
  <path d="M1379.2 72.4V60.5h1.9v-2.1h-9.1V48h1.9v-2.1h-7.8V35h1.8v-2.1h-8v-9.1h1v-2.1h-7.7v-9.1h2v-2.1h-8.3V0h-17.2v10.4h-7.9v2.1h1.7v9.1h-7.6v2.1h1.1v9.1h-7.8V35h1.1v11h-7.2v2h1.4v10.4h-8.6v2.1h2.2v11.9h-8.4v2.1h2.4V256h93.5V74.5h2.1v-2.1h-8.5zM1319.4 224h-21.5v-62.9h21.5V224zm0-78.4h-21.5V108h21.5v37.6zm2.5-50.9h-15.5V69.2h15.5v25.5zm57.3 13.3v37.6h-21.5V108h21.5zm0 53.1v72.5h-21.5v-72.5h21.5zm-23.9-91.9h15.5v25.5h-15.5V69.2zm-24.4-32.9h16.3v22.1h-16.3V36.3zm-2.4 32.9h21v25.5h-21V69.2zm-.7 38.8h21.5v37.6h-21.5V108zm12.5 143.1h-5.4V250h5.4v1.1zm4.9-3.4h-5.3v-1.1h5.3v1.1zm4.6-3.3h-5.4v-1.1h5.4v1.1zm5.3-3h-5.3v-1.1h5.3v1.1zm27.4-3.1h-27.4v-13.6l-22.7 18.5v9.6h3v1.1h-5.3v-1.1h1.2v-8.7l-5.2 4.3-.7-.9 6-4.9v-8.2l-5.2 4.3-.7-.9 17-13.9h-14.2V161h21.5v57l5.4-4.4v-.2h1.1v23.7h26.3l-.1 1.2zM1552.4 224h-5.6l-11.7 9.5v8.2l22.6-18.5V215l-5.3 4.4v4.6z" />
  <path
    d="M1581.8 72.4V60.5h1.9v-2.1h-9.1V48h1.9v-2.1h-7.8V35h1.8v-2.1h-8v-9.1h1v-2.1h-7.7v-9.1h2v-2.1h-8.3V0h-17.2v10.4h-7.9v2.1h1.7v9.1h-7.6v2.1h1.1v9.1h-7.8V35h1.1v11h-7.2v2h1.4v10.4h-8.6v2.1h2.2v11.9h-8.4v2.1h2.4V256h93.5V74.5h2.1v-2.1h-8.5zM1522.1 224h-21.5v-62.9h21.5V224zm0-78.4h-21.5V108h21.5v37.6zm2.5-50.9H1509V69.2h15.5v25.5zm57.2 13.3v37.6h-21.5V108h21.5zm0 53.1v72.5h-21.5v-72.5h21.5zm-23.9-91.9h15.5v25.5h-15.5V69.2zm-24.4-32.9h16.3v22.1h-16.3V36.3zm-2.4 32.9h21v25.5h-21V69.2zm-.6 38.8h21.5v37.6h-21.5V108zm12.4 143.1h-5.3V250h5.3v1.1zm4.9-3.4h-5.4v-1.1h5.4v1.1zm4.6-3.3h-5.4v-1.1h5.4v1.1zm5.4-3h-5.3v-1.1h5.3v1.1zm27.4-3.1h-27.4v-13.6l-22.7 18.5v9.6h3v1.1h-5.4v-1.1h1.2v-8.7l-5.2 4.3-.7-.9 6-4.9v-8.2l-5.2 4.3-.7-.9 17-13.9h-14.2V161h21.5v57l5.4-4.4v-.2h1.1v23.7h26.3v1.2zM1765.8 189.3V134h2.1v-1.2h-2.1v-24.9h-4.3c.7-1.7 1-3.6 1-5.6 0-7-4.6-12.9-10.9-15h.4V84h-2.9s-8-4.4-15-16.4c-4.5-7.7-4.2-17.1-4.2-17.1h2.2V48h-8.1c-.8-2.9-3.5-5-6.6-5-3.1 0-5.8 2.1-6.6 5h-8.1v2.6h2.1s1 8.4-5 18.2c-6.1 10-13.5 15.3-13.5 15.3h-3.7v3.3h1.1c-6.3 2.1-10.9 8-10.9 15 0 2 .4 3.8 1 5.6h-4.8v24.9h-2.1v1.2h2.1v55.3h-2.1v1.2h1.1V256h98.9v-65.4h.9v-1.2h-2v-.1zm-20.8-40.5V179h-22.1v-30.2h22.1zm-18.8-36.5h7.7v21.2h-7.7v-21.2zm-15.5-36h13.7v21.2h-13.7V76.3zm0 36h13.7v21.2h-13.7v-21.2zm-9.4 0h7.7v21.2h-7.7v-21.2zm-12.7 36.5h22.1V179h-22.1v-30.2zm45.3 97.9h-58.3v-28.9h58.3v28.9zm-37.5-34.6v-7.3h18.5v7.3h-18.5zm21.7 0v-7.3h18.5v7.3h-18.5zm24.8 39.1-7 .5v-33.9l7-.5v33.9zm15.3.5-14-.5v-33.9l14 .5v33.9zm0-39.6h-18.5v-7.3h18.5v7.3zm8.1-17.9h-97.7v-3.6h97.7v3.6zM2041.8 189.3V134h2.1v-1.2h-2.1v-24.9h-4.3c.7-1.7 1-3.6 1-5.6 0-7-4.6-12.9-10.9-15h.4V84h-2.9s-8-4.4-15-16.4c-4.5-7.7-4.2-17.1-4.2-17.1h2.2V48h-8.1c-.8-2.9-3.4-5-6.6-5-3.1 0-5.8 2.1-6.6 5h-8.1v2.6h2.1s1 8.4-5 18.2c-6.1 10-13.5 15.3-13.5 15.3h-3.7v3.3h1.1c-6.3 2.1-10.9 8-10.9 15 0 2 .4 3.8 1 5.6h-4.8v24.9h-2.1v1.2h2.1v55.3h-2.1v1.2h1.1V256h98.9v-65.4h.9v-1.2h-2v-.1zm-20.8-40.5V179h-22.1v-30.2h22.1zm-18.8-36.5h7.7v21.2h-7.7v-21.2zm-15.5-36h13.7v21.2h-13.7V76.3zm0 36h13.7v21.2h-13.7v-21.2zm-9.4 0h7.7v21.2h-7.7v-21.2zm-12.7 36.5h22.1V179h-22.1v-30.2zm45.3 97.9h-58.3v-28.9h58.3v28.9zm-37.5-34.6v-7.3h18.5v7.3h-18.5zm21.7 0v-7.3h18.5v7.3h-18.5zm24.8 39.1-7 .5v-33.9l7-.5v33.9zm15.3.5-14-.5v-33.9l14 .5v33.9zm0-39.6h-18.5v-7.3h18.5v7.3zm8.1-17.9h-97.7v-3.6h97.7v3.6z" />
  <path
    d="M1840.9 101c0-2.2-1.8-4-4-4-2 0-3.6 1.4-4 3.3 0 0-8.2-.8-9.2-9.5-1-8.6 2.9-10.1 2.9-10.1v-6.9h1.6v-1.3h-6.8c.2-.5.2-1 .2-1.5 0-2.9-2.4-5.2-5.3-5.2-.9 0-1.7.2-2.4.6.7-.7 1.1-1.7 1.1-2.8 0-2.2-1.8-4-4-4-1 0-2 .4-2.7 1 .7-.9 1.1-2 1.1-3.2 0-2.9-2.3-5.2-5.3-5.2s-5.3 2.3-5.3 5.2c0 1 .3 2 .8 2.8-.6-.4-1.3-.6-2.1-.6-2.2 0-4 1.8-4 4 0 1.1.4 2.1 1.1 2.8-.7-.4-1.5-.6-2.4-.6-2.9 0-5.3 2.3-5.3 5.2 0 .5.1 1 .2 1.5h-7.9v1.3h2.4v6.9s4.5 7.4 2.5 12.8c-1.6 4.5-6.8 6.7-8.6 7.3-.1-2.1-1.9-3.8-4-3.8-2.2 0-4 1.8-4 4 0 1.7 1 3.1 2.4 3.7l-2.4 1.7v1.4h1.3V256h69.9V107.8h1.7v-1.4l-3.1-1.5c2.3-.4 3.6-2 3.6-3.9zM1808 61c-.1.1-.2.3-.3.4l-.1-.1c.1 0 .3-.2.4-.3zm-11.8 19.7h16.5v21.7h-16.5V80.7zm-1.6 37.9h19.7v24.3h-19.7v-24.3zm-19.2 0h16.5v24.3h-16.5v-24.3zm0 35.2h25.1v30.5h-25.1v-30.5zm18.4 86.5h-18.4v-43.8h18.4v43.8zm17.3 13.3H1798v-38.7h13.1v38.7zm0-42.4H1798v-14.6h13.1v14.6zm21.6 29.1h-18.4v-43.8h18.4v43.8zm.4-56H1808v-30.5h25.1v30.5zm.6-41.4h-16.5v-24.3h16.5v24.3zM1903.3 224h-5.6l-11.7 9.5v8.2l22.7-18.5V215l-5.4 4.4v4.6z" />
  <path
    d="M1932.7 72.4V60.5h1.9v-2.1h-9.1V48h1.9v-2.1h-7.8V35h1.8v-2.1h-8v-9.1h1v-2.1h-7.7v-9.1h2v-2.1h-8.3V0h-17.2v10.4h-7.9v2.1h1.7v9.1h-7.6v2.1h1.1v9.1h-7.8V35h1.1v11h-7.2v2h1.4v10.4h-8.6v2.1h2.2v11.9h-8.4v2.1h2.4V256h93.5V74.5h2.1v-2.1h-8.5zM1872.9 224h-21.5v-62.9h21.5V224zm0-78.4h-21.5V108h21.5v37.6zm2.5-50.9h-15.5V69.2h15.5v25.5zm57.3 13.3v37.6h-21.5V108h21.5zm0 53.1v72.5h-21.5v-72.5h21.5zm-23.9-91.9h15.5v25.5h-15.5V69.2zm-24.4-32.9h16.3v22.1h-16.3V36.3zm-2.4 32.9h21v25.5h-21V69.2zm-.7 38.8h21.5v37.6h-21.5V108zm12.5 143.1h-5.4V250h5.4v1.1zm4.9-3.4h-5.3v-1.1h5.3v1.1zm4.6-3.3h-5.4v-1.1h5.4v1.1zm5.3-3h-5.3v-1.1h5.3v1.1zm27.4-3.1h-27.4v-13.6l-22.7 18.5v9.6h3v1.1h-5.3v-1.1h1.2v-8.7l-5.2 4.3-.7-.9 6-4.9v-8.2l-5.2 4.3-.7-.9 17-13.9h-14.2V161h21.5v57l5.4-4.4v-.2h1.1v23.7h26.3l-.1 1.2zM105.3 189.3V134h2.1v-1.2h-2.1v-24.9H101c.7-1.7 1-3.6 1-5.6 0-7-4.6-12.9-10.9-15h.4V84h-2.9s-8-4.4-15-16.4c-4.4-7.7-4.2-17.1-4.2-17.1h2.2V48h-8.1c-.8-2.9-3.4-5-6.6-5s-5.8 2.1-6.6 5h-8.1v2.6h2.1s1 8.4-5 18.2C33.4 78.7 25.9 84 25.9 84h-3.7v3.3h1.1c-6.3 2.1-10.9 8-10.9 15 0 2 .4 3.8 1 5.6H8.5v24.9H6.4v1.2h2.1v55.3H6.4v1.2h1.1V256h98.9v-65.4h.9v-1.2h-2v-.1zm-20.8-40.5V179H62.4v-30.2h22.1zm-18.8-36.5h7.7v21.2h-7.7v-21.2zm-15.5-36h13.7v21.2H50.2V76.3zm0 36h13.7v21.2H50.2v-21.2zm-9.4 0h7.7v21.2h-7.7v-21.2zm-12.7 36.5h22.1V179H28.1v-30.2zm45.3 97.9H15.1v-28.9h58.3v28.9zm-37.5-34.6v-7.3h18.5v7.3H35.9zm21.6 0v-7.3H76v7.3H57.5zm24.9 39.1-7 .5v-33.9l7-.5v33.9zm15.3.5-14-.5v-33.9l14 .5v33.9zm0-39.6H79.1v-7.3h18.5v7.3zm8.1-17.9H8.1v-3.6h97.7v3.6zM381.3 189.3V134h2.1v-1.2h-2.1v-24.9H377c.7-1.7 1-3.6 1-5.6 0-7-4.6-12.9-10.9-15h.4V84h-2.9s-8-4.4-15-16.4c-4.4-7.7-4.2-17.1-4.2-17.1h2.2V48h-8.1c-.8-2.9-3.4-5-6.6-5-3.1 0-5.8 2.1-6.6 5h-8.1v2.6h2.1s1 8.4-5 18.2c-6.1 10-13.5 15.3-13.5 15.3h-3.7v3.3h1.1c-6.3 2.1-10.9 8-10.9 15 0 2 .4 3.8 1 5.6h-4.8v24.9h-2.1v1.2h2.1v55.3h-2.1v1.2h1.1V256h98.9v-65.4h.9v-1.2h-2v-.1zm-20.8-40.5V179h-22.1v-30.2h22.1zm-18.8-36.5h7.7v21.2h-7.7v-21.2zm-15.5-36h13.7v21.2h-13.7V76.3zm0 36h13.7v21.2h-13.7v-21.2zm-9.4 0h7.7v21.2h-7.7v-21.2zm-12.7 36.5h22.1V179h-22.1v-30.2zm45.3 97.9h-58.3v-28.9h58.3v28.9zm-37.5-34.6v-7.3h18.5v7.3h-18.5zm21.6 0v-7.3H352v7.3h-18.5zm24.9 39.1-7 .5v-33.9l7-.5v33.9zm15.3.5-14-.5v-33.9l14 .5v33.9zm0-39.6h-18.5v-7.3h18.5v7.3zm8.1-17.9h-97.7v-3.6h97.7v3.6z" />
  <path
    d="M180.4 101c0-2.2-1.8-4-4-4-2 0-3.6 1.4-4 3.3 0 0-8.2-.8-9.2-9.5-1-8.6 2.9-10.1 2.9-10.1v-6.9h1.6v-1.3H161c.1-.5.2-1 .2-1.5 0-2.9-2.4-5.2-5.3-5.2-.9 0-1.7.2-2.4.6.7-.7 1.1-1.7 1.1-2.8 0-2.2-1.8-4-4-4-1 0-2 .4-2.7 1 .7-.9 1.1-2 1.1-3.2 0-2.9-2.4-5.2-5.3-5.2s-5.3 2.3-5.3 5.2c0 1 .3 2 .8 2.8-.6-.4-1.3-.6-2.1-.6-2.2 0-4 1.8-4 4 0 1.1.4 2.1 1.1 2.8-.7-.4-1.5-.6-2.4-.6-2.9 0-5.3 2.3-5.3 5.2 0 .5.1 1 .2 1.5h-7.9v1.3h2.4v6.9s4.5 7.4 2.5 12.8c-1.6 4.5-6.8 6.7-8.6 7.3-.1-2.1-1.9-3.8-4-3.8-2.2 0-4 1.8-4 4 0 1.7 1 3.1 2.4 3.7l-2.4 1.7v1.4h1.3V256h69.9V107.8h1.7v-1.4l-3.1-1.5c2.2-.4 3.5-2 3.5-3.9zm-32.9-40c-.1.1-.2.3-.3.4l-.1-.1c.1 0 .3-.2.4-.3zm-11.9 19.7h16.5v21.7h-16.5V80.7zm-1.5 37.9h19.7v24.3h-19.7v-24.3zm-19.2 0h16.5v24.3h-16.5v-24.3zm0 35.2H140v30.5h-25.1v-30.5zm18.4 86.5h-18.4v-43.8h18.4v43.8zm17.3 13.3h-13.1v-38.7h13.1v38.7zm0-42.4h-13.1v-14.6h13.1v14.6zm21.6 29.1h-18.4v-43.8h18.4v43.8zm.4-56h-25.1v-30.5h25.1v30.5zm.6-41.4h-16.5v-24.3h16.5v24.3zM558.1 101c0-2.2-1.8-4-4-4-2 0-3.6 1.4-4 3.3 0 0-8.2-.8-9.2-9.5-1-8.6 2.9-10.1 2.9-10.1v-6.9h1.6v-1.3h-6.8c.1-.5.2-1 .2-1.5 0-2.9-2.4-5.2-5.3-5.2-.9 0-1.7.2-2.4.6.7-.7 1.1-1.7 1.1-2.8 0-2.2-1.8-4-4-4-1 0-2 .4-2.7 1 .7-.9 1.1-2 1.1-3.2 0-2.9-2.4-5.2-5.3-5.2s-5.3 2.3-5.3 5.2c0 1 .3 2 .8 2.8-.6-.4-1.3-.6-2.1-.6-2.2 0-4 1.8-4 4 0 1.1.4 2.1 1.1 2.8-.7-.4-1.5-.6-2.4-.6-2.9 0-5.3 2.3-5.3 5.2 0 .5.1 1 .2 1.5h-7.9v1.3h2.4v6.9s4.5 7.4 2.5 12.8c-1.6 4.5-6.8 6.7-8.6 7.3-.1-2.1-1.9-3.8-4-3.8-2.2 0-4 1.8-4 4 0 1.7 1 3.1 2.4 3.7l-2.4 1.7v1.4h1.3V256h69.9V107.8h1.7v-1.4l-3.1-1.5c2.3-.4 3.6-2 3.6-3.9zm-33-40c-.1.1-.2.3-.3.4l-.1-.1c.2 0 .3-.2.4-.3zm-11.8 19.7h16.5v21.7h-16.5V80.7zm-1.6 37.9h19.7v24.3h-19.7v-24.3zm-19.2 0H509v24.3h-16.5v-24.3zm0 35.2h25.1v30.5h-25.1v-30.5zm18.4 86.5h-18.4v-43.8h18.4v43.8zm17.3 13.3h-13.1v-38.7h13.1v38.7zm0-42.4h-13.1v-14.6h13.1v14.6zm21.6 29.1h-18.4v-43.8h18.4v43.8zm.5-56h-25.1v-30.5h25.1v30.5zm.5-41.4h-16.5v-24.3h16.5v24.3zM242.8 224h-5.6l-11.7 9.5v8.2l22.7-18.5V215l-5.4 4.4v4.6z" />
  <path d="M272.2 72.4V60.5h1.9v-2.1H265V48h1.9v-2.1h-7.8V35h1.8v-2.1h-8v-9.1h1v-2.1h-7.7v-9.1h2v-2.1h-8.3V0h-17.2v10.4h-7.9v2.1h1.7v9.1h-7.6v2.1h1.1v9.1h-7.8V35h1.1v11H196v2h1.4v10.4h-8.6v2.1h2.2v11.9h-8.4v2.1h2.4V256h93.5V74.5h2.1v-2.1h-8.4zM212.4 224h-21.5v-62.9h21.5V224zm0-78.4h-21.5V108h21.5v37.6zm2.5-50.9h-15.5V69.2h15.5v25.5zm57.3 13.3v37.6h-21.5V108h21.5zm0 53.1v72.5h-21.5v-72.5h21.5zm-24-91.9h15.5v25.5h-15.5V69.2zm-24.3-32.9h16.3v22.1h-16.3V36.3zm-2.4 32.9h21v25.5h-21V69.2zm-.7 38.8h21.5v37.6h-21.5V108zm12.5 143.1h-5.4V250h5.4v1.1zm4.9-3.4h-5.4v-1.1h5.4v1.1zm4.6-3.3h-5.4v-1.1h5.4v1.1zm5.3-3h-5.4v-1.1h5.4v1.1zm27.4-3.1h-27.4v-13.6l-22.7 18.5v9.6h3v1.1H223v-1.1h1.2v-8.7l-5.2 4.3-.7-.9 6-4.9v-8.2l-5.2 4.3-.7-.9 17-13.9h-14.2V161h21.5v57l5.4-4.4v-.2h1.1v23.7h26.3v1.2zM445.4 224h-5.6l-11.7 9.5v8.2l22.7-18.5V215l-5.4 4.4v4.6z" />
  <path
    d="M474.8 72.4V60.5h1.9v-2.1h-9.1V48h1.9v-2.1h-7.8V35h1.8v-2.1h-8v-9.1h1v-2.1h-7.7v-9.1h2v-2.1h-8.3V0h-17.2v10.4h-7.9v2.1h1.7v9.1h-7.6v2.1h1.1v9.1h-7.8V35h1.1v11h-7.3v2h1.4v10.4h-8.6v2.1h2.2v11.9h-8.4v2.1h2.4V256H481V74.5h2.1v-2.1h-8.3zM415.1 224h-21.5v-62.9h21.5V224zm0-78.4h-21.5V108h21.5v37.6zm2.5-50.9H402V69.2h15.5v25.5zm57.2 13.3v37.6h-21.5V108h21.5zm0 53.1v72.5h-21.5v-72.5h21.5zm-23.9-91.9h15.5v25.5h-15.5V69.2zm-24.4-32.9h16.3v22.1h-16.3V36.3zm-2.4 32.9h21v25.5h-21V69.2zm-.6 38.8H445v37.6h-21.5V108zm12.4 143.1h-5.4V250h5.4v1.1zm4.9-3.4h-5.4v-1.1h5.4v1.1zm4.6-3.3H440v-1.1h5.4v1.1zm5.4-3h-5.4v-1.1h5.4v1.1zm27.4-3.1h-27.4v-13.6l-22.7 18.5v9.6h3v1.1h-5.4v-1.1h1.2v-8.7l-5.2 4.3-.7-.9 6-4.9v-8.2l-5.2 4.3-.7-.9 17-13.9h-14.2V161h21.5v57l5.4-4.4v-.2h1.1v23.7h26.3v1.2zM658.8 189.3V134h2.1v-1.2h-2.1v-24.9h-4.3c.7-1.7 1-3.6 1-5.6 0-7-4.6-12.9-10.9-15h.4V84h-2.9s-8-4.4-15-16.4c-4.4-7.7-4.2-17.1-4.2-17.1h2.2V48H617c-.8-2.9-3.4-5-6.6-5-3.1 0-5.8 2.1-6.6 5h-8.1v2.6h2.1s1 8.4-5 18.2c-6.1 10-13.5 15.3-13.5 15.3h-3.7v3.3h1.1c-6.3 2.1-10.9 8-10.9 15 0 2 .4 3.8 1 5.6H562v24.9h-2.1v1.2h2.1v55.3h-2.1v1.2h1.1V256h99v-65.4h.9v-1.2h-2.1v-.1zM638 148.8V179h-22.1v-30.2H638zm-18.8-36.5h7.7v21.2h-7.7v-21.2zm-15.5-36h13.7v21.2h-13.7V76.3zm0 36h13.7v21.2h-13.7v-21.2zm-9.4 0h7.7v21.2h-7.7v-21.2zm-12.7 36.5h22.1V179h-22.1v-30.2zm45.3 97.9h-58.3v-28.9h58.3v28.9zm-37.5-34.6v-7.3H608v7.3h-18.6zm21.6 0v-7.3h18.5v7.3H611zm24.9 39.1-7 .5v-33.9l7-.5v33.9zm15.3.5-14-.5v-33.9l14 .5v33.9zm0-39.6h-18.5v-7.3h18.5v7.3zm8.1-17.9h-97.7v-3.6h97.7v3.6zM934.8 189.3V134h2.1v-1.2h-2.1v-24.9h-4.3c.7-1.7 1-3.6 1-5.6 0-7-4.6-12.9-10.9-15h.4V84h-2.9s-8-4.4-15-16.4c-4.4-7.7-4.2-17.1-4.2-17.1h2.2V48H893c-.8-2.9-3.4-5-6.6-5-3.1 0-5.8 2.1-6.6 5h-8.1v2.6h2.1s1 8.4-5 18.2c-6.1 10-13.5 15.3-13.5 15.3h-3.7v3.3h1.1c-6.3 2.1-10.9 8-10.9 15 0 2 .4 3.8 1 5.6H838v24.9h-2.1v1.2h2.1v55.3h-2.1v1.2h1.1V256h99v-65.4h.9v-1.2h-2.1v-.1zM914 148.8V179h-22.1v-30.2H914zm-18.8-36.5h7.7v21.2h-7.7v-21.2zm-15.5-36h13.7v21.2h-13.7V76.3zm0 36h13.7v21.2h-13.7v-21.2zm-9.4 0h7.7v21.2h-7.7v-21.2zm-12.7 36.5h22.1V179h-22.1v-30.2zm45.3 97.9h-58.3v-28.9h58.3v28.9zm-37.5-34.6v-7.3H884v7.3h-18.6zm21.6 0v-7.3h18.5v7.3H887zm24.9 39.1-7 .5v-33.9l7-.5v33.9zm15.3.5-14-.5v-33.9l14 .5v33.9zm0-39.6h-18.5v-7.3h18.5v7.3zm8.1-17.9h-97.7v-3.6h97.7v3.6z" />
  <path
    d="M733.9 101c0-2.2-1.8-4-4-4-2 0-3.6 1.4-4 3.3 0 0-8.2-.8-9.2-9.5-1-8.6 2.9-10.1 2.9-10.1v-6.9h1.6v-1.3h-6.8c.1-.5.2-1 .2-1.5 0-2.9-2.4-5.2-5.3-5.2-.9 0-1.7.2-2.4.6.7-.7 1.1-1.7 1.1-2.8 0-2.2-1.8-4-4-4-1 0-2 .4-2.7 1 .7-.9 1.1-2 1.1-3.2 0-2.9-2.4-5.2-5.3-5.2s-5.3 2.3-5.3 5.2c0 1 .3 2 .8 2.8-.6-.4-1.3-.6-2.1-.6-2.2 0-4 1.8-4 4 0 1.1.4 2.1 1.1 2.8-.7-.4-1.5-.6-2.4-.6-2.9 0-5.3 2.3-5.3 5.2 0 .5.1 1 .2 1.5h-7.9v1.3h2.4v6.9s4.5 7.4 2.5 12.8c-1.6 4.5-6.8 6.7-8.6 7.3-.1-2.1-1.9-3.8-4-3.8-2.2 0-4 1.8-4 4 0 1.7 1 3.1 2.4 3.7l-2.4 1.7v1.4h1.3V256h69.9V107.8h1.7v-1.4l-3.1-1.5c2.3-.4 3.6-2 3.6-3.9zM701 61c-.1.1-.2.3-.3.4l-.1-.1c.1 0 .3-.2.4-.3zm-11.8 19.7h16.5v21.7h-16.5V80.7zm-1.6 37.9h19.7v24.3h-19.7v-24.3zm-19.2 0h16.5v24.3h-16.5v-24.3zm0 35.2h25.1v30.5h-25.1v-30.5zm18.4 86.5h-18.4v-43.8h18.4v43.8zm17.3 13.3H691v-38.7h13.1v38.7zm0-42.4H691v-14.6h13.1v14.6zm21.6 29.1h-18.4v-43.8h18.4v43.8zm.4-56H701v-30.5h25.1v30.5zm.6-41.4h-16.5v-24.3h16.5v24.3zM1111.6 101c0-2.2-1.8-4-4-4-2 0-3.6 1.4-4 3.3 0 0-8.2-.8-9.2-9.5-1-8.6 2.9-10.1 2.9-10.1v-6.9h1.6v-1.3h-6.8c.1-.5.2-1 .2-1.5 0-2.9-2.4-5.2-5.3-5.2-.9 0-1.7.2-2.4.6.7-.7 1.1-1.7 1.1-2.8 0-2.2-1.8-4-4-4-1 0-2 .4-2.7 1 .7-.9 1.1-2 1.1-3.2 0-2.9-2.4-5.2-5.3-5.2s-5.3 2.3-5.3 5.2c0 1 .3 2 .8 2.8-.6-.4-1.3-.6-2.1-.6-2.2 0-4 1.8-4 4 0 1.1.4 2.1 1.1 2.8-.7-.4-1.5-.6-2.4-.6-2.9 0-5.3 2.3-5.3 5.2 0 .5.1 1 .2 1.5h-7.9v1.3h2.4v6.9s4.5 7.4 2.5 12.8c-1.6 4.5-6.8 6.7-8.6 7.3-.1-2.1-1.9-3.8-4-3.8-2.2 0-4 1.8-4 4 0 1.7 1 3.1 2.4 3.7l-2.4 1.7v1.4h1.3V256h69.9V107.8h1.7v-1.4l-3.1-1.5c2.3-.4 3.6-2 3.6-3.9zm-33-40c-.1.1-.2.3-.3.4l-.1-.1c.2 0 .3-.2.4-.3zm-11.8 19.7h16.5v21.7h-16.5V80.7zm-1.6 37.9h19.7v24.3h-19.7v-24.3zm-19.2 0h16.5v24.3H1046v-24.3zm0 35.2h25.1v30.5H1046v-30.5zm18.4 86.5H1046v-43.8h18.4v43.8zm17.3 13.3h-13.1v-38.7h13.1v38.7zm0-42.4h-13.1v-14.6h13.1v14.6zm21.6 29.1H1085v-43.8h18.4v43.8zm.5-56h-25.1v-30.5h25.1v30.5zm.5-41.4h-16.5v-24.3h16.5v24.3zM796.3 224h-5.6l-11.7 9.5v8.2l22.7-18.5V215l-5.4 4.4v4.6z" />
  <path d="M825.7 72.4V60.5h1.9v-2.1h-9.1V48h1.9v-2.1h-7.8V35h1.8v-2.1h-8v-9.1h1v-2.1h-7.7v-9.1h2v-2.1h-8.3V0h-17.2v10.4h-7.9v2.1h1.7v9.1h-7.6v2.1h1.1v9.1h-7.8V35h1.1v11h-7.3v2h1.4v10.4h-8.6v2.1h2.2v11.9h-8.4v2.1h2.4V256H832V74.5h2.1v-2.1h-8.4zM765.9 224h-21.5v-62.9h21.5V224zm0-78.4h-21.5V108h21.5v37.6zm2.5-50.9h-15.5V69.2h15.5v25.5zm57.3 13.3v37.6h-21.5V108h21.5zm0 53.1v72.5h-21.5v-72.5h21.5zm-24-91.9h15.5v25.5h-15.5V69.2zm-24.3-32.9h16.3v22.1h-16.3V36.3zM775 69.2h21v25.5h-21V69.2zm-.7 38.8h21.5v37.6h-21.5V108zm12.5 143.1h-5.4V250h5.4v1.1zm4.9-3.4h-5.4v-1.1h5.4v1.1zm4.6-3.3h-5.4v-1.1h5.4v1.1zm5.3-3h-5.4v-1.1h5.4v1.1zm27.4-3.1h-27.4v-13.6L779 243.2v9.6h3v1.1h-5.4v-1.1h1.2v-8.7l-5.2 4.3-.7-.9 6-4.9v-8.2l-5.2 4.3-.7-.9 17-13.9h-14.2V161h21.5v57l5.4-4.4v-.2h1.1v23.7H829v1.2zM998.9 224h-5.6l-11.7 9.5v8.2l22.7-18.5V215l-5.4 4.4v4.6z" />
  <path d="M1028.3 72.4V60.5h1.9v-2.1h-9.1V48h1.9v-2.1h-7.8V35h1.8v-2.1h-8v-9.1h1v-2.1h-7.7v-9.1h2v-2.1H996V0h-17.2v10.4h-7.9v2.1h1.7v9.1H965v2.1h1.1v9.1h-7.8V35h1.1v11h-7.3v2h1.4v10.4h-8.6v2.1h2.2v11.9h-8.4v2.1h2.4V256h93.5V74.5h2.1v-2.1h-8.4zM968.6 224H947v-62.9h21.5V224zm0-78.4H947V108h21.5v37.6zm2.5-50.9h-15.5V69.2h15.5v25.5zm57.2 13.3v37.6h-21.5V108h21.5zm0 53.1v72.5h-21.5v-72.5h21.5zm-23.9-91.9h15.5v25.5h-15.5V69.2zM980 36.3h16.3v22.1H980V36.3zm-2.4 32.9h21v25.5h-21V69.2zM977 108h21.5v37.6H977V108zm12.4 143.1H984V250h5.4v1.1zm4.9-3.4H989v-1.1h5.4v1.1zm4.6-3.3h-5.4v-1.1h5.4v1.1zm5.4-3h-5.4v-1.1h5.4v1.1zm27.4-3.1h-27.4v-13.6l-22.7 18.5v9.6h3v1.1h-5.4v-1.1h1.2v-8.7l-5.2 4.3-.7-.9 6-4.9v-8.2l-5.2 4.3-.7-.9 17-13.9h-14.2V161h21.5v57l5.4-4.4v-.2h1.1v23.7h26.3v1.2z" />
</svg>