<svg width="344" height="193" xmlns="http://www.w3.org/2000/svg">
  <g fill="none" fill-rule="evenodd">
    <path d="M0 0h344v193H0z"/>
    <path d="M182.813 185.466c-1.444 1.905-3.113 3.13-4.601 3.13-2.346 0-1.76-1.406-5.188-1.406-2.346 0-2.752 1.588-5.548 1.044-.857-.181-2.526-1.044-4.15-3.04 2.3-.862 3.879-2.631 3.879-4.718 0-.998-.316-1.905-.992-2.767 1.308-1.634 1.263-3.812-.09-5.581 2.66-3.267.09-6.67-3.564-7.758 1.128-.635 2.48-.907 4.015-.817 1.894.091 3.067 1.135 5.277 1.86-.857-2.223 0-5.353 2.075-6.805 1.218-.59 2.842.5 1.804 1.634-.36.317-2.165 2.404-.857 5.58 3.022.181 4.105-1.951 6.722-1.724 1.127.09 2.21.363 3.157 1.134-3.653.635-6.901 4.265-4.962 8.03-.586 1.18-.496 2.54.136 3.811-3.112 3.13-1.038 7.258 2.887 8.393Z" fill="#EC0000"/>
    <path d="M267.813 101.466c-1.444 1.905-3.113 3.13-4.601 3.13-2.346 0-1.76-1.406-5.188-1.406-2.346 0-2.752 1.588-5.548 1.044-.857-.181-2.526-1.044-4.15-3.04 2.3-.862 3.879-2.631 3.879-4.718 0-.998-.316-1.905-.992-2.767 1.308-1.634 1.263-3.812-.09-5.581 2.66-3.267.09-6.67-3.564-7.758 1.128-.635 2.48-.907 4.015-.817 1.894.091 3.067 1.135 5.277 1.86-.857-2.223 0-5.353 2.075-6.805 1.218-.59 2.842.5 1.804 1.634-.36.317-2.165 2.404-.857 5.58 3.022.181 4.105-1.951 6.722-1.724 1.127.09 2.21.363 3.157 1.134-3.653.635-6.901 4.265-4.962 8.03-.586 1.18-.496 2.54.136 3.811-3.112 3.13-1.038 7.258 2.887 8.393Z" fill="#000"/>
    <g fill="#000">
      <path d="M154.722 161.597h-21.594c-.542 0-.981.482-.981 1.076 0 .595.44 1.077.981 1.077h21.594c.542 0 .981-.482.981-1.077 0-.594-.439-1.076-.981-1.076ZM149.147 135.597h-10c-.553 0-1 .482-1 1.076v3.231h12v-3.23c0-.595-.448-1.077-1-1.077ZM155.703 169.158c0-.565-.439-1.023-.981-1.023h-21.594c-.542 0-.981.458-.981 1.023v16.37c0 1.694 1.318 3.069 2.944 3.069h17.668c1.626 0 2.944-1.375 2.944-3.07v-16.369ZM154.722 164.904h-21.594c-.542 0-.981.482-.981 1.077s.44 1.077.981 1.077h21.594c.542 0 .981-.482.981-1.077s-.439-1.077-.981-1.077ZM132.295 156.27a.99.99 0 0 0 .858.48h21.545a.99.99 0 0 0 .858-.48.993.993 0 0 0 .073-.9l-8.078-10.586a3.059 3.059 0 0 1-.622-1.846v-2.341h-6.007v2.34a3.059 3.059 0 0 1-.624 1.848l-8.076 10.585a.993.993 0 0 0 .073.9ZM154.722 158.289h-21.594c-.542 0-.981.482-.981 1.077s.44 1.077.981 1.077h21.594c.542 0 .981-.482.981-1.077s-.439-1.077-.981-1.077Z"/>
    </g>
    <path d="M122.987 169.68c0-4.105-3.265-7.388-7.346-7.388-2.067 0-3.917.82-5.223 2.189-1.306-1.368-3.156-2.19-5.223-2.19-4.08 0-7.345 3.284-7.345 7.388a7.41 7.41 0 0 0 1.578 4.542l-.762 12.86c-.109 1.149.816 2.134 2.013 2.134h19.533c1.142 0 2.067-.985 2.013-2.134l-.762-12.86a7.468 7.468 0 0 0 1.524-4.542Z" fill="#000"/>
    <path d="M169.987 78.703c0-3.049-2.426-5.488-5.457-5.488-1.536 0-2.91.61-3.88 1.626-.97-1.016-2.344-1.626-3.88-1.626-3.031 0-5.456 2.439-5.456 5.488 0 1.26.444 2.439 1.172 3.374l-.566 9.553c-.081.853.606 1.585 1.495 1.585h14.51c.849 0 1.536-.732 1.496-1.585l-.566-9.553a5.547 5.547 0 0 0 1.132-3.374Z" fill="#EC0000"/>
    <path
      d="M88.792 159.03c-.429-3.271-2.139-8.135-2.504-9.237-.365-1.102-2.739-7.266-3.33-10.924-.523-3.23-.824-11.773-.857-12.753a.32.32 0 0 1 .043-.173l.031-.054a.328.328 0 0 0 .02-.285.325.325 0 0 1 .023-.292l.259-.425a.325.325 0 0 0 .043-.219l-.104-.68a.321.321 0 0 0-.07-.155l-.106-.132a.325.325 0 0 1-.07-.25c.029-.209.065-.617-.022-.965-.112-.454-.225-.487-.531-.684a.309.309 0 0 0-.174-.052h-3.826a.317.317 0 0 0-.172.05c-.307.198-.42.232-.532.685-.087.347-.05.756-.022.964a.324.324 0 0 1-.07.25l-.107.132a.331.331 0 0 0-.069.156l-.104.68a.325.325 0 0 0 .043.219l.26.425a.325.325 0 0 1 .023.293.325.325 0 0 0 .02.285l.03.054c.03.052.045.112.043.172-.033.98-.333 9.523-.856 12.753-.592 3.658-2.966 9.823-3.33 10.925-.366 1.102-2.076 5.966-2.505 9.237-.447 3.402-.404 15.924-.296 17.826.08 1.403.005 7.515.14 9.143.065.793.414 1.337.576 1.517.8.889 8.752 1.004 8.752 1.004s8.13-.115 8.93-1.003c.163-.18.512-.724.578-1.517.135-1.628.06-7.74.14-9.143.108-1.903.15-14.424-.297-17.826ZM237.792 104.24c-.429 3.271-2.139 8.135-2.504 9.237-.365 1.102-2.739 7.266-3.33 10.924-.523 3.23-.824 11.773-.857 12.753a.32.32 0 0 0 .043.173l.031.054c.05.086.057.192.02.285a.325.325 0 0 0 .023.292l.259.425c.04.065.055.143.043.219l-.104.68a.321.321 0 0 1-.07.155l-.106.132a.325.325 0 0 0-.07.25c.029.209.065.617-.022.965-.112.454-.225.487-.531.684a.309.309 0 0 1-.174.052h-3.826a.317.317 0 0 1-.172-.05c-.307-.198-.42-.232-.532-.685-.087-.347-.05-.756-.022-.964a.324.324 0 0 0-.07-.25l-.107-.132a.331.331 0 0 1-.069-.156l-.104-.68a.325.325 0 0 1 .043-.219l.26-.425a.325.325 0 0 0 .023-.293.325.325 0 0 1 .02-.285l.03-.054a.321.321 0 0 0 .043-.172c-.033-.98-.333-9.523-.856-12.753-.592-3.658-2.966-9.823-3.33-10.925-.366-1.102-2.076-5.966-2.505-9.237-.447-3.402-.404-15.924-.296-17.826.08-1.403.005-7.515.14-9.143.065-.793.414-1.337.576-1.517.8-.889 8.752-1.004 8.752-1.004s8.13.115 8.93 1.003c.163.18.512.724.578 1.517.135 1.628.06 7.74.14 9.143.108 1.903.15 14.424-.297 17.826ZM126.793 125.227l-9.062-4.477a10.387 10.387 0 0 1-8.07 3.826c-3.14 0-6.11-1.408-8.07-3.826l-9.062 4.546 1.867 9.09 4.889-1.773v21.522h20.752v-21.522l4.911 1.818 1.845-9.204Z"
      fill="#000"/>
    <path d="m274.793 139.658-9.062 4.477a10.387 10.387 0 0 0-8.07-3.826c-3.14 0-6.11 1.408-8.07 3.826l-9.062-4.545 1.867-9.09 4.889 1.772V110.75h20.752v21.522l4.911-1.818 1.845 9.204Z" fill="#EC0000"/>
    <g fill="#000">
      <path d="M229.586 163.827H193.18v24.77h36.406v-24.77Zm-10.618 7.74h-15.17v-3.095h15.17v3.096Z"/>
      <path d="m188.216 159.472 38.753-8.284 2.226 10.533-38.752 8.285z"/>
    </g>
    <path d="m54.952 161.59 1.314-18.433c1.741-.143 3.469-.258 5.21-.459-.285-2.67-.556-5.354-.842-8.025a155.448 155.448 0 0 1-35.792 0c-.285 2.67-.556 5.355-.842 8.025 1.685.201 3.37.301 5.054.445l1.313 18.446H24v5.384h2.684v21.547h5.34l2.341-18.849h16.732l2.342 18.834h5.354v-21.532h2.684v-5.384h-6.525Zm-5.43.007h-4.107v-18.148c1.78-.03 3.574-.073 5.354-.16l-1.247 18.308Zm-15.885-18.308c2.141.102 4.283.13 6.424.16v18.148h-4.953l-1.471-18.308Z" fill="#EC0000"/>
    <path d="m188.731 118.383-18.432-1.314c-.143-1.741-.258-3.469-.46-5.21-2.67.285-5.354.556-8.024.842a155.448 155.448 0 0 1 0 35.792c2.67.285 5.355.556 8.025.842.2-1.685.301-3.37.445-5.054l18.446-1.314v6.368h5.383v-2.684h21.547v-5.34l-18.848-2.341v-16.733l18.834-2.34v-5.355h-21.533v-2.684h-5.383v6.525Zm.007 5.43v4.107h-18.147c-.03-1.78-.073-3.574-.16-5.354l18.307 1.247Zm-18.307 15.885c.102-2.142.13-4.283.16-6.425h18.147v4.954l-18.307 1.471Z" fill="#000"/>
    <g stroke="#000">
      <path d="M257.493 149.981c10.015 0 18.136 8.167 18.136 18.376 0 10.073-8.12 18.24-18.136 18.24-10.15 0-18.27-8.167-18.27-18.24 0-10.209 8.12-18.376 18.27-18.376Z" stroke-width="5.706"/>
      <path d="M257.493 155.698c6.903 0 12.451 5.717 12.451 12.659 0 6.942-5.548 12.523-12.45 12.523-6.903 0-12.587-5.581-12.587-12.523 0-6.942 5.684-12.659 12.586-12.659Z" stroke-width="1.07"/>
      <path d="M257.493 163.32a5.01 5.01 0 0 1 5.008 5.037c0 2.722-2.3 5.036-5.008 5.036-2.842 0-5.007-2.314-5.007-5.036 0-2.859 2.165-5.036 5.007-5.036ZM257.522 163.32v-7.622M257.522 180.743v-7.486M262.5 168.385h7.445M252.35 168.385h-7.443M266.29 159.373l-5.278 5.31M248.697 159.373l5.278 5.31M266.29 177.204l-5.278-5.308M248.697 177.204l5.278-5.308" stroke-width="1.07"/>
    </g>
    <g stroke="#000">
      <path d="M69.493 72.981c10.015 0 18.136 8.167 18.136 18.376 0 10.073-8.12 18.24-18.136 18.24-10.15 0-18.27-8.167-18.27-18.24 0-10.209 8.12-18.376 18.27-18.376Z" stroke-width="5.706"/>
      <path d="M69.493 78.698c6.903 0 12.451 5.717 12.451 12.659 0 6.942-5.548 12.523-12.45 12.523-6.903 0-12.587-5.581-12.587-12.523 0-6.942 5.684-12.659 12.586-12.659Z" stroke-width="1.07"/>
      <path d="M69.493 86.32a5.01 5.01 0 0 1 5.008 5.037c0 2.722-2.3 5.036-5.008 5.036-2.842 0-5.007-2.314-5.007-5.036 0-2.859 2.165-5.036 5.007-5.036ZM69.522 86.32v-7.622M69.522 103.743v-7.486M74.5 91.385h7.445M64.35 91.385h-7.443M78.29 82.373l-5.278 5.31M60.697 82.373l5.278 5.31M78.29 100.204l-5.278-5.308M60.697 100.204l5.278-5.308" stroke-width="1.07"/>
    </g>
    <g fill="#000">
      <path d="M107.591 94.912c0-1.766.727-3.784 1.756-4.919-1.03-1.135-1.756-3.152-1.756-4.918 0-1.198.303-2.522.848-3.594h5.023c.545 1.072.848 2.396.848 3.594 0 1.766-.726 3.783-1.755 4.918 1.029 1.135 1.755 3.153 1.755 4.919 0 1.891-.848 4.161-2.058 5.17 1.21 1.009 2.058 3.279 2.058 5.17 0 .883-.182 1.766-.484 2.649-.908-.063-1.877-.063-2.906-.063-1.029 0-1.997.063-2.905.063-.302-.883-.484-1.766-.484-2.648 0-1.892.847-4.162 2.058-5.17-1.15-1.01-1.998-3.28-1.998-5.171M109.03 108.92c.567 0 1.198-.062 1.891-.062.694 0 1.261 0 1.891.062 8.07.31 10.214 2.725 10.214 3.468 0 .743-2.46 1.362-12.105 1.362-9.646 0-12.104-.619-12.104-1.362-.064-.681 2.08-3.097 10.213-3.468M116.535 49.996l14.45 24.186-37.043 11.444-1.405-28.216z"/>
    </g>
    <path
      d="m172.015 62.071-.324-.728-.186.083a.359.359 0 0 1-.292-.656l.186-.083-.908-2.04c-.39-.874-.123-1.254.679-1.611l3.246-1.445c.8-.357 1.263-.3 1.652.574l.908 2.04.186-.084a.359.359 0 0 1 .292.656l-.186.083.324.728s4.722 2.175 5.573 3.891c.408.778.766 1.58 1.07 2.404l8.595 19.305s.569 2.452-1.107 3.198c-1.675.746-2.161.44-3.764 1.153l-.623.277c-1.603.714-1.7 1.28-3.375 2.026-1.675.746-3.118-1.317-3.118-1.317l-8.595-19.305a20.362 20.362 0 0 1-1.07-2.404c-.706-1.78.837-6.745.837-6.745ZM138.058 126.566c.104.06.21.118.314.175l.066.034c.109.058.217.115.326.169.018.01.037.017.055.026.113.056.226.11.339.162l.042.018c.117.053.234.105.35.153l.04.015c.117.049.235.095.352.139l.035.012c.118.043.236.085.354.124l.033.01c.118.038.235.074.35.106l.031.008c.117.032.233.062.348.089l.034.007c.113.025.226.049.337.068l.043.007c.108.018.214.034.32.047l.06.005c.098.01.195.02.291.026l.082.001c.087.003.174.007.259.005.112-.002.22-.008.328-.018a7.368 7.368 0 0 0 .727-.12c.03-.006.057-.01.086-.017l-.001-.003.042-.01.102-.024c.147-.035.296-.073.447-.117l.09-.027c.868-.259 1.794-.639 2.723-1.061l.044-.02.4-.184v.001c.12-.056.237-.112.355-.169.1-.047.2-.094.3-.143.296-.141.587-.282.875-.421l.039-.019.381-.184.515-.248c.023-.012.046-.022.07-.033.239-.114.475-.225.702-.329.188-.086.371-.167.548-.242l.013-.006c.175-.074.344-.143.507-.206l.082-.03c.132-.049.261-.096.383-.136l.014-.005.013-.004c.15-.048.294-.09.429-.121 2.267-.537 4.262-.75 4.262-.75l-.188-.197-.005-.001-.004-.005c.027.008.042.007.042.007a4.453 4.453 0 0 1-.057-.021c-.27-.281-.543-.557-.807-.826-2.289-2.295-4.326-4.037-6.194-5.271a20.803 20.803 0 0 0-.813-.513l-.124-.072c-.187-.11-.373-.215-.557-.314l-.191-.103a14.859 14.859 0 0 0-1.223-.567 12.195 12.195 0 0 0-.71-.264 10.08 10.08 0 0 0-1.262-.334c-.261-.05-.52-.09-.777-.116l-.012-.001c-3.59-.365-6.763 1.64-10.445 5.555-2.217.523-3.042.714-3.042.714l.1 1.208a11.057 11.057 0 0 1 2.491-1.123c.017.102.04.205.068.308.006.03.016.06.022.09.013.054.025.108.04.163.013.045.029.09.043.136.019.055.037.11.058.167.017.045.036.09.055.135.024.057.047.114.074.171.021.045.044.09.067.134.03.058.058.116.09.174.024.044.051.089.077.133.035.059.069.117.106.176l.087.132.12.177.097.13c.044.06.088.119.134.178l.104.127c.049.06.097.12.149.18l.109.122c.054.06.107.12.163.18l.114.119.177.18.117.114.19.181.12.106c.067.061.135.122.204.182l.116.098c.074.061.147.123.223.184.036.03.074.058.11.087.08.063.159.125.24.186l.107.08c.084.061.168.124.254.184.032.024.066.046.099.069l.271.185.09.058c.096.063.191.125.288.185l.082.05c.1.06.2.121.302.18l.074.043ZM314.324 114.598c0-.12-.002-.24-.005-.36l-.004-.075c-.004-.122-.01-.245-.016-.366l-.005-.06c-.009-.126-.018-.251-.03-.375l-.005-.046a12.33 12.33 0 0 0-.043-.38l-.006-.041a10.994 10.994 0 0 0-.056-.374l-.007-.037a10.342 10.342 0 0 0-.07-.368l-.008-.034a8.893 8.893 0 0 0-.083-.357l-.009-.03a8.083 8.083 0 0 0-.097-.346l-.01-.033c-.035-.11-.071-.22-.11-.326l-.016-.04a6.538 6.538 0 0 0-.118-.3l-.026-.056c-.04-.09-.08-.179-.124-.264-.012-.025-.026-.048-.04-.072a4.098 4.098 0 0 0-.305-.501 7.368 7.368 0 0 0-.467-.57c-.02-.023-.037-.044-.058-.066l-.001.002-.03-.031-.072-.077c-.104-.11-.211-.219-.325-.328l-.068-.065c-.658-.622-1.45-1.235-2.28-1.827l-.04-.029c-.12-.085-.238-.17-.359-.254-.107-.076-.215-.15-.323-.224l-.274-.189-.802-.546-.036-.024-.35-.238c-.159-.108-.319-.216-.472-.322l-.063-.044c-.22-.15-.433-.299-.637-.444-.168-.12-.33-.238-.484-.354l-.01-.008a15.763 15.763 0 0 1-.433-.336l-.066-.056a9.377 9.377 0 0 1-.31-.264l-.011-.01-.01-.008a5.657 5.657 0 0 1-.32-.311c-1.598-1.695-2.78-3.316-2.78-3.316l-.077.26.001.006a.16.16 0 0 1-.001.006c-.007-.028-.015-.04-.015-.04l.01.06c-.109.374-.21.748-.312 1.112-.843 3.13-1.333 5.764-1.468 8l-.007.127c-.016.284-.027.562-.031.833v.143c-.002.218 0 .43.007.64.002.072.003.146.006.217a14.859 14.859 0 0 0 .12 1.342 12.193 12.193 0 0 0 .127.748c.084.41.188.801.312 1.174l.03.085c.086.252.182.495.288.73l.004.012c1.48 3.29 4.803 5.036 10.034 6.268a856.562 856.562 0 0 1 2.139 2.277l.997-.69c-.799-.429-1.533-.97-2.219-1.596.08-.066.158-.137.233-.213.023-.02.045-.043.067-.064a3.31 3.31 0 0 0 .12-.116c.034-.034.065-.07.097-.106.04-.043.078-.086.116-.133l.09-.115c.037-.05.075-.098.11-.15.03-.04.056-.083.084-.125.035-.054.07-.108.105-.165l.077-.133c.033-.06.067-.118.099-.18l.07-.14c.032-.065.064-.128.094-.194l.064-.148c.03-.068.06-.136.087-.206l.059-.153c.027-.072.054-.144.08-.218l.052-.157.075-.23.045-.159c.023-.08.047-.161.068-.243l.04-.158c.02-.085.042-.17.061-.256l.033-.156c.02-.089.038-.178.055-.269.01-.05.018-.1.026-.149l.05-.284c.006-.047.012-.094.02-.14.014-.1.028-.2.04-.3l.015-.132c.012-.104.024-.208.034-.313l.01-.12c.009-.109.018-.218.024-.328l.006-.107c.006-.114.012-.227.016-.341 0-.032 0-.064.002-.096.002-.117.005-.235.005-.352v-.085ZM288.74 97.932s-.68-1.133-.81-2.071l-1.825-13.019s.443-.079.347-.446l-.194-.69s.41.042.335-.314c0 0-.098-.992-1.015-1.057h-2.928c-.917.064-1.014 1.057-1.014 1.057-.076.356.334.313.334.313l-.193.69c-.097.368.346.447.346.447l-1.825 13.019c-.13.938-.809 2.071-.809 2.071-1.675 1.376-1.715 3.399-1.715 3.399v17.154c0 2.978 1.295 2.848 1.295 2.848h4.078l.967.002.968-.001h4.078s1.295.129 1.295-2.849v-17.154s-.04-2.023-1.716-3.399ZM45.212 128.46s-1.133-.68-2.071-.81l-13.019-1.825s-.079.443-.446.347l-.69-.194s.042.41-.314.335c0 0-.992-.098-1.058-1.015v-2.928c.065-.917 1.058-1.014 1.058-1.014.356-.076.313.334.313.334l.69-.193c.368-.096.447.346.447.346l13.019-1.825c.938-.13 2.071-.809 2.071-.809 1.376-1.675 3.399-1.715 3.399-1.715h17.154c2.977 0 2.848 1.295 2.848 1.295v4.078l.001.967v5.046s.129 1.295-2.849 1.295H48.611s-2.023-.04-3.399-1.715Z"
      fill="#000"/>
    <path fill="#000" d="M128.647 108v-3.765h3.765v-7.529h5.647V44h5.647l3.765 52.706h47.058L198.294 44h5.647v52.706h5.647v7.529h3.765V108z"/>
    <path
      d="M153.001 53.992c.01-.21.245-2.041 5.425-2.041.115 0 .233 0 .353.002 1.957.031 3.247.273 4.101.58l.009-.144c.007-.124.019-.307.013-.38a.903.903 0 0 0-.112-.072c-.146-.084-.417-.24-.426-.584-.005-.201.107-.369.206-.517.024-.036.06-.09.081-.126a2.078 2.078 0 0 0-.079-.086c-.133-.138-.336-.348-.267-.636.041-.171.183-.313.347-.478.052-.052.135-.136.17-.18a1.613 1.613 0 0 0-.04-.224c-.046-.21-.098-.447 0-.656.08-.172.273-.257.538-.375.061-.027.153-.068.213-.1.004-.063.002-.158.001-.222-.004-.244-.008-.474.106-.643.14-.206.405-.282.64-.35.073-.02.18-.05.226-.073.024-.046.056-.155.077-.223.06-.205.123-.417.288-.545.164-.126.395-.152.652-.13.045.004.09.008.134.008.04 0 .057-.005.056-.003.026-.02.076-.109.106-.162.088-.154.197-.345.417-.426.185-.068.425-.011.613.047.064.02.16.049.182.05.04-.009.154-.069.23-.108.186-.098.361-.19.555-.195.289 0 .434.144.52.23.05.05.066.065.106.077.008.003.102.001.176-.006.23-.026.439-.01.596.095.102.069.166.182.263.354.037.066.1.178.142.235.045.01.12.02.173.027.21.027.426.056.565.195.198.197.169.498.146.74-.005.044-.01.085-.01.118.03.04.097.107.143.154.173.175.337.34.361.55.026.227-.125.414-.27.596a3.8 3.8 0 0 0-.078.099l.045.066c.207.31.305.475.304.642 0 .272-.226.435-.39.554l-.08.057c.01.057.03.137.044.197.068.272.138.553-.032.753-.121.143-.317.206-.506.268l-.084.027c-.004.054-.007.12-.008.172-.009.225-.016.42-.101.561-.118.195-.343.203-.56.211-.04.002-.095.003-.143.007a5.79 5.79 0 0 0-.024.237c-.028.315-.049.543-.193.68-.17.16-.412.16-.529.16l-.163-.001h-.032c-.011.054-.022.118-.03.164-.05.284-.085.49-.252.598-.19.126-.473.063-.688-.014a2.99 2.99 0 0 0-.102-.035 5.88 5.88 0 0 0-.062.13c-.105.225-.197.42-.388.49a.44.44 0 0 1-.155.028c-.176 0-.329-.099-.463-.185l-.083-.053a3.82 3.82 0 0 0-.154.124c-.19.157-.353.293-.538.309a.828.828 0 0 1-.044.002c-.296 0-.447-.241-.527-.37l-.024-.039a2.009 2.009 0 0 1-.143.093v12.312a.331.331 0 0 1-.011.085c-.025.09-.66 2.216-5.77 2.303l-.286.003c-4.866 0-5.446-2.263-5.469-2.36a.328.328 0 0 1-.008-.072l.001-12.576Z"
      fill="#000"/>
    <path d="m159.006 53.002-.34-.002c-3.528 0-4.437.779-4.666 1.125.571.255 2.215.875 4.743.875 2.8 0 4.618-.619 5.257-.878a1.099 1.099 0 0 0-.059-.063 2.984 2.984 0 0 1-.258-.204 2.466 2.466 0 0 0-.163-.096.49.49 0 0 1-.299-.141c-.704-.295-1.963-.583-4.215-.616ZM304.376 170.912c0-1.766-.726-3.784-1.755-4.919 1.029-1.135 1.755-3.152 1.755-4.918 0-1.198-.302-2.522-.847-3.594h-5.024c-.545 1.072-.847 2.396-.847 3.594 0 1.766.726 3.783 1.755 4.918-1.029 1.135-1.755 3.153-1.755 4.919 0 1.891.847 4.161 2.058 5.17-1.21 1.009-2.058 3.279-2.058 5.17 0 .883.181 1.766.484 2.649.908-.063 1.876-.063 2.905-.063 1.03 0 1.998.063 2.906.063.302-.883.484-1.766.484-2.648 0-1.892-.848-4.162-2.058-5.17 1.15-1.01 1.997-3.28 1.997-5.171M302.938 184.92c-.567 0-1.198-.062-1.891-.062-.694 0-1.261 0-1.892.062-8.07.31-10.213 2.725-10.213 3.468 0 .743 2.459 1.362 12.105 1.362 9.645 0 12.104-.619 12.104-1.362.063-.681-2.08-3.097-10.213-3.468M295.433 125.996l-14.451 24.186 37.044 11.444 1.405-28.216z"
          fill="#000"/>
  </g>
</svg>
