<?xml version="1.0" encoding="UTF-8"?>
<svg width="344px" height="193px" viewBox="0 0 344 193" version="1.1" xmlns="http://www.w3.org/2000/svg" xmlns:xlink="http://www.w3.org/1999/xlink">
    <title>Group 3</title>
    <g id="Symbols" stroke="none" stroke-width="1" fill="none" fill-rule="evenodd">
        <g id="Component-/-Banner-/-Foto-Copy-5" transform="translate(0.000000, -1.000000)">
            <g id="Group-3" transform="translate(0.000000, 1.000000)">
                <rect id="Rectangle" x="0" y="0" width="344" height="193"></rect>
                <g id="Group-2" transform="translate(24.000000, 44.000000)">
                    <path d="M158.813048,141.465581 C157.369019,143.371034 155.700013,144.596535 154.212004,144.596535 C151.866373,144.596535 152.452781,143.190129 149.023988,143.190129 C146.678357,143.190129 146.272382,144.778007 143.475669,144.234159 C142.618612,144.052687 140.949605,143.190129 139.325707,141.193941 C141.62623,140.33195 143.205019,138.562601 143.205019,136.476244 C143.205019,135.477583 142.889261,134.570791 142.212637,133.708801 C143.520777,132.074988 143.475669,129.897328 142.122421,128.127979 C144.783809,124.861489 142.212637,121.458895 138.558867,120.370065 C139.686574,119.734914 141.039822,119.462706 142.573504,119.553442 C144.468051,119.644178 145.640867,120.68764 147.851172,121.413527 C146.994115,119.190499 147.851172,116.060112 149.926153,114.608339 C151.144077,114.018556 152.767975,115.107386 151.730484,116.241584 C151.369054,116.559159 149.565287,118.646084 150.872863,121.821838 C153.895118,122.00331 154.977717,119.871018 157.594561,120.097857 C158.722268,120.188593 159.804866,120.4608 160.75214,121.232055 C157.098934,121.867206 153.850573,125.49664 155.79023,129.262177 C155.203822,130.441743 155.294038,131.802781 155.925554,133.073083 C152.813647,136.203469 154.888064,140.331383 158.813048,141.465581 Z" id="Path" fill="#EC0000" fill-rule="nonzero"></path>
                    <path d="M243.813048,57.4655812 C242.369019,59.3710339 240.700013,60.5965349 239.212004,60.5965349 C236.866373,60.5965349 237.452781,59.1901294 234.023988,59.1901294 C231.678357,59.1901294 231.272382,60.7780066 228.475669,60.2341587 C227.618612,60.052687 225.949605,59.1901294 224.325707,57.1939408 C226.62623,56.3319503 228.205019,54.5626013 228.205019,52.476244 C228.205019,51.4775826 227.889261,50.5707913 227.212637,49.7088008 C228.520777,48.0749885 228.475669,45.8973282 227.122421,44.1279793 C229.783809,40.8614889 227.212637,37.4588948 223.558867,36.3700647 C224.686574,35.7349137 226.039822,35.4627062 227.573504,35.5534421 C229.468051,35.6441779 230.640867,36.6876401 232.851172,37.4135269 C231.994115,35.1904987 232.851172,32.0601121 234.926153,30.6083386 C236.144077,30.0185556 237.767975,31.1073857 236.730484,32.2415838 C236.369054,32.5591592 234.565287,34.6460836 235.872863,37.8218382 C238.895118,38.0033098 239.977717,35.8710175 242.594561,36.0978571 C243.722268,36.188593 244.804866,36.4608005 245.75214,37.2320552 C242.098934,37.8672061 238.850573,41.4966398 240.79023,45.2621773 C240.203822,46.4417433 240.294038,47.802781 240.925554,49.0730828 C237.813647,52.2034694 239.888064,56.3313832 243.813048,57.4655812 Z" id="Path-Copy-4" fill="#000000" fill-rule="nonzero"></path>
                    <g id="Group" transform="translate(108.146741, 91.596535)" fill="#000000" fill-rule="nonzero">
                        <path d="M22.5751861,26 L0.98152983,26 C0.439445874,26 0,26.4821549 0,27.0769231 C0,27.6716913 0.439445874,28.1538462 0.98152983,28.1538462 L22.5751861,28.1538462 C23.1172701,28.1538462 23.5567159,27.6716913 23.5567159,27.0769231 C23.5567159,26.4821549 23.1172701,26 22.5751861,26 Z" id="Path"></path>
                        <path d="M17,0 L7,0 C6.44771525,0 6,0.482154885 6,1.07692308 L6,4.30769231 L18,4.30769231 L18,1.07692308 C18,0.482154885 17.5522847,0 17,0 Z" id="Path"></path>
                        <path d="M23.5567159,33.5615385 C23.5567159,32.9965087 23.1172701,32.5384615 22.5751861,32.5384615 L0.98152983,32.5384615 C0.439445874,32.5384615 0,32.9965087 0,33.5615385 L0,49.9307692 C0,51.6258586 1.31833762,53 2.94458949,53 L20.6121264,53 C22.2383783,53 23.5567159,51.6258586 23.5567159,49.9307692 L23.5567159,33.5615385 Z" id="Shape"></path>
                        <path d="M22.5751861,29.3076923 L0.98152983,29.3076923 C0.439445874,29.3076923 0,29.7898472 0,30.3846154 C0,30.9793836 0.439445874,31.4615385 0.98152983,31.4615385 L22.5751861,31.4615385 C23.1172701,31.4615385 23.5567159,30.9793836 23.5567159,30.3846154 C23.5567159,29.7898472 23.1172701,29.3076923 22.5751861,29.3076923 Z" id="Path"></path>
                        <path d="M0.147945339,20.6732166 C0.329844121,20.9748321 0.655894644,21.1574589 1.0059348,21.1538462 L22.5507811,21.1538462 C22.9008213,21.1574589 23.2268718,20.9748321 23.4087706,20.6732166 C23.5758834,20.4029012 23.6031089,20.0677934 23.4818549,19.7736524 L15.4045398,9.18787056 C15.0016113,8.65795515 14.7827855,8.00905918 14.7818217,7.34129022 L14.7818217,5 L8.77489426,5 L8.77489426,7.34129022 C8.77386286,8.00952213 8.55466969,8.65881919 8.15117496,9.18888018 L0.0748610557,19.7736524 C-0.0463930128,20.0677934 -0.0191674836,20.4029012 0.147945339,20.6732166 L0.147945339,20.6732166 Z" id="Path"></path>
                        <path d="M22.5751861,22.6923077 L0.98152983,22.6923077 C0.439445874,22.6923077 0,23.1744626 0,23.7692308 C0,24.363999 0.439445874,24.8461538 0.98152983,24.8461538 L22.5751861,24.8461538 C23.1172701,24.8461538 23.5567159,24.363999 23.5567159,23.7692308 C23.5567159,23.1744626 23.1172701,22.6923077 22.5751861,22.6923077 Z" id="Path"></path>
                    </g>
                    <path d="M98.9865217,125.679292 C98.9865217,121.575165 95.72201,118.291862 91.6413705,118.291862 C89.5738465,118.291862 87.7239565,119.112688 86.4181519,120.480731 C85.1123472,119.112688 83.2624573,118.291862 81.1949333,118.291862 C77.1142937,118.291862 73.8497821,121.575165 73.8497821,125.679292 C73.8497821,127.375665 74.4482759,128.962594 75.4276294,130.221193 L74.66591,143.080793 C74.557093,144.229949 75.4820379,145.214939 76.6790255,145.214939 L96.2116868,145.214939 C97.3542659,145.214939 98.2792108,144.229949 98.2248023,143.080793 L97.4630829,130.221193 C98.3880279,129.017316 98.9865217,127.430387 98.9865217,125.679292 Z" id="Path" fill="#000000" fill-rule="nonzero"></path>
                    <path d="M145.986522,34.7027443 C145.986522,31.6539638 143.561456,29.2149394 140.530124,29.2149394 C138.994249,29.2149394 137.620045,29.8246955 136.650018,30.8409556 C135.679992,29.8246955 134.305788,29.2149394 132.769913,29.2149394 C129.738581,29.2149394 127.313515,31.6539638 127.313515,34.7027443 C127.313515,35.9629069 127.758111,37.1417687 128.48563,38.076728 L127.919782,47.6295735 C127.838946,48.4832321 128.526048,49.2149394 129.415239,49.2149394 L143.925216,49.2149394 C144.773989,49.2149394 145.461091,48.4832321 145.420673,47.6295735 L144.854824,38.076728 C145.541926,37.1824191 145.986522,36.0035573 145.986522,34.7027443 Z" id="Path-Copy-2" fill="#EC0000" fill-rule="nonzero"></path>
                    <path d="M64.7923468,115.03061 C64.3630435,111.758918 62.6532066,106.89515 62.2880775,105.793458 C61.9229484,104.691024 59.5492405,98.5267401 58.9576576,94.8685281 C58.4354123,91.6383811 58.1344574,83.0956289 58.1012639,82.115605 C58.099051,82.0547708 58.1138037,81.9961623 58.1440467,81.9434888 L58.1750273,81.8893315 C58.2244488,81.8025315 58.2318252,81.6971845 58.1942058,81.6044495 L58.1942058,81.6044495 C58.1551112,81.5087469 58.1639628,81.4004324 58.2178101,81.3121486 L58.4767198,80.8870512 C58.5165521,80.8217657 58.5320424,80.7438683 58.5202403,80.6681965 L58.4162338,79.9886341 C58.4073822,79.9315093 58.3837779,79.877352 58.3468962,79.8328392 L58.2399392,79.7007845 C58.1831413,79.6303059 58.1580617,79.5405383 58.1706015,79.4507708 C58.1986316,79.2423025 58.2347757,78.8335264 58.1484725,78.4863264 C58.0356144,78.0322956 57.9227563,77.998911 57.616638,77.8023127 C57.5650036,77.7674443 57.5045175,77.7503811 57.4432939,77.7503811 L55.4590569,77.7503811 L53.6171835,77.7503811 C53.5559598,77.7503811 53.4962114,77.7674443 53.444577,77.8008289 C53.1384587,77.9981691 53.0256006,78.0315537 52.9127425,78.4848426 C52.8264393,78.8320426 52.8625834,79.2408187 52.8906135,79.4492871 C52.9031533,79.5390546 52.8780737,79.629564 52.8212758,79.6993007 L52.7143188,79.8313554 C52.6781747,79.8766101 52.6538328,79.9300255 52.6449812,79.9871503 L52.5409747,80.6667127 C52.5291726,80.7423845 52.5446629,80.8202819 52.5844951,80.8855674 L52.8434049,81.3114067 C52.8972522,81.3996905 52.9061038,81.508005 52.8670092,81.6037076 L52.8670092,81.6037076 C52.8293898,81.6964426 52.8360285,81.8017896 52.8861877,81.8885896 L52.9171683,81.9427469 C52.9474113,81.9954204 52.962164,82.0547708 52.9599511,82.1148631 C52.9267576,83.0948871 52.6265403,91.6376392 52.1035574,94.8677862 C51.5119745,98.5259982 49.1382666,104.691024 48.7731375,105.792716 C48.4080084,106.89515 46.6981715,111.758918 46.2688682,115.029868 C45.8218617,118.432132 45.8646445,130.953588 45.9730768,132.855769 C46.0527413,134.259407 45.9782402,140.371017 46.1124897,141.999444 C46.1781392,142.791773 46.5270403,143.335571 46.6893199,143.515848 C47.4896534,144.40462 55.4406161,144.519612 55.4406161,144.519612 C55.4406161,144.519612 63.570824,144.40462 64.3718951,143.51659 C64.5341747,143.337055 64.8830758,142.792514 64.9487253,142.000186 C65.0837124,140.371759 65.0084737,134.260149 65.0881382,132.856511 C65.1965705,130.95433 65.2393533,118.432873 64.7923468,115.03061 Z" id="Path" fill="#000000" fill-rule="nonzero"></path>
                    <path d="M213.792347,68.0306101 C213.363043,64.7589178 211.653207,59.8951503 211.288078,58.793458 C210.922948,57.6910238 208.54924,51.5267401 207.957658,47.8685281 C207.435412,44.6383811 207.134457,36.0956289 207.101264,35.115605 C207.099051,35.0547708 207.113804,34.9961623 207.144047,34.9434888 L207.175027,34.8893315 C207.224449,34.8025315 207.231825,34.6971845 207.194206,34.6044495 L207.194206,34.6044495 C207.155111,34.5087469 207.163963,34.4004324 207.21781,34.3121486 L207.47672,33.8870512 C207.516552,33.8217657 207.532042,33.7438683 207.52024,33.6681965 L207.416234,32.9886341 C207.407382,32.9315093 207.383778,32.877352 207.346896,32.8328392 L207.239939,32.7007845 C207.183141,32.6303059 207.158062,32.5405383 207.170602,32.4507708 C207.198632,32.2423025 207.234776,31.8335264 207.148472,31.4863264 C207.035614,31.0322956 206.922756,30.998911 206.616638,30.8023127 C206.565004,30.7674443 206.504518,30.7503811 206.443294,30.7503811 L204.459057,30.7503811 L202.617184,30.7503811 C202.55596,30.7503811 202.496211,30.7674443 202.444577,30.8008289 C202.138459,30.9981691 202.025601,31.0315537 201.912743,31.4848426 C201.826439,31.8320426 201.862583,32.2408187 201.890613,32.4492871 C201.903153,32.5390546 201.878074,32.629564 201.821276,32.6993007 L201.714319,32.8313554 C201.678175,32.8766101 201.653833,32.9300255 201.644981,32.9871503 L201.540975,33.6667127 C201.529173,33.7423845 201.544663,33.8202819 201.584495,33.8855674 L201.843405,34.3114067 C201.897252,34.3996905 201.906104,34.508005 201.867009,34.6037076 L201.867009,34.6037076 C201.82939,34.6964426 201.836029,34.8017896 201.886188,34.8885896 L201.917168,34.9427469 C201.947411,34.9954204 201.962164,35.0547708 201.959951,35.1148631 C201.926758,36.0948871 201.62654,44.6376392 201.103557,47.8677862 C200.511975,51.5259982 198.138267,57.6910238 197.773137,58.7927161 C197.408008,59.8951503 195.698172,64.7589178 195.268868,68.0298683 C194.821862,71.4321315 194.864644,83.9535879 194.973077,85.8557691 C195.052741,87.2594067 194.97824,93.371017 195.11249,94.9994443 C195.178139,95.7917725 195.52704,96.3355708 195.68932,96.5158478 C196.489653,97.4046204 204.440616,97.5196119 204.440616,97.5196119 C204.440616,97.5196119 212.570824,97.4046204 213.371895,96.5165896 C213.534175,96.3370546 213.883076,95.7925144 213.948725,95.0001862 C214.083712,93.3717589 214.008474,87.2601486 214.088138,85.856511 C214.19657,83.9543298 214.239353,71.4328734 213.792347,68.0306101 Z" id="Path-Copy" fill="#000000" fill-rule="nonzero" transform="translate(204.530607, 64.134996) scale(1, -1) translate(-204.530607, -64.134996) "></path>
                    <path d="M102.792942,81.2274194 L93.7311149,76.7503811 C91.77088,79.1684185 88.8010889,80.5763221 85.6607852,80.5763221 C82.5204815,80.5763221 79.5506904,79.1684185 77.5904555,76.7503811 L68.5286282,81.2955976 L70.396333,90.3860307 L75.284647,88.6133962 L75.284647,110.134996 L96.0369234,110.134996 L96.0369234,88.6133962 L100.948295,90.4314828 L102.792942,81.2274194 Z" id="Shape" fill="#000000" fill-rule="nonzero"></path>
                    <path d="M250.792942,71.2274194 L241.731115,66.7503811 C239.77088,69.1684185 236.801089,70.5763221 233.660785,70.5763221 C230.520482,70.5763221 227.55069,69.1684185 225.590455,66.7503811 L216.528628,71.2955976 L218.396333,80.3860307 L223.284647,78.6133962 L223.284647,100.134996 L244.036923,100.134996 L244.036923,78.6133962 L248.948295,80.4314828 L250.792942,71.2274194 Z" id="Shape-Copy" fill="#EC0000" fill-rule="nonzero" transform="translate(233.660785, 83.442689) scale(1, -1) translate(-233.660785, -83.442689) "></path>
                    <g id="Group" transform="translate(164.194867, 107.187346)" fill="#000000" fill-rule="nonzero">
                        <path d="M41.3910174,12.6399585 L4.98518365,12.6399585 L4.98518365,37.4091892 L41.3910174,37.4091892 L41.3910174,12.6399585 Z M30.7726492,20.3803431 L15.6035518,20.3803431 L15.6035518,17.2841892 L30.7726492,17.2841892 L30.7726492,20.3803431 Z" id="Shape"></path>
                        <polygon id="Rectangle" transform="translate(20.511201, 9.409189) rotate(-12.000000) translate(-20.511201, -9.409189) " points="0.703482665 4.04909408 40.3314534 4.00271782 40.3189193 14.7692844 0.690948542 14.8156606"></polygon>
                    </g>
                    <path d="M30.952097,117.589357 L32.2655624,99.1573495 C34.0073317,99.013798 35.7348242,98.8989568 37.4765935,98.6979848 C37.1910576,96.0279276 36.9197984,93.3435152 36.6342625,90.673458 C24.7416901,92.0515521 12.7349034,92.0515521 0.842331054,90.673458 C0.556795104,93.3435152 0.285535951,96.0279276 0,98.6979848 C1.68466211,98.8989568 3.36932422,98.9994429 5.05398633,99.1429943 L6.3674517,117.589357 L0,117.589357 L0,122.972537 L2.68403794,122.972537 L2.68403794,125.671305 L2.68403794,144.519612 L8.02356021,144.519612 L10.364955,125.671305 L27.0973617,125.671305 L29.4387565,144.505257 L34.7925556,144.505257 L34.7925556,125.671305 L34.7925556,125.671305 L34.7925556,122.972537 L37.4765935,122.972537 L37.4765935,117.589357 L30.952097,117.589357 Z M25.5216443,117.596535 L21.4151963,117.596535 L21.4151963,99.4490531 C23.1951243,99.419924 24.9890674,99.3762302 26.7689954,99.2888426 L25.5216443,117.596535 Z M9.63683833,99.2888426 C11.778358,99.3907948 13.9198776,99.419924 16.0613972,99.4490531 L16.0613972,117.596535 L11.1081114,117.596535 L9.63683833,99.2888426 Z" id="Shape" fill="#EC0000" fill-rule="nonzero"></path>
                    <path d="M176.952097,86.5893574 L178.265562,68.1573495 C180.007332,68.013798 181.734824,67.8989568 183.476594,67.6979848 C183.191058,65.0279276 182.919798,62.3435152 182.634262,59.673458 C170.74169,61.0515521 158.734903,61.0515521 146.842331,59.673458 C146.556795,62.3435152 146.285536,65.0279276 146,67.6979848 C147.684662,67.8989568 149.369324,67.9994429 151.053986,68.1429943 L152.367452,86.5893574 L146,86.5893574 L146,91.9725372 L148.684038,91.9725372 L148.684038,94.6713047 L148.684038,113.519612 L154.02356,113.519612 L156.364955,94.6713047 L173.097362,94.6713047 L175.438757,113.505257 L180.792556,113.505257 L180.792556,94.6713047 L180.792556,94.6713047 L180.792556,91.9725372 L183.476594,91.9725372 L183.476594,86.5893574 L176.952097,86.5893574 Z M171.521644,86.5965349 L167.415196,86.5965349 L167.415196,68.4490531 C169.195124,68.419924 170.989067,68.3762302 172.768995,68.2888426 L171.521644,86.5965349 Z M155.636838,68.2888426 C157.778358,68.3907948 159.919878,68.419924 162.061397,68.4490531 L162.061397,86.5965349 L157.108111,86.5965349 L155.636838,68.2888426 Z" id="Shape-Copy-2" fill="#000000" fill-rule="nonzero" transform="translate(164.738297, 86.596535) scale(-1, -1) rotate(90.000000) translate(-164.738297, -86.596535) "></path>
                    <g id="Group" transform="translate(215.222723, 105.981150)" stroke="#000000">
                        <path d="M18.2705857,0 C28.2855734,0 36.4058337,8.16700029 36.4058337,18.3757506 C36.4058337,28.4483843 28.2855734,36.6153846 18.2705857,36.6153846 C8.12026031,36.6153846 0,28.4483843 0,18.3757506 C0,8.16700029 8.12026031,0 18.2705857,0 Z" id="Path" stroke-width="5.7063849"></path>
                        <path d="M18.2705857,5.7169002 C25.1728069,5.7169002 30.7216515,11.4338004 30.7216515,18.3757506 C30.7216515,25.3177009 25.1728069,30.8984844 18.2705857,30.8984844 C11.3683644,30.8984844 5.68418221,25.3177009 5.68418221,18.3757506 C5.68418221,11.4338004 11.3683644,5.7169002 18.2705857,5.7169002 Z" id="Path" stroke-width="1.06957842"></path>
                        <path d="M18.2705857,13.3394338 C20.9773391,13.3394338 23.2780795,15.5173005 23.2780795,18.3757506 C23.2780795,21.0980841 20.9773391,23.4120675 18.2705857,23.4120675 C15.4284946,23.4120675 13.2630918,21.0980841 13.2630918,18.3757506 C13.2630918,15.5173005 15.4284946,13.3394338 18.2705857,13.3394338 Z" id="Path" stroke-width="1.06957842"></path>
                        <line x1="18.2987217" y1="13.3394338" x2="18.2987217" y2="5.7169002" id="Path" stroke-width="1.06957842"></line>
                        <line x1="18.2987217" y1="30.7623677" x2="18.2987217" y2="23.2759508" id="Path" stroke-width="1.06957842"></line>
                        <line x1="23.2780795" y1="18.4040486" x2="30.7216515" y2="18.4040486" id="Path" stroke-width="1.06957842"></line>
                        <line x1="13.1277542" y1="18.4040486" x2="5.68418221" y2="18.4040486" id="Path" stroke-width="1.06957842"></line>
                        <line x1="27.0675344" y1="9.39205033" x2="21.7893652" y2="14.7006005" id="Path" stroke-width="1.06957842"></line>
                        <line x1="9.47363702" y1="9.39205033" x2="14.7518062" y2="14.7006005" id="Path" stroke-width="1.06957842"></line>
                        <line x1="27.0675344" y1="27.2233343" x2="21.7893652" y2="21.9147841" id="Path" stroke-width="1.06957842"></line>
                        <line x1="9.47363702" y1="27.2233343" x2="14.7518062" y2="21.9147841" id="Path" stroke-width="1.06957842"></line>
                    </g>
                    <g id="Group" transform="translate(27.222723, 28.981150)" stroke="#000000">
                        <path d="M18.2705857,0 C28.2855734,0 36.4058337,8.16700029 36.4058337,18.3757506 C36.4058337,28.4483843 28.2855734,36.6153846 18.2705857,36.6153846 C8.12026031,36.6153846 0,28.4483843 0,18.3757506 C0,8.16700029 8.12026031,0 18.2705857,0 Z" id="Path" stroke-width="5.7063849"></path>
                        <path d="M18.2705857,5.7169002 C25.1728069,5.7169002 30.7216515,11.4338004 30.7216515,18.3757506 C30.7216515,25.3177009 25.1728069,30.8984844 18.2705857,30.8984844 C11.3683644,30.8984844 5.68418221,25.3177009 5.68418221,18.3757506 C5.68418221,11.4338004 11.3683644,5.7169002 18.2705857,5.7169002 Z" id="Path" stroke-width="1.06957842"></path>
                        <path d="M18.2705857,13.3394338 C20.9773391,13.3394338 23.2780795,15.5173005 23.2780795,18.3757506 C23.2780795,21.0980841 20.9773391,23.4120675 18.2705857,23.4120675 C15.4284946,23.4120675 13.2630918,21.0980841 13.2630918,18.3757506 C13.2630918,15.5173005 15.4284946,13.3394338 18.2705857,13.3394338 Z" id="Path" stroke-width="1.06957842"></path>
                        <line x1="18.2987217" y1="13.3394338" x2="18.2987217" y2="5.7169002" id="Path" stroke-width="1.06957842"></line>
                        <line x1="18.2987217" y1="30.7623677" x2="18.2987217" y2="23.2759508" id="Path" stroke-width="1.06957842"></line>
                        <line x1="23.2780795" y1="18.4040486" x2="30.7216515" y2="18.4040486" id="Path" stroke-width="1.06957842"></line>
                        <line x1="13.1277542" y1="18.4040486" x2="5.68418221" y2="18.4040486" id="Path" stroke-width="1.06957842"></line>
                        <line x1="27.0675344" y1="9.39205033" x2="21.7893652" y2="14.7006005" id="Path" stroke-width="1.06957842"></line>
                        <line x1="9.47363702" y1="9.39205033" x2="14.7518062" y2="14.7006005" id="Path" stroke-width="1.06957842"></line>
                        <line x1="27.0675344" y1="27.2233343" x2="21.7893652" y2="21.9147841" id="Path" stroke-width="1.06957842"></line>
                        <line x1="9.47363702" y1="27.2233343" x2="14.7518062" y2="21.9147841" id="Path" stroke-width="1.06957842"></line>
                    </g>
                    <g id="noun_lamp_118402-copy" transform="translate(84.464483, 36.886819) scale(-1, 1) translate(-84.464483, -36.886819) translate(61.910655, 4.023257)" fill="#000000" fill-rule="nonzero">
                        <g id="Group">
                            <path d="M23.4268463,46.8883848 C23.4268463,45.1228654 22.7005338,43.105129 21.6715911,41.9701522 C22.7005338,40.8351755 23.4268463,38.8174391 23.4268463,37.0519197 C23.4268463,35.8538887 23.1242161,34.5297491 22.5794817,33.4578267 L17.5558203,33.4578267 C17.0110859,34.5297491 16.7084557,35.8538887 16.7084557,37.0519197 C16.7084557,38.8174391 17.4347682,40.8351755 18.4637109,41.9701522 C17.4347682,43.105129 16.7084557,45.1228654 16.7084557,46.8883848 C16.7084557,48.7800127 17.5558203,51.0499662 18.7663411,52.0588344 C17.5558203,53.0677027 16.7084557,55.3376562 16.7084557,57.2292841 C16.7084557,58.1120438 16.8900338,58.9948034 17.192664,59.8775631 C18.1005546,59.8145089 19.0689713,59.8145089 20.097914,59.8145089 C21.1268567,59.8145089 22.0952734,59.8775631 23.003164,59.8775631 C23.3057942,58.9948034 23.4873723,58.1120438 23.4873723,57.2292841 C23.4873723,55.3376562 22.6400078,53.0677027 21.4294869,52.0588344 C22.5794817,51.0499662 23.4268463,48.7800127 23.4268463,46.8883848" id="Path"></path>
                            <path d="M21.9885781,60.8965116 C21.4211778,60.8965116 20.7907331,60.8345807 20.097244,60.8345807 C19.4037548,60.8345807 18.8363545,60.8345807 18.2059098,60.8965116 C10.1362177,61.2061663 7.99270569,63.6214727 7.99270569,64.3646439 C7.99270569,65.1078151 10.45144,65.7271244 20.097244,65.7271244 C29.7430479,65.7271244 32.2017822,65.1078151 32.2017822,64.3646439 C32.2648267,63.6834036 30.1213147,61.2680972 21.9885781,60.8965116" id="Path"></path>
                            <polygon id="Path" transform="translate(22.553828, 18.801248) rotate(17.000000) translate(-22.553828, -18.801248) " points="9.91646729 5.06770666 3.16824106 32.4219217 41.9394151 32.5347902 35.0331729 5.14082505"></polygon>
                        </g>
                    </g>
                    <path d="M159.370063,15.6578329 L159.370063,14.8604829 L159.573563,14.8604829 C159.771752,14.8604829 159.932417,14.6998187 159.932417,14.5016292 C159.932417,14.3034397 159.771752,14.1427754 159.573563,14.1427754 L159.370063,14.1427754 L159.370063,11.9100104 C159.370063,10.9530979 158.971203,10.7138929 158.094026,10.7138929 L154.541101,10.7138929 C153.663923,10.7138929 153.265063,10.9530979 153.265063,11.9100104 L153.265063,14.1427754 L153.061563,14.1427754 C152.863374,14.1427754 152.702709,14.3034397 152.702709,14.5016292 C152.702709,14.6998187 152.863374,14.8604829 153.061563,14.8604829 L153.265063,14.8604829 L153.265063,15.6579254 C153.265063,15.6579254 149.836181,19.5652179 149.756446,21.4790429 C149.699709,22.3552721 149.699709,23.2342538 149.756446,24.1104829 L149.756446,45.2419229 C149.756446,45.2419229 150.234856,47.7138929 152.068946,47.7138929 C153.903036,47.7138929 154.221976,47.2354829 155.976238,47.2354829 L156.658426,47.2354829 C158.412781,47.2354829 158.731721,47.7138929 160.565718,47.7138929 C162.399716,47.7138929 162.878218,45.2419229 162.878218,45.2419229 L162.878218,24.1104829 C162.935051,23.234229 162.935144,22.3552164 162.878496,21.4789504 C162.798761,19.5652179 159.370063,15.6578329 159.370063,15.6578329 Z" id="Path" fill="#000000" fill-rule="nonzero" transform="translate(156.317403, 29.213893) scale(1, -1) rotate(204.000000) translate(-156.317403, -29.213893) "></path>
                    <path d="M127.095885,80.5977873 C127.095319,80.4775298 127.094187,80.3572723 127.090509,80.2378637 C127.08966,80.2129633 127.088245,80.1883459 127.087396,80.1634455 C127.083152,80.0406414 127.077775,79.9184032 127.070419,79.7970139 C127.069287,79.7766409 127.067306,79.7568337 127.065891,79.7364607 C127.057402,79.610827 127.048065,79.4860422 127.03618,79.3621062 C127.034766,79.3465435 127.032502,79.3315467 127.031087,79.3159839 C127.018354,79.1883695 127.004489,79.061604 126.988077,78.9365362 C126.986097,78.9223882 126.983833,78.9088062 126.981852,78.8946583 C126.964875,78.7687416 126.946483,78.6436738 126.925544,78.5205867 C126.923563,78.5084195 126.921016,78.4965352 126.918753,78.484368 C126.897248,78.3601491 126.874328,78.237062 126.848862,78.1162386 C126.846315,78.1046373 126.843486,78.0936019 126.840939,78.0820006 C126.81519,77.9611772 126.787743,77.8420515 126.757749,77.7251895 C126.755202,77.715003 126.75209,77.7050994 126.74926,77.6949129 C126.718701,77.577768 126.687009,77.4620378 126.652205,77.3494202 C126.64881,77.3381019 126.644848,77.3276324 126.64117,77.316314 C126.606649,77.2053942 126.570713,77.096455 126.532231,76.9903455 C126.527138,76.9764805 126.521195,76.9634644 126.516102,76.9495994 C126.478186,76.8474513 126.439137,76.7470009 126.397542,76.649946 C126.389337,76.6309878 126.379999,76.6134444 126.371793,76.5944861 C126.331896,76.5042223 126.291433,76.4150902 126.24814,76.3296367 C126.235407,76.3047363 126.221542,76.2823826 126.208526,76.2577651 C126.16778,76.1808003 126.127034,76.1038356 126.083458,76.0311151 C126.026018,75.9354751 125.966313,75.8440794 125.903779,75.7566451 C125.808988,75.6276159 125.705708,75.4991526 125.597335,75.3706893 C125.545553,75.3092872 125.491225,75.2478852 125.436048,75.1864831 C125.416241,75.1644123 125.398981,75.1426245 125.378325,75.1208367 C125.377759,75.1216855 125.377193,75.1225344 125.376627,75.1233833 C125.367006,75.1129138 125.35682,75.1024443 125.346916,75.0916919 C125.323148,75.0659427 125.299096,75.0404764 125.275045,75.0147271 C125.170916,74.9052221 125.063675,74.796 124.950208,74.6870608 C124.927854,74.6655559 124.904369,74.6437681 124.881449,74.6222632 C124.223853,74.0003198 123.431568,73.387431 122.60165,72.7949153 C122.588351,72.7852947 122.575052,72.775957 122.561753,72.7663364 C122.442344,72.6811658 122.323502,72.5962782 122.202961,72.5122394 C122.203244,72.5119565 122.203244,72.5116735 122.203527,72.5113906 C122.09572,72.4361235 121.987912,72.3628372 121.880105,72.288419 C121.788426,72.2253192 121.697597,72.1619364 121.605918,72.0994025 C121.335975,71.9146304 121.068296,71.732405 120.804013,71.553292 C120.792129,71.5450862 120.779112,71.5368804 120.768077,71.5286746 C120.648385,71.4477484 120.534919,71.3702177 120.417774,71.2907063 C120.259034,71.182899 120.099162,71.0745257 119.945799,70.9692651 C119.924011,70.9542682 119.904204,70.9401203 119.882699,70.9254064 C119.663689,70.7748724 119.449489,70.626036 119.246042,70.4808782 C119.246042,70.4808782 119.246042,70.4811611 119.246042,70.4811611 C119.077964,70.3611866 118.916112,70.2431928 118.762182,70.1274626 C118.758221,70.124633 118.755108,70.1218034 118.751147,70.1189738 C118.599481,70.0049415 118.454889,69.8928898 118.319352,69.7833847 C118.295583,69.7641435 118.275776,69.7460341 118.252573,69.7267929 C118.143917,69.6376609 118.038656,69.5490948 117.942733,69.4630753 C117.939055,69.4599628 117.93481,69.4565673 117.931415,69.4534547 C117.928019,69.4506252 117.925473,69.4475126 117.922077,69.444683 C117.804932,69.3385735 117.696842,69.2347276 117.602051,69.1339942 C116.003617,67.439071 114.821415,65.818 114.821415,65.818 L114.745016,66.078888 C114.745299,66.0803028 114.745865,66.0822835 114.746148,66.0836983 C114.745582,66.0865279 114.744733,66.0899234 114.744733,66.0899234 C114.737659,66.0624764 114.729736,66.0500262 114.729736,66.0500262 C114.733132,66.0701163 114.736527,66.0902064 114.73964,66.1102964 C114.631266,66.484368 114.529401,66.8584395 114.427819,67.2217586 C113.584885,70.351283 113.095083,72.9861954 112.959829,75.221287 C112.957282,75.2640138 112.954736,75.3067406 112.952472,75.3494674 C112.936909,75.6329921 112.925874,75.9114236 112.921912,76.1822151 C112.921063,76.2306011 112.921912,76.2772893 112.921629,76.3253923 C112.920215,76.5427047 112.922478,76.7557726 112.928703,76.9648792 C112.930684,77.0373167 112.931816,77.110603 112.934928,77.1819086 C112.943983,77.3975232 112.958131,77.6083275 112.975674,77.8151704 C112.984163,77.9164697 112.994067,78.0163541 113.004536,78.1153897 C113.01925,78.2537566 113.036511,78.3895768 113.055186,78.5239822 C113.07754,78.6872495 113.103572,78.8471212 113.131585,79.0047292 C113.147713,79.0944272 113.164408,79.1835592 113.182234,79.2715594 C113.265707,79.6818497 113.370119,80.0731817 113.494338,80.4464043 C113.503959,80.4749832 113.513862,80.5029961 113.523766,80.531009 C113.610351,80.7825594 113.705991,81.0264699 113.811535,81.2618916 C113.813233,81.2655701 113.814647,81.2692486 113.816345,81.272927 C115.295371,84.5637379 118.618439,86.3093108 123.850347,87.5407475 C125.411714,89.1994521 125.98895,89.818 125.98895,89.818 L126.985531,89.1287123 C126.187021,88.6994638 125.453026,88.1587296 124.767134,87.5319758 C124.847211,87.4663294 124.925025,87.3953067 125.000009,87.3189078 C125.022929,87.2988178 125.044433,87.2756151 125.066787,87.2546762 C125.107533,87.2170427 125.147996,87.1791262 125.187611,87.1386631 C125.220434,87.104991 125.252125,87.0690552 125.2841,87.0334024 C125.323148,86.9898267 125.362196,86.946534 125.400113,86.9001288 C125.430389,86.8630612 125.459817,86.8237299 125.489528,86.7849646 C125.526878,86.7357297 125.564512,86.6867779 125.60073,86.6349964 C125.629026,86.5945333 125.65619,86.5520895 125.683637,86.5102116 C125.719007,86.4558835 125.75466,86.4018383 125.788898,86.3452466 C125.815213,86.3019539 125.840114,86.2563975 125.86558,86.21169 C125.899252,86.1525516 125.932641,86.0936962 125.964898,86.0320112 C125.98895,85.9858889 126.012153,85.9383518 126.035355,85.8910977 C126.066764,85.827432 126.098455,85.7640492 126.128449,85.6981198 C126.150802,85.6494509 126.171741,85.5993672 126.193246,85.5495664 C126.222674,85.4816563 126.252102,85.4143121 126.279832,85.3444213 C126.299922,85.2940546 126.31888,85.2422731 126.338404,85.1907746 C126.365568,85.1186202 126.393015,85.0467486 126.419047,84.9726134 C126.437157,84.9211149 126.453851,84.8684846 126.471112,84.8164201 C126.496295,84.7397383 126.521761,84.6633394 126.54553,84.5852428 C126.561376,84.5331784 126.576089,84.4799821 126.591086,84.4270688 C126.614289,84.3464256 126.637492,84.2657823 126.659279,84.1837243 C126.672861,84.1316598 126.685595,84.0784636 126.698611,84.0258332 C126.719833,83.9409456 126.740771,83.856058 126.760296,83.7697555 C126.771897,83.718257 126.782366,83.6659096 126.793119,83.6141282 C126.812077,83.5249962 126.831035,83.4358641 126.848013,83.3453173 C126.857351,83.2957995 126.865556,83.2457158 126.874328,83.196198 C126.891023,83.1016898 126.908,83.0071815 126.922997,82.9115415 C126.930354,82.8651362 126.936296,82.818448 126.943087,82.7717598 C126.957518,82.6721583 126.971949,82.5725568 126.984399,82.4723894 C126.989775,82.4282478 126.994303,82.3841063 126.999396,82.3396817 C127.01128,82.2358358 127.023164,82.131707 127.032785,82.0270122 C127.036463,81.987115 127.03901,81.9472179 127.042406,81.9073207 C127.051743,81.7980986 127.060515,81.6888765 127.067306,81.5790884 C127.06957,81.5434356 127.070701,81.5080658 127.072682,81.472413 C127.078907,81.3583806 127.084849,81.2446311 127.088528,81.1305987 C127.08966,81.0986244 127.08966,81.066933 127.090509,81.0352416 C127.093338,80.9178137 127.095885,80.8003858 127.095885,80.6832409 C127.097017,80.6543791 127.096168,80.6260832 127.095885,80.5977873 Z" id="Path" fill="#000000" fill-rule="nonzero" transform="translate(120.008840, 77.818000) scale(-1, -1) rotate(-60.000000) translate(-120.008840, -77.818000) "></path>
                    <path d="M290.323981,70.5977873 C290.323415,70.4775298 290.322283,70.3572723 290.318604,70.2378637 C290.317756,70.2129633 290.316341,70.1883459 290.315492,70.1634455 C290.311247,70.0406414 290.305871,69.9184032 290.298514,69.7970139 C290.297382,69.7766409 290.295402,69.7568337 290.293987,69.7364607 C290.285498,69.610827 290.276161,69.4860422 290.264276,69.3621062 C290.262861,69.3465435 290.260598,69.3315467 290.259183,69.3159839 C290.24645,69.1883695 290.232585,69.061604 290.216173,68.9365362 C290.214193,68.9223882 290.211929,68.9088062 290.209948,68.8946583 C290.192971,68.7687416 290.174578,68.6436738 290.153639,68.5205867 C290.151659,68.5084195 290.149112,68.4965352 290.146848,68.484368 C290.125344,68.3601491 290.102424,68.237062 290.076958,68.1162386 C290.074411,68.1046373 290.071581,68.0936019 290.069035,68.0820006 C290.043285,67.9611772 290.015838,67.8420515 289.985845,67.7251895 C289.983298,67.715003 289.980186,67.7050994 289.977356,67.6949129 C289.946797,67.577768 289.915105,67.4620378 289.880301,67.3494202 C289.876906,67.3381019 289.872944,67.3276324 289.869266,67.316314 C289.834745,67.2053942 289.798809,67.096455 289.760327,66.9903455 C289.755233,66.9764805 289.749291,66.9634644 289.744198,66.9495994 C289.706282,66.8474513 289.667233,66.7470009 289.625638,66.649946 C289.617432,66.6309878 289.608095,66.6134444 289.599889,66.5944861 C289.559992,66.5042223 289.519529,66.4150902 289.476236,66.3296367 C289.463503,66.3047363 289.449638,66.2823826 289.436622,66.2577651 C289.395876,66.1808003 289.35513,66.1038356 289.311554,66.0311151 C289.254113,65.9354751 289.194409,65.8440794 289.131875,65.7566451 C289.037084,65.6276159 288.933804,65.4991526 288.825431,65.3706893 C288.773649,65.3092872 288.719321,65.2478852 288.664144,65.1864831 C288.644337,65.1644123 288.627077,65.1426245 288.606421,65.1208367 C288.605855,65.1216855 288.605289,65.1225344 288.604723,65.1233833 C288.595102,65.1129138 288.584916,65.1024443 288.575012,65.0916919 C288.551244,65.0659427 288.527192,65.0404764 288.503141,65.0147271 C288.399012,64.9052221 288.29177,64.796 288.178304,64.6870608 C288.15595,64.6655559 288.132465,64.6437681 288.109545,64.6222632 C287.451949,64.0003198 286.659664,63.387431 285.829746,62.7949153 C285.816447,62.7852947 285.803148,62.775957 285.789849,62.7663364 C285.67044,62.6811658 285.551597,62.5962782 285.431057,62.5122394 C285.43134,62.5119565 285.43134,62.5116735 285.431623,62.5113906 C285.323816,62.4361235 285.216008,62.3628372 285.108201,62.288419 C285.016522,62.2253192 284.925692,62.1619364 284.834014,62.0994025 C284.564071,61.9146304 284.296392,61.732405 284.032109,61.553292 C284.020224,61.5450862 284.007208,61.5368804 283.996173,61.5286746 C283.876481,61.4477484 283.763015,61.3702177 283.64587,61.2907063 C283.48713,61.182899 283.327258,61.0745257 283.173895,60.9692651 C283.152107,60.9542682 283.1323,60.9401203 283.110795,60.9254064 C282.891785,60.7748724 282.677585,60.626036 282.474137,60.4808782 C282.474137,60.4808782 282.474137,60.4811611 282.474137,60.4811611 C282.30606,60.3611866 282.144207,60.2431928 281.990278,60.1274626 C281.986316,60.124633 281.983204,60.1218034 281.979242,60.1189738 C281.827577,60.0049415 281.682985,59.8928898 281.547447,59.7833847 C281.523679,59.7641435 281.503872,59.7460341 281.480669,59.7267929 C281.372013,59.6376609 281.266752,59.5490948 281.170829,59.4630753 C281.167151,59.4599628 281.162906,59.4565673 281.159511,59.4534547 C281.156115,59.4506252 281.153569,59.4475126 281.150173,59.444683 C281.033028,59.3385735 280.924938,59.2347276 280.830147,59.1339942 C279.231712,57.439071 278.049511,55.818 278.049511,55.818 L277.973112,56.078888 C277.973395,56.0803028 277.973961,56.0822835 277.974244,56.0836983 C277.973678,56.0865279 277.972829,56.0899234 277.972829,56.0899234 C277.965755,56.0624764 277.957832,56.0500262 277.957832,56.0500262 C277.961227,56.0701163 277.964623,56.0902064 277.967735,56.1102964 C277.859362,56.484368 277.757497,56.8584395 277.655915,57.2217586 C276.812981,60.351283 276.323179,62.9861954 276.187925,65.221287 C276.185378,65.2640138 276.182831,65.3067406 276.180568,65.3494674 C276.165005,65.6329921 276.15397,65.9114236 276.150008,66.1822151 C276.149159,66.2306011 276.150008,66.2772893 276.149725,66.3253923 C276.14831,66.5427047 276.150574,66.7557726 276.156799,66.9648792 C276.15878,67.0373167 276.159912,67.110603 276.163024,67.1819086 C276.172079,67.3975232 276.186227,67.6083275 276.20377,67.8151704 C276.212259,67.9164697 276.222163,68.0163541 276.232632,68.1153897 C276.247346,68.2537566 276.264606,68.3895768 276.283282,68.5239822 C276.305635,68.6872495 276.331668,68.8471212 276.359681,69.0047292 C276.375809,69.0944272 276.392504,69.1835592 276.41033,69.2715594 C276.493803,69.6818497 276.598215,70.0731817 276.722434,70.4464043 C276.732054,70.4749832 276.741958,70.5029961 276.751861,70.531009 C276.838447,70.7825594 276.934087,71.0264699 277.039631,71.2618916 C277.041328,71.2655701 277.042743,71.2692486 277.044441,71.272927 C278.523467,74.5637379 281.846535,76.3093108 287.078443,77.5407475 C288.63981,79.1994521 289.217046,79.818 289.217046,79.818 L290.213627,79.1287123 C289.415117,78.6994638 288.681122,78.1587296 287.99523,77.5319758 C288.075307,77.4663294 288.153121,77.3953067 288.228105,77.3189078 C288.251024,77.2988178 288.272529,77.2756151 288.294883,77.2546762 C288.335629,77.2170427 288.376092,77.1791262 288.415706,77.1386631 C288.44853,77.104991 288.480221,77.0690552 288.512195,77.0334024 C288.551244,76.9898267 288.590292,76.946534 288.628208,76.9001288 C288.658485,76.8630612 288.687913,76.8237299 288.717623,76.7849646 C288.754974,76.7357297 288.792608,76.6867779 288.828826,76.6349964 C288.857122,76.5945333 288.884286,76.5520895 288.911733,76.5102116 C288.947103,76.4558835 288.982756,76.4018383 289.016994,76.3452466 C289.043309,76.3019539 289.068209,76.2563975 289.093676,76.21169 C289.127348,76.1525516 289.160737,76.0936962 289.192994,76.0320112 C289.217046,75.9858889 289.240248,75.9383518 289.263451,75.8910977 C289.294859,75.827432 289.326551,75.7640492 289.356544,75.6981198 C289.378898,75.6494509 289.399837,75.5993672 289.421342,75.5495664 C289.45077,75.4816563 289.480197,75.4143121 289.507927,75.3444213 C289.528017,75.2940546 289.546976,75.2422731 289.5665,75.1907746 C289.593664,75.1186202 289.621111,75.0467486 289.647143,74.9726134 C289.665252,74.9211149 289.681947,74.8684846 289.699208,74.8164201 C289.724391,74.7397383 289.749857,74.6633394 289.773626,74.5852428 C289.789471,74.5331784 289.804185,74.4799821 289.819182,74.4270688 C289.842385,74.3464256 289.865587,74.2657823 289.887375,74.1837243 C289.900957,74.1316598 289.91369,74.0784636 289.926706,74.0258332 C289.947928,73.9409456 289.968867,73.856058 289.988391,73.7697555 C289.999993,73.718257 290.010462,73.6659096 290.021215,73.6141282 C290.040173,73.5249962 290.059131,73.4358641 290.076109,73.3453173 C290.085446,73.2957995 290.093652,73.2457158 290.102424,73.196198 C290.119118,73.1016898 290.136096,73.0071815 290.151093,72.9115415 C290.15845,72.8651362 290.164392,72.818448 290.171183,72.7717598 C290.185614,72.6721583 290.200045,72.5725568 290.212495,72.4723894 C290.217871,72.4282478 290.222398,72.3841063 290.227492,72.3396817 C290.239376,72.2358358 290.25126,72.131707 290.260881,72.0270122 C290.264559,71.987115 290.267106,71.9472179 290.270501,71.9073207 C290.279839,71.7980986 290.288611,71.6888765 290.295402,71.5790884 C290.297665,71.5434356 290.298797,71.5080658 290.300778,71.472413 C290.307003,71.3583806 290.312945,71.2446311 290.316624,71.1305987 C290.317756,71.0986244 290.317756,71.066933 290.318604,71.0352416 C290.321434,70.9178137 290.323981,70.8003858 290.323981,70.6832409 C290.325112,70.6543791 290.324264,70.6260832 290.323981,70.5977873 Z" id="Path-Copy-3" fill="#000000" fill-rule="nonzero"></path>
                    <path d="M264.739488,53.9321953 C264.739488,53.9321953 264.059597,52.799043 263.930318,51.8605941 L262.105236,38.8421667 C262.105236,38.8421667 262.548029,38.7631339 262.451725,38.39571 L262.258068,37.7053507 C262.258068,37.7053507 262.667887,37.7482692 262.592518,37.3923599 C262.592518,37.3923599 262.495166,36.4000012 261.578177,36.3345767 L260.114238,36.3345767 L258.6503,36.3345767 C257.73331,36.3994778 257.635958,37.3923599 257.635958,37.3923599 C257.560066,37.7482692 257.970409,37.7053507 257.970409,37.7053507 L257.776752,38.39571 C257.680447,38.7626105 258.12324,38.8421667 258.12324,38.8421667 L256.298158,51.8605941 C256.168356,52.799043 255.488988,53.9321953 255.488988,53.9321953 C253.814121,55.3076798 253.77382,57.3306051 253.77382,57.3306051 L253.77382,74.4849073 C253.77382,77.4625069 255.068701,77.3332281 255.068701,77.3332281 L259.147003,77.3332281 L260.114238,77.3345767 L261.081997,77.3337515 L265.160299,77.3337515 C265.160299,77.3337515 266.45518,77.4630303 266.45518,74.4854307 L266.45518,57.3306051 C266.454657,57.3306051 266.414355,55.3076798 264.739488,53.9321953 Z" id="Path" fill="#000000" fill-rule="nonzero"></path>
                    <path d="M28.7394883,76.9321953 C28.7394883,76.9321953 28.059597,75.799043 27.9303182,74.8605941 L26.1052365,61.8421667 C26.1052365,61.8421667 26.5480295,61.7631339 26.4517246,61.39571 L26.2580681,60.7053507 C26.2580681,60.7053507 26.6678871,60.7482692 26.5925181,60.3923599 C26.5925181,60.3923599 26.4951665,59.4000012 25.5781768,59.3345767 L24.1142383,59.3345767 L22.6502998,59.3345767 C21.7333101,59.3994778 21.6359585,60.3923599 21.6359585,60.3923599 C21.5600661,60.7482692 21.9704085,60.7053507 21.9704085,60.7053507 L21.776752,61.39571 C21.6804471,61.7626105 22.1232401,61.8421667 22.1232401,61.8421667 L20.2981584,74.8605941 C20.1683563,75.799043 19.4889883,76.9321953 19.4889883,76.9321953 C17.8141213,78.3076798 17.7738198,80.3306051 17.7738198,80.3306051 L17.7738198,97.4849073 C17.7738198,100.462507 19.0687014,100.333228 19.0687014,100.333228 L23.1470026,100.333228 L24.1142383,100.334577 L25.0819974,100.333751 L29.1602986,100.333751 C29.1602986,100.333751 30.4551802,100.46303 30.4551802,97.4854307 L30.4551802,80.3306051 C30.4546568,80.3306051 30.4143553,78.3076798 28.7394883,76.9321953 Z" id="Path" fill="#000000" fill-rule="nonzero" transform="translate(24.114500, 79.834577) scale(-1, 1) rotate(90.000000) translate(-24.114500, -79.834577) "></path>
                    <polygon id="Path" fill="#000000" fill-rule="nonzero" transform="translate(147.000000, 32.000000) scale(1, -1) translate(-147.000000, -32.000000) " points="104.647059 0 104.647059 3.76470588 108.411765 3.76470588 108.411765 11.2941176 114.058824 11.2941176 114.058824 64 119.705882 64 123.470588 11.2941176 124.411765 11.2941176 131 11.2941176 163 11.2941176 169.588235 11.2941176 170.529412 11.2941176 174.294118 64 179.941176 64 179.941176 11.2941176 185.588235 11.2941176 185.588235 3.76470588 189.352941 3.76470588 189.352941 0"></polygon>
                    <path d="M146.998962,9.99177337 C146.989097,9.78293352 146.753646,7.95053225 141.573972,7.95053225 C141.458971,7.95053225 141.341376,7.95130957 141.220924,7.95312331 C139.264106,7.9844752 137.973925,8.22622158 137.119862,8.53378101 C137.117266,8.48817827 137.114411,8.44024356 137.111295,8.38919958 C137.103508,8.26482845 137.092345,8.08164014 137.097537,8.00805389 C137.120122,7.9883618 137.173338,7.95778723 137.210201,7.9367996 C137.355833,7.85336731 137.626589,7.69764429 137.635934,7.35303263 C137.641386,7.15196597 137.528982,6.98406495 137.430077,6.83585602 C137.405675,6.79958111 137.37011,6.74620517 137.348564,6.70967115 C137.371668,6.68272407 137.403598,6.64929933 137.42774,6.62442511 C137.561431,6.48554402 137.763655,6.27592685 137.694862,5.9875413 C137.653846,5.8167901 137.512368,5.67479973 137.348305,5.5102671 C137.295867,5.45766847 137.212797,5.37423618 137.178271,5.32915164 C137.179569,5.27862587 137.202153,5.1762788 137.217729,5.10580183 C137.263937,4.89644376 137.316115,4.6593613 137.217729,4.44974413 C137.137255,4.27821562 136.945415,4.19296958 136.68011,4.07481701 C136.618587,4.04761082 136.52695,4.00667199 136.467243,3.97557921 C136.46309,3.91235722 136.464907,3.81700602 136.465945,3.75300672 C136.470099,3.50944659 136.473993,3.2791009 136.359512,3.10964524 C136.22037,2.90365556 135.954805,2.82773735 135.720652,2.76088787 C135.647446,2.73990024 135.540753,2.70958478 135.494286,2.68730162 C135.470144,2.64143977 135.437695,2.53183771 135.417446,2.4636927 C135.356701,2.25873945 135.29362,2.04704942 135.128518,1.91930991 C134.964974,1.79286593 134.733676,1.76669618 134.477198,1.78897934 C134.431769,1.79286593 134.386599,1.79727074 134.342728,1.79727074 C134.30301,1.79727074 134.286396,1.7915704 134.287435,1.79390236 C134.260956,1.77317384 134.211114,1.68533673 134.181001,1.632479 C134.092999,1.47831063 133.98371,1.2865718 133.764094,1.20573057 C133.579263,1.13784467 133.338879,1.19458899 133.150933,1.25262885 C133.087333,1.27232095 132.991543,1.30185909 132.968698,1.30367283 C132.928461,1.29408589 132.8145,1.23423229 132.739218,1.19458899 C132.553348,1.09690584 132.377603,1.00440481 132.183947,1 C131.895278,1 131.750165,1.14432233 131.663461,1.2306048 C131.614657,1.27905772 131.597524,1.29512232 131.557806,1.30730033 C131.550278,1.30963228 131.455527,1.30833675 131.382321,1.30056356 C131.15284,1.27543022 130.943088,1.2901993 130.785775,1.39643297 C130.684273,1.46483709 130.620154,1.57832574 130.523066,1.75011336 C130.485944,1.81566731 130.422084,1.92837864 130.380808,1.98538207 C130.336158,1.99496902 130.261655,2.00481506 130.208438,2.01181094 C129.998686,2.03901712 129.781926,2.06751884 129.642524,2.20691814 C129.445492,2.40435731 129.474307,2.70492086 129.497411,2.94640814 C129.501564,2.99071535 129.507016,3.03191329 129.507795,3.06507892 C129.476643,3.104204 129.410187,3.1718308 129.36372,3.21872908 C129.190571,3.39388509 129.027027,3.55945415 129.002885,3.768294 C128.977185,3.99578952 129.127749,4.18338264 129.273381,4.3650163 C129.296745,4.39403623 129.326339,4.43082936 129.351,4.46373588 C129.337242,4.48446441 129.321926,4.50674757 129.30635,4.53032626 C129.098934,4.84073586 129.001327,5.0052685 129.001587,5.17187399 C129.001846,5.44445404 129.227953,5.60717293 129.392795,5.72610282 C129.417196,5.74372207 129.449126,5.76652344 129.47223,5.78284715 C129.462106,5.83959148 129.442117,5.9201736 129.42758,5.97950899 C129.360086,6.25157083 129.290255,6.53296051 129.460029,6.73324984 C129.58126,6.87601753 129.776734,6.93923952 129.965978,7.00064777 C129.990899,7.00868007 130.021531,7.01852612 130.050086,7.02837216 C130.05398,7.08226632 130.056576,7.14885669 130.058393,7.19990068 C130.0667,7.42506424 130.074228,7.61965323 130.159375,7.76138449 C130.276971,7.95623259 130.502039,7.96426489 130.719578,7.97203809 C130.759296,7.97359273 130.81433,7.97540647 130.861576,7.97903396 C130.871441,8.05236111 130.880007,8.14848962 130.885978,8.21585732 C130.914014,8.53093084 130.934522,8.75868547 131.079116,8.89549371 C131.24889,9.05665796 131.491091,9.05665796 131.607908,9.05665796 L131.770933,9.05484421 C131.782874,9.05484421 131.793518,9.05484421 131.803382,9.05510332 C131.814285,9.10899747 131.825448,9.17299678 131.833495,9.21911774 C131.882558,9.50283938 131.918123,9.70805173 132.084782,9.81739468 C132.275324,9.94280224 132.557762,9.88035757 132.773484,9.80288472 C132.803337,9.79200225 132.840978,9.77852871 132.874726,9.76764623 C132.896272,9.81065791 132.919895,9.86066547 132.937028,9.89719949 C133.042423,10.1226222 133.13354,10.3172112 133.324601,10.3884654 C133.373665,10.406862 133.425843,10.4161898 133.479839,10.4161898 C133.656362,10.4161898 133.808744,10.3174703 133.943213,10.2306696 C133.967615,10.2148641 133.998766,10.1946538 134.026283,10.178071 C134.074827,10.2140868 134.137389,10.2661672 134.180482,10.302183 C134.369726,10.4592015 134.53301,10.5949733 134.717841,10.6107788 C134.726927,10.6115562 134.752627,10.6125926 134.761712,10.6125926 C135.058169,10.6125926 135.208733,10.3716235 135.289467,10.2423294 C135.296476,10.2309287 135.305042,10.2177142 135.313349,10.2044998 C135.331002,10.2159005 135.348654,10.2278194 135.362412,10.2371472 C135.392266,10.2573575 135.423677,10.2775679 135.456126,10.2970008 L135.456126,22.6092242 C135.456126,22.6377259 135.46002,22.6662276 135.467288,22.6936929 C135.49169,22.7843802 136.126137,24.91009 141.237278,24.9974089 C141.333847,24.9989636 141.428859,25 141.522572,25 C146.389176,25 146.969368,22.7372228 146.991693,22.6408352 C146.997144,22.6169974 147,22.5923823 147,22.5680263 L146.998962,9.99177337 Z" id="Path" fill="#000000" fill-rule="nonzero" transform="translate(138.000000, 13.000000) scale(-1, 1) translate(-138.000000, -13.000000) "></path>
                    <path d="M134.993558,9.00232153 C135.10925,9.00069646 135.222881,9 135.333677,9 C138.861891,9 139.770678,9.77887406 140,10.1245502 C139.428755,10.3803831 137.784849,11 135.256635,11 C132.457872,11 130.639011,10.3810795 130,10.1224608 C130.016491,10.10296 130.036589,10.0816019 130.058748,10.0593151 C130.15125,9.99524086 130.240402,9.9225769 130.317186,9.85548462 C130.365627,9.82414393 130.419737,9.79210679 130.480031,9.75937319 C130.562742,9.74962275 130.680495,9.71874637 130.778923,9.61775972 C131.482608,9.32292513 132.742334,9.03482298 134.993558,9.00232153 Z" id="Path" fill="#000000" fill-rule="nonzero" transform="translate(135.000000, 10.000000) scale(-1, 1) translate(-135.000000, -10.000000) "></path>
                    <path d="M280.376202,126.911641 C280.376202,125.146122 279.64989,123.128386 278.620947,121.993409 C279.64989,120.858432 280.376202,118.840696 280.376202,117.075176 C280.376202,115.877145 280.073572,114.553006 279.528838,113.481083 L274.505176,113.481083 C273.960442,114.553006 273.657812,115.877145 273.657812,117.075176 C273.657812,118.840696 274.384124,120.858432 275.413067,121.993409 C274.384124,123.128386 273.657812,125.146122 273.657812,126.911641 C273.657812,128.803269 274.505176,131.073223 275.715697,132.082091 C274.505176,133.090959 273.657812,135.360913 273.657812,137.252541 C273.657812,138.1353 273.83939,139.01806 274.14202,139.90082 C275.049911,139.837766 276.018327,139.837766 277.04727,139.837766 C278.076213,139.837766 279.044629,139.90082 279.95252,139.90082 C280.25515,139.01806 280.436728,138.1353 280.436728,137.252541 C280.436728,135.360913 279.589364,133.090959 278.378843,132.082091 C279.528838,131.073223 280.376202,128.803269 280.376202,126.911641" id="Path" fill="#000000" fill-rule="nonzero"></path>
                    <path d="M278.937934,140.919768 C278.370534,140.919768 277.740089,140.857837 277.0466,140.857837 C276.353111,140.857837 275.785711,140.857837 275.155266,140.919768 C267.085574,141.229423 264.942062,143.644729 264.942062,144.387901 C264.942062,145.131072 267.400796,145.750381 277.0466,145.750381 C286.692404,145.750381 289.151138,145.131072 289.151138,144.387901 C289.214183,143.70666 287.070671,141.291354 278.937934,140.919768" id="Path" fill="#000000" fill-rule="nonzero"></path>
                    <polygon id="Path" fill="#000000" fill-rule="nonzero" points="271.433315 81.996247 256.982356 106.182223 294.026414 117.625754 295.431162 89.4095845"></polygon>
                </g>
            </g>
        </g>
    </g>
</svg>