<svg xmlns="http://www.w3.org/2000/svg" viewBox="0 0 690 219" fill="#E6E6E6">
  <path
    d="M678.07 85.3401L649.843 67.5334H647.205V57.6408H639.291V67.5334H602.666V59.8392H597.302C597.786 59.3116 598.05 58.6961 598.05 58.0805C598.05 57.1132 597.39 56.2339 596.291 55.4865V37.8557C597.346 36.5806 597.962 35.0857 597.962 33.4589C597.962 32.4037 597.698 31.3925 597.214 30.4252H597.302C597.302 30.4252 597.214 30.2933 596.994 30.0735C596.643 29.4579 596.203 28.9303 595.675 28.4027C593.653 25.7647 590.399 21.0602 589.784 17.8067C588.904 12.9703 589.124 0 586.926 0C584.728 0 584.64 14.1134 583.848 17.8067C583.145 21.0602 580.199 25.369 578.176 28.007C577.385 28.7105 576.726 29.5459 576.242 30.4252C575.758 31.3485 575.494 32.3598 575.494 33.4589C575.494 35.1297 576.154 36.7125 577.341 38.0315V55.4865C576.242 56.2339 575.582 57.1132 575.582 58.0805C575.582 58.6961 575.846 59.3116 576.33 59.8392H570.966V67.3136H539.441V57.6408H531.527V67.3136H528.45L499.871 85.3401H488L494.595 88.2419V219H682.334V88.4178H682.818L689.809 85.3401H678.07ZM520.36 206.689H506.29V188.443H520.36V206.689ZM520.36 175.912H506.29V147.993H520.36V175.912ZM520.36 129.087H506.29V106.664H520.36V129.087ZM545.641 206.689H531.571V188.443H545.641V206.689ZM545.641 175.912H531.571V147.993H545.641V175.912ZM545.641 129.087H531.571V106.664H545.641V129.087ZM570.922 210.866H556.852V195.478C556.852 191.609 560.018 188.443 563.887 188.443C567.756 188.443 570.922 191.609 570.922 195.478V210.866ZM570.922 175.912H556.852V147.993H570.922V175.912ZM570.922 129.087H556.852V106.664H570.922V129.087ZM582.134 106.664H596.203V129.087H582.134V106.664ZM596.203 211.086H582.134V195.697C582.134 191.828 585.299 188.663 589.168 188.663C593.037 188.663 596.203 191.828 596.203 195.697V211.086ZM597.522 179.43H583.453V154.808C583.453 150.939 586.618 147.773 590.487 147.773C594.356 147.773 597.522 150.939 597.522 154.808V179.43ZM632.696 106.664H646.765V129.087H632.696V106.664ZM621.484 211.086H607.415V195.697C607.415 191.828 610.58 188.663 614.449 188.663C618.318 188.663 621.484 191.828 621.484 195.697V211.086ZM621.484 175.912H607.415V147.993H621.484V175.912ZM621.484 129.087H607.415V106.664H621.484V129.087ZM632.696 147.993H646.765V175.912H632.696V147.993ZM647.425 206.689H633.355V188.443H647.425V206.689ZM657.977 106.664H672.046V129.087H657.977V106.664ZM657.977 147.993H672.046V175.912H657.977V147.993ZM672.706 206.689H658.636V188.443H672.706V206.689Z"/>
  <path
    d="M77.9062 166.151V122.606H79.5586V121.634H77.9062V101.99H74.5215C75.0393 100.624 75.3286 99.1448 75.3286 97.5976C75.3286 92.0897 71.7231 87.4216 66.7316 85.7912H67.0781V83.1772H64.7975C64.7975 83.1772 58.4582 79.7008 53.0175 70.2701C49.5147 64.1985 49.7241 56.7954 49.7241 56.7954H51.4641V54.783H45.0754C44.4395 52.5246 42.3607 50.8677 39.8859 50.8677C37.4111 50.8677 35.3285 52.5246 34.6965 54.783H28.3077V56.7954H29.9525C29.9525 56.7954 30.714 63.442 26.0233 71.1136C21.2146 78.982 15.3589 83.1772 15.3589 83.1772H12.4196V85.7912H13.2496C8.25817 87.4216 4.6526 92.0897 4.6526 97.5976C4.6526 99.1448 4.93815 100.624 5.45976 101.99H1.66001V121.634H0V122.606H1.66001V166.151H0V167.123H0.898537V218.653H78.8314V167.123H79.5586V166.151H77.9024H77.9062ZM61.4737 134.212V157.995H44.0512V134.212H61.4737ZM46.7087 105.492H52.7624V122.186H46.7087V105.492ZM34.4833 77.1171H45.2695V93.8147H34.4833V77.1171ZM34.4833 105.492H45.2695V122.186H34.4833V105.492ZM27.0361 105.492H33.0898V122.186H27.0361V105.492ZM17.0608 134.212H34.4833V157.995H17.0608V134.212ZM52.7624 211.296H6.8266V188.549H52.7624V211.296V211.296ZM23.2173 184.104V178.389H37.8261V184.104H23.2173V184.104ZM40.259 184.104V178.389H54.8679V184.104H40.259ZM59.8137 214.905L54.2816 215.283V188.546L59.8137 188.167V214.905ZM71.8754 215.283L60.8835 214.905V188.167L71.8754 188.546V215.283ZM71.8754 184.104H57.2665V178.389H71.8754V184.104ZM78.2641 169.979H1.2945V167.119H78.2679V169.979H78.2641Z"/>
  <path
    d="M295.314 166.151V122.606H296.966V121.634H295.314V101.99H291.929C292.447 100.624 292.736 99.1448 292.736 97.5976C292.736 92.0897 289.131 87.4216 284.139 85.7912H284.486V83.1772H282.205C282.205 83.1772 275.866 79.7008 270.425 70.2701C266.922 64.1985 267.132 56.7954 267.132 56.7954H268.872V54.783H262.483C261.847 52.5246 259.768 50.8677 257.294 50.8677C254.819 50.8677 252.736 52.5246 252.104 54.783H245.715V56.7954H247.36C247.36 56.7954 248.122 63.442 243.431 71.1136C238.622 78.982 232.767 83.1772 232.767 83.1772H229.827V85.7912H230.657C225.666 87.4216 222.06 92.0897 222.06 97.5976C222.06 99.1448 222.346 100.624 222.867 101.99H219.068V121.634H217.408V122.606H219.068V166.151H217.408V167.123H218.306V218.653H296.239V167.123H296.966V166.151H295.31H295.314ZM278.881 134.212V157.995H261.459V134.212H278.881ZM264.116 105.492H270.17V122.186H264.116V105.492ZM251.891 77.1171H262.677V93.8147H251.891V77.1171ZM251.891 105.492H262.677V122.186H251.891V105.492ZM244.444 105.492H250.497V122.186H244.444V105.492ZM234.469 134.212H251.891V157.995H234.469V134.212ZM270.17 211.296H224.234V188.549H270.17V211.296V211.296ZM240.625 184.104V178.389H255.234V184.104H240.625V184.104ZM257.667 184.104V178.389H272.276V184.104H257.667ZM277.221 214.905L271.689 215.283V188.546L277.221 188.167V214.905ZM289.283 215.283L278.291 214.905V188.167L289.283 188.546V215.283ZM289.283 184.104H274.674V178.389H289.283V184.104ZM295.672 169.979H218.702V167.119H295.676V169.979H295.672Z"
  />
  <path
    d="M137.061 96.546C137.061 94.7998 135.641 93.3876 133.894 93.3876C132.332 93.3876 131.037 94.5141 130.774 95.9948C130.774 95.9948 124.322 95.343 123.555 88.487C122.793 81.6833 125.863 80.5447 125.863 80.5447V75.0889H127.09V74.0549H121.739C121.856 73.6767 121.917 73.2743 121.917 72.8559C121.917 70.5746 120.065 68.7278 117.777 68.7278C117.103 68.7278 116.469 68.8928 115.904 69.1785C116.461 68.6071 116.804 67.8306 116.804 66.9736C116.804 65.2274 115.384 63.8152 113.637 63.8152C112.817 63.8152 112.071 64.129 111.506 64.64C112.059 63.9399 112.39 63.0588 112.39 62.0972C112.39 59.8159 110.537 57.9691 108.249 57.9691C105.961 57.9691 104.109 59.8159 104.109 62.0972C104.109 62.9019 104.343 63.6543 104.747 64.29C104.263 63.9922 103.694 63.8152 103.084 63.8152C101.333 63.8152 99.9166 65.2314 99.9166 66.9736C99.9166 67.8306 100.26 68.6071 100.816 69.1785C100.256 68.8928 99.618 68.7278 98.9441 68.7278C96.6561 68.7278 94.8039 70.5746 94.8039 72.8559C94.8039 73.2743 94.8685 73.6767 94.9814 74.0549H88.755V75.0889H90.6839V80.5447C90.6839 80.5447 94.2026 86.3546 92.6612 90.6275C91.386 94.1641 87.2741 95.8982 85.89 96.3931C85.8092 94.7193 84.4251 93.3876 82.7263 93.3876C81.0274 93.3876 79.5586 94.8038 79.5586 96.546C79.5586 97.8496 80.3495 98.9641 81.4794 99.4509L79.5586 100.823V101.889H80.6118V218.654H135.685V101.885H137.057V100.819L134.6 99.6199C136.008 99.298 137.057 98.0427 137.057 96.542L137.061 96.546ZM111.098 65.0786C111.022 65.1791 110.953 65.2838 110.889 65.3924L110.812 65.324C110.909 65.2475 111.006 65.163 111.094 65.0786H111.098ZM101.785 80.5407H114.746V97.6041H101.785V80.5407V80.5407ZM100.538 110.427H116.086V129.546H100.538V110.427V110.427ZM85.4299 110.427H98.4599V129.546H85.4299V110.427V110.427ZM85.4299 138.185H105.231V162.193H85.4299V138.185V138.185ZM99.9085 206.322H85.4299V171.837H99.9085V206.322ZM113.532 216.726H103.226V186.237H113.532V216.726ZM113.532 183.36H103.226V171.837H113.532V183.36ZM130.565 206.322H116.086V171.837H130.565V206.322ZM130.92 162.197H111.119V138.189H130.92V162.197ZM131.331 129.546H118.301V110.427H131.331V129.546Z"
  />
  <path
    d="M434.548 96.546C434.548 94.7998 433.128 93.3876 431.38 93.3876C429.819 93.3876 428.523 94.5141 428.261 95.9948C428.261 95.9948 421.809 95.343 421.042 88.487C420.279 81.6833 423.35 80.5447 423.35 80.5447V75.0889H424.577V74.0549H419.226C419.343 73.6767 419.404 73.2743 419.404 72.8559C419.404 70.5746 417.551 68.7278 415.263 68.7278C414.589 68.7278 413.956 68.8928 413.391 69.1785C413.948 68.6071 414.291 67.8306 414.291 66.9736C414.291 65.2274 412.87 63.8152 411.123 63.8152C410.304 63.8152 409.557 64.129 408.992 64.64C409.545 63.9399 409.876 63.0588 409.876 62.0972C409.876 59.8159 408.024 57.9691 405.736 57.9691C403.448 57.9691 401.596 59.8159 401.596 62.0972C401.596 62.9019 401.83 63.6543 402.233 64.29C401.749 63.9922 401.18 63.8152 400.571 63.8152C398.82 63.8152 397.403 65.2314 397.403 66.9736C397.403 67.8306 397.746 68.6071 398.303 69.1785C397.742 68.8928 397.105 68.7278 396.431 68.7278C394.143 68.7278 392.29 70.5746 392.29 72.8559C392.29 73.2743 392.355 73.6767 392.468 74.0549H386.242V75.0889H388.17V80.5447C388.17 80.5447 391.689 86.3546 390.148 90.6275C388.873 94.1641 384.761 95.8982 383.377 96.3931C383.296 94.7193 381.912 93.3876 380.213 93.3876C378.514 93.3876 377.045 94.8038 377.045 96.546C377.045 97.8496 377.836 98.9641 378.966 99.4509L377.045 100.823V101.889H378.098V218.654H433.172V101.885H434.544V100.819L432.086 99.6199C433.495 99.298 434.544 98.0427 434.544 96.542L434.548 96.546ZM408.585 65.0786C408.508 65.1791 408.44 65.2838 408.375 65.3924L408.298 65.324C408.395 65.2475 408.492 65.163 408.581 65.0786H408.585ZM399.271 80.5407H412.233V97.6041H399.271V80.5407V80.5407ZM398.025 110.427H413.573V129.546H398.025V110.427V110.427ZM382.917 110.427H395.946V129.546H382.917V110.427V110.427ZM382.917 138.185H402.718V162.193H382.917V138.185V138.185ZM397.395 206.322H382.917V171.837H397.395V206.322ZM411.018 216.726H400.712V186.237H411.018V216.726ZM411.018 183.36H400.712V171.837H411.018V183.36ZM428.051 206.322H413.573V171.837H428.051V206.322ZM428.406 162.197H408.605V138.189H428.406V162.197ZM428.818 129.546H415.788V110.427H428.818V129.546Z"
  />
  <path d="M186.155 193.466H181.728L172.525 200.971V207.417L190.37 192.863V186.417L186.155 189.855V193.466Z"/>
  <path
    d="M209.345 74.048V64.6591H210.845V63.0062H203.668V54.8281H205.197V53.1752H199.025V44.5467H200.441V42.8937H194.137V35.6909H194.935V34.0379H188.846V26.831H190.408V25.178H183.846V17H170.27V25.178H164.012V26.831H165.374V34.0338H159.41V35.6868H160.27V42.8896H154.132V44.5425H154.979V53.171H149.268V54.824H150.336V63.002H143.542V64.655H145.286V74.0438H138.637V75.6968H140.56V218.654H214.188V75.7009H215.832V74.048H209.345ZM162.255 193.466H145.286V143.894H162.255V193.466ZM162.255 131.662H145.286V102.082H162.255V131.662ZM164.232 91.5901H151.997V71.5231H164.232V91.5901ZM209.35 102.078V131.658H192.38V102.078H209.35V102.078ZM209.35 143.89V201.008H192.38V143.89H209.35ZM190.478 71.5189H202.713V91.5859H190.478V71.5189ZM171.263 45.6252H184.133V62.9979H171.263V45.6252ZM169.398 71.5189H185.943V91.5859H169.398V71.5189ZM168.891 102.078H185.86V131.658H168.891V102.078ZM178.688 214.786H174.473V213.914H178.688V214.786ZM182.534 212.141H178.319V211.269H182.534V212.141ZM186.155 209.496H181.94V208.624H186.155V209.496ZM190.37 207.165H186.155V206.293H190.37V207.165ZM211.983 204.719H190.37V193.987L172.521 208.542V216.075H174.892V216.947H170.677V216.075H171.645V209.261L167.512 212.633L166.948 211.963L171.645 208.132V201.686L167.512 205.058L166.948 204.388L180.341 193.466H169.182V143.894H186.151V188.722L190.366 185.284V185.156H191.243V203.847H211.974V204.719H211.983Z"
  />
  <path d="M345.778 193.466H341.351L332.148 200.971V207.417L349.993 192.863V186.417L345.778 189.855V193.466Z"/>
  <path
    d="M368.968 74.048V64.6591H370.467V63.0062H363.291V54.8281H364.819V53.1752H358.648V44.5467H360.064V42.8937H353.76V35.6909H354.557V34.0379H348.469V26.831H350.031V25.178H343.469V17H329.893V25.178H323.634V26.831H324.997V34.0338H319.033V35.6868H319.893V42.8896H313.754V44.5425H314.602V53.171H308.891V54.824H309.959V63.002H303.164V64.655H304.909V74.0438H298.26V75.6968H300.183V218.654H373.811V75.7009H375.455V74.048H368.968ZM321.878 193.466H304.909V143.894H321.878V193.466ZM321.878 131.662H304.909V102.082H321.878V131.662ZM323.854 91.5901H311.62V71.5231H323.854V91.5901ZM368.972 102.078V131.658H352.003V102.078H368.972V102.078ZM368.972 143.89V201.008H352.003V143.89H368.972ZM350.101 71.5189H362.336V91.5859H350.101V71.5189ZM330.885 45.6252H343.756V62.9979H330.885V45.6252ZM329.021 71.5189H345.566V91.5859H329.021V71.5189ZM328.514 102.078H345.483V131.658H328.514V102.078ZM338.311 214.786H334.096V213.914H338.311V214.786ZM342.157 212.141H337.941V211.269H342.157V212.141ZM345.778 209.496H341.563V208.624H345.778V209.496ZM349.993 207.165H345.778V206.293H349.993V207.165ZM371.605 204.719H349.993V193.987L332.144 208.542V216.075H334.515V216.947H330.3V216.075H331.268V209.261L327.135 212.633L326.571 211.963L331.268 208.132V201.686L327.135 205.058L326.571 204.388L339.964 193.466H328.805V143.894H345.774V188.722L349.989 185.284V185.156H350.865V203.847H371.597V204.719H371.605Z"
  />
</svg>
