<svg width="97" height="97" viewBox="0 0 97 97" fill="none" xmlns="http://www.w3.org/2000/svg">
<mask id="mask0_382_4513" style="mask-type:luminance" maskUnits="userSpaceOnUse" x="8" y="15" width="78" height="59">
<path d="M86 15.5354H8V73.5354H86V15.5354Z" fill="white"/>
</mask>
<g mask="url(#mask0_382_4513)">
<path fill-rule="evenodd" clip-rule="evenodd" d="M80.788 25.4731H63.894C63.894 25.4731 59.9401 15.5354 57.0645 15.5354H37.1152C34.2396 15.5354 30.2857 25.4731 30.2857 25.4731H13.0323C10.3364 25.4731 8 27.822 8 30.5323V68.2955C8 71.1865 10.3364 73.3547 13.0323 73.3547H80.788C83.6636 73.3547 85.8203 71.0058 85.8203 68.2955V30.5323C86 27.822 83.6636 25.4731 80.788 25.4731Z" fill="#004699"/>
</g>
<mask id="mask1_382_4513" style="mask-type:luminance" maskUnits="userSpaceOnUse" x="8" y="15" width="78" height="59">
<path d="M86 15.5354H8V73.5354H86V15.5354Z" fill="white"/>
</mask>
<g mask="url(#mask1_382_4513)">
<path fill-rule="evenodd" clip-rule="evenodd" d="M44.8432 29.6289C50.4146 29.0868 55.4469 30.5323 59.2211 33.4233C66.2303 38.6632 70.0045 51.1304 63.5344 60.7068C60.1197 65.766 53.2902 70.1024 45.0229 69.5604C35.1381 68.8376 26.3317 60.1647 27.2303 48.0588C27.5897 42.2769 29.9261 38.6632 32.8017 35.5915C35.3178 32.7005 39.4515 30.3516 44.8432 29.6289ZM36.0367 43.903C31.9031 52.3952 38.1934 61.9716 46.9999 61.7909C52.5713 61.7909 58.5022 57.6351 59.2211 50.7691C60.1197 42.2769 53.4699 36.1336 45.3824 37.2177C40.8893 37.9404 37.4745 41.1928 36.0367 43.903Z" fill="white"/>
</g>
<mask id="mask2_382_4513" style="mask-type:luminance" maskUnits="userSpaceOnUse" x="8" y="15" width="78" height="59">
<path d="M86 15.5354H8V73.5354H86V15.5354Z" fill="white"/>
</mask>
<g mask="url(#mask2_382_4513)">
<path fill-rule="evenodd" clip-rule="evenodd" d="M45.5624 37.3983C53.6499 36.3142 60.2997 42.4575 59.4011 50.9497C58.6822 57.8157 52.931 61.7908 47.1799 61.9715C38.3734 61.9715 31.9034 52.5758 36.2168 44.0836C37.4748 41.1927 40.8896 37.9403 45.5624 37.3983Z" fill="#004699"/>
</g>
<mask id="mask3_382_4513" style="mask-type:luminance" maskUnits="userSpaceOnUse" x="8" y="15" width="78" height="59">
<path d="M86 15.5354H8V73.5354H86V15.5354Z" fill="white"/>
</mask>
<g mask="url(#mask3_382_4513)">
<path d="M81.6866 28.906H64.2534V34.3266H81.6866V28.906Z" fill="white"/>
</g>
<path d="M2.70711 88.1716C1.14501 89.7337 1.14501 92.2663 2.70711 93.8284C4.2692 95.3905 6.80186 95.3905 8.36396 93.8284L93.8284 8.36396C95.3905 6.80186 95.3905 4.26921 93.8284 2.70711C92.2663 1.14501 89.7337 1.14501 88.1716 2.70711L2.70711 88.1716Z" fill="#EC0000" stroke="white" stroke-width="3" stroke-linecap="round"/>
<defs>
</defs>
</svg>
