<svg width="97" height="97" viewBox="0 0 97 97" fill="none" xmlns="http://www.w3.org/2000/svg">
<g clip-path="url(#clip0_1250_92)">
<path fill-rule="evenodd" clip-rule="evenodd" d="M80.788 25.4731H63.894C63.894 25.4731 59.9401 15.5354 57.0645 15.5354H37.1152C34.2396 15.5354 30.2857 25.4731 30.2857 25.4731H13.0323C10.3364 25.4731 8 27.822 8 30.5323V68.2955C8 71.1865 10.3364 73.3547 13.0323 73.3547H80.788C83.6636 73.3547 85.8203 71.0058 85.8203 68.2955V30.5323C86 27.822 83.6636 25.4731 80.788 25.4731Z" fill="#004699"/>
<path fill-rule="evenodd" clip-rule="evenodd" d="M44.8432 29.6289C50.4146 29.0868 55.4469 30.5323 59.2211 33.4233C66.2303 38.6632 70.0045 51.1304 63.5344 60.7068C60.1197 65.766 53.2902 70.1024 45.0229 69.5604C35.1381 68.8376 26.3317 60.1647 27.2303 48.0588C27.5897 42.2769 29.9261 38.6632 32.8017 35.5915C35.3178 32.7005 39.4515 30.3516 44.8432 29.6289ZM36.0367 43.903C31.9031 52.3952 38.1934 61.9716 46.9999 61.7909C52.5713 61.7909 58.5022 57.6351 59.2211 50.7691C60.1197 42.2769 53.4699 36.1336 45.3824 37.2177C40.8893 37.9404 37.4745 41.1928 36.0367 43.903Z" fill="white"/>
<path d="M81.6866 28.906H64.2534V34.3266H81.6866V28.906Z" fill="white"/>
<path d="M2.7071 88.1716C1.145 89.7337 1.145 92.2663 2.7071 93.8284C4.26919 95.3905 6.80185 95.3905 8.36395 93.8284L93.8284 8.36395C95.3905 6.80185 95.3905 4.2692 93.8284 2.7071C92.2663 1.145 89.7337 1.145 88.1716 2.7071L2.7071 88.1716Z" fill="#EC0000"/>
<path fill-rule="evenodd" clip-rule="evenodd" d="M87.1109 1.64644C89.2588 -0.501449 92.7412 -0.501449 94.889 1.64644C97.0369 3.79432 97.0369 7.27672 94.889 9.42461L9.42461 94.889C7.27672 97.0369 3.79432 97.0369 1.64644 94.889C-0.501448 92.7412 -0.50145 89.2588 1.64644 87.1109L87.1109 1.64644ZM92.7677 3.76776C91.7914 2.79144 90.2086 2.79144 89.2322 3.76776L3.76776 89.2322C2.79144 90.2086 2.79144 91.7914 3.76776 92.7677C4.74406 93.744 6.32697 93.744 7.30329 92.7677L92.7677 7.30329C93.744 6.32697 93.744 4.74407 92.7677 3.76776Z" fill="white"/>
</g>
<defs>
<clipPath id="clip0_1250_92">
<rect width="97" height="97" fill="white"/>
</clipPath>
</defs>
</svg>
