<svg viewBox="0 0 378 167" preserveAspectRatio="xMidYMid slice" xmlns="http://www.w3.org/2000/svg">
  <g fill="none" fill-rule="evenodd">
    <path fill="#EC0000" d="M0 0h378v167H0z"/>
    <g fill="#FFF" fill-rule="nonzero">
      <path
        d="M133.164 70.512h4.536v21.456h10.836V96h-15.372zM167.832 87.576v.576c0 .192-.012.384-.036.576h-13.14a4.279 4.279 0 0 0 1.584 3.042c.456.372.972.666 1.548.882a5.085 5.085 0 0 0 1.8.324c1.08 0 1.992-.198 2.736-.594a5.125 5.125 0 0 0 1.836-1.638l2.88 2.304c-1.704 2.304-4.176 3.456-7.416 3.456-1.344 0-2.58-.21-3.708-.63a8.75 8.75 0 0 1-2.934-1.782c-.828-.768-1.476-1.71-1.944-2.826-.468-1.116-.702-2.382-.702-3.798 0-1.392.234-2.658.702-3.798.468-1.14 1.11-2.112 1.926-2.916a8.615 8.615 0 0 1 2.898-1.872c1.116-.444 2.322-.666 3.618-.666 1.2 0 2.31.198 3.33.594a7.221 7.221 0 0 1 2.646 1.764c.744.78 1.326 1.752 1.746 2.916.42 1.164.63 2.526.63 4.086Zm-4.32-1.944c0-.552-.078-1.08-.234-1.584a3.625 3.625 0 0 0-.738-1.332 3.603 3.603 0 0 0-1.278-.918c-.516-.228-1.122-.342-1.818-.342-1.296 0-2.394.39-3.294 1.17-.9.78-1.398 1.782-1.494 3.006h8.856ZM169.524 82.176V78.72h3.024v-5.004h4.248v5.004h4.32v3.456h-4.32v8.028c0 .768.138 1.404.414 1.908.276.504.894.756 1.854.756.288 0 .6-.03.936-.09.336-.06.636-.15.9-.27l.144 3.384c-.384.144-.84.258-1.368.342a9.633 9.633 0 0 1-1.512.126c-1.152 0-2.088-.162-2.808-.486-.72-.324-1.29-.768-1.71-1.332a4.931 4.931 0 0 1-.864-1.944 11.303 11.303 0 0 1-.234-2.358v-8.064h-3.024ZM196.632 87.288c0 .672.102 1.344.306 2.016.204.672.51 1.272.918 1.8.408.528.924.96 1.548 1.296.624.336 1.368.504 2.232.504.864 0 1.608-.168 2.232-.504a4.805 4.805 0 0 0 1.548-1.296 5.552 5.552 0 0 0 .918-1.8 6.731 6.731 0 0 0 0-4.014 5.584 5.584 0 0 0-.918-1.782 4.61 4.61 0 0 0-1.548-1.278c-.624-.324-1.368-.486-2.232-.486-.864 0-1.608.162-2.232.486a4.61 4.61 0 0 0-1.548 1.278 5.584 5.584 0 0 0-.918 1.782 6.731 6.731 0 0 0-.306 1.998Zm-4.392 0c0-1.368.246-2.61.738-3.726a8.712 8.712 0 0 1 1.998-2.862c.84-.792 1.836-1.404 2.988-1.836a10.371 10.371 0 0 1 3.672-.648c1.296 0 2.52.216 3.672.648 1.152.432 2.148 1.044 2.988 1.836a8.712 8.712 0 0 1 1.998 2.862c.492 1.116.738 2.358.738 3.726 0 1.368-.246 2.616-.738 3.744a8.866 8.866 0 0 1-1.998 2.898 9.125 9.125 0 0 1-2.988 1.89 9.885 9.885 0 0 1-3.672.684 9.885 9.885 0 0 1-3.672-.684 9.125 9.125 0 0 1-2.988-1.89 8.866 8.866 0 0 1-1.998-2.898c-.492-1.128-.738-2.376-.738-3.744ZM229.428 87.288c0-.672-.102-1.338-.306-1.998a5.584 5.584 0 0 0-.918-1.782 4.61 4.61 0 0 0-1.548-1.278c-.624-.324-1.356-.486-2.196-.486-.792 0-1.5.168-2.124.504a5.441 5.441 0 0 0-2.61 3.096 6.241 6.241 0 0 0-.342 2.016c0 .672.114 1.338.342 1.998a5.57 5.57 0 0 0 1.008 1.782c.444.528.978.954 1.602 1.278.624.324 1.332.486 2.124.486.84 0 1.572-.168 2.196-.504a4.805 4.805 0 0 0 1.548-1.296 5.552 5.552 0 0 0 .918-1.8 6.909 6.909 0 0 0 .306-2.016Zm-10.08-8.568v2.412h.108c.216-.336.498-.678.846-1.026s.774-.66 1.278-.936a8.2 8.2 0 0 1 1.71-.684c.636-.18 1.35-.27 2.142-.27 1.224 0 2.352.234 3.384.702a8.076 8.076 0 0 1 2.664 1.926 8.698 8.698 0 0 1 1.728 2.88c.408 1.104.612 2.292.612 3.564 0 1.272-.198 2.466-.594 3.582a8.785 8.785 0 0 1-1.692 2.916 8.142 8.142 0 0 1-2.664 1.98c-1.044.492-2.226.738-3.546.738-1.224 0-2.346-.252-3.366-.756s-1.806-1.188-2.358-2.052h-.072v10.944h-4.32V78.72h4.14ZM238.644 93.48c0-.768.282-1.428.846-1.98a2.804 2.804 0 0 1 2.034-.828c.768 0 1.44.264 2.016.792.576.528.864 1.176.864 1.944s-.282 1.428-.846 1.98a2.804 2.804 0 0 1-2.034.828c-.384 0-.75-.072-1.098-.216a3.131 3.131 0 0 1-.918-.576 2.677 2.677 0 0 1-.63-.864 2.533 2.533 0 0 1-.234-1.08Zm5.04-5.472h-4.32V70.512h4.32v17.496Z"/>
    </g>
    <path
      d="M325.346 47v13.061c-2.071.7-3.46 2.609-3.46 4.753 0 2.145 1.389 4.053 3.46 4.754V82.64l11.978-6.289 5.931 5.805 3.253-3.184-4.943-4.837 1.679-.878h8.54V56.382h-8.54L325.346 47Zm4.598 7.515 10.345 5.422v9.766l-10.345 5.422v-20.61Zm-10 13.99-3.515 3.305 1.593 1.622 3.515-3.303-1.592-1.623Zm22.644-7.622h4.599v7.874h-4.599v-7.875ZM315 63.694v2.25h4.598v-2.25H315Zm3.043-7.618-1.626 1.59 3.52 3.445 1.625-1.59-3.52-3.445ZM49.998 112.72v8.708c1.308.466 2.186 1.739 2.186 3.168 0 1.43-.878 2.702-2.186 3.17v8.714l-7.565-4.192-3.746 3.87-2.054-2.123 3.121-3.225-1.06-.585H33.3v-11.25h5.394l11.304-6.255Zm-2.904 5.01-6.534 3.615v6.51l6.534 3.615v-13.74Zm6.316 9.327 2.22 2.203-1.006 1.082-2.22-2.203 1.006-1.082Zm-14.302-5.082h-2.904v5.25h2.904v-5.25Zm17.425 1.875v1.5h-2.905v-1.5h2.905Zm-1.922-5.079 1.026 1.06-2.222 2.297-1.027-1.06 2.223-2.297ZM106.486 33.22h-7.26v-2.5h.605c1.337 0 2.42-1.12 2.42-2.5v-6.25c0-2.761 2.167-5 4.84-5h.605c0-.69.542-1.25 1.21-1.25.669 0 1.21.56 1.21 1.25h.606c2.673 0 4.84 2.239 4.84 5v6.25c0 1.38 1.083 2.5 2.42 2.5h.605v2.5h-7.26c0 1.38-1.084 2.5-2.42 2.5-1.337 0-2.42-1.12-2.42-2.5Zm1.21 0c0 .69.542 1.25 1.21 1.25.669 0 1.21-.56 1.21-1.25h-2.42Zm-3.025-11.25v6.25c0 .91-.235 1.765-.647 2.5h9.765a5.104 5.104 0 0 1-.647-2.5v-6.25c0-1.38-1.084-2.5-2.42-2.5h-3.63c-1.337 0-2.42 1.12-2.42 2.5ZM80.25 72.75h-25.5v-3h25.5v3Zm-6 3h-19.5v3h19.5v-3Zm18-14.25V87h-16.5v7.5l-7.5-7.5h-22.5V61.5h46.5Zm-3 3h-40.5V84h40.5V64.5ZM274.375 30.375h12.75v-1.5h-12.75v1.5Zm3 1.5h9.75v1.5h-9.75v-1.5Zm-9-7.125V37.5h8.25v3.75l3.75-3.75h11.25V24.75h-23.25Zm1.5 1.5h20.25V36h-20.25v-9.75ZM274.424 141H257v-6h1.452c3.208 0 5.808-2.686 5.808-6v-15c0-6.627 5.2-12 11.616-12h1.452c0-1.657 1.3-3 2.904-3 1.604 0 2.904 1.343 2.904 3h1.452c6.416 0 11.617 5.373 11.617 12v15c0 3.314 2.6 6 5.808 6h1.452v6H286.04c0 3.314-2.6 6-5.809 6-3.207 0-5.808-2.686-5.808-6Zm2.904 0c0 1.657 1.3 3 2.904 3 1.604 0 2.904-1.343 2.904-3h-5.808Zm-7.26-27v15a12.25 12.25 0 0 1-1.554 6h23.437a12.25 12.25 0 0 1-1.554-6v-15c0-3.314-2.6-6-5.809-6h-8.712c-3.207 0-5.808 2.686-5.808 6ZM116.424 119.571l17.425 32.13H99l17.424-32.13Zm0 9.432-9.821 18.092h19.643l-9.822-18.092Zm1.115 13.532v2.246h-2.23v-2.246h2.23Zm0-6.852v5.7h-2.23v-5.7h2.23ZM342.547 118.127l9.68 17.85h-19.36l9.68-17.85Zm0 5.24-5.456 10.051h10.913l-5.457-10.051Zm.62 7.518v1.247h-1.239v-1.247h1.239Zm0-3.807v3.167h-1.239v-3.167h1.239Z"
      fill="#FFF"/>
  </g>
</svg>
