<?xml version="1.0" encoding="UTF-8"?>
<svg width="344px" height="150px" viewBox="0 0 344 150" version="1.1" xmlns="http://www.w3.org/2000/svg" xmlns:xlink="http://www.w3.org/1999/xlink">
    <title>Group 3</title>
    <g id="Symbols" stroke="none" stroke-width="1" fill="none" fill-rule="evenodd">
        <g id="Group-3">
            <g id="Group-2" transform="translate(20.000000, 19.249619)">
                <path d="M158.813048,120.465581 C157.369019,122.371034 155.700013,123.596535 154.212004,123.596535 C151.866373,123.596535 152.452781,122.190129 149.023988,122.190129 C146.678357,122.190129 146.272382,123.778007 143.475669,123.234159 C142.618612,123.052687 140.949605,122.190129 139.325707,120.193941 C141.62623,119.33195 143.205019,117.562601 143.205019,115.476244 C143.205019,114.477583 142.889261,113.570791 142.212637,112.708801 C143.520777,111.074988 143.475669,108.897328 142.122421,107.127979 C144.783809,103.861489 142.212637,100.458895 138.558867,99.3700647 C139.686574,98.7349137 141.039822,98.4627062 142.573504,98.5534421 C144.468051,98.6441779 145.640867,99.6876401 147.851172,100.413527 C146.994115,98.1904987 147.851172,95.0601121 149.926153,93.6083386 C151.144077,93.0185556 152.767975,94.1073857 151.730484,95.2415838 C151.369054,95.5591592 149.565287,97.6460836 150.872863,100.821838 C153.895118,101.00331 154.977717,98.8710175 157.594561,99.0978571 C158.722268,99.188593 159.804866,99.4608005 160.75214,100.232055 C157.098934,100.867206 153.850573,104.49664 155.79023,108.262177 C155.203822,109.441743 155.294038,110.802781 155.925554,112.073083 C152.813647,115.203469 154.888064,119.331383 158.813048,120.465581 Z" id="Path" fill="#EC0000" fill-rule="nonzero"></path>
                <g id="Group" transform="translate(108.146741, 67.596535)" fill-rule="nonzero">
                    <path d="M22.5751861,28 L0.98152983,28 C0.439445874,28 0,28.4821549 0,29.0769231 C0,29.6716913 0.439445874,30.1538462 0.98152983,30.1538462 L22.5751861,30.1538462 C23.1172701,30.1538462 23.5567159,29.6716913 23.5567159,29.0769231 C23.5567159,28.4821549 23.1172701,28 22.5751861,28 Z" id="Path" fill="#000000"></path>
                    <path d="M17.221387,0 L7.40608872,0 C6.86400476,0 6.42455889,0.482154885 6.42455889,1.07692308 L6.42455889,4.30769231 L18.2029169,4.30769231 L18.2029169,1.07692308 C18.2029169,0.482154885 17.763471,0 17.221387,0 Z" id="Path" fill="#FFFFFF"></path>
                    <path d="M23.5567159,36.5615385 C23.5567159,35.9965087 23.1172701,35.5384615 22.5751861,35.5384615 L0.98152983,35.5384615 C0.439445874,35.5384615 0,35.9965087 0,36.5615385 L0,52.9307692 C0,54.6258586 1.31833762,56 2.94458949,56 L20.6121264,56 C22.2383783,56 23.5567159,54.6258586 23.5567159,52.9307692 L23.5567159,36.5615385 Z M21.5936563,50.8846154 C21.5936563,52.5797047 20.2753186,53.9538462 18.6490668,53.9538462 L12.7598878,53.9538462 C12.2178038,53.9538462 11.778358,53.495799 11.778358,52.9307692 C11.778358,52.3657394 12.2178038,51.9076923 12.7598878,51.9076923 L18.6490668,51.9076923 C19.1911507,51.9076923 19.6305966,51.4496452 19.6305966,50.8846154 L19.6305966,45.7692308 C19.6305966,45.204201 20.0700425,44.7461538 20.6121264,44.7461538 C21.1542104,44.7461538 21.5936563,45.204201 21.5936563,45.7692308 L21.5936563,50.8846154 Z" id="Shape" fill="#000000"></path>
                    <path d="M22.5751861,32.3076923 L0.98152983,32.3076923 C0.439445874,32.3076923 0,32.7898472 0,33.3846154 C0,33.9793836 0.439445874,34.4615385 0.98152983,34.4615385 L22.5751861,34.4615385 C23.1172701,34.4615385 23.5567159,33.9793836 23.5567159,33.3846154 C23.5567159,32.7898472 23.1172701,32.3076923 22.5751861,32.3076923 Z" id="Path" fill="#000000"></path>
                    <path d="M0.147945339,22.1347551 C0.329844121,22.4363706 0.655894644,22.6189974 1.0059348,22.6153846 L22.5507811,22.6153846 C22.9008213,22.6189974 23.2268718,22.4363706 23.4087706,22.1347551 C23.5758834,21.8644397 23.6031089,21.5293319 23.4818549,21.2351908 L15.4045398,10.649409 C15.0016113,10.1194936 14.7827855,9.47059765 14.7818217,8.80282868 L14.7818217,6.46153846 L8.77489426,6.46153846 L8.77489426,8.80282868 C8.77386286,9.47106059 8.55466969,10.1203577 8.15117496,10.6504186 L0.0748610557,21.2351908 C-0.0463930128,21.5293319 -0.0191674836,21.8644397 0.147945339,22.1347551 L0.147945339,22.1347551 Z" id="Path" fill="#000000"></path>
                    <path d="M22.5751861,23.6923077 L0.98152983,23.6923077 C0.439445874,23.6923077 0,24.1744626 0,24.7692308 C0,25.363999 0.439445874,25.8461538 0.98152983,25.8461538 L22.5751861,25.8461538 C23.1172701,25.8461538 23.5567159,25.363999 23.5567159,24.7692308 C23.5567159,24.1744626 23.1172701,23.6923077 22.5751861,23.6923077 Z" id="Path" fill="#000000"></path>
                </g>
                <path d="M98.9865217,103.679292 C98.9865217,99.5751645 95.72201,96.2918625 91.6413705,96.2918625 C89.5738465,96.2918625 87.7239565,97.112688 86.4181519,98.4807305 C85.1123472,97.112688 83.2624573,96.2918625 81.1949333,96.2918625 C77.1142937,96.2918625 73.8497821,99.5751645 73.8497821,103.679292 C73.8497821,105.375665 74.4482759,106.962594 75.4276294,108.221193 L74.66591,121.080793 C74.557093,122.229949 75.4820379,123.214939 76.6790255,123.214939 L96.2116868,123.214939 C97.3542659,123.214939 98.2792108,122.229949 98.2248023,121.080793 L97.4630829,108.221193 C98.3880279,107.017316 98.9865217,105.430387 98.9865217,103.679292 Z" id="Path" fill="#000000" fill-rule="nonzero"></path>
                <path d="M178.986522,16.6792921 C178.986522,12.5751645 175.72201,9.29186247 171.64137,9.29186247 C169.573846,9.29186247 167.723957,10.112688 166.418152,11.4807305 C165.112347,10.112688 163.262457,9.29186247 161.194933,9.29186247 C157.114294,9.29186247 153.849782,12.5751645 153.849782,16.6792921 C153.849782,18.3756648 154.448276,19.9625942 155.427629,21.2211933 L154.66591,34.080793 C154.557093,35.2299488 155.482038,36.2149394 156.679026,36.2149394 L176.211687,36.2149394 C177.354266,36.2149394 178.279211,35.2299488 178.224802,34.080793 L177.463083,21.2211933 C178.388028,20.0173159 178.986522,18.4303865 178.986522,16.6792921 Z" id="Path-Copy-2" fill="#EC0000" fill-rule="nonzero"></path>
                <path d="M62.7923468,93.0306101 C62.3630435,89.7589178 60.6532066,84.8951503 60.2880775,83.793458 C59.9229484,82.6910238 57.5492405,76.5267401 56.9576576,72.8685281 C56.4354123,69.6383811 56.1344574,61.0956289 56.1012639,60.115605 C56.099051,60.0547708 56.1138037,59.9961623 56.1440467,59.9434888 L56.1750273,59.8893315 C56.2244488,59.8025315 56.2318252,59.6971845 56.1942058,59.6044495 L56.1942058,59.6044495 C56.1551112,59.5087469 56.1639628,59.4004324 56.2178101,59.3121486 L56.4767198,58.8870512 C56.5165521,58.8217657 56.5320424,58.7438683 56.5202403,58.6681965 L56.4162338,57.9886341 C56.4073822,57.9315093 56.3837779,57.877352 56.3468962,57.8328392 L56.2399392,57.7007845 C56.1831413,57.6303059 56.1580617,57.5405383 56.1706015,57.4507708 C56.1986316,57.2423025 56.2347757,56.8335264 56.1484725,56.4863264 C56.0356144,56.0322956 55.9227563,55.998911 55.616638,55.8023127 C55.5650036,55.7674443 55.5045175,55.7503811 55.4432939,55.7503811 L53.4590569,55.7503811 L51.6171835,55.7503811 C51.5559598,55.7503811 51.4962114,55.7674443 51.444577,55.8008289 C51.1384587,55.9981691 51.0256006,56.0315537 50.9127425,56.4848426 C50.8264393,56.8320426 50.8625834,57.2408187 50.8906135,57.4492871 C50.9031533,57.5390546 50.8780737,57.629564 50.8212758,57.6993007 L50.7143188,57.8313554 C50.6781747,57.8766101 50.6538328,57.9300255 50.6449812,57.9871503 L50.5409747,58.6667127 C50.5291726,58.7423845 50.5446629,58.8202819 50.5844951,58.8855674 L50.8434049,59.3114067 C50.8972522,59.3996905 50.9061038,59.508005 50.8670092,59.6037076 L50.8670092,59.6037076 C50.8293898,59.6964426 50.8360285,59.8017896 50.8861877,59.8885896 L50.9171683,59.9427469 C50.9474113,59.9954204 50.962164,60.0547708 50.9599511,60.1148631 C50.9267576,61.0948871 50.6265403,69.6376392 50.1035574,72.8677862 C49.5119745,76.5259982 47.1382666,82.6910238 46.7731375,83.7927161 C46.4080084,84.8951503 44.6981715,89.7589178 44.2688682,93.0298683 C43.8218617,96.4321315 43.8646445,108.953588 43.9730768,110.855769 C44.0527413,112.259407 43.9782402,118.371017 44.1124897,119.999444 C44.1781392,120.791773 44.5270403,121.335571 44.6893199,121.515848 C45.4896534,122.40462 53.4406161,122.519612 53.4406161,122.519612 C53.4406161,122.519612 61.570824,122.40462 62.3718951,121.51659 C62.5341747,121.337055 62.8830758,120.792514 62.9487253,120.000186 C63.0837124,118.371759 63.0084737,112.260149 63.0881382,110.856511 C63.1965705,108.95433 63.2393533,96.4328734 62.7923468,93.0306101 Z" id="Path" fill="#000000" fill-rule="nonzero"></path>
                <path d="M213.792347,47.0306101 C213.363043,43.7589178 211.653207,38.8951503 211.288078,37.793458 C210.922948,36.6910238 208.54924,30.5267401 207.957658,26.8685281 C207.435412,23.6383811 207.134457,15.0956289 207.101264,14.115605 C207.099051,14.0547708 207.113804,13.9961623 207.144047,13.9434888 L207.175027,13.8893315 C207.224449,13.8025315 207.231825,13.6971845 207.194206,13.6044495 L207.194206,13.6044495 C207.155111,13.5087469 207.163963,13.4004324 207.21781,13.3121486 L207.47672,12.8870512 C207.516552,12.8217657 207.532042,12.7438683 207.52024,12.6681965 L207.416234,11.9886341 C207.407382,11.9315093 207.383778,11.877352 207.346896,11.8328392 L207.239939,11.7007845 C207.183141,11.6303059 207.158062,11.5405383 207.170602,11.4507708 C207.198632,11.2423025 207.234776,10.8335264 207.148472,10.4863264 C207.035614,10.0322956 206.922756,9.998911 206.616638,9.80231271 C206.565004,9.76744433 206.504518,9.75038108 206.443294,9.75038108 L204.459057,9.75038108 L202.617184,9.75038108 C202.55596,9.75038108 202.496211,9.76744433 202.444577,9.80082895 C202.138459,9.99816912 202.025601,10.0315537 201.912743,10.4848426 C201.826439,10.8320426 201.862583,11.2408187 201.890613,11.4492871 C201.903153,11.5390546 201.878074,11.629564 201.821276,11.6993007 L201.714319,11.8313554 C201.678175,11.8766101 201.653833,11.9300255 201.644981,11.9871503 L201.540975,12.6667127 C201.529173,12.7423845 201.544663,12.8202819 201.584495,12.8855674 L201.843405,13.3114067 C201.897252,13.3996905 201.906104,13.508005 201.867009,13.6037076 L201.867009,13.6037076 C201.82939,13.6964426 201.836029,13.8017896 201.886188,13.8885896 L201.917168,13.9427469 C201.947411,13.9954204 201.962164,14.0547708 201.959951,14.1148631 C201.926758,15.0948871 201.62654,23.6376392 201.103557,26.8677862 C200.511975,30.5259982 198.138267,36.6910238 197.773137,37.7927161 C197.408008,38.8951503 195.698172,43.7589178 195.268868,47.0298683 C194.821862,50.4321315 194.864644,62.9535879 194.973077,64.8557691 C195.052741,66.2594067 194.97824,72.371017 195.11249,73.9994443 C195.178139,74.7917725 195.52704,75.3355708 195.68932,75.5158478 C196.489653,76.4046204 204.440616,76.5196119 204.440616,76.5196119 C204.440616,76.5196119 212.570824,76.4046204 213.371895,75.5165896 C213.534175,75.3370546 213.883076,74.7925144 213.948725,74.0001862 C214.083712,72.3717589 214.008474,66.2601486 214.088138,64.856511 C214.19657,62.9543298 214.239353,50.4328734 213.792347,47.0306101 Z" id="Path-Copy" fill="#000000" fill-rule="nonzero" transform="translate(204.530607, 43.134996) scale(1, -1) translate(-204.530607, -43.134996) "></path>
                <path d="M102.792942,60.2274194 L93.7311149,55.7503811 C91.77088,58.1684185 88.8010889,59.5763221 85.6607852,59.5763221 C82.5204815,59.5763221 79.5506904,58.1684185 77.5904555,55.7503811 L68.5286282,60.2955976 L70.396333,69.3860307 L75.284647,67.6133962 L75.284647,89.1349965 L96.0369234,89.1349965 L96.0369234,67.6133962 L100.948295,69.4314828 L102.792942,60.2274194 Z" id="Shape" fill="#000000" fill-rule="nonzero"></path>
                <path d="M250.792942,50.2274194 L241.731115,45.7503811 C239.77088,48.1684185 236.801089,49.5763221 233.660785,49.5763221 C230.520482,49.5763221 227.55069,48.1684185 225.590455,45.7503811 L216.528628,50.2955976 L218.396333,59.3860307 L223.284647,57.6133962 L223.284647,79.1349965 L244.036923,79.1349965 L244.036923,57.6133962 L248.948295,59.4314828 L250.792942,50.2274194 Z" id="Shape-Copy" fill="#EC0000" fill-rule="nonzero" transform="translate(233.660785, 62.442689) scale(1, -1) translate(-233.660785, -62.442689) "></path>
                <g id="Group" transform="translate(164.194867, 86.187346)" fill="#000000" fill-rule="nonzero">
                    <path d="M41.3910174,12.6399585 L4.98518365,12.6399585 L4.98518365,37.4091892 L41.3910174,37.4091892 L41.3910174,12.6399585 Z M30.7726492,20.3803431 L15.6035518,20.3803431 L15.6035518,17.2841892 L30.7726492,17.2841892 L30.7726492,20.3803431 Z" id="Shape"></path>
                    <polygon id="Rectangle" transform="translate(20.511201, 9.409189) rotate(-12.000000) translate(-20.511201, -9.409189) " points="0.703482665 4.04909408 40.3314534 4.00271782 40.3189193 14.7692844 0.690948542 14.8156606"></polygon>
                </g>
                <path d="M30.952097,95.5893574 L32.2655624,77.1573495 C34.0073317,77.013798 35.7348242,76.8989568 37.4765935,76.6979848 C37.1910576,74.0279276 36.9197984,71.3435152 36.6342625,68.673458 C24.7416901,70.0515521 12.7349034,70.0515521 0.842331054,68.673458 C0.556795104,71.3435152 0.285535951,74.0279276 0,76.6979848 C1.68466211,76.8989568 3.36932422,76.9994429 5.05398633,77.1429943 L6.3674517,95.5893574 L0,95.5893574 L0,100.972537 L2.68403794,100.972537 L2.68403794,103.671305 L2.68403794,122.519612 L8.02356021,122.519612 L10.364955,103.671305 L27.0973617,103.671305 L29.4387565,122.505257 L34.7925556,122.505257 L34.7925556,103.671305 L34.7925556,103.671305 L34.7925556,100.972537 L37.4765935,100.972537 L37.4765935,95.5893574 L30.952097,95.5893574 Z M25.5216443,95.5965349 L21.4151963,95.5965349 L21.4151963,77.4490531 C23.1951243,77.419924 24.9890674,77.3762302 26.7689954,77.2888426 L25.5216443,95.5965349 Z M9.63683833,77.2888426 C11.778358,77.3907948 13.9198776,77.419924 16.0613972,77.4490531 L16.0613972,95.5965349 L11.1081114,95.5965349 L9.63683833,77.2888426 Z" id="Shape" fill="#EC0000" fill-rule="nonzero"></path>
                <path d="M177.952097,63.5893574 L179.265562,45.1573495 C181.007332,45.013798 182.734824,44.8989568 184.476594,44.6979848 C184.191058,42.0279276 183.919798,39.3435152 183.634262,36.673458 C171.74169,38.0515521 159.734903,38.0515521 147.842331,36.673458 C147.556795,39.3435152 147.285536,42.0279276 147,44.6979848 C148.684662,44.8989568 150.369324,44.9994429 152.053986,45.1429943 L153.367452,63.5893574 L147,63.5893574 L147,68.9725372 L149.684038,68.9725372 L149.684038,71.6713047 L149.684038,90.5196119 L155.02356,90.5196119 L157.364955,71.6713047 L174.097362,71.6713047 L176.438757,90.5052567 L181.792556,90.5052567 L181.792556,71.6713047 L181.792556,71.6713047 L181.792556,68.9725372 L184.476594,68.9725372 L184.476594,63.5893574 L177.952097,63.5893574 Z M172.521644,63.5965349 L168.415196,63.5965349 L168.415196,45.4490531 C170.195124,45.419924 171.989067,45.3762302 173.768995,45.2888426 L172.521644,63.5965349 Z M156.636838,45.2888426 C158.778358,45.3907948 160.919878,45.419924 163.061397,45.4490531 L163.061397,63.5965349 L158.108111,63.5965349 L156.636838,45.2888426 Z" id="Shape-Copy-2" fill="#000000" fill-rule="nonzero" transform="translate(165.738297, 63.596535) scale(-1, -1) rotate(90.000000) translate(-165.738297, -63.596535) "></path>
                <g id="Group" transform="translate(215.222723, 86.981150)" stroke="#000000">
                    <path d="M18.2705857,0 C28.2855734,0 36.4058337,8.16700029 36.4058337,18.3757506 C36.4058337,28.4483843 28.2855734,36.6153846 18.2705857,36.6153846 C8.12026031,36.6153846 0,28.4483843 0,18.3757506 C0,8.16700029 8.12026031,0 18.2705857,0 Z" id="Path" stroke-width="5.7063849"></path>
                    <path d="M18.2705857,5.7169002 C25.1728069,5.7169002 30.7216515,11.4338004 30.7216515,18.3757506 C30.7216515,25.3177009 25.1728069,30.8984844 18.2705857,30.8984844 C11.3683644,30.8984844 5.68418221,25.3177009 5.68418221,18.3757506 C5.68418221,11.4338004 11.3683644,5.7169002 18.2705857,5.7169002 Z" id="Path" stroke-width="1.06957842"></path>
                    <path d="M18.2705857,13.3394338 C20.9773391,13.3394338 23.2780795,15.5173005 23.2780795,18.3757506 C23.2780795,21.0980841 20.9773391,23.4120675 18.2705857,23.4120675 C15.4284946,23.4120675 13.2630918,21.0980841 13.2630918,18.3757506 C13.2630918,15.5173005 15.4284946,13.3394338 18.2705857,13.3394338 Z" id="Path" stroke-width="1.06957842"></path>
                    <line x1="18.2987217" y1="13.3394338" x2="18.2987217" y2="5.7169002" id="Path" stroke-width="1.06957842"></line>
                    <line x1="18.2987217" y1="30.7623677" x2="18.2987217" y2="23.2759508" id="Path" stroke-width="1.06957842"></line>
                    <line x1="23.2780795" y1="18.4040486" x2="30.7216515" y2="18.4040486" id="Path" stroke-width="1.06957842"></line>
                    <line x1="13.1277542" y1="18.4040486" x2="5.68418221" y2="18.4040486" id="Path" stroke-width="1.06957842"></line>
                    <line x1="27.0675344" y1="9.39205033" x2="21.7893652" y2="14.7006005" id="Path" stroke-width="1.06957842"></line>
                    <line x1="9.47363702" y1="9.39205033" x2="14.7518062" y2="14.7006005" id="Path" stroke-width="1.06957842"></line>
                    <line x1="27.0675344" y1="27.2233343" x2="21.7893652" y2="21.9147841" id="Path" stroke-width="1.06957842"></line>
                    <line x1="9.47363702" y1="27.2233343" x2="14.7518062" y2="21.9147841" id="Path" stroke-width="1.06957842"></line>
                </g>
                <g id="Group" transform="translate(55.222723, 6.981150)" stroke="#000000">
                    <path d="M18.2705857,0 C28.2855734,0 36.4058337,8.16700029 36.4058337,18.3757506 C36.4058337,28.4483843 28.2855734,36.6153846 18.2705857,36.6153846 C8.12026031,36.6153846 0,28.4483843 0,18.3757506 C0,8.16700029 8.12026031,0 18.2705857,0 Z" id="Path" stroke-width="5.7063849"></path>
                    <path d="M18.2705857,5.7169002 C25.1728069,5.7169002 30.7216515,11.4338004 30.7216515,18.3757506 C30.7216515,25.3177009 25.1728069,30.8984844 18.2705857,30.8984844 C11.3683644,30.8984844 5.68418221,25.3177009 5.68418221,18.3757506 C5.68418221,11.4338004 11.3683644,5.7169002 18.2705857,5.7169002 Z" id="Path" stroke-width="1.06957842"></path>
                    <path d="M18.2705857,13.3394338 C20.9773391,13.3394338 23.2780795,15.5173005 23.2780795,18.3757506 C23.2780795,21.0980841 20.9773391,23.4120675 18.2705857,23.4120675 C15.4284946,23.4120675 13.2630918,21.0980841 13.2630918,18.3757506 C13.2630918,15.5173005 15.4284946,13.3394338 18.2705857,13.3394338 Z" id="Path" stroke-width="1.06957842"></path>
                    <line x1="18.2987217" y1="13.3394338" x2="18.2987217" y2="5.7169002" id="Path" stroke-width="1.06957842"></line>
                    <line x1="18.2987217" y1="30.7623677" x2="18.2987217" y2="23.2759508" id="Path" stroke-width="1.06957842"></line>
                    <line x1="23.2780795" y1="18.4040486" x2="30.7216515" y2="18.4040486" id="Path" stroke-width="1.06957842"></line>
                    <line x1="13.1277542" y1="18.4040486" x2="5.68418221" y2="18.4040486" id="Path" stroke-width="1.06957842"></line>
                    <line x1="27.0675344" y1="9.39205033" x2="21.7893652" y2="14.7006005" id="Path" stroke-width="1.06957842"></line>
                    <line x1="9.47363702" y1="9.39205033" x2="14.7518062" y2="14.7006005" id="Path" stroke-width="1.06957842"></line>
                    <line x1="27.0675344" y1="27.2233343" x2="21.7893652" y2="21.9147841" id="Path" stroke-width="1.06957842"></line>
                    <line x1="9.47363702" y1="27.2233343" x2="14.7518062" y2="21.9147841" id="Path" stroke-width="1.06957842"></line>
                </g>
                <g id="noun_lamp_118402" transform="translate(256.967667, 59.000000)" fill="#000000" fill-rule="nonzero">
                    <g id="Group">
                        <path d="M23.4085351,46.9116415 C23.4085351,45.1461221 22.6822226,43.1283856 21.6532799,41.9934089 C22.6822226,40.8584321 23.4085351,38.8406957 23.4085351,37.0751763 C23.4085351,35.8771453 23.1059049,34.5530058 22.5611705,33.4810833 L17.537509,33.4810833 C16.9927747,34.5530058 16.6901444,35.8771453 16.6901444,37.0751763 C16.6901444,38.8406957 17.4164569,40.8584321 18.4453997,41.9934089 C17.4164569,43.1283856 16.6901444,45.1461221 16.6901444,46.9116415 C16.6901444,48.8032694 17.537509,51.0732229 18.7480299,52.0820911 C17.537509,53.0909593 16.6901444,55.3609128 16.6901444,57.2525407 C16.6901444,58.1353004 16.8717226,59.0180601 17.1743528,59.9008198 C18.0822434,59.8377655 19.0506601,59.8377655 20.0796028,59.8377655 C21.1085455,59.8377655 22.0769622,59.9008198 22.9848528,59.9008198 C23.287483,59.0180601 23.4690611,58.1353004 23.4690611,57.2525407 C23.4690611,55.3609128 22.6216965,53.0909593 21.4111757,52.0820911 C22.5611705,51.0732229 23.4085351,48.8032694 23.4085351,46.9116415" id="Path"></path>
                        <path d="M21.9702668,61.9197682 C21.4028666,61.9197682 20.7724219,61.8578373 20.0789327,61.8578373 C19.3854435,61.8578373 18.8180433,61.8578373 18.1875986,61.9197682 C10.1179064,62.2294229 7.97439445,64.6447293 7.97439445,65.3879005 C7.97439445,66.1310717 10.4331288,66.7503811 20.0789327,66.7503811 C29.7247366,66.7503811 32.183471,66.1310717 32.183471,65.3879005 C32.2465154,64.7066603 30.1030035,62.2913538 21.9702668,61.9197682" id="Path"></path>
                        <polygon id="Path" transform="translate(22.535517, 18.824505) rotate(17.000000) translate(-22.535517, -18.824505) " points="9.89815605 5.0909633 3.14992983 32.4451783 41.9211038 32.5580468 35.0148617 5.16408168"></polygon>
                    </g>
                </g>
                <g id="noun_lamp_118402-copy" transform="translate(101.967667, 0.000000)" fill="#000000" fill-rule="nonzero">
                    <g id="Group">
                        <path d="M23.4085351,46.9116415 C23.4085351,45.1461221 22.6822226,43.1283856 21.6532799,41.9934089 C22.6822226,40.8584321 23.4085351,38.8406957 23.4085351,37.0751763 C23.4085351,35.8771453 23.1059049,34.5530058 22.5611705,33.4810833 L17.537509,33.4810833 C16.9927747,34.5530058 16.6901444,35.8771453 16.6901444,37.0751763 C16.6901444,38.8406957 17.4164569,40.8584321 18.4453997,41.9934089 C17.4164569,43.1283856 16.6901444,45.1461221 16.6901444,46.9116415 C16.6901444,48.8032694 17.537509,51.0732229 18.7480299,52.0820911 C17.537509,53.0909593 16.6901444,55.3609128 16.6901444,57.2525407 C16.6901444,58.1353004 16.8717226,59.0180601 17.1743528,59.9008198 C18.0822434,59.8377655 19.0506601,59.8377655 20.0796028,59.8377655 C21.1085455,59.8377655 22.0769622,59.9008198 22.9848528,59.9008198 C23.287483,59.0180601 23.4690611,58.1353004 23.4690611,57.2525407 C23.4690611,55.3609128 22.6216965,53.0909593 21.4111757,52.0820911 C22.5611705,51.0732229 23.4085351,48.8032694 23.4085351,46.9116415" id="Path"></path>
                        <path d="M21.9702668,61.9197682 C21.4028666,61.9197682 20.7724219,61.8578373 20.0789327,61.8578373 C19.3854435,61.8578373 18.8180433,61.8578373 18.1875986,61.9197682 C10.1179064,62.2294229 7.97439445,64.6447293 7.97439445,65.3879005 C7.97439445,66.1310717 10.4331288,66.7503811 20.0789327,66.7503811 C29.7247366,66.7503811 32.183471,66.1310717 32.183471,65.3879005 C32.2465154,64.7066603 30.1030035,62.2913538 21.9702668,61.9197682" id="Path"></path>
                        <polygon id="Path" transform="translate(22.535517, 18.824505) rotate(17.000000) translate(-22.535517, -18.824505) " points="9.89815605 5.0909633 3.14992983 32.4451783 41.9211038 32.5580468 35.0148617 5.16408168"></polygon>
                    </g>
                </g>
            </g>
            <rect id="Rectangle" x="0" y="0" width="344" height="150"></rect>
        </g>
    </g>
</svg>