<svg width="20" height="20" xmlns="http://www.w3.org/2000/svg">
  <g fill="none" fill-rule="evenodd">
    <path fill="#E6E6E6" d="M-15-14h376v840H-15z"/>
    <path fill="#FFF" d="M-15-16h375V97H-15z"/>
    <path
      d="M7.5 17.5H0V15h.625a2.5 2.5 0 0 0 2.5-2.5V6.25a5 5 0 0 1 5-5h.625a1.25 1.25 0 1 1 2.5 0h.625a5 5 0 0 1 5 5v6.25a2.5 2.5 0 0 0 2.5 2.5H20v2.5h-7.5a2.5 2.5 0 1 1-5 0Zm1.25 0a1.25 1.25 0 0 0 2.5 0h-2.5ZM5.625 6.25v6.25c0 .91-.243 1.765-.669 2.5h10.088a4.977 4.977 0 0 1-.669-2.5V6.25a2.5 2.5 0 0 0-2.5-2.5h-3.75a2.5 2.5 0 0 0-2.5 2.5Z"
      fill="#EC0000" fill-rule="nonzero"/>
  </g>
</svg>
