<svg width="18" height="18" xmlns="http://www.w3.org/2000/svg">
    <g fill="none" fill-rule="evenodd">
        <path fill="#E6E6E6" d="M-15-371h376v840H-15z"/>
        <path fill="#F5F5F5" d="M-15-16h377v135H-15z"/>
        <path
          d="M6.75 15.75H0V13.5h.563a2.25 2.25 0 0 0 2.25-2.25V5.625a4.5 4.5 0 0 1 4.5-4.5h.562a1.125 1.125 0 0 1 2.25 0h.563a4.5 4.5 0 0 1 4.5 4.5v5.625a2.25 2.25 0 0 0 2.25 2.25H18v2.25h-6.75a2.25 2.25 0 1 1-4.5 0Z"
          fill="#B4B4B4" fill-rule="nonzero"/>
    </g>
</svg>
