<svg viewBox="0 0 32 32" xmlns="http://www.w3.org/2000/svg">
  <g fill="none" fill-rule="evenodd">
    <path fill="#F5F5F5" d="M-16-14h343v64H-16z"/>
    <g fill="#004699">
      <path d="M9.7 1.13 4.71 29.39l2.58 2.47 4.99-28.27zM4.13 8.06.27 29.94l2 1.91L6.13 9.97zM15.96 19.997l-.596-8.216c-.79-.064-1.574-.115-2.364-.204.13-1.19.253-2.387.382-3.577a71.756 71.756 0 0 0 16.236 0c.13 1.19.252 2.387.382 3.577-.764.09-1.528.134-2.293.198l-.595 8.222H30v2.4h-1.218V32H26.36l-1.062-8.401h-7.59l-1.062 8.395h-2.428V22.396H13v-2.4h2.96Zm2.506.003H20v-7.93a52.476 52.476 0 0 1-2-.07l.466 8ZM25 12c-.667.045-1.333.057-2 .07V20h1.542L25 12Z"/>
    </g>
  </g>
</svg>
