<svg xmlns="http://www.w3.org/2000/svg" viewBox="0 0 32 32" fill-rule="evenodd">
  <path d="M23.4 7h-15V5.5h15V7zm-4 1.5h-11V10h11V8.5zm10-7v13h-9v5l-5-5h-13v-13h27zm-2 2h-23v9h23v-9zm-2.5 24h-3.7c-2.1 0-3.6.9-3.6 3.6v.9h11v-.9c0-2.7-1.6-3.6-3.7-3.6zm.9-3.7c.2-1.1-.3-2.2-1.2-2.9-.9-.6-2.2-.6-3.1 0s-1.4 1.8-1.2 2.9c.3 1.3 1.4 2.3 2.8 2.3s2.4-1 2.7-2.3zm-14.9 3.7H7.2c-2.1 0-3.6.9-3.6 3.6v.9h11v-.9c0-2.7-1.6-3.6-3.7-3.6zm.9-3.7c.2-1.1-.3-2.2-1.2-2.9s-2.2-.6-3.1 0-1.4 1.8-1.2 2.9c0 .7.3 1.4.8 1.9s1.2.8 2 .8c1.5 0 2.7-1.2 2.7-2.7z"/>
</svg>
