<svg viewBox="0 0 33 32" xmlns="http://www.w3.org/2000/svg">
  <path d="M16.3799 0C7.54333 0 0.379883 7.16344 0.379883 16C0.379883 24.8366 7.54333 32 16.3799 32C25.2164 32 32.3799 24.8366 32.3799 16C32.3799 11.7565 30.6942 7.68687 27.6936 4.68629C24.693 1.68571 20.6233 0 16.3799 0ZM17.2799 28V26H15.2799V27.9C9.48649 27.4228 4.90363 22.7975 4.47988 17H6.37988V15H4.47988C4.91009 9.16758 9.54746 4.53021 15.3799 4.1V6H17.3799V4.1C23.2123 4.53021 27.8497 9.16758 28.2799 15H26.3799V17H28.2799C27.8492 22.8875 23.1674 27.5693 17.2799 28ZM17.3799 15H21.3799V17H15.3799V9H17.3799V15Z" />
</svg>
