<svg width="48" height="48" viewBox="0 0 48 48" fill="none" xmlns="http://www.w3.org/2000/svg">
<g clip-path="url(#clip0_513_6561)">
<path d="M48 41.2251C48 44.9513 44.9513 48 41.2251 48H6.77488C3.04869 48 0 44.9513 0 41.2251V6.77488C0 3.04869 3.04869 0 6.77488 0H41.2251C44.9513 0 48 3.04869 48 6.77488V41.2251Z" fill="black"/>
<path d="M5.35217 36.6524V25.3384H8.60411C12.4319 25.3384 14.566 27.2692 14.566 30.6905C14.566 34.7893 12.2625 36.6863 8.53637 36.6863H5.35217V36.6524ZM7.41851 34.9587H8.60411C10.8737 34.9587 12.3642 33.7392 12.3642 30.7583C12.3642 28.3193 10.8737 27.0321 8.43474 27.0321H7.38464V34.9587H7.41851Z" fill="white"/>
<path d="M17.3437 24.5591C18.0889 24.5591 18.4954 25.0333 18.4954 25.6769C18.4954 26.2867 18.0889 26.7948 17.3437 26.7948C16.5984 26.7948 16.192 26.3544 16.192 25.6769C16.2258 25.0672 16.5984 24.5591 17.3437 24.5591ZM18.326 36.6522H16.3613V28.1498L18.326 28.0481V36.6522Z" fill="white"/>
<path d="M23.0685 34.9922H25.1009C26.9301 34.9922 27.7093 35.7035 27.7093 37.0924C27.7093 38.7183 26.3543 40.0394 23.2378 40.0394C20.7989 40.0394 19.681 39.1587 19.681 37.8376C19.681 37.0246 20.1214 36.3471 20.9683 35.9745V35.9068C20.5618 35.7035 20.2908 35.2632 20.2908 34.755C20.2908 34.213 20.6295 33.7049 21.2393 33.4678V33.4001C20.4601 32.9597 20.0198 32.2483 20.0198 31.1305C20.0198 29.0641 21.4086 27.9463 23.5766 27.9463C24.0508 27.9463 24.4573 28.014 24.8977 28.1157H27.6754V29.4029H26.3543V29.4706C26.7269 29.7416 27.0318 30.3514 27.0318 31.0627C27.0318 32.9597 25.7445 33.9421 23.4072 33.9421C23.0346 33.9421 22.662 33.8743 22.3232 33.8066C22.0861 33.9421 21.9506 34.1453 21.9506 34.3485C21.9845 34.7889 22.2894 34.9922 23.0685 34.9922ZM23.4411 38.6167C25.3042 38.6167 25.9817 38.1425 25.9817 37.465C25.9817 36.9569 25.6768 36.6859 24.8299 36.6859L21.9845 36.5843C21.6457 36.8214 21.5102 37.0924 21.5102 37.4989C21.5102 38.1425 22.12 38.6167 23.4411 38.6167ZM25.2364 30.995C25.2364 29.9449 24.6606 29.4029 23.5766 29.4029C22.5942 29.4029 21.9167 29.9449 21.9167 31.1305C21.9167 32.2483 22.5265 32.6887 23.5427 32.6887C24.6267 32.6887 25.2364 32.1806 25.2364 30.995Z" fill="white"/>
<path d="M30.0127 24.5591C30.7579 24.5591 31.1644 25.0333 31.1644 25.6769C31.1644 26.2867 30.7579 26.7948 30.0127 26.7948C29.2675 26.7948 28.861 26.3544 28.861 25.6769C28.861 25.0672 29.2675 24.5591 30.0127 24.5591ZM30.995 36.6522H29.0303V28.1498L30.995 28.0481V36.6522Z" fill="#E17000"/>
<path d="M33.4679 36.6524V25.3384H36.7198C40.5476 25.3384 42.6817 27.2692 42.6817 30.6905C42.6817 34.7893 40.3783 36.6863 36.6521 36.6863H33.4679V36.6524ZM35.5342 34.9587H36.7198C38.9894 34.9587 40.4799 33.7392 40.4799 30.7583C40.4799 28.3193 38.9894 27.0321 36.5505 27.0321H35.5004V34.9587H35.5342Z" fill="#E17000"/>
</g>
<defs>
<clipPath id="clip0_513_6561">
<rect width="48" height="48" fill="white"/>
</clipPath>
</defs>
</svg>
