<svg viewBox="0 0 46 46" xmlns="http://www.w3.org/2000/svg">
  <g fill="#004699" fill-rule="evenodd">
    <path d="m43.4 37.273-3.2-3.4-2.2 2.1-4.4-4.4-5.7-17.7c-.2-1-.7-1.9-1.5-2.6l-5.3-5.2-.6-.6-2.4-2.4-.4-.4-8 8.5 3.4 3.3 3 3-3.8 5.4L0 44.273h5.5l9.7-16.8 5.9 6.1v10.7h4.8v-12.6l-5.1-5.3 1.7-2.4 13.6 13.8-2.2 2 3 3.5c.8.8 1.9 1.3 3 1.4 1.1.1 2.3-.3 3.2-1.2.8-.8 1.4-1.8 1.4-3 .1-1.2-.3-2.3-1.1-3.2Zm-28.6-24.5 3-3.2 2.3 2.3-2.5 3.6-2.8-2.7Zm10.6 6.8 1.8 5.6-3.4-3.4 1.6-2.2Z"/>
    <circle transform="rotate(-67.5 28.748 5.749)" cx="28.748" cy="5.749" r="4.4"/>
  </g>
</svg>
