<svg viewBox="0 0 32 32" xmlns="http://www.w3.org/2000/svg">
  <path d="M0 18.557v-5.13c.026.006.051.013.076.016h1.319a3.83 3.83 0 0 0 2.511-5.922L2.883 6.498l-.006-.004h.002l3.615-3.615.01-.01.049.068.926.926a3.832 3.832 0 0 0 5.965-2.41V.002L13.44 0h5.13c-.006.025-.01.05-.014.076v1.318a3.83 3.83 0 0 0 5.92 2.512l1.025-1.023.002-.006v.002l3.617 3.615h-.001l.01.01-.068.049-.926.926a3.83 3.83 0 0 0 .425 4.91 3.81 3.81 0 0 0 1.984 1.054H32h-.002v5.127c-.024-.004-.05-.01-.075-.013h-1.318a3.831 3.831 0 0 0-2.511 5.921l1.023 1.024.005.002h-.002v.002l-3.616 3.613-.01.012c-.015-.024-.032-.047-.048-.07l-.926-.926a3.834 3.834 0 0 0-5.963 2.41V32v-.002H13.43l.013-.076v-1.319a3.829 3.829 0 0 0-5.921-2.51l-1.024 1.024c-.002 0-.002.002-.004.004v-.002L2.88 25.506v-.002l-.01-.01c.024-.013.045-.03.069-.048l.926-.924a3.831 3.831 0 0 0-2.41-5.965H0ZM16 22a6 6 0 1 0 0-12 6 6 0 0 0 0 12Z" />
</svg>
