<svg xmlns="http://www.w3.org/2000/svg" viewBox="0 0 32 32" fill-rule="evenodd">
  <path d="M0 18.6v-5.1h1.4c2.1-.4 3.5-2.3 3.1-4.4-.1-.6-.3-1.1-.6-1.6l-1-1 3.6-3.6V3l.9.9c1.7 1.2 4.1.8 5.3-.9.3-.4.5-.9.6-1.5V0h5.1v1.4c.4 2.1 2.3 3.5 4.4 3.1.5-.1 1-.3 1.5-.6l1-1 3.6 3.6h-.1l-.9.9c-1.1 1.5-.9 3.6.4 4.9.5.5 1.2.9 2 1.1H32v5.1h-1.4c-2.1.4-3.5 2.4-3.1 4.4.1.5.3 1 .6 1.5l1 1-3.6 3.6v-.1l-.9-.9c-1.7-1.2-4.1-.8-5.3.9-.3.4-.5.9-.6 1.5V32h-5.1v-1.4c-.4-2.1-2.3-3.5-4.4-3.1-.5.1-1 .3-1.5.6l-1 1-3.6-3.6h.1l.9-.9c1.2-1.7.8-4.1-.9-5.3-.4-.3-.9-.5-1.5-.6H0zM16 22c3.3 0 6-2.7 6-6s-2.7-6-6-6-6 2.7-6 6 2.7 6 6 6z"/>
</svg>
