<svg xmlns="http://www.w3.org/2000/svg" viewBox="0 0 32 32" fill-rule="evenodd">
  <path d="M26.3 18.3c-.4 1.5-2.1 4.9-2.1 4.9L19 21.9s.5-2.8.1-3.8c-.4-1.1-.8-2.9-.8-4.6 0-2.4.5-3.3 1.6-5.1.6-.9 2-1.5 3.2-1.4.8 0 1.5.3 2.2.9.9.8 1.3 2 1.5 3.5.5 2.7.4 3.7-.5 6.9zm-9.2 7.9c-.3 1-.5 1.8-.3 2.9.1.6.5 1.2 1.4 1.5 1 .4 1.8.4 2 .4.8-.1 1.4-.5 1.9-1 1-1.1 1.6-5.1 1.6-5.1l-5.5-1.4c0-.1-.8 1.8-1.1 2.7zM5 12c.2 1.6 1.5 5.1 1.5 5.1l5.4-.7s-.2-2.8.3-3.8c.5-1.1 1.1-2.8 1.3-4.5.3-2.4-.1-3.3-1-5.3-.5-.9-1.8-1.7-3.1-1.8-.8 0-1.6.1-2.3.6-1 .7-1.6 1.9-1.9 3.3-.7 2.9-.7 3.8-.2 7.1zm7.4 6-5.6.8s.2 4 1 5.3c.4.6.9 1 1.7 1.2.2 0 1 .1 2-.2.9-.3 1.4-.8 1.6-1.4.3-1 .2-1.9 0-2.9l-.7-2.8z"/>
</svg>
