<svg viewBox="0 0 15 14" xmlns="http://www.w3.org/2000/svg">
  <path d="M12.024 8.051c-.192.717-.96 2.308-.96 2.308l-2.447-.601s.224-1.295.069-1.795c-.164-.525-.364-1.365-.364-2.166 0-1.112.215-1.544.747-2.387.261-.415.912-.704 1.502-.674.36.018.719.142 1.016.408.412.37.629.952.715 1.64.167 1.346.116 1.787-.279 3.268ZM7.72 11.74c-.148.444-.234.862-.156 1.348.048.296.25.541.652.72.444.198.852.189.93.192.382-.058.66-.229.871-.476.448-.523.74-2.39.74-2.39l-2.555-.668s-.346.866-.482 1.274ZM2.045 5.12c.106.733.682 2.401.682 2.401l2.502-.32s-.072-1.312.141-1.79c.224-.504.521-1.316.615-2.112.13-1.104-.032-1.557-.462-2.455C5.312.402 4.7.04 4.11.004c-.359-.023-.73.06-1.057.29-.453.32-.736.874-.902 1.548-.325 1.319-.325 1.762-.106 3.277ZM5.5 7.948l-2.617.375s.073 1.887.456 2.458c.18.268.436.47.81.57.078.007.482.061.946-.084.42-.132.65-.353.731-.641.135-.474.098-.9.003-1.358-.087-.42-.33-1.32-.33-1.32h.001Z" />
</svg>
