<svg xmlns="http://www.w3.org/2000/svg" viewBox="0 0 32 32" fill-rule="evenodd">
  <path d="m0 32 2.2-8.2C.8 21.4.1 18.7.1 15.9.1 7.1 7.3 0 16 0c4.2 0 8.2 1.7 11.2 4.7s4.6 7 4.6 11.2c0 8.7-7.1 15.9-15.9 15.9-2.7 0-5.3-.7-7.6-1.9L0 32zm8.8-5.1C11 28.3 13.2 29 16 29c7.3 0 13.2-5.9 13.2-13.2 0-7.3-5.9-13.2-13.2-13.2-7.3.1-13.2 6-13.2 13.3 0 3 .9 5.2 2.3 7.5l-1.3 4.9 5-1.4zM24 19.6c-.1-.2-.4-.3-.8-.5s-2.3-1.2-2.7-1.3c-.4-.1-.6-.2-.9.2-.3.4-1 1.3-1.3 1.6s-.5.3-.9.1c-.4-.2-1.7-.6-3.2-2-1.2-1.1-2-2.3-2.2-2.7-.2-.4 0-.6.2-.8.2-.2.4-.5.6-.7.2-.2.3-.4.4-.7.1-.3.1-.5 0-.7-.1-.1-.8-2.1-1.2-2.9-.3-.8-.6-.7-.9-.7h-.8c-.3 0-.7.1-1.1.5-.2.4-1.3 1.4-1.3 3.3 0 2 1.4 3.8 1.6 4.1.2.3 2.8 4.3 6.8 6 .9.4 1.7.7 2.3.8.9.3 1.8.3 2.5.2.8-.1 2.3-1 2.7-1.9.3-.9.3-1.7.2-1.9z"/>
</svg>
