<svg viewBox="0 0 32 32" xmlns="http://www.w3.org/2000/svg">
  <path
    d="m0 32 2.25-8.217a15.823 15.823 0 0 1-2.117-7.928C.137 7.113 7.251 0 15.991 0a15.755 15.755 0 0 1 11.217 4.65 15.765 15.765 0 0 1 4.64 11.22c-.004 8.742-7.117 15.855-15.857 15.855a15.866 15.866 0 0 1-7.584-1.93L0 32Zm8.796-5.076c2.235 1.327 4.368 2.121 7.19 2.123 7.263 0 13.18-5.912 13.185-13.18.002-7.283-5.887-13.187-13.175-13.19-7.27 0-13.183 5.912-13.185 13.179-.002 2.967.868 5.188 2.328 7.512l-1.332 4.864 4.989-1.308Zm15.183-7.285c-.099-.166-.363-.264-.76-.463-.396-.199-2.344-1.157-2.708-1.29-.363-.131-.627-.198-.892.2-.264.395-1.024 1.289-1.255 1.553-.23.264-.463.297-.859.098-.396-.198-1.673-.616-3.186-1.966-1.178-1.051-1.974-2.348-2.204-2.746-.231-.396-.024-.61.173-.808.179-.177.396-.462.595-.694.201-.23.266-.395.4-.66.132-.264.066-.496-.034-.695-.1-.197-.892-2.148-1.221-2.941-.323-.772-.65-.668-.892-.68l-.76-.014c-.264 0-.693.099-1.056.496-.363.398-1.387 1.355-1.387 3.306 0 1.95 1.42 3.834 1.618 4.098.198.264 2.793 4.267 6.768 5.983.945.408 1.684.652 2.258.835.95.301 1.814.258 2.496.157.762-.113 2.344-.959 2.675-1.884.33-.927.33-1.72.23-1.885Z"
  />
</svg>
