<svg width="48" height="48" viewBox="0 0 48 48" fill="none" xmlns="http://www.w3.org/2000/svg">
<g clip-path="url(#clip0_1439_168)">
<path fill-rule="evenodd" clip-rule="evenodd" d="M21.5296 44.2771C24.3279 46.602 27.9238 48 31.8461 48C40.7677 48 48 40.7677 48 31.8461C48 27.9238 46.602 24.3279 44.2771 21.5296C43.6612 33.8119 33.8119 43.6612 21.5296 44.2771Z" fill="white"/>
<path fill-rule="evenodd" clip-rule="evenodd" d="M20.3077 40.6154C31.5233 40.6154 40.6154 31.5233 40.6154 20.3077C40.6154 9.09206 31.5233 0 20.3077 0C9.09206 0 0 9.09206 0 20.3077C0 31.5233 9.09206 40.6154 20.3077 40.6154ZM12.951 23.9757C13.9961 27.818 16.9163 30.8304 21.773 30.8304C24.4472 30.8304 26.353 30.0312 27.7362 28.5865L25.0313 25.6663C24.2013 26.3733 23.064 26.7729 21.8652 26.7729C20.1746 26.7729 18.6377 25.943 17.8385 23.9757H22.9103V21.3937H17.2237C17.1929 21.1785 17.1929 20.8096 17.1929 20.4408C17.1929 20.1641 17.1929 19.7645 17.2237 19.4879H22.9103V16.9059H17.8385C18.6684 14.8771 20.2053 14.1087 21.8959 14.1087C23.1255 14.1087 24.2013 14.5083 25.062 15.2767L27.7362 12.3566C26.3837 10.9426 24.478 10.1127 21.8345 10.1127C16.947 10.1127 14.0576 12.9713 13.0125 16.9059H10.7993V19.4879H12.4592C12.4285 19.7645 12.4285 20.1949 12.4285 20.4408C12.4285 20.7789 12.4285 21.1785 12.4592 21.3937H10.7993V23.9757H12.951Z" fill="white"/>
</g>
<defs>
<clipPath id="clip0_1439_168">
<rect width="48" height="48" fill="white"/>
</clipPath>
</defs>
</svg>
