<svg viewBox="0 0 322 166" fill="none" xmlns="http://www.w3.org/2000/svg">
    <g transform="translate(70, 10)">
        <rect x="17.1269" y="41.1562" width="148.717" height="95.6864" rx="8" transform="rotate(7 17.1269 41.1562)"
            fill="black" />
        <path
            d="M110.796 64.2724L151.889 69.318L146.814 110.65L130.88 108.694L132.255 97.4895L107.115 117.25L95.562 102.374L121.645 81.873L108.828 80.2992L110.796 64.2724Z"
            fill="white" />
        <rect x="21.4484" y="33.2295" width="148.717" height="95.6864" rx="8" transform="rotate(4 21.4484 33.2295)"
            fill="white" />
        <path
            d="M116.199 51.4115L157.499 54.2995L154.595 95.8408L138.58 94.7209L139.368 83.4599L115.295 104.509L102.98 90.2582L127.955 68.4201L115.073 67.5193L116.199 51.4115Z"
            fill="white" />
        <rect x="24.4545" y="27.0791" width="148.717" height="95.6864" rx="8" fill="#A00078" />
        <path
            d="M120.243 38.6079L161.644 38.6079L161.644 80.2506H145.59V68.9621L123.045 91.6389L109.766 78.282L133.156 54.7551H120.243V38.6079Z"
            fill="white" />
    </g>
</svg>