<svg width="78" height="48" viewBox="0 0 78 48" fill="none" xmlns="http://www.w3.org/2000/svg">
<path fill-rule="evenodd" clip-rule="evenodd" d="M-0.000244141 11.2875L4.24626 7.05467L-0.000244141 2.82187L2.83076 0L7.07726 4.2328L11.3238 0L14.1548 2.82187L9.90826 7.05467L14.1548 11.2875L11.3238 14.1093L7.07726 9.87654L2.83076 14.1093L-0.000244141 11.2875ZM24.7852 1.28395C22.6619 1.28395 21.1615 2.79365 21.1615 4.93827C21.1615 7.097 22.6336 8.62081 24.7144 8.62081C26.7386 8.62081 28.1399 7.35097 28.1399 5.54497V4.44444H24.9834V5.62963H26.6961V5.81305C26.6961 6.75838 25.9034 7.40741 24.7569 7.40741C23.5112 7.40741 22.6336 6.39153 22.6336 4.93827C22.6336 3.51323 23.5254 2.51146 24.8135 2.51146C25.5071 2.51146 26.0874 2.76543 26.4838 3.21693L27.418 2.32804C26.7669 1.63668 25.861 1.28395 24.7852 1.28395ZM56.7047 17.1005C56.7047 15.4356 57.8088 14.2645 59.3659 14.2645C60.0878 14.2645 60.6681 14.575 61.0503 15.1534H61.0786V11.8942H62.4234V19.7672H61.1494V18.9347H61.1211C60.7672 19.5414 60.1161 19.9083 59.3659 19.9083C57.8088 19.8942 56.7047 18.7372 56.7047 17.1005ZM61.0645 17.0864C61.0645 16.1129 60.47 15.478 59.5782 15.478C58.6864 15.478 58.0919 16.127 58.0919 17.0864C58.0919 18.0459 58.6864 18.6949 59.5782 18.6949C60.47 18.6949 61.0645 18.0459 61.0645 17.0864ZM25.3372 12.6984H23.7094L20.8501 19.7531H22.3081L22.9026 18.2011H26.0591L26.6536 19.7531H28.1682L25.3372 12.6984ZM25.6345 17.0441H23.3414L24.4738 14.067H24.5021L25.6345 17.0441ZM30.334 14.4056H29.0742V19.7672H30.4189V16.7901C30.4189 15.9295 30.7728 15.4497 31.3956 15.4497C32.0326 15.4497 32.3298 15.8589 32.3298 16.7478V19.7672H33.6745V16.7901C33.6745 15.9153 34.0284 15.4497 34.6512 15.4497C35.274 15.4497 35.5855 15.873 35.5855 16.7478V19.7672H36.9302V16.522C36.9302 15.0123 36.2932 14.2787 34.9626 14.2787C34.1983 14.2787 33.6038 14.6032 33.2782 15.1958C32.9526 14.5891 32.4289 14.2787 31.7353 14.2787C31.1125 14.2787 30.6312 14.5891 30.3623 15.1393H30.334V14.4056ZM39.4215 17.5097C38.6854 17.2981 37.9777 16.903 37.9777 15.9295C37.9777 14.9418 38.8128 14.2645 40.0443 14.2645C40.8794 14.2645 41.5164 14.5608 41.8703 15.097L41.0918 15.873C40.8228 15.5344 40.4548 15.351 40.0443 15.351C39.5913 15.351 39.3082 15.5626 39.3082 15.8871C39.3082 16.2667 39.6493 16.37 40.1743 16.529C40.2543 16.5532 40.3385 16.5787 40.4265 16.6067C41.1625 16.8183 41.8703 17.2134 41.8703 18.1869C41.8703 19.2028 40.9927 19.8942 39.7187 19.8942C38.8836 19.8942 38.2041 19.5979 37.8078 19.0476L38.5863 18.2716C38.8836 18.6243 39.2799 18.8078 39.7046 18.8078C40.2283 18.8078 40.5397 18.5961 40.5397 18.2293C40.5397 17.8544 40.1844 17.7451 39.6409 17.578C39.5708 17.5564 39.4975 17.5339 39.4215 17.5097ZM43.2999 15.5203V17.8483C43.2999 19.1323 43.9369 19.8095 45.1826 19.8095C45.4232 19.8095 45.7204 19.7813 45.8903 19.739V18.6102C45.7771 18.6384 45.5931 18.6667 45.4373 18.6667C44.9278 18.6667 44.6588 18.3704 44.6588 17.8483V15.5203H45.9611V14.4056H44.6588V12.9524H43.4981V13.7848C43.4981 14.2363 43.3283 14.4056 42.8753 14.4056H42.3799V15.5203H43.2999ZM46.6122 17.0864C46.6122 15.4215 47.7305 14.2787 49.33 14.2787C50.9295 14.2787 52.0477 15.4215 52.0477 17.0582C52.0477 17.1534 52.0318 17.2963 52.0179 17.4213C52.0132 17.463 52.0088 17.5026 52.0053 17.5379H47.9711C48.0702 18.2716 48.693 18.7513 49.4857 18.7513C50.0802 18.7513 50.5898 18.5397 50.9295 18.1446L51.7505 18.9347C51.2551 19.5697 50.4058 19.9083 49.4291 19.9083C47.7729 19.8942 46.6122 18.7372 46.6122 17.0864ZM50.6889 16.5362C50.6039 15.8307 50.0519 15.351 49.33 15.351C48.5939 15.351 48.056 15.8307 47.9711 16.5362H50.6889ZM54.4541 14.4056H53.1943V19.7813H54.539V16.9594C54.539 16.1552 54.9778 15.6332 55.6714 15.6332C55.8837 15.6332 56.181 15.6614 56.3367 15.7037V14.4198C56.2518 14.3915 56.0253 14.3633 55.8554 14.3633C55.2185 14.3633 54.7372 14.6878 54.4824 15.2945H54.4541V14.4056ZM65.7498 16.5644C64.3201 16.5785 63.4567 17.1993 63.4567 18.2293C63.4567 19.2169 64.2352 19.8942 65.3393 19.8942C66.0187 19.8942 66.5708 19.6261 66.9105 19.1323H66.9388C67.0521 19.5273 67.4059 19.7672 67.9155 19.7672H68.5525V18.709H68.4534C68.2269 18.709 68.142 18.6243 68.142 18.4268V16.2963C68.142 15.0406 67.2361 14.2645 65.7923 14.2645C64.858 14.2645 64.1078 14.575 63.6407 15.1534L64.4617 15.9436C64.7589 15.6049 65.1836 15.4215 65.6649 15.4215C66.4009 15.4215 66.7973 15.746 66.7973 16.381V16.5503L65.7498 16.5644ZM66.7973 17.4533V17.7637C66.7973 18.4409 66.316 18.9065 65.5941 18.9065C65.1411 18.9065 64.8156 18.6102 64.8156 18.2011C64.8156 17.7213 65.1978 17.4815 65.9055 17.4674L66.7973 17.4533ZM69.6141 14.4056H70.8739V15.1393H70.9022C71.1712 14.5891 71.6524 14.2787 72.2753 14.2787C72.9688 14.2787 73.4926 14.5891 73.8181 15.1958C74.1437 14.6032 74.7382 14.2787 75.5026 14.2787C76.8332 14.2787 77.4701 15.0123 77.4701 16.522V19.7672H76.1254V16.7478C76.1254 15.873 75.814 15.4497 75.1912 15.4497C74.5542 15.4497 74.2145 15.9153 74.2145 16.7901V19.7672H72.8698V16.7478C72.8698 15.8589 72.5725 15.4497 71.9355 15.4497C71.3127 15.4497 70.9588 15.9295 70.9588 16.7901V19.7672H69.6141V14.4056ZM29.06 5.79894C29.06 4.13404 30.1782 2.99118 31.7778 2.99118C33.3773 2.99118 34.4955 4.13404 34.4955 5.77072C34.4955 5.86597 34.4796 6.00884 34.4657 6.13385C34.461 6.17551 34.4566 6.21518 34.4531 6.25044H30.4189C30.518 6.98413 31.1408 7.46384 31.9335 7.46384C32.528 7.46384 33.0376 7.2522 33.3773 6.85714L34.1983 7.64727C33.7028 8.28219 32.8535 8.62081 31.8768 8.62081C30.2066 8.62081 29.06 7.44973 29.06 5.79894ZM33.1366 5.26279C33.0517 4.55732 32.4997 4.0776 31.7778 4.0776C31.0559 4.0776 30.4897 4.55732 30.4189 5.26279H33.1366ZM36.8736 3.11817H35.6138V8.47972H36.9585V5.50265C36.9585 4.64197 37.3124 4.16226 37.9352 4.16226C38.5722 4.16226 38.8694 4.57143 38.8694 5.46032V8.47972H40.2141V5.50265C40.2141 4.62787 40.568 4.16226 41.1908 4.16226C41.8137 4.16226 42.1251 4.58554 42.1251 5.46032V8.47972H43.4698V5.23457C43.4698 3.72487 42.8328 2.99118 41.5023 2.99118C40.7379 2.99118 40.1434 3.3157 39.8178 3.90829C39.4922 3.30159 38.9685 2.99118 38.2749 2.99118C37.6521 2.99118 37.1708 3.30159 36.9019 3.85185H36.8736V3.11817ZM44.5597 5.79894C44.5597 4.13404 45.678 2.99118 47.2775 2.99118C48.877 2.99118 49.9953 4.13404 49.9953 5.77072C49.9953 5.86596 49.9793 6.00882 49.9654 6.13382C49.9608 6.17548 49.9563 6.21517 49.9528 6.25044H45.9186C46.0177 6.98413 46.6405 7.46384 47.4332 7.46384C48.0277 7.46384 48.5373 7.2522 48.877 6.85714L49.698 7.64727C49.2026 8.28219 48.3533 8.62081 47.3766 8.62081C45.7063 8.62081 44.5597 7.44973 44.5597 5.79894ZM48.6364 5.26279C48.5515 4.55732 47.9994 4.0776 47.2775 4.0776C46.5414 4.0776 45.9894 4.55732 45.9186 5.26279H48.6364ZM53.4916 2.99118C51.892 2.99118 50.7738 4.13404 50.7738 5.79894C50.7738 7.44973 51.9345 8.62081 53.5906 8.62081C54.5673 8.62081 55.4166 8.28219 55.9121 7.64727L55.0911 6.85714C54.7514 7.2522 54.2418 7.46384 53.6473 7.46384C52.8546 7.46384 52.2318 6.98413 52.1327 6.25044H56.1668C56.1704 6.21517 56.1748 6.17548 56.1795 6.13382C56.1934 6.00882 56.2093 5.86596 56.2093 5.77072C56.2093 4.13404 55.0911 2.99118 53.4916 2.99118ZM53.5057 4.0776C54.2276 4.0776 54.7797 4.55732 54.8646 5.26279H52.1468C52.2176 4.55732 52.7555 4.0776 53.5057 4.0776ZM57.3559 3.11817H58.6157V3.85185H58.644C58.8988 3.3157 59.4366 2.99118 60.0736 2.99118C61.4184 2.99118 62.1261 3.7672 62.1261 5.23457V8.47972H60.7814V5.50265C60.7814 4.58554 60.4558 4.16226 59.7622 4.16226C59.0686 4.16226 58.7006 4.64197 58.7006 5.53086V8.47972H57.3559V3.11817ZM63.853 4.2328V6.56085C63.853 7.85891 64.4758 8.52205 65.7356 8.52205C65.9763 8.52205 66.2735 8.49383 66.4434 8.4515V7.32275C66.3301 7.35097 66.1461 7.37919 65.9904 7.37919C65.4808 7.37919 65.2119 7.08289 65.2119 6.56085V4.2328H66.5142V3.11817H65.2119V1.6649H64.0512V2.49735C64.0512 2.94885 63.8813 3.11817 63.4284 3.11817H62.9329V4.2328H63.853ZM67.1653 5.79894C67.1653 4.13404 68.2835 2.99118 69.8831 2.99118C71.4826 2.99118 72.6008 4.13404 72.6008 5.77072C72.6008 5.86584 72.5849 6.00845 72.571 6.13333L72.571 6.13346V6.13353L72.571 6.13369L72.5707 6.136C72.5662 6.17687 72.5618 6.21578 72.5583 6.25044H68.5242C68.6233 6.98413 69.2461 7.46384 70.0388 7.46384C70.6333 7.46384 71.1429 7.2522 71.4826 6.85714L72.3036 7.64727C71.8081 8.28219 70.9588 8.62081 69.9821 8.62081C68.3118 8.62081 67.1653 7.44973 67.1653 5.79894ZM68.5242 5.26279H71.2419C71.157 4.55732 70.605 4.0776 69.8831 4.0776C69.147 4.0776 68.5949 4.55732 68.5242 5.26279ZM4.24626 40.9453L-0.000244141 45.1781L2.83076 48L7.07726 43.7672L11.3238 48L14.1548 45.1781L9.90826 40.9453L14.1548 36.7125L11.3238 33.8907L7.07726 38.1235L2.83076 33.8907L-0.000244141 36.7125L4.24626 40.9453ZM4.24626 24.0141L-0.000244141 28.2469L2.83076 31.0688L7.07726 26.836L11.3238 31.0688L14.1548 28.2469L9.90826 24.0141L14.1548 19.7813L11.3238 16.9594L7.07726 21.1922L2.83076 16.9594L-0.000244141 19.7813L4.24626 24.0141Z" fill="#E42313"/>
</svg>
