<svg xmlns="http://www.w3.org/2000/svg" viewBox="0 0 229.9 208" style="enable-background:new 0 0 229.9 208" fill="#000">
  <style>.st2{fill:#b4b4b4}.st6,.st7{fill:#fff;stroke:#000;stroke-miterlimit:10}.st7{fill:none}.st10{fill:#ec0000}.st11{fill:#767676}.st14{fill:none}.st16{fill:#7e4815}</style>
  <path d="M124 118.7c1.4 2.7 2 9.2-.6 9.9-1 .3-2.5-.2-4-1l1.1 6.9h-5.9l2-9.3c-1.1-1.4-1.9-3.1-1.7-5 .4-5.3 7.7-4.2 9.1-1.5z" style="fill-rule:evenodd;clip-rule:evenodd;fill:#d08c4c"/>
  <path d="M112.3 116.5c3.1-3.9 7.6-2.8 9-1.9s2.7 3 2.4 3.1-.5.1-.6.1H122.8c-.4 0-.8 0-1.8.5-1.6.8-1.4 3.1-2 3.1h-.1c-.2-.1-.5-.2-.8-.2-.8 0-1.5.7-1.5 1.5 0 .5.2.9.6 1.2.4.8.1 1.3.8 2.2.7.9 1.2 1.3 1.4 1.5s.4.4 1.1.6c.7.2-.2 1 0 1.4.1.2.1.3.2.4v.1c.1.2.2.4.3 1 .1.7.2 1.9.3 3.7H112.6c-.6 0-1.3-.2-.7-2.1.4-1.3.6-1.6.7-1.8.1-.1.2-.3.3-.8.3-1.2.5-1.2-.2-2.5-.8-1.4-.7-2.2-1.2-5-.4-2-.6-4.3.8-6.1z" style="fill-rule:evenodd;clip-rule:evenodd;fill:#004699"/>
  <path class="st2" d="M82.7 101.7c-9.8 0-17.8-8-17.8-17.8s8-17.8 17.8-17.8 17.8 8 17.8 17.8-8 17.8-17.8 17.8z"/>
  <path d="M82.7 67.6c9 0 16.3 7.3 16.3 16.3s-7.3 16.3-16.3 16.3-16.3-7.3-16.3-16.3c.1-9 7.4-16.3 16.3-16.3m0-3c-10.6 0-19.3 8.6-19.3 19.3 0 10.6 8.6 19.3 19.3 19.3 10.6 0 19.3-8.6 19.3-19.3 0-10.6-8.6-19.3-19.3-19.3z"/>
  <circle cx="82.7" cy="83.9" r="9.2" style="fill:#fff"/>
  <path transform="matrix(1 -.00477 .00477 1 -.432 .58)" style="fill-rule:evenodd;clip-rule:evenodd" d="M102.5 79h37.7v23.4h-37.7z"/>
  <path transform="matrix(1 -.00477 .00477 1 -.432 .595)" style="fill:#fff;stroke:#000;stroke-width:1;stroke-miterlimit:9.999" d="M110.6 82.2h27.5v17.2h-27.5z"/>
  <circle class="st6" cx="106.2" cy="85.5" r="2.9"/>
  <circle class="st6" cx="106.3" cy="91.9" r="2.9"/>
  <path class="st7" d="m131.4 113.4 2.8 18.4M138 131.7l4.2-6"/>
  <path style="fill:none;stroke:#767676;stroke-linecap:round;stroke-miterlimit:10" d="M69.9 102.6h65.3"/>
  <path style="fill:none;stroke:#767676;stroke-linecap:round;stroke-linejoin:round;stroke-miterlimit:10" d="M71.4 105.8v-7.6h61.3v8.2"/>
  <path class="st10" d="M177.8 129.2c-6.6-.9-26-2.5-26-2.5s-9.3-17.1-13.4-19.3-9.4-3.8-40.5-3.8-38.5 6.5-41.2 7.8c-5.6 2.7-21.4 16-21.4 16s-12 10.9-16 17.1c-2 3-6.7 16.3-7.6 18-.9 1.6-6.4 7.6-6.4 7.6l-.2 3.5 3.6.5 19.6-20.5s13.3-5.1 13.8-5.3 171.3-3.5 171.3-3.5-11.4-12.1-35.6-15.6zm-82.3 1c-.1 2.3-6 2-6 2s-30.2 1-32.1.4c-1.9-.5-1.9-2.9-2.2-5.6-.3-2.7 5.4-6.7 11-9.5 7.2-3.7 21-6.5 25.6-6.5 4 0 3.8 1.4 3.8 2.6 0-.1.1 13.7-.1 16.6zm49.3 1.5c-3-.1-42.1.8-43.3-.3s-1.1-18.9.4-19.3c2-.5 26 .5 32.7 1.8 6.7 1.2 12.9 13.8 13.1 15.1.1 1.3.1 2.8-2.9 2.7z"/>
  <path class="st2" d="M45.8 190.3c-9.8 0-17.8-8-17.8-17.8s8-17.8 17.8-17.8 17.8 8 17.8 17.8-8 17.8-17.8 17.8z"/>
  <path d="M45.8 156.3c9 0 16.3 7.3 16.3 16.3s-7.3 16.3-16.3 16.3-16.3-7.3-16.3-16.3 7.3-16.3 16.3-16.3m0-3c-10.6 0-19.3 8.6-19.3 19.3 0 10.6 8.6 19.3 19.3 19.3s19.3-8.6 19.3-19.3c-.1-10.7-8.7-19.3-19.3-19.3z"/>
  <path class="st10" d="M45.8 163.3c5.1 0 9.3 4.2 9.3 9.3s-4.2 9.3-9.3 9.3-9.3-4.2-9.3-9.3c0-5.2 4.2-9.3 9.3-9.3m0-3c-6.8 0-12.3 5.5-12.3 12.3s5.5 12.3 12.3 12.3 12.3-5.5 12.3-12.3c-.1-6.8-5.6-12.3-12.3-12.3z"/>
  <circle class="st11" cx="45.8" cy="172.5" r="9.2"/>
  <circle cx="45.8" cy="172.5" r="3.2"/>
  <path class="st2" d="M194.5 190.3c-9.8 0-17.8-8-17.8-17.8s8-17.8 17.8-17.8 17.8 8 17.8 17.8-8 17.8-17.8 17.8z"/>
  <path d="M194.5 156.3c9 0 16.3 7.3 16.3 16.3s-7.3 16.3-16.3 16.3-16.3-7.3-16.3-16.3 7.3-16.3 16.3-16.3m0-3c-10.6 0-19.3 8.6-19.3 19.3 0 10.6 8.6 19.3 19.3 19.3 10.6 0 19.3-8.6 19.3-19.3s-8.6-19.3-19.3-19.3z"/>
  <path class="st10" d="M194.5 163.3c5.1 0 9.3 4.2 9.3 9.3s-4.2 9.3-9.3 9.3-9.3-4.2-9.3-9.3c.1-5.2 4.2-9.3 9.3-9.3m0-3c-6.8 0-12.3 5.5-12.3 12.3s5.5 12.3 12.3 12.3 12.3-5.5 12.3-12.3-5.5-12.3-12.3-12.3z"/>
  <circle class="st11" cx="194.5" cy="172.5" r="9.2"/>
  <circle cx="194.5" cy="172.5" r="3.2"/>
  <path class="st10" d="M44.1 140.3c10.2-1.6 7.7-3.4 56.7-5.3 3-.1 54.5.6 65 .5 7.3 0 22.9 1.6 24.5 2.2 1.6.5 7.3 2.5 7.3 2.5s-15 1.8-23.1 9.6c-9.5 9.2-12.4 24.7-12.7 24.7h-89s-6.7-21.4-8.2-21.4c-1.5 0-23.1-8.7-23.1-8.7l2.6-4.1z"/>
  <path d="M37.6 139.8c10.2-1.6 14.3-3 63.2-4.8 3-.1 54.5.6 65 .5 7.3 0 22.9 1.6 24.5 2.2 1.6.5 7.3 2.5 7.3 2.5s-15 1.8-23.1 9.6c-9.5 9.2-12.4 24.7-12.7 24.7h-89s-6.7-21.4-8.2-21.4c-1.5 0-23.1-8.7-23.1-8.7l-3.9-4.6z" style="fill-opacity:.1"/>
  <path class="st14" d="M98.5 174.6v-65.8s29 .8 31.7 1.2c3.5.5 11.2 3.8 14.2 7.8s10.1 15.7 10.5 17.7 0 39.1 0 39.1H98.5zM32.1 142s17.7-21.7 32.8-27.2c20.4-7.5 33.4-6 33.4-6"/>
  <path d="M215.2 146.1h3.1s2 4.2 2 6-1.1 5.3-1.1 5.3l-4-11.3z" style="fill:#ffe600"/>
  <path d="M13.3 158.1s-12.7.5-12.9 3.6c-.2 3.5-1.1 6.4 1.1 7.3 2.2.9 12.2.7 12.2.7l.4-2.5-.2-3.6s-10.7-.6-10.4-1.1c2-2.9 9.1-2.7 9.1-2.7l.7-1.7zM219.2 157.4s8.2 0 9.6 1.8 1.5 6.1.5 6.9c-2.2 1.8-10.4 1.1-10.4 1.1l-.7-6.4s5.5-.1 6.7-.5c2.7-.9-5.7-2.9-5.7-2.9z"/>
  <path class="st10" d="M8.3 173.3s.5 2.5 5.3 1.3c4.3-1.2 8.5-3.9 10.4-6.5 2.4-3.5 8-16.9 22.7-16 22.8 1.4 19.2 25 22 25.4s99.9 1 99.9 1 4.1-2.7 4.4-5.1 2.7-21.7 21.8-21.5c16 .2 20.8 17.3 22.6 18.3s4.7-.4 4.7-.9-1.1-2.4-1.3-3.1c-.2-.7.7-7.1-.4-7.3S216 146 216 146s-18.6-9.4-35.4-4.5c-20.2 5.8-23.8 30-23.8 30s-.8 1.3-.5 2.7c.1.3-81.3 0-81.3 0l.2-1.8S77.9 141 44 139.7c-24.2-.9-30.5 23.1-30.5 23.1s0 5.8-1.8 7.1c-1.7 1.1-3.4 3.4-3.4 3.4z"/>
  <path d="M99.7 138.6c-1.1 1 .3 1.8 2.3 1.2s4.6-.5 5.6-.3c1 .3 2.5.8 3.1-.1.7-1-2-1.4-3.8-1.6-1.7-.3-6.1-.1-7.2.8z"/>
  <path transform="rotate(-75.653 96.99 65.462)" class="st16" d="M95.3 7.9h3.3v115.2h-3.3z"/>
  <path transform="rotate(-75.653 101.77 62.495)" class="st16" d="M100.1 4.9h3.3v115.2h-3.3z"/>
  <path d="M120.8 61.6 117 50l-23.9 7.8c-2.7-3.2-4.1-14.1 4.8-19.3.7-4.8-5.9-3.4-8.8-9.5l25.7-8.4c-1.1 5.9-8.1 6.7-2.1 12.8 7.2.1 8.8 3.1 10.6 8.2l6.6-2.2 5.6 17.4c1.2 3.8-.9 6.8-4 8.3l.4 1.2-2.8.9-.4-1.3c-3.2.7-6.7-.5-7.9-4.3z" style="fill-rule:evenodd;clip-rule:evenodd;fill:#b4b4b4"/>
</svg>