<svg xmlns="http://www.w3.org/2000/svg" viewBox="0 0 257.3 208" fill="#000">
  <style>.st0{fill:#00a03c}.st1{fill:#bed200}.st2{fill:#7e4815}.st3{fill:#ffe600}.st5{fill-opacity:.1}.st6,.st7{fill-rule:evenodd;clip-rule:evenodd;fill:#7e4815}.st7{fill:#eab98b}.st8{fill:#d8d8d8}.st12,.st8,.st9{fill-rule:evenodd;clip-rule:evenodd}.st12{fill:#ec0000}</style>
  <path class="st0" d="M77.8 77c-2.3.8-2.5 3.9.5 4.4s4.8-3.5 4.8-3.5-2.9-1.6-5.3-.9z" />
  <path class="st1" d="M73.6 80.2c2.3 1 4.4-1.3 2.5-3.6s-5.9-.5-5.9-.5 1.2 3.2 3.4 4.1z" />
  <path class="st0" d="M58.3 79.3c2.3.7 4.3-1.7 2.1-3.9-2.1-2.1-5.9.1-5.9.1s1.5 3 3.8 3.8z" />
  <path transform="rotate(-69.385 81.352 82.367)" class="st2" d="M56.8 80.7H106V84H56.8z" />
  <path transform="rotate(-69.385 87.59 79.51)" class="st2" d="M63 77.9h49.2v3.3H63z" />
  <path transform="rotate(-69.385 90.518 83.719)" class="st2" d="M65.9 82.1h49.2v3.3H65.9z" />
  <path transform="rotate(-8.378 231.767 119.6)" class="st2" d="M230.1 62h3.3v115.2h-3.3z" />
  <path transform="rotate(-8.378 235.966 119.6)" class="st2" d="M234.3 62h3.3v115.2h-3.3z" />
  <path transform="rotate(-8.378 245.367 152.3)" class="st2" d="M243.7 127.7h3.3v49.2h-3.3z" />
  <path class="st3" d="M150.8 124.4c-.3-.6-1.8-1.7-1.8-3.5 0-1.7.4-3.3 3-3s2.5 1.1 3 3.6c.6 2.5.9 22.3.9 22.3h-4.8l-.3-19.4z" />
  <path d="M161 172.9s-.9 4.2-.4 4.5 2.6 0 2.6 0l1.8-4.9-4 .4z" style="fill:#e78955" />
  <path class="st2" d="m109.5 175.4 1 2.2 31.8-.9.8-2.4z" />
  <path class="st2" d="M111.5 148.5h4.3l.8 26.8h-4zM137.9 148.5h5.3v26h-5.3z" />
  <path class="st2" d="M115.9 150.1c0-.1 22 0 22 0v24.5l-21.2.7-.8-25.2z" />
  <ellipse class="st2" cx="113.8" cy="143.4" rx="2" ry="1.4" />
  <ellipse class="st2" cx="113.2" cy="117.2" rx="2" ry="1.4" />
  <ellipse class="st2" cx="113.2" cy="126.3" rx="2" ry="1.9" />
  <ellipse class="st2" cx="113.2" cy="129.1" rx="2" ry="1.4" />
  <ellipse class="st2" cx="113.9" cy="147.4" rx="2" ry="1.4" />
  <path class="st2" d="M112.3 144.3h3v2.1h-3zM111 118.6h4.5v5.8H111zM112 113.7h2.4v3.5H112z" />
  <path class="st2" d="M115 112.7c0 .8-.9 1.4-2 1.4s-2-.6-2-1.4h4zM111.3 129.1l1.3 13.3h2.4l.2-13.3z" />
  <ellipse class="st2" cx="140.7" cy="143.1" rx="2" ry="1.4" />
  <ellipse class="st2" cx="140.1" cy="117" rx="2" ry="1.4" />
  <ellipse class="st2" cx="140.1" cy="126.1" rx="2" ry="1.9" />
  <ellipse class="st2" cx="140.1" cy="128.9" rx="2" ry="1.4" />
  <ellipse class="st2" cx="140.8" cy="147.2" rx="2" ry="1.4" />
  <path class="st2" d="M139.2 144.1h3v2.1h-3zM137.9 118.4h4.5v5.8h-4.5zM138.8 113.5h2.4v3.5h-2.4z" />
  <path class="st2" d="M141.9 112.4c0 .8-.9 1.4-2 1.4s-2-.6-2-1.4h4zM138.1 128.9l1.3 13.3h2.5l.2-13.3zM115.3 119h23.4v4.2h-23.4z" />
  <path class="st3" d="M160.3 73.5c0-.3-.6-4 1.4-4.2 1.9-.2 49.8-.4 49.8-.4l2.6 43.6v29.7h-12.2l-44.5-.1 2.9-68.6z" />
  <path class="st3" d="m165.7 139.5-9.8 4.4-.9-15.2-4.3-4.3s-4.1 1.8-4.9-5c-.7-5.4 6.8-5.9 6.6-5.8 0 0 7.6-1 10.1 0 1.8.8 4.6 4 4.6 6.1s-1.9 6.8-1.8 9.9c.1 3.5.4 9.9.4 9.9" />
  <path class="st5" d="m163.6 69.3 13.8 72.5-18.6-1.2 1.3-68.2s-.4-2.2.9-2.8c1.4-.7 2.6-.3 2.6-.3z" />
  <path class="st3" d="M155 113.6s-5.9-33-6-35.7c-.2-2.7 1-8.5 3.7-9s6-.8 7.1.6 1.3 43.1 1.3 43.1l-6.1 1z" />
  <circle cx="180.2" cy="95" r="2" />
  <circle cx="200.8" cy="95" r="2" />
  <path class="st3" d="M221.7 124.4c.3-.6 1.8-1.7 1.8-3.5 0-1.7-.4-3.3-3-3s-2.5 1.1-3 3.6-.9 22.3-.9 22.3h4.8l.3-19.4zM214 112.5l-2.5-42.8s5.5-2.6 6.7-2.6 3.1-.1 4 .8 2.4 5.2 2.3 8.5-2.1 17.8-2.4 21.6c-.2 2.5-.2 15.8-.2 15.8l-7.9-1.3z" />
  <path class="st3" d="m151 162.8 70.8-.8v-18.8H151z" />
  <path class="st3" d="M221.8 125s1.2 1.4 3.2 1.3c4.2-.2 4.2-4.7 4.2-6 0-2.9-2-6.7-4.4-6.7-1 0-10.6-2.2-12.8-.5-2.1 1.8-4.7 5.4-4.8 6.4s1.1 5.6 1.4 7.6c.3 2 1.3 8.4 1.9 8.9s3.4 1.9 3.2 2.3c-2.3 5.3 2.8 5.6 2.8 5.6M150.3 161.9s-4.7 4-4.5 4.8c.2.9 1.8 4.4 2.2 5.6.4 1.2.9 3.5.9 3.3s.3-2.7 2.8-2.9 3.9-.3 5.9-.3 43.7 1.1 45.9 1 7.5 1.4 10.2 1.2 3.3 0 4.5 1.1 3.4 1.1 3.4 1.1 3.5 1.6 3.9 0c.3-1.6 1.7-13.3-2.2-14.8-3.7-1.5-73-.1-73-.1z" />
  <path class="st3" d="M157.2 144.2c.1-.4.4-3.6 1.7-3.6 4.4 0 47.6 1.3 50.2 1 .3 0 5.5-2.2 6.2-1 .8 1.2 0 3.1 0 3.1l-58.1.5z" />
  <path transform="rotate(-79.035 69.749 92.232)" class="st6" d="M56.7 71.2h26.1v42H56.7z" />
  <g transform="translate(-39 -199)">
    <g transform="matrix(-1 0 0 1 161 199)">
      <g transform="translate(26.328)">
        <g transform="matrix(-1 0 0 1 62.298 0)">
          <g transform="translate(21.071 7.321)">
            <path class="st7" d="M-7.1 17.1c3 5.7 2.1 21.1 0 21.1h-3c-1.5 0-4-.9-6.5-2.4l2.1 14.9h-12.6l4.3-20.2c-2.4-2.9-4-6.4-3.8-10.3.9-11.3 16.5-8.8 19.5-3.1z" />
          </g>
          <path class="st6"
                d="M4.6 31.3c-.4-.2-.8-.2-1.3-.2-1.9 0-3.3.2-4.2 2-.8 1.6.6 3 1.3 3.6-.8 1.2-2.2 5-3.2 6.3-6.1-3-7.8-12.7-4.1-19.5 1-3.3 4.3-4.5 7.1-5.3 2.3-1 5.8-1.7 7.8-1.1 3.9.3 7.4 2.8 8.4 3.5 0 3.8-.7 4.9-6.8 4.8-1.9 1.1-3.3 3.1-5 5.9z" />
        </g>
      </g>
      <g
        transform="translate(0 .372)">
        <g transform="matrix(-1 0 0 1 122 0)">
          <g transform="translate(0 76.217)">
            <path class="st7" d="M39 62.7c-.1-.1-.1-.3-.2-.4-.9-3-16.7-35.7-18-41.5l14.4.7c1 4.3 13.1 36 13.2 36.1 2 8.7 4.4 37 4.4 39.1 0 2.1-4.1 3.7-5 1.1-1.5-4.1-5.8-13.5-7.1-20.3-1.2-6.2-1.3-11.5-1.7-14.8z" />
            <path class="st7" d="M22.3 59.9c0-.1 0-.3.1-.4.7-2.7-.9-30.9.9-36l9.5 2.5c-1.3 3.9.7 33-1.6 37.4-2.6 7.7-17.5 25.6-18.1 27.4-.5 1.9-4.7 1.2-4.2-1.2.8-3.8 3.7-11 5.9-16.9 2.1-5.5 6.4-10.1 7.5-12.8z" />
            <g
              transform="translate(72.437 81.027)">
              <path class="st8" d="M-25.2 16.5c.3-.4 1.2.1 1.9-.1.5-.1 1.3-.3 2.3-.3-.2-.8-.2-1.3 0-1.5.3-.2 2.2-1.5 2.2-1.5s.6.6.5.6.3 0 .5.3c.1.2.3.5.3 1 .3.3.5.6.6.7.1.1.2.3.4.5.3.1.5.2.5.5s0 .4.1.5l.5.8c.3-.1.5-.1.8 0 .4.2 0 .8.5 1.1.6.3 2.5 2.4 3.3 2.6s.7.6 1.3.6 5.4 1 5.4 1 .6.7.6 1 .2 0 .4.5.4 1.1-.4 1.7c-.8.7-3.4 1.4-6.5 1.8s-16.1.1-16.2-.2c-.1-.2 0-1 .2-2.6.1-3.8.2-5.7.2-5.8 0-.1.4 0 .4 0s-.1-2.7.2-3.2z" />
            </g>
            <g
              transform="translate(28.309 77.062)">
              <g transform="rotate(40 12.403 8.152)">
                <path class="st8" d="M-10.9 31.1c.3-.4 1.2.1 1.9-.1.5-.1 1.3-.3 2.3-.3-.2-.8-.2-1.3 0-1.5.3-.2 2.2-1.5 2.2-1.5s.6.6.5.6.3 0 .5.3c.1.2.3.5.3 1 .3.3.5.6.6.7.1.1.2.3.4.5.3.1.5.2.5.5 0 .2 0 .4.1.5l.5.8c.2-.1.5-.1.7 0 .4.2 0 .8.5 1.1.6.3 2.5 2.4 3.3 2.6s.7.6 1.3.6 5.4 1 5.4 1 .7.6.7.8c0 .3.2 0 .4.5s.4 1.1-.4 1.7c-.8.7-3.4 1.4-6.5 1.8-3.1.4-16.1.1-16.2-.2-.1-.2 0-1 .2-2.6.1-3.6.1-5.6.1-5.7 0-.1.4 0 .4 0s0-2.7.3-3.1z" />
              </g>
            </g>
            <path class="st9" d="m18 19.6-.9 16.5c.3 14.2 1.1 21.4 2.6 21.4 1.1 0 4.6.8 7.8 1 2.7.2 4.9.4 6.1.3.2 0 .5-.2.6-.3 1-.4 2.9-13.3 5.8-38.8l-22-.1z" />
            <path
              class="st9" d="M26.1 19.6c5.4 25 8.6 37.8 9.5 38.3.1.1.3.8.5.8 2.6.4 13.1-1.8 13.6-2.8.3-.7-2.2-12.8-7.5-36.4H26.1v.1z" />
          </g>
          <g transform="translate(8.133 35.867)">
            <g transform="matrix(-1 0 0 1 93.823 -3.26)">
              <path class="st7" d="M80.4 61.7c-21.7 5.2-33.5 8.5-35.6 9.8-.9.5-2.8 2.3-6.7 3.4-3.1.8-5.7.8-8.1.7s-3.1-2.5-2.2-2.7c4.6-1.1 7.6-1.1 8.8-2.5 2.8-3.3-5.6 1.5-4.2-1.2 1.4-2.6 6.3-2.3 10.4-2.3 1.9 0 14.1-5.6 36.6-16.7l1 11.5z" />
              <path d="M58.4 27.3 55 61.1c.8 13.9 1.4 20.8 1.6 20.8s9.2.2 26.9.5H85c.3-2.1.4-3.4.4-3.6 0-.4-.1-2-.4-2.4-.2-.3-.2-5.3 0-15.2V39.1c0-.3-1.1-11.3-2-12.3s-3.2-9.7-11.6-8.6c-5.5.6-9.9 3.7-13 9.1z"
                    style="fill-rule:evenodd;clip-rule:evenodd;fill:#004699" />
              <path d="M84.5 42.4c-2.2 20.3-4.6 33.6-7.1 39.9h7.7c.3-2.1.5-3.5.4-4.3 0-.8-.2-1.4-.4-1.8l-.1-.5-.5-33.3z" style="fill-rule:evenodd;clip-rule:evenodd;fill-opacity:.1" />
              <path
                class="st12" d="M58.9 23.4c.9-1.4 3.9-5 5.9-6.3 1.3-.9 4.6-2 10-3.2 1.1-1.1 2.1-1.6 2.8-1.6 1.1 0 1.2.9 1.9 1.6.7.7 2 .9 2 2.1 0 1.2-.2.5.9 1.1 1 .7 1.5 1.7 1.5 2.7 0 1.1.9 2.1.9 3.6 0 1.4.5 1.4 0 2.2-.5.8-.4 1.9-1.9.7s-1.2-5.2-7.1-6.5-7.7 2.9-11.1 3.6c-3.4.7-5.7 5-6.5 3.7-.7-1.3-.2-2.2.7-3.7z" />
              <path d="M58.3 24.9c-1.4 1.3-2.2 2.4-2.2 3.3 0 1.3-.4 21.6-1.1 22.8" style="fill:none;stroke:#004699;stroke-width:2" />
              <path class="st12" d="M72.9 26.2c2.5 0 4.2.5 4.9 1.5 1.2 1.6 2.4 12.1 2.6 13.8.3 1.6 1.2 16.2.8 17.3-.3 1.1-4.4 4.9-6.3 5.9-1.9.9-10 6-11.5 5.9-1.5-.1-6.2 1.3-7.7.9s-2.5-1.1-3.5-.7c-.7.2-2.4.5-5.2.7-1-3.8-1.5-5.7-1.4-5.9.1-.3 4.1-2 5.1-2.2 1-.3 2.4-1.5 3.4-1.5.9 0 1-1.3 2-1.6s5.1-2 6.4-2.3 1.1.3 2-1.4c.9-1.6 1.7-2.5 1.8-2.9s-4.8-10-4.8-12.9 1.1-9.4 3.4-11c1.4-1.2 4.1-2.4 8-3.6z" />
            </g>
          </g>
        </g>
      </g>
    </g>
  </g>
  <path style="fill-rule:evenodd;clip-rule:evenodd;fill:#e78955" d="m45.7 84 5.9-8.6 41.3 8-6 8.6z" />
  <path class="st5" d="M157.2 144.2c.1-.4.4-3.6 1.7-3.6 4.4 0 47.6 1.3 50.2 1 .3 0 5.5-2.2 6.2-1 .8 1.2 0 3.1 0 3.1l-58.1.5z" />
  <path class="st2" d="m240.1 99.3 3.3-.5 12 76.9-3.3.5z" />
  <path class="st0" d="M63.5 76.8c2.3.7 4.3-1.7 2.1-3.9-2.1-2.1-5.9.1-5.9.1s1.4 3.1 3.8 3.8z" />
  <path class="st1" d="M62.5 75c-2.2 1.1-1.8 4.2 1.2 4.2s4.1-4.2 4.1-4.2-3.1-1.2-5.3 0z" />
  <path class="st0" d="M68.3 74.7c-2.3.8-2.5 3.9.5 4.4s4.8-3.5 4.8-3.5-3-1.6-5.3-.9z" />
  <path class="st1" d="M68 75.2c2.3 1 4.4-1.3 2.5-3.6s-5.9-.5-5.9-.5 1.1 3.1 3.4 4.1z" />
  <path class="st0" d="M72.3 70.8c-2.3.8-2.5 3.9.5 4.4s4.8-3.5 4.8-3.5-2.9-1.7-5.3-.9z" />
  <path class="st0" d="M77.4 73.3c-2.3.8-2.5 3.9.5 4.4s4.8-3.5 4.8-3.5-3-1.7-5.3-.9z" />
  <path class="st1" d="M79 74.3c2.3 1 4.4-1.3 2.5-3.6-1.9-2.3-5.9-.5-5.9-.5s1.1 3.2 3.4 4.1z" />
</svg>