<svg xmlns="http://www.w3.org/2000/svg" viewBox="0 0 512 256">
  <path d="M378.3 132c-3-1.6-5.6-2.6-7.7-4.3-7.4-5.7-14.8-5.5-23.6-2.6-21.8 7.2-43.9 13.1-65.9 19.5-.7.2-1.5-.1-2.9-.2.5-3.3.9-6.1 1.3-8.9 33.5-1.5 43.8-20 49-38.3 5.6-19.7-.7-38-17.4-50-16-11.7-30.8-.3-49 10.4-16.4 9.7-27.4 10.5-27.4 29.4-.1 18.5 8.1 33.3 25 41 7.4 3.4 8.4 8.2 7.3 15.1-2.4 15.3-5.3 30.5-6.9 45.9-.5 4.3 1.6 10.8 4.7 13.2 6.6 5.2 14.5 8.8 22.2 12.4 1.8.8 4.6-.7 6.9-1.1-.8-2.9-.7-6.9-2.5-8.3-4.8-3.6-10.7-5.7-15.7-9.2-2-1.4-4-4.7-3.9-7.1.2-5.9 1.5-11.8 2.6-18.9 19.6 10.7 38 20.8 56.4 30.8 4.5 2.5 9.2 4.8 13.5 7.6 1.4.9 2 3.3 2.9 5.1-1.8.6-3.6 1.9-5.3 1.8-2.6-.1-5.2-1.4-7.8-1.4-3.2-.1-6.4.6-9.5.9-.1 1.1-.3 2.2-.4 3.3 11.9 6.5 23.6 13.1 35.7 19.2 1.1.6 5.1-2.1 5.8-3.9.7-2.2 0-6.1-1.6-7.6-7.6-6.8-7.7-12 .4-18.1 6.2-4.6 12.5-9.2 18.6-13.8" fill="#ffffff"/>
  <path
    d="M384.8 193.9c-6.1 4.5-12.4 9.1-18.6 13.8-8.2 6.1-8 11.2-.4 18.1 1.6 1.4 2.3 5.4 1.6 7.6-.6 1.9-4.6 4.5-5.8 3.9-12.1-6.1-23.8-12.7-35.7-19.2.1-1.1.3-2.2.4-3.3 3.2-.3 6.4-1 9.5-.9 2.6.1 5.2 1.4 7.8 1.4 1.8 0 3.6-1.2 5.3-1.8-1-1.7-1.5-4.1-2.9-5.1-4.3-2.8-9-5.1-13.5-7.6-18.4-10-36.7-20.1-56.4-30.8-1.1 7.1-2.4 13-2.6 18.9-.1 2.4 1.9 5.7 3.9 7.1 5 3.4 10.9 5.5 15.7 9.2 1.8 1.4 1.7 5.5 2.5 8.3-2.3.4-5.2 2-6.9 1.1-7.7-3.6-15.6-7.2-22.2-12.4-3.1-2.5-5.1-8.9-4.7-13.2 1.6-15.4 4.4-30.6 6.9-45.9 1.1-6.9.2-11.8-7.3-15.1-16.9-7.7-25.1-22.5-25-41 .1-18.8 11-19.7 27.4-29.4 18.2-10.8 27.6 4.2 45.3 4.4 16.7 12.1 26.7 15.6 21.1 35.2-5.2 18.3-15.4 36.8-49 38.3-.4 2.8-.8 5.6-1.3 8.9 1.3.1 2.2.4 2.9.2 22-6.4 44.2-12.3 65.9-19.5 8.8-2.9 16.1-3.1 23.6 2.6 2.1 1.6 4.8 2.7 7.7 4.3m-97.1-9c18.4.9 35.2-12.8 37.5-29.8 2.8-20.9-9.1-23.7-27.7-27.4-19.5-3.9-39.2-9.5-44 9.1-4.6 17.7 2.8 40.6 22.7 45.3 1.8-10.8 7-13.7 8.6-24.5.6-4.4-7.6-18.7-1.8-16.9 2.3.7 9.6 7.7 9.3 11-.9 10.8-2.9 21.5-4.6 33.2zm110.3 64-2.5-49.2-34.4-4.5c-26.3 9.8-50.8 18.9-73.1 27.2 20.4 11.1 43.3 23.7 67.4 36.8 1.9-21.1 3.6-40.9 5.7-64.1l36.9 53.8zm6.2 61.5c5.4-3.8 9.9-7 12.2-8.7-.8-15.8-1.4-29.8-2.2-45.3 0 0-2.2-1.2-5.1-2.8-1.7 19-3.2 37.2-4.9 56.8zM85.1 206.1c2.4 4 5.2 7.3 6.5 11.1 2.6 7.8-4.7 16-11.2 16.1-21.7 0-43.5.1-65.2 0-5.3 0-10.8-6.5-12-12.8-1.2-6.5 1-12.1 3.6-17.6 1.2-2.5.8-4.8.8-7.4 0-4.9 1-9.8 2-14.6 1.2-5.9 3.1-11.6 4.2-17.5.6-3.4 2.4-5.4 4.8-7.1 5.4-3.8 10.8-7.6 16.4-11.6-.7-2.4-1.7-5-2.2-7.6-1.8-8.3.4-12.4 9.1-11.2 4.3.6 8.6 1.6 12.9 2.4 5 .9 7.2 5.9 5.1 11.3-.7 1.7-1.5 3.3-2 4.4 5.7 5.1 11.6 9.8 16.9 15.2 2.9 2.9 5 6.8 7.1 10.6.8 1.6.4 3.9.8 5.8.6 3.3 1.1 6.7 2 9.9 1 3.5 2.6 6.8 3.6 10.3.8 2.8 1.2 5.7-1.5 8-1 .7-1.5 2-1.7 2.3zm-19.4 4.5c3.5-2.2 6.9-3.8 9.7-6.2 2.3-2 5.9-5.7 5.4-7.2-2.7-7.2-2.5-17.3-13.4-17.9-1.8-.1-3.5-1.3-5.3-2 .4-1.4.8-2.6 1.2-3.8 4.1 1.3 8.1 2.5 12.2 3.8 1.4-6.9-13.8-23.8-23.5-25.6 1.4 1.9 3.1 3.4 4.8 5 2.7 2.3 1.7 3.9 0 4.8-3.6-2.9-6.8-5.5-10.4-8.4-3.6 4.5-7.9 9.9-12.3 15.5-2-1.6-3.2-2.7-1.2-5.2 3.5-4.2 6.7-8.7 10.3-13.5-1.1.2-1.8.1-2.2.4-6.2 4.2-12.3 8.5-18.4 12.9-.8.6-1.4 1.8-1.7 2.9-2 8.1-4 16.2-5.9 24.3-.4 1.9-.1 3.9-.1 6.6 4.5-2.6 8-4.7 11.5-6.8.8 1.3 1.4 2.4 2.1 3.7-2.2 1.3-4.2 2.4-6 3.7-2.6 1.7-5.7 3.1-7.4 5.6-2.1 3.1-3.2 7.1-4.4 10.8-2.1 6.4 2.1 12.4 8.5 12.4h57.2c1.5 0 3-.3 4.4-.8 4.2-1.6 5-5.9 1.9-9.2-1.6-1.7-2.8-3.8-4.5-5.3-.8-.7-2.5-1.1-3.4-.7-2.5 1.1-4.7 2.7-7.2 4.1-.7-1.6-1.2-2.6-1.9-3.9zm-25.6-77.1c-.2.3-.4.7-.6 1 2.1 2.5.1 7.5 4.8 8.1 6 .8 6.3.4 8.7-6.7-4.4-.8-8.7-1.6-12.9-2.4z"
    fill="#000000"/>
  <path d="M65.7 210.6c.7 1.2 1.2 2.2 2 3.6 2.4-1.5 4.7-3 7.2-4.1.9-.4 2.6 0 3.4.7 1.7 1.6 2.9 3.6 4.5 5.3 3 3.3 2.2 7.6-1.9 9.2-1.4.5-2.9.8-4.4.8-19.1.1-38.2.1-57.2 0-6.4 0-10.6-6-8.5-12.4 1.2-3.7 2.3-7.7 4.4-10.8 1.7-2.4 4.8-3.8 7.4-5.6 1.9-1.3 3.9-2.4 6-3.7-.8-1.3-1.4-2.4-2.1-3.7-3.5 2.1-7 4.1-11.5 6.8 0-2.7-.4-4.7.1-6.6 1.8-8.1 3.8-16.2 5.9-24.3.3-1.1.9-2.3 1.7-2.9 6.1-4.4 12.2-8.7 18.4-12.9.5-.3 1.2-.2 2.2-.4-3.6 4.8-6.8 9.3-10.3 13.5-2.1 2.5-.8 3.6 1.2 5.2 4.4-5.6 8.7-11 12.3-15.5 3.5 2.9 6.8 5.5 10.4 8.4 1.7-.9 2.7-2.5 0-4.8-1.7-1.5-3.4-3.1-4.8-5 9.7 1.8 24.8 18.7 23.5 25.6-4-1.2-8.1-2.5-12.2-3.8-.4 1.2-.7 2.5-1.2 3.8 1.9.7 3.6 1.9 5.3 2 10.9.6 10.7 10.7 13.4 17.9.6 1.5-3.1 5.2-5.4 7.2-2.9 2.7-6.3 4.3-9.8 6.5zM40.1 133.5c4.3.8 8.5 1.6 12.9 2.4-2.4 7.1-2.6 7.4-8.6 6.7-4.7-.6-2.8-5.6-4.8-8.1.1-.3.3-.7.5-1z" fill="#b3b3b3"/>
  <path d="m509.1 157.6-1.2-7.5c-3.1-8-6.9-15.9-9.2-24.1-4.3-15.5-14.7-25.8-26.2-35.4C462.2 82 451.3 74 442 64.3c-7.7-8-15.9-8.4-25.2-6.7-1.6.4-3.2.7-4.7 1.1-1.4 1.9-2.8 3.7-4.2 5.6-.4 9.3-.8 18.7-1.2 28h15.8c2.1 8.3 3.9 15.5 5.6 22.7 11.5-1.3 17.5 8.4 25.4 14.1 1.1.8 1.5 3.2 1.7 4.9.8 9.1 1.5 18.3 2.2 27.4 10.8-.5 21.5-1 32.3-1.6 6.3-.7 12.9-1.4 19.4-2.2z" fill="#fb8d00"/>
  <path stroke="#020202" stroke-miterlimit="10" stroke-width="4" d="M429.1 197.1c2.2-2 2.4-5.3.7-7.7-2.9-3.8-5.6-7.5-8.7-10.8-7.6-7.9-15.5-15.5-23.4-23.2-.8-.8-1.7-1.3-2.8-1.5-4-.8-8.1-1.9-12.1-1.7-5.9.2-6.9-2.4-6.1-7 .1-.4.1-.9.1-1.3v-.6c-.2-4.3-4.9-6.8-8.4-4.4l-5.8 3.8c-.4.2-.7.5-1 .8l-1 1.1c-.2.5-.4 1.1-.4 1.7v.9c0 1.9.9 3.7 2.5 4.7 4.2 2.8 5.5 6.5 3.3 13-4.3 12.6-.1 24.6 5.2 36.2 2.9 6.3 5.6 12.6 8.4 18.9 3.2 1.3 4.8 9.3 8 10.6 9.5-4 12.8-15.7 21.9-20.6 4.6-2.4 14.4-7.1 18.1-11.2l1.4-1.4c0-.2.1-.2.1-.3z" fill="#b3b3b3"/>
  <path d="M407.8 64.3c1.4-1.9 2.8-3.7 4.2-5.6v-20c8 2.6 13.9 14.3 24.2 6.8 6.8-5 7-12.2 5.9-20.6-11.9 6-21.6-2.1-32-4.6-13.2-3.2-35.9 4.2-40.9 14.1-4.8 9.5-3.2 23.1 3.5 29.7 7.3 7.1 22.4 8 31.2 1.8 1.1-.7 2.6-1 3.9-1.6zM489.5 159.8c-10.8.5-21.5 1-32.3 1.6l5.1 60c7.1-.7 14.3-1.4 21.4-2.2 2-19.8 3.9-39.6 5.8-59.4zM375.8 144.6c-1 5-.2 7.9 6 7.6 4.5-.2 9.1 1.3 13.7 2 10.2-9 20.7-17.7 30.3-27.3 2.3-2.3 1.6-7.8 2.3-11.8-1.8-7.2-3.6-14.3-5.6-22.7h-15.8c-.1.6-.4 1.3-.2 1.8 9.4 24.8-10.5 35-23.2 48.7-1.6 1.5-5 1.1-7.5 1.7z" fill="#181615"/>
  <path d="M483.8 219.2c-7.1.7-14.3 1.4-21.4 2.2 0 3.7 0 7.3.1 11 .2 5.2-1.2 8.3-5.7 10.9-7.1 4.1-7.1 6-7 11.7 10.8-.1 21.7-.1 30.8-.1.4-8.6 2.7-27.1 3.2-35.7z" fill="#fb8d00"/>
  <path d="M412 56.9v1.9c1.6-.4 3.2-.7 4.7-1.1-1.5-.3-3.1-.6-4.7-.8zM428 197.1l-1.5 1.5 1.5-1.5z" fill="#f9f9f9"/>
  <path fill="#b3b3b3" stroke="#020202" stroke-miterlimit="10" stroke-width="3" d="M410.7 218.2c-9.2 1.6-16.6-9.6-14.4-5"/>
  <path
    d="M99.1 52.2C80.8 38.3 63.3 24.9 44.9 11c-9.3 8.3-18.7 16.7-28.2 25.2 8.4 15.6 16.5 30.5 24.4 45.5 8.2 15.5 8.1 15.5 20.5 3.6.4-.4 1.1-.5 1.4-.7 6.7 9.4 5.9 19.2 2.7 29.8-11.1 36.1-22 72.2-32 108.7-2.4 8.6-3.6 15.5-14.3 13.5v17.6h31.1v-17.4c-3.7-.3-6.6-.6-10.2-.9 7.9-27.2 15.7-54 23-79.1 4.5 6.4 9.2 12.6 13.4 19.2 1.8 2.9 3.5 6.4 3.6 9.7.4 14.5 1 29.2-.1 43.6-1.2 17.3 9.1 26.1 25.4 25.7 40.4-1 80.9-.2 121.4-.5 6.9-.1 13.8-1.9 22.1-3.1 3.3 3.4 10.8 2.3 19.7-4.7-5-16.3-10.4-32.7-15.1-49.2-2.6-9-3.3-17.8 5.3-25 14.2-11.9 12.4-41.4-5.1-50.9-5.6-3-11.6-5.2-17.4-7.7-.1-.8-.3-1.4-.3-2 0-9.6 0-19.2-.1-28.8 0-13.7-5.4-19.7-18.6-19.6-5.4 0-7.9-1.5-9.4-7.1-3.4-12.8-7.8-25.4-11.8-38.1-6.9-22.1-3.9-17.1-22.5-12.1-.8.2-1.3 1.2-2.1 1.9 5.3 16.7 10.7 33.4 16 50-9.5-15.1-17.4-30.7-24.7-46.7-2.3-5.1-3.1-9.7-10.4-5.8-11.8 6.2-12 5.8-7.4 15.4 6.7 13.8 13.3 27.7 20.4 42.3h-52c-10.1 0-16.8 6.7-16.8 16.9-.1 11.4 0 22.8 0 33.6-8.3 3.4-15.8 6.6-23.9 10 .5-2 .7-3.8 1.3-5.3 4.5-12.1 7.9-23.9-.9-35.9-3.3-4.5.1-8.4 3.7-11.4 7-5.9 14-12 22.1-19z"
    fill="#fff"/>
  <path
    d="M99.1 52.2C91 59.2 84 65.3 76.9 71.4c-3.6 3.1-7 6.9-3.7 11.4 8.8 12 5.4 23.8.9 35.9-.6 1.6-.8 3.3-1.3 5.3 8.1-3.4 15.6-6.5 23.9-10V80.4c0-10.1 6.7-16.9 16.8-16.9h52c-7.1-14.7-13.7-28.5-20.4-42.3-4.6-9.5-4.4-9.1 7.4-15.4 7.3-3.8 8.1.8 10.4 5.8 7.3 15.9 15.2 31.6 24.7 46.7-5.3-16.7-10.7-33.3-16-50 .8-.8 1.4-1.7 2.1-1.9 18.5-5 15.6-10 22.5 12.1 4 12.7 8.4 25.3 11.8 38.1 1.5 5.7 4.1 7.2 9.4 7.1 13.2-.1 18.6 5.9 18.6 19.6 0 9.6 0 19.2.1 28.8 0 .6.1 1.2.3 2 5.8 2.5 11.8 4.6 17.4 7.7 17.6 9.6 19.4 39.1 5.2 50.9-8.6 7.2-7.9 16-5.3 25 4.7 16.5 10.1 32.9 15.1 49.2-9 7-16.4 8.1-19.7 4.7-8.3 1.2-15.2 3-22.1 3.1-40.5.3-81-.6-121.4.5-16.3.4-26.6-8.4-25.4-25.7 1-14.5.4-29.1.1-43.6-.1-3.3-1.7-6.8-3.6-9.7-4.2-6.6-8.8-12.8-13.4-19.2-7.3 25.1-15.1 51.8-23 79.1 3.6.3 6.6.6 10.2.9v17.4H19.3v-17.6c10.7 2 12-4.9 14.3-13.5 10-36.4 20.9-72.6 32-108.7 3.4-10.8 4.2-20.6-2.6-30-.3.2-1 .3-1.4.7-12.3 11.9-12.3 11.9-20.5-3.6-7.9-14.9-16-29.8-24.4-45.5 9.5-8.5 18.9-16.9 28.2-25.2 18.4 13.9 35.9 27.3 54.2 41.2zm104.5 120.6c0-8.5-1.1-16.7.3-24.4 1.3-7.5 3.3-16.7 8.4-21.2 7.3-6.5 8-13.4 7.7-21.7-.2-5.9-.2-11.8 0-17.7.2-5.4-1.7-7.8-7.3-7.8-30.8.2-61.6.2-92.5 0-5.4 0-7.7 1.9-7.6 7.6.3 9.3-.2 18.6.2 27.9.1 2.4 2.1 5.3 3.9 7 7.9 7.4 12.2 16.4 12.2 27.5v22.6h20.5c-1.4-4.1-2.7-8.1-4-12.1-.8-2.5-1-6.3-2.6-7.2-6.1-3.5-7.9-8.8-5.8-14.7 2.5-6.9 7.4-11.8 15.5-11.8 2.8 0 5.5-.3 8.9-.5-6.9-8.3-9.4-14-7.5-17.2 14.1 4.4 36.7 47 33.7 63.9l16-.2zM98.2 235.7h136.4v-70.3c4-1.5 7.8-2 10.3-4.1 5.8-4.9 7.9-11.1 4.5-18.8-3.5-7.9-9.9-9.9-17.1-8.1-7.4 1.9-11.3 7.7-10.7 15.9 1.1 15.2 2.5 30.4 3.6 45.6 1 13.1-2.4 14.6-13.5 14.4-30.2-.3-60.4-.1-90.6-.1-13.1 0-13.9-.4-13.4-13.4.7-15.8 2.6-31.6 3.4-47.4.4-8.9-5.2-14.8-13.2-15.3-8.1-.6-14.9 4.9-15.8 12.8-1.2 9.7 4.4 16.2 16.2 18.1l-.1 70.7zm18.5-35.2h99v-15.8h-99v15.8z"/>
  <path d="M203.6 172.8h-15.9c3.1-16.9-19.6-59.5-33.7-63.8-1.8 3.2.7 9 7.5 17.2-3.4.2-6.1.5-8.9.5-8 .1-13 4.9-15.5 11.8-2.1 5.9-.4 11.2 5.8 14.7 1.7.9 1.8 4.7 2.6 7.2 1.3 4 2.6 8 4 12.1H129v-22.6c0-11.1-4.3-20-12.2-27.5-1.9-1.8-3.8-4.6-3.9-7-.5-9.3 0-18.6-.2-27.9-.2-5.7 2.2-7.6 7.6-7.6 30.8.1 61.6.2 92.5 0 5.6 0 7.5 2.4 7.3 7.8-.2 5.9-.2 11.8 0 17.7.3 8.3-.4 15.1-7.7 21.7-5.1 4.5-7 13.8-8.4 21.2-1.4 7.8-.4 16-.4 24.5z" fill="#fb8d00"/>
  <path d="M98.2 235.7v-70.9c-11.8-1.9-17.4-8.4-16.2-18.1 1-7.9 7.7-13.4 15.8-12.8 8 .6 13.7 6.4 13.2 15.3-.7 15.8-2.7 31.6-3.4 47.4-.6 13 .3 13.4 13.4 13.4 30.2 0 60.4-.2 90.6.1 11.1.1 14.5-1.3 13.5-14.4-1.1-15.2-2.4-30.4-3.6-45.6-.6-8.2 3.3-14 10.7-15.9 7.1-1.8 13.5.2 17.1 8.1 3.4 7.7 1.3 13.9-4.5 18.8-2.5 2.1-6.3 2.6-10.3 4.1v70.3l-136.3.2z" fill="#fb8d00"/>
  <path d="M116.7 200.5v-15.8h99v15.8h-99z" fill="#fb8d00"/>
</svg>
