<svg xmlns="http://www.w3.org/2000/svg" viewBox="0 0 512 256">
  <path d="M188.7 32.5c-12.2-8.6-23.9-16.9-36.1-25.5-6.2 5.1-12.4 10.3-18.8 15.6 5.6 9.7 11 18.9 16.3 28.2 5.5 9.6 5.4 9.6 13.6 2.2.3-.2.7-.3.9-.4 4.5 5.8 4 11.9 1.8 18.5-7.4 22.3-14.7 44.7-21.4 67.3-1.6 5.3-2.4 9.6-9.5 8.4v10.9h20.7v-10.8c-2.4-.2-4.4-.4-6.8-.6 5.3-16.8 10.5-33.4 15.4-49 3 4 6.2 7.8 8.9 11.9 1.2 1.8 2.3 4 2.4 6 .3 9 .7 18.1 0 27-.8 10.7 6.1 16.2 16.9 15.9 27-.6 54-.1 81-.3 4.6 0 9.2-1.2 14.7-1.9 2.2 2.1 7.2 1.4 13.1-2.9-3.4-10.1-6.9-20.2-10.1-30.5-1.7-5.6-2.2-11 3.5-15.5 9.5-7.4 8.3-25.6-3.4-31.5-3.7-1.9-7.8-3.2-11.6-4.8-.1-.5-.2-.8-.2-1.2V51.7c0-8.5-3.6-12.2-12.4-12.1-3.6 0-5.3-.9-6.3-4.4-2.3-7.9-5.2-15.7-7.9-23.6-4.6-13.7-2.6-10.6-15-7.5-.5.1-.9.7-1.4 1.2 3.6 10.3 7.1 20.7 10.7 31-6.3-9.3-11.6-19-16.5-28.9-1.6-3.1-2.1-6-7-3.6-7.9 3.9-8 3.6-4.9 9.5 4.5 8.6 8.9 17.1 13.6 26.2h-34.7c-6.7 0-11.2 4.2-11.2 10.5v20.8c-5.5 2.1-10.5 4.1-15.9 6.2.3-1.3.5-2.3.9-3.3 3-7.5 5.3-14.8-.6-22.2-2.2-2.8 0-5.2 2.4-7.1 4.8-3.8 9.5-7.6 14.9-11.9z" fill="#ffffff"/>
  <path
    d="M188.7 32.5c-5.4 4.3-10.1 8.1-14.8 11.9-2.4 1.9-4.7 4.3-2.4 7.1 5.9 7.4 3.6 14.7.6 22.2-.4 1-.6 2.1-.9 3.3 5.4-2.1 10.4-4 15.9-6.2V50c0-6.3 4.5-10.4 11.2-10.5H233c-4.7-9.1-9.1-17.7-13.6-26.2-3.1-5.9-2.9-5.7 4.9-9.5 4.9-2.4 5.4.5 7 3.6 4.9 9.9 10.2 19.6 16.5 28.9-3.6-10.3-7.1-20.7-10.7-31 .5-.5.9-1.1 1.4-1.2 12.4-3.1 10.4-6.2 15 7.5 2.6 7.9 5.6 15.6 7.9 23.6 1 3.5 2.7 4.4 6.3 4.4 8.8-.1 12.4 3.6 12.4 12.1v17.8c0 .4.1.8.2 1.2 3.9 1.6 7.9 2.9 11.6 4.8 11.7 5.9 12.9 24.2 3.4 31.5-5.7 4.5-5.2 9.9-3.5 15.5 3.1 10.2 6.7 20.4 10.1 30.5-6 4.3-10.9 5-13.1 2.9-5.5.7-10.1 1.9-14.7 1.9-27 .2-54-.3-81 .3-10.9.3-17.8-5.2-16.9-15.9.7-9 .3-18 0-27-.1-2-1.2-4.2-2.4-6-2.8-4.1-5.9-7.9-8.9-11.9-4.9 15.5-10.1 32.1-15.4 49 2.4.2 4.4.4 6.8.6v10.8h-20.7v-10.9c7.2 1.2 8-3 9.5-8.4 6.7-22.5 14-44.9 21.4-67.3 2.2-6.6 2.7-12.7-1.8-18.5-.2.1-.7.2-.9.4-8.2 7.4-8.2 7.3-13.6-2.2-5.3-9.3-10.7-18.5-16.3-28.2 6.3-5.3 12.6-10.5 18.8-15.6 12.1 8.6 23.8 16.9 36 25.5zm69.7 74.7c0-5.3-.7-10.4.2-15.1.9-4.6 2.2-10.4 5.6-13.2 4.9-4 5.3-8.3 5.1-13.4-.1-3.6-.2-7.3 0-10.9.2-3.4-1.1-4.9-4.9-4.8-20.6.1-41.1.1-61.7 0-3.6 0-5.1 1.2-5 4.7.2 5.7-.1 11.5.2 17.3.1 1.5 1.4 3.3 2.6 4.4 5.3 4.6 8.1 10.2 8.1 17v14h13.7c-.9-2.6-1.8-5-2.6-7.5-.5-1.5-.6-3.9-1.7-4.5-4.1-2.2-5.3-5.4-3.8-9.1 1.7-4.3 5-7.3 10.3-7.3 1.8 0 3.7-.2 5.9-.3-6.9-7.7-6.9-7.7-5-10.7 9.4 2.7 24.5 29.1 22.5 39.5 3.1-.1 6.3-.1 10.5-.1zm-70.3 39H279v-43.5c2.7-.9 5.2-1.3 6.9-2.6 3.8-3 5.2-6.9 3-11.6-2.3-4.9-6.6-6.2-11.4-5-4.9 1.2-7.5 4.8-7.1 9.8l2.4 28.2c.7 8.1-1.6 9-9 8.9-20.1-.2-40.3-.1-60.4-.1-8.7 0-9.3-.2-8.9-8.3.5-9.8 1.8-19.6 2.2-29.4.3-5.5-3.5-9.1-8.8-9.5-5.4-.4-9.9 3-10.6 7.9-.8 6 3 10 10.8 11.2v44zm12.3-21.9h66v-9.8h-66v9.8z"
    fill="#000000"/>
  <path d="M258.4 107.2h-10.6c2-10.5-13.1-36.8-22.5-39.5-1.8 3-1.8 3 5 10.7-2.2.1-4.1.3-5.9.3-5.3 0-8.6 3-10.3 7.3-1.4 3.7-.3 6.9 3.8 9.1 1.1.6 1.2 2.9 1.7 4.5.9 2.5 1.7 4.9 2.6 7.5h-13.7v-14c0-6.8-2.8-12.4-8.1-17-1.3-1.1-2.5-2.8-2.6-4.4-.3-5.7 0-11.5-.2-17.3-.1-3.5 1.4-4.7 5-4.7 20.6.1 41.1.1 61.7 0 3.7 0 5 1.5 4.9 4.8-.2 3.6-.1 7.3 0 10.9.2 5.1-.2 9.4-5.1 13.4-3.4 2.8-4.7 8.5-5.6 13.2-.8 4.8-.1 9.9-.1 15.2z" fill="#9a0879"/>
  <path d="M188.1 146.2v-43.9c-7.9-1.2-11.6-5.2-10.8-11.2.6-4.9 5.1-8.3 10.6-7.9 5.3.4 9.1 4 8.8 9.5-.5 9.8-1.8 19.6-2.2 29.4-.4 8.1.2 8.3 8.9 8.3 20.1 0 40.3-.1 60.4.1 7.4.1 9.7-.8 9-8.9l-2.4-28.2c-.4-5.1 2.2-8.7 7.1-9.8 4.7-1.1 9 .1 11.4 5 2.3 4.8.9 8.6-3 11.6-1.7 1.3-4.2 1.6-6.9 2.6v43.5c-30.3-.1-60.2-.1-90.9-.1z" fill="#9a0879"/>
  <path d="M200.4 124.3v-9.8h66v9.8h-66z" fill="#9a0879"/>
  <path d="M154.5 91.2c-2-1-3.7-1.6-5.2-2.7-5-3.5-9.8-3.4-15.7-1.6-14.5 4.5-29.3 8.1-44 12.1-.5.1-1-.1-1.9-.1.3-2 .6-3.8.9-5.5 22.4-.9 29.2-12.4 32.6-23.7 3.7-12.2-.5-23.5-11.6-31-10.6-7.3-20.5-.3-32.6 6.4-10.9 6-18.3 6.5-18.3 18.2 0 11.5 5.4 20.6 16.7 25.4 5 2.1 5.6 5.1 4.9 9.4-1.6 9.5-3.5 18.9-4.6 28.4-.3 2.7 1 6.7 3.1 8.2 4.4 3.2 9.7 5.4 14.8 7.7 1.2.5 3.1-.4 4.6-.7-.5-1.8-.4-4.3-1.7-5.1-3.2-2.2-7.1-3.6-10.5-5.7-1.3-.9-2.7-2.9-2.6-4.4.1-3.7 1-7.3 1.8-11.7 13.1 6.6 25.3 12.9 37.6 19.1 3 1.5 6.1 2.9 9 4.7 1 .6 1.3 2.1 1.9 3.1-1.2.4-2.4 1.2-3.6 1.1-1.7 0-3.5-.8-5.2-.9-2.1 0-4.2.4-6.4.6-.1.7-.2 1.3-.3 2 7.9 4 15.8 8.1 23.8 11.9.8.4 3.4-1.3 3.8-2.4.5-1.3 0-3.8-1-4.7-5.1-4.2-5.2-7.4.3-11.2 4.1-2.9 8.3-5.7 12.4-8.5" fill="#ffffff"/>
  <path
    d="M158.8 129.5c-4.1 2.8-8.3 5.6-12.4 8.5-5.4 3.8-5.4 7-.3 11.2 1.1.9 1.5 3.3 1 4.7-.4 1.2-3.1 2.8-3.8 2.4-8-3.8-15.9-7.9-23.8-11.9.1-.7.2-1.3.3-2 2.1-.2 4.3-.6 6.4-.6 1.7 0 3.5.9 5.2.9 1.2 0 2.4-.7 3.6-1.1-.6-1.1-1-2.6-1.9-3.1-2.9-1.8-6-3.2-9-4.7-12.2-6.2-24.5-12.4-37.6-19.1-.7 4.4-1.6 8.1-1.8 11.7 0 1.5 1.3 3.5 2.6 4.4 3.3 2.1 7.3 3.4 10.5 5.7 1.2.9 1.1 3.4 1.7 5.1-1.6.3-3.5 1.2-4.6.7-5.1-2.3-10.4-4.4-14.8-7.7-2.1-1.5-3.4-5.5-3.1-8.2 1.1-9.5 2.9-19 4.6-28.4.7-4.3.1-7.3-4.9-9.4C65.4 83.8 60 74.7 60 63.2 60 51.5 67.4 51 78.3 45c12.1-6.7 18.4 2.6 30.2 2.7 11.1 7.5 17.8 9.6 14.1 21.8C119 81 112.2 92.4 89.8 93.4c-.3 1.7-.5 3.5-.9 5.5.9.1 1.4.3 1.9.1 14.7-4 29.5-7.6 44-12.1 5.9-1.8 10.8-1.9 15.7 1.6 1.4 1 3.2 1.7 5.2 2.7m-64.8-5.6c12.3.6 23.5-7.9 25-18.5 1.9-12.9-6.1-14.7-18.4-17-13-2.4-26.1-5.9-29.4 5.6C65 66.8 70 80.9 83.2 83.9c1.2-6.7 4.7-8.5 5.7-15.2.4-2.7-5.1-11.6-1.2-10.4 1.5.5 6.4 4.7 6.2 6.8-.5 6.7-1.9 13.3-3 20.5zM139.8 92c-17.5 6.1-33.9 11.7-48.8 16.9 13.6 6.9 28.9 14.7 45 22.8 1.3-13.1 2.5-25.4 3.8-39.7zm4.2 38.1c3.6-2.4 6.6-4.3 8.1-5.4-.5-9.8-1-18.5-1.4-28 0 0-1.5-.7-3.4-1.7-1.2 11.7-2.2 22.9-3.3 35.1z"
    fill="#000000"/>
  <path
    d="M105.6 144c1.8 2.7 3.8 4.8 4.7 7.3 1.9 5.2-3.5 10.6-8.2 10.7H54.4c-3.9 0-7.9-4.3-8.8-8.5-.9-4.3.8-8 2.6-11.7.8-1.7.6-3.2.6-4.9 0-3.2.7-6.5 1.5-9.7.9-3.9 2.3-7.7 3.1-11.6.5-2.2 1.7-3.6 3.5-4.7 3.9-2.5 7.9-5.1 12-7.7-.5-1.6-1.2-3.3-1.6-5-1.3-5.5.3-8.2 6.7-7.4 3.2.4 6.3 1 9.4 1.6 3.6.6 5.3 3.9 3.8 7.5-.5 1.1-1.1 2.2-1.4 2.9 4.2 3.4 8.5 6.5 12.4 10.1 2.1 2 3.7 4.5 5.2 7 .6 1 .3 2.6.6 3.9.4 2.2.8 4.4 1.5 6.6.7 2.3 1.9 4.5 2.6 6.8.6 1.8.8 3.8-1.1 5.3-.8.4-1.2 1.3-1.4 1.5zm-14.2 3c2.6-1.5 5-2.5 7.1-4.1 1.7-1.3 4.3-3.8 3.9-4.8-2-4.8-1.8-11.5-9.8-11.9-1.3-.1-2.5-.8-3.9-1.3.3-.9.6-1.7.8-2.5 3 .8 5.9 1.7 8.9 2.5 1-4.6-10.1-15.8-17.2-17 1 1.2 2.2 2.3 3.5 3.3 1.9 1.6 1.2 2.6 0 3.2-2.6-1.9-5-3.7-7.6-5.6-2.6 3-5.8 6.6-9 10.3-1.5-1.1-2.4-1.8-.9-3.5 2.6-2.8 4.9-5.8 7.5-9-.8.1-1.3 0-1.6.3-4.5 2.8-9 5.7-13.4 8.6-.6.4-1 1.2-1.2 1.9-1.5 5.4-3 10.7-4.3 16.2-.3 1.2 0 2.6 0 4.4 3.3-1.8 5.9-3.1 8.4-4.5.6.9 1 1.6 1.6 2.4-1.6.9-3 1.6-4.4 2.4-1.9 1.2-4.2 2.1-5.4 3.7-1.6 2.1-2.4 4.7-3.3 7.1-1.5 4.2 1.5 8.2 6.2 8.2h41.9c1.1 0 2.2-.2 3.2-.5 3-1.1 3.6-3.9 1.4-6.1-1.1-1.1-2-2.5-3.3-3.5-.6-.5-1.8-.7-2.5-.5-1.8.7-3.4 1.8-5.2 2.7-.5-1-.9-1.6-1.4-2.4zM72.7 95.8c-.1.2-.3.4-.4.7 1.5 1.6.1 5 3.5 5.4 4.4.5 4.6.2 6.3-4.4-3.2-.7-6.3-1.2-9.4-1.7z"
    fill="#000000"/>
  <path d="M91.4 147c.5.8.9 1.5 1.5 2.4 1.8-1 3.4-2 5.2-2.7.7-.3 1.9 0 2.5.5 1.2 1 2.1 2.4 3.3 3.5 2.2 2.2 1.6 5-1.4 6.1-1 .4-2.1.5-3.2.5H57.4c-4.7 0-7.8-4-6.2-8.2.9-2.5 1.7-5.1 3.3-7.1 1.2-1.6 3.5-2.5 5.4-3.7 1.4-.8 2.8-1.6 4.4-2.4-.6-.9-1-1.6-1.6-2.4-2.6 1.4-5.2 2.8-8.4 4.5 0-1.8-.3-3.1 0-4.4 1.3-5.4 2.8-10.8 4.3-16.2.2-.7.6-1.5 1.2-1.9 4.4-2.9 8.9-5.7 13.4-8.6.3-.2.8-.1 1.6-.3-2.6 3.2-5 6.2-7.5 9-1.5 1.7-.6 2.4.9 3.5 3.2-3.7 6.4-7.3 9-10.3 2.6 1.9 4.9 3.6 7.6 5.6 1.2-.6 2-1.6 0-3.2-1.3-1-2.5-2.1-3.5-3.3 7.1 1.2 18.2 12.4 17.2 17-2.9-.8-5.9-1.6-8.9-2.5-.3.8-.5 1.6-.8 2.5 1.4.5 2.6 1.3 3.9 1.3 8 .4 7.9 7.1 9.8 11.9.4 1-2.3 3.5-3.9 4.8-2.1 1.6-4.6 2.6-7.2 4.1zM72.7 95.8c3.1.5 6.2 1 9.4 1.6-1.8 4.7-1.9 4.9-6.3 4.4-3.4-.4-2-3.7-3.5-5.4.1-.2.2-.4.4-.6z" fill="#9a0879"/>
  <path
    d="M322.1 23.9c4.9 0 10 .6 13.7.5 1.2 0 2.4-.1 3.5 0 9.6.2 19.2 0 28.8.6 5.9.3 11.3 2.8 16.4 5.8 6.7 3.9 12.3 8.8 15.8 15.6 6.9 13.4 13.8 26.7 20.8 40 3.6 7 9.4 11.6 17 14 7.6 2.4 15.4 4.3 23.1 6.4 6.3 1.7 11 5.5 13.4 11.2 2.7 6.5 3.9 13.4 3.9 20.5 0 .7.3 1.5.5 2.2V196.8c-.5.9-1.1 1.7-1.4 2.6-4.2 10.6-12.7 15.9-23.2 16.3-9.4.4-18.8 0-28.2.1-2.1 0-2.7-.8-2.7-2.7 0-2.9 0-5.9-.5-8.7-1.7-8.8-5.1-16.9-10.9-24.1-6.8-8.4-15.3-14.7-25.9-18.4-8.8-3.1-17.9-3.8-27.2-2.8-5.8.6-11.2 2.3-16.4 4.5-7.1 3.1-13.4 7.6-18.5 13.2-9.3 10.2-14.2 21.8-14.4 35.1-.1 3.4-.4 3.8-4 3.8h-110c-.5 0-1.1.2-1.4 0-.8-.6-1.9-1.3-2.1-2.1-.4-2.4-.3-4.9-.6-7.3-.5-5.2-2-10.1-4.2-14.9-5.2-11.4-13.6-20.2-25-26.2-10.7-5.7-22.2-7.5-34.4-6.1-6.1.7-11.8 2.3-17.3 4.8-8 3.6-14.6 8.8-20.1 15.4-7.8 9.5-12 20.3-12.3 32.4-.1 3.1-.8 3.9-4.2 3.9-6.6 0-13.1.2-19.7-.1-5-.2-9.5-1.8-13.3-5.2-3.3-3-5-6.6-6.5-10.6v-64.5s278.5 1 278.9 0m30.5-32.6c.1-2 .1-3.7.3-5.5.4-4.9 1.5-9.2 6.6-12 5.7-3.1 14.6-1.1 17.1 4.5.3.7.6 1.6 1.2 2.1 3.8 3.4 7.6 6.8 11.6 10.1.6.5 1.5.7 2.3.7 7 .1 14.1 0 21.1 0 .8 0 1.6-.3 2.5-.4 1.6-.3 1.5-1.3.9-2.3-.8-1.4-1.8-2.7-2.5-4.2-3-5.7-6-11.5-9-17.2-3.2-6.1-6.3-12.2-9.5-18.2-3.5-6.6-9.2-11.2-16-14.4-4.1-1.9-8.7-3.7-13.2-4-7.8-.7-15.8-.2-23.7-.2-1.8 0-2.7.8-2.7 2.7.1 18.2 0 36.4 0 54.7 0 2.4 1.1 3.5 3.6 3.6 3 .1 6 0 9.4 0z"
    fill="#181615"/>
  <path d="M359.5 255c-.2-.3-.4-.8-.7-.9-10.4-1.4-18.9-6.3-25.6-13.7-5.7-6.3-9.2-13.6-10.3-22.1-1.2-8.6.2-16.7 4.2-24.4 5.9-11.4 15.6-18.9 28.4-21.9 13.7-3.2 26.7-1 38.1 7.3 9 6.6 14.6 15.5 16.5 26.1 2 11-.2 21.4-6.7 30.8-6.5 9.4-15.9 15.1-27.3 17.9-1.4.3-2.9.6-4.3.9h-12.3zm7.1-24.4c10.2.4 18.8-7.9 18.9-17.6.1-10.1-7.9-17.9-18.5-18.1-11.2-.2-19.2 8.3-19.2 17.7-.1 10.1 8.6 18.4 18.8 18z" fill="#323232"/>
  <path d="M344 102.6c-3.5 0-6.4.1-9.4 0-2.5-.1-3.6-1.2-3.6-3.6V44.3c0-2 .9-2.7 2.7-2.7 7.9 0 15.8-.5 23.7.2 4.5.4 9.1 2.1 13.2 4 6.8 3.2 12.4 7.8 16 14.4 3.2 6 6.4 12.1 9.5 18.2 3 5.7 5.9 11.5 9 17.2.7 1.4 1.7 2.8 2.5 4.2.6 1.1.7 2-.9 2.3-.8.2-1.6.4-2.5.4h-21.1c-.8 0-1.7-.3-2.3-.7-3.9-3.3-7.8-6.7-11.6-10.1-.6-.5-.9-1.4-1.2-2.1-2.6-5.6-11.5-7.6-17.1-4.5-5.1 2.8-6.2 7.1-6.6 12-.1 1.8-.2 3.5-.3 5.5zM374.2 67c.2-8-6.6-13.8-13.8-14.1-9.4-.4-15.5 6.5-15.6 13.8-.1 7.7 6.6 14.2 14.7 14.2 8.2 0 14.8-6.5 14.7-13.9z" fill="#fbfbfb"/>
  <path d="M176.5 197.9c-3-7.6-7.8-13.9-14.5-18.7-11.3-8.1-24.2-10.3-37.7-7.2-12.7 2.9-22.4 10.3-28.4 21.6-4.2 7.8-5.5 16-4.4 24.8 1.1 8.4 4.5 15.8 10.3 22 6.8 7.4 15.2 12.3 25.6 13.7.3 0 .5.6.7.9h11.4c1.8-.3 3.7-.6 5.5-1 10.2-2.4 18.7-7.4 25.2-15.3 5.4-6.6 8.4-14.2 9.1-22.5.5-6.3-.5-12.4-2.8-18.3zm-41.3 32.7c-10.5.4-19-8.1-18.9-18 .1-9.7 8.1-17.9 19.2-17.7 10.6.1 18.5 8.1 18.5 17.9.1 9.8-8.2 18-18.8 17.8z" fill="#323232"/>
  <path d="M374.2 67c.1 7.4-6.6 13.9-14.7 13.9s-14.8-6.5-14.7-14.2c.1-7.4 6.2-14.3 15.6-13.8 7.2.3 14 6 13.8 14.1z" fill="#181615"/>
</svg>
