<svg xmlns="http://www.w3.org/2000/svg" viewBox="0 0 307 145" fill="#000">
  <path fill-rule="evenodd" clip-rule="evenodd" d="M222.729 77.25c3.009 0 11.216 1.64 14.225 4.374 3.009 2.734 8.343 18.727 8.616 28.432.274 9.022 10.258 27.202 9.027 29.662-.137.137-16.276-.137-16.276-.137-.41 0-28.858.821-29.816 0 0 0-18.464-1.777-18.601-1.913-1.231-2.187 13.13-14.763 11.763-16.54-1.505-1.914 2.735-30.482 4.923-33.49 2.189-3.144 2.873-10.388 16.139-10.388Z" fill="#323232" />
  <path fill-rule="evenodd" clip-rule="evenodd" d="M222.73 78.207c-1.915-.137-3.693-3.691-5.198-10.799l6.292 2.05 5.744-1.503c-2.599 6.971-4.924 10.388-6.838 10.252Z" fill="#323232" />
  <path fill-rule="evenodd" clip-rule="evenodd" d="M273.811 76.67c-3.009 0-11.215 1.778-14.224 4.785-3.009 3.007-8.343 20.367-8.616 30.893-.274 9.705-10.258 29.525-9.027 32.122.136.137 16.275-.136 16.275-.136.411 0 28.859.82 29.817 0 0 0 18.464-1.914 18.6-2.051 1.231-2.324-13.13-15.993-11.762-18.043 1.505-2.051-2.735-33.216-4.924-36.497-2.188-3.28-2.872-11.072-16.139-11.072Z" fill="#767676" />
  <path fill-rule="evenodd" clip-rule="evenodd" d="M273.811 77.628c1.915-.137 3.693-3.965 5.198-11.756l-6.292 2.324-5.744-1.64c2.599 7.518 4.924 11.208 6.838 11.072Z" fill="#767676" />
  <path d="m142.332.348-4.013.59 20.629 139.953 4.013-.591L142.332.348ZM147.494.348l-4.013.59 20.629 139.953 4.013-.591L147.494.348ZM164.956 80.593l-4.013.59 8.81 59.772 4.013-.591-8.81-59.771Z" fill="#7E4815" />
  <path d="M51.16 76.518c-.37-.737-2.213-2.088-2.213-4.298 0-2.088.492-4.053 3.687-3.684 3.196.368 3.073 1.35 3.687 4.42.738 3.07 1.106 27.385 1.106 27.385h-5.899l-.369-23.823Z" fill="#FFE600" />
  <path d="M63.696 136.076s-1.107 5.158-.492 5.526c.614.369 3.195 0 3.195 0l2.213-6.017-4.916.491Z" fill="#E78955" />
  <path d="m.4 139.146 1.23 2.702 39.083-1.105.983-2.948L.4 139.146Z" fill="#7E4815" />
  <path d="M2.858 106.113h5.285l.983 32.91H4.21l-1.352-32.91ZM41.819 106.113h-6.514v31.928h6.514v-31.928Z" fill="#7E4815" />
  <path d="M8.266 108.078c0-.123 27.039 0 27.039 0v30.086l-26.056.86-.983-30.946ZM5.685 101.569c1.358 0 2.458-.769 2.458-1.719 0-.95-1.1-1.72-2.458-1.72-1.357 0-2.458.77-2.458 1.72s1.1 1.719 2.458 1.719ZM4.948 69.395c1.357 0 2.458-.77 2.458-1.719 0-.95-1.1-1.719-2.458-1.719s-2.458.77-2.458 1.72c0 .949 1.1 1.718 2.458 1.718ZM4.948 81.184c1.357 0 2.458-1.044 2.458-2.333 0-1.289-1.1-2.333-2.458-2.333S2.49 77.562 2.49 78.85c0 1.289 1.1 2.333 2.458 2.333Z" fill="#7E4815" />
  <path d="M4.948 84.009c1.357 0 2.458-.77 2.458-1.72 0-.949-1.1-1.719-2.458-1.719s-2.458.77-2.458 1.72c0 .949 1.1 1.719 2.458 1.719ZM5.808 106.481c1.358 0 2.458-.77 2.458-1.719 0-.95-1.1-1.719-2.458-1.719-1.357 0-2.458.769-2.458 1.719 0 .949 1.1 1.719 2.458 1.719Z" fill="#7E4815" />
  <path d="M7.529 100.955H3.842v2.579h3.687v-2.579ZM7.775 69.395H2.244v7.123h5.53v-7.123ZM6.423 63.378h-2.95v4.298h2.95v-4.298Z" fill="#7E4815" />
  <path d="M7.16 62.15c0 .983-1.106 1.72-2.458 1.72s-2.458-.737-2.458-1.72H7.16ZM2.613 82.29 4.21 98.622h2.95l.246-16.332H2.613ZM38.746 101.201c1.358 0 2.458-.77 2.458-1.72 0-.949-1.1-1.718-2.458-1.718-1.357 0-2.458.77-2.458 1.719 0 .949 1.1 1.719 2.458 1.719ZM38.009 69.15c1.357 0 2.458-.77 2.458-1.72 0-.949-1.1-1.719-2.458-1.719s-2.458.77-2.458 1.72 1.1 1.719 2.458 1.719ZM38.009 80.939c1.357 0 2.458-1.045 2.458-2.334 0-1.288-1.1-2.333-2.458-2.333s-2.458 1.045-2.458 2.333c0 1.289 1.1 2.334 2.458 2.334Z" fill="#7E4815" />
  <path d="M38.009 83.763c1.357 0 2.458-.77 2.458-1.72 0-.949-1.1-1.718-2.458-1.718s-2.458.77-2.458 1.719c0 .95 1.1 1.72 2.458 1.72ZM38.87 106.236c1.357 0 2.457-.77 2.457-1.72 0-.949-1.1-1.719-2.458-1.719-1.357 0-2.458.77-2.458 1.719 0 .95 1.1 1.72 2.458 1.72Z" fill="#7E4815" />
  <path d="M40.59 100.71h-3.687v2.579h3.687v-2.579ZM40.836 69.15h-5.531v7.122h5.53V69.15ZM39.36 63.133h-2.949v4.298h2.95v-4.298Z" fill="#7E4815" />
  <path d="M40.221 61.782c0 .982-1.106 1.719-2.458 1.719s-2.458-.737-2.458-1.72h4.916ZM35.55 82.044l1.599 16.332h3.072l.246-16.332H35.55ZM36.288 69.886H7.528v5.158h28.76v-5.157Z" fill="#7E4815" />
  <path d="M62.835 14.012c0-.368-.737-4.912 1.72-5.158 2.336-.245 61.207-.49 61.207-.49l3.195 53.54v36.472h-14.994l-54.692-.123 3.564-84.24Z" fill="#FFE600" />
  <path d="m69.472 95.06-12.044 5.404-1.107-18.666-5.285-5.28s-5.038 2.21-6.022-6.14c-.86-6.631 8.358-7.245 8.112-7.123 0 0 9.34-1.227 12.413 0 2.212.983 5.654 4.913 5.654 7.491 0 2.58-2.335 8.35-2.213 12.158.123 4.298.492 12.157.492 12.157Z" fill="#FFE600" />
  <path d="m66.891 8.855 16.96 89.03-22.86-1.473 1.598-83.75s-.491-2.702 1.107-3.439c1.72-.86 3.195-.368 3.195-.368Z" fill-opacity=".1" />
  <path d="M56.321 63.255s-7.25-40.524-7.374-43.84c-.246-3.315 1.23-10.438 4.548-11.052 3.318-.614 7.374-.982 8.726.737 1.352 1.72 1.598 52.927 1.598 52.927l-7.498 1.228Z" fill="#FFE600" />
  <path d="M87.293 42.87a2.457 2.457 0 1 0-2.458-2.456c0 1.357 1.1 2.456 2.458 2.456ZM112.611 42.87a2.457 2.457 0 1 0 0-4.912 2.457 2.457 0 0 0-2.458 2.456 2.457 2.457 0 0 0 2.458 2.456Z" />
  <path d="M138.298 76.518c.369-.737 2.212-2.088 2.212-4.298 0-2.088-.492-4.053-3.687-3.684-3.195.368-3.073 1.35-3.687 4.42-.615 3.07-1.106 27.385-1.106 27.385h5.899l.369-23.823ZM128.834 61.905l-3.072-52.56s6.759-3.192 8.234-3.192c1.475 0 3.81-.123 4.916.982 1.107 1.106 2.95 6.386 2.827 10.438-.123 4.053-2.581 21.859-2.95 26.526-.245 3.07-.245 19.402-.245 19.402l-9.71-1.596Z" fill="#FFE600" />
  <path d="m51.405 123.673 87.016-.982V99.604H51.405v24.069Z" fill="#FFE600" />
  <path d="M138.421 77.254s1.475 1.72 3.933 1.597c5.162-.246 5.162-5.772 5.162-7.368 0-3.561-2.458-8.228-5.408-8.228-1.229 0-13.028-2.701-15.732-.614-2.581 2.21-5.776 6.631-5.899 7.86-.123 1.227 1.352 6.876 1.721 9.332.368 2.456 1.597 10.316 2.335 10.93.737.614 4.179 2.333 3.933 2.824-2.827 6.508 3.441 6.877 3.441 6.877M50.545 122.568s-5.777 4.912-5.53 5.895c.245 1.105 2.212 5.403 2.703 6.877.492 1.473 1.106 4.298 1.106 4.052 0-.246.369-3.316 3.442-3.561 3.072-.246 4.793-.369 7.25-.369 2.459 0 53.71 1.351 56.413 1.228 2.704-.122 9.218 1.72 12.537 1.474 3.318-.246 4.055 0 5.53 1.351 1.475 1.351 4.179 1.351 4.179 1.351s4.302 1.964 4.793 0c.369-1.965 2.09-16.333-2.704-18.175-4.547-1.842-89.72-.123-89.72-.123Z" fill="#FFE600" />
  <path d="M59.025 100.833c.123-.492.492-4.421 2.09-4.421 5.407 0 58.502 1.596 61.697 1.228.369 0 6.76-2.702 7.62-1.228.983 1.473 0 3.807 0 3.807l-71.407.614Z" fill="#FFE600" />
  <path d="M59.025 100.833c.123-.492.492-4.421 2.09-4.421 5.407 0 58.502 1.596 61.697 1.228.369 0 6.76-2.702 7.62-1.228.983 1.473 0 3.807 0 3.807l-71.407.614Z" fill-opacity=".1" />
  <path d="m160.912 45.695 4.056-.614 14.748 94.434-4.055.614-14.749-94.434Z" fill="#7E4815" />
</svg>