<svg xmlns="http://www.w3.org/2000/svg" viewBox="0 0 1743 202" fill="#E6E6E6">
  <g clip-path="url(#a)">
    <path
      d="M949.906 149.151v-43.545h1.653v-.972h-1.653V84.99h-3.385c.518-1.366.808-2.845.808-4.392 0-5.508-3.606-10.176-8.597-11.807h.346v-2.614h-2.281s-6.339-3.476-11.779-12.907c-3.503-6.072-3.294-13.475-3.294-13.475h1.74v-2.012h-6.389a5.384 5.384 0 0 0-5.189-3.915 5.383 5.383 0 0 0-5.19 3.915h-6.388v2.012h1.645s.761 6.647-3.93 14.319c-4.808 7.868-10.664 12.063-10.664 12.063h-2.939v2.614h.83c-4.992 1.63-8.597 6.299-8.597 11.807 0 1.547.285 3.026.807 4.392h-3.8v19.644H872v.972h1.66v43.545H872v.972h.899v51.53h77.932v-51.53h.728v-.972h-1.657.004Zm-16.432-31.939v23.783h-17.423v-23.783h17.423Zm-14.765-28.72h6.053v16.694h-6.053V88.492Zm-12.226-28.375h10.787v16.698h-10.787V60.117Zm0 28.375h10.787v16.694h-10.787V88.492Zm-7.447 0h6.054v16.694h-6.054V88.492Zm-9.975 28.72h17.422v23.783h-17.422v-23.783Zm35.701 77.084h-45.935v-22.747h45.935v22.747Zm-29.545-27.192v-5.715h14.609v5.715h-14.609Zm17.042 0v-5.715h14.609v5.715h-14.609Zm19.555 30.801-5.532.378v-26.737l5.532-.379v26.738Zm12.061.378-10.991-.378v-26.738l10.991.379v26.737Zm0-31.179h-14.608v-5.715h14.608v5.715Zm6.389-14.125h-76.969v-2.86h76.973v2.86h-.004Z"
    />
  </g>
  <g clip-path="url(#b)">
    <path
      d="M1167.31 149.151v-43.545h1.66v-.972h-1.66V84.99h-3.38c.52-1.366.81-2.845.81-4.392 0-5.508-3.61-10.176-8.6-11.807h.35v-2.614h-2.28s-6.34-3.476-11.78-12.907c-3.51-6.072-3.3-13.475-3.3-13.475h1.74v-2.012h-6.39a5.376 5.376 0 0 0-5.19-3.915 5.394 5.394 0 0 0-5.19 3.915h-6.38v2.012h1.64s.76 6.647-3.93 14.319c-4.81 7.868-10.66 12.063-10.66 12.063h-2.94v2.614h.83c-4.99 1.63-8.6 6.299-8.6 11.807 0 1.547.29 3.026.81 4.392h-3.8v19.644h-1.66v.972h1.66v43.545h-1.66v.972h.9v51.53h77.93v-51.53h.73v-.972h-1.66Zm-16.43-31.939v23.783h-17.42v-23.783h17.42Zm-14.76-28.72h6.05v16.694h-6.05V88.492Zm-12.23-28.375h10.79v16.698h-10.79V60.117Zm0 28.375h10.79v16.694h-10.79V88.492Zm-7.45 0h6.06v16.694h-6.06V88.492Zm-9.97 28.72h17.42v23.783h-17.42v-23.783Zm35.7 77.084h-45.94v-22.747h45.94v22.747Zm-29.54-27.192v-5.715h14.6v5.715h-14.6Zm17.04 0v-5.715h14.61v5.715h-14.61Zm19.55 30.801-5.53.378v-26.737l5.53-.379v26.738Zm12.06.378-10.99-.378v-26.738l10.99.379v26.737Zm0-31.179h-14.61v-5.715h14.61v5.715Zm6.39-14.125h-76.97v-2.86h76.98v2.86h-.01Z"
    />
  </g>
  <g clip-path="url(#c)">
    <path
      d="M1009.06 79.546a3.164 3.164 0 0 0-3.17-3.159 3.175 3.175 0 0 0-3.12 2.608s-6.448-.652-7.215-7.508c-.762-6.804 2.308-7.942 2.308-7.942v-5.456h1.227v-1.034h-5.351a4.132 4.132 0 0 0-5.835-4.877c.557-.571.9-1.347.9-2.204a3.163 3.163 0 0 0-3.167-3.159c-.82 0-1.566.314-2.131.825.553-.7.884-1.581.884-2.543a4.133 4.133 0 0 0-4.141-4.128 4.132 4.132 0 0 0-4.14 4.128c0 .805.234 1.557.638 2.193a3.163 3.163 0 0 0-4.83 2.684c0 .857.343 1.633.899 2.204a4.132 4.132 0 0 0-5.835 4.877h-6.226v1.034h1.929v5.456s3.519 5.81 1.977 10.082c-1.275 3.537-5.387 5.271-6.771 5.766a3.163 3.163 0 0 0-3.164-3.006c-1.699 0-3.167 1.417-3.167 3.159 0 1.303.791 2.418 1.92 2.905l-1.92 1.372v1.066h1.053v116.765h55.078V84.885h1.37v-1.066l-2.46-1.2a3.16 3.16 0 0 0 2.46-3.077v.004Zm-25.962-31.468c-.076.101-.145.206-.209.314l-.077-.068c.097-.077.194-.161.282-.246h.004Zm-9.313 15.463h12.961v17.063h-12.961V63.541Zm-1.247 29.886h15.548v19.119h-15.548v-19.12Zm-15.108 0h13.03v19.119h-13.03v-19.12Zm0 27.758h19.801v24.008H957.43v-24.008Zm14.479 68.137H957.43v-34.485h14.479v34.485Zm13.623 10.404h-10.306v-30.489h10.306v30.489Zm0-33.366h-10.306v-11.523h10.306v11.523Zm17.028 22.962h-14.474v-34.485h14.474v34.485Zm.36-44.125h-19.801v-24.008h19.801v24.008Zm.41-32.651h-13.029v-19.12h13.029v19.12Z"
    />
  </g>
  <g clip-path="url(#d)">
    <path
      d="M1306.55 79.546a3.164 3.164 0 0 0-3.17-3.159 3.167 3.167 0 0 0-3.12 2.608s-6.45-.652-7.22-7.508c-.76-6.804 2.31-7.942 2.31-7.942v-5.456h1.23v-1.034h-5.35c.11-.378.17-.78.17-1.2a4.13 4.13 0 0 0-6.01-3.677c.56-.571.9-1.347.9-2.204a3.163 3.163 0 0 0-3.17-3.159c-.82 0-1.56.314-2.13.825.56-.7.89-1.581.89-2.543a4.137 4.137 0 0 0-4.14-4.128 4.13 4.13 0 0 0-3.51 6.32 3.166 3.166 0 0 0-4.83 2.684c0 .858.35 1.634.9 2.205a4.13 4.13 0 0 0-6.01 3.678c0 .418.06.82.18 1.199h-6.23v1.034h1.93v5.456s3.52 5.81 1.98 10.082c-1.28 3.537-5.39 5.271-6.77 5.766a3.168 3.168 0 0 0-3.17-3.006c-1.7 0-3.17 1.417-3.17 3.159 0 1.303.8 2.418 1.93 2.905l-1.93 1.372v1.066h1.06v116.765h55.07V84.885h1.37v-1.066l-2.45-1.2a3.163 3.163 0 0 0 2.45-3.077l.01.004Zm-25.97-31.468c-.07.101-.14.206-.21.314l-.07-.068c.1-.077.19-.161.28-.246Zm-9.31 15.463h12.96v17.063h-12.96V63.541Zm-1.25 29.886h15.55v19.119h-15.55v-19.12Zm-15.1 0h13.03v19.119h-13.03v-19.12Zm0 27.758h19.8v24.008h-19.8v-24.008Zm14.47 68.137h-14.47v-34.485h14.47v34.485Zm13.63 10.404h-10.31v-30.489h10.31v30.489Zm0-33.366h-10.31v-11.523h10.31v11.523Zm17.03 22.962h-14.48v-34.485h14.48v34.485Zm.36-44.125h-19.81v-24.008h19.81v24.008Zm.41-32.651h-13.03v-19.12h13.03v19.12Z"
    />
  </g>
  <g clip-path="url(#e)">
    <path d="M1058.15 176.466h-4.42l-9.21 7.505v6.446l17.85-14.554v-6.446l-4.22 3.438v3.611Z"/>
    <path
      d="M1081.35 57.048v-9.389h1.49v-1.653h-7.17v-8.178h1.53v-1.653h-6.17v-8.628h1.41v-1.653h-6.3V18.69h.79v-1.653h-6.08V9.83h1.56V8.178h-6.56V0h-13.58v8.178h-6.26v1.653h1.36v7.203h-5.96v1.653h.86v7.203h-6.14v1.652h.85v8.629h-5.71v1.653h1.07v8.178h-6.8v1.653h1.75v9.389h-6.65v1.653h1.92v142.957h73.63V58.701h1.64v-1.653h-6.48Zm-47.1 119.418h-16.96v-49.572h16.96v49.572Zm0-61.804h-16.96v-29.58h16.96v29.58Zm1.98-40.072H1024V54.523h12.23V74.59Zm45.12 10.488v29.58h-16.97v-29.58h16.97Zm0 41.812v57.118h-16.97V126.89h16.97Zm-18.87-72.371h12.23v20.067h-12.23V54.519Zm-19.22-25.894h12.87v17.373h-12.87V28.625Zm-1.86 25.894h16.54v20.067h-16.54V54.519Zm-.51 30.56h16.97v29.579h-16.97v-29.58Zm9.8 112.707h-4.22v-.872h4.22v.872Zm3.84-2.645h-4.21v-.872h4.21v.872Zm3.63-2.645h-4.22v-.872h4.22v.872Zm4.21-2.331h-4.21v-.872h4.21v.872Zm21.61-2.446h-21.61v-10.732l-17.85 14.555v7.533h2.37v.872h-4.21v-.872h.96v-6.814l-4.13 3.372-.56-.67 4.69-3.831v-6.446l-4.13 3.372-.56-.67 13.39-10.922h-11.16v-49.572h16.97v44.828l4.22-3.438v-.128h.87v18.691h20.73v.872h.01Z"/>
  </g>
  <g clip-path="url(#f)">
    <path d="M1217.78 176.466h-4.43l-9.2 7.505v6.446l17.84-14.554v-6.446l-4.21 3.438v3.611Z"/>
    <path
      d="M1240.97 57.048v-9.389h1.5v-1.653h-7.18v-8.178h1.53v-1.653h-6.17v-8.628h1.41v-1.653h-6.3V18.69h.8v-1.653h-6.09V9.83h1.56V8.178h-6.56V0h-13.58v8.178h-6.26v1.653h1.37v7.203h-5.97v1.653h.86v7.203h-6.14v1.652h.85v8.629h-5.71v1.653h1.07v8.178h-6.8v1.653h1.75v9.389h-6.65v1.653h1.92v142.957h73.63V58.701h1.65v-1.653h-6.49Zm-47.09 119.418h-16.97v-49.572h16.97v49.572Zm0-61.804h-16.97v-29.58h16.97v29.58Zm1.97-40.072h-12.23V54.523h12.23V74.59Zm45.12 10.488v29.58H1224v-29.58h16.97Zm0 41.812v57.118H1224V126.89h16.97Zm-18.87-72.371h12.24v20.067h-12.24V54.519Zm-19.21-25.894h12.87v17.373h-12.87V28.625Zm-1.87 25.894h16.55v20.067h-16.55V54.519Zm-.51 30.56h16.97v29.579h-16.97v-29.58Zm9.8 112.707h-4.21v-.872h4.21v.872Zm3.85-2.645h-4.22v-.872h4.22v.872Zm3.62-2.645h-4.22v-.872h4.22v.872Zm4.21-2.331h-4.21v-.872h4.21v.872Zm21.62-2.446h-21.62v-10.732l-17.85 14.555v7.533h2.38v.872h-4.22v-.872h.97v-6.814l-4.13 3.372-.57-.67 4.7-3.831v-6.446l-4.13 3.372-.57-.67 13.39-10.922h-11.16v-49.572h16.97v44.828l4.22-3.438v-.128h.88v18.691h20.73v.872h.01Z"/>
  </g>
  <g clip-path="url(#g)">
    <path
      d="M1385.91 149.151v-43.545h1.65v-.972h-1.65V84.99h-3.39c.52-1.366.81-2.845.81-4.392 0-5.508-3.61-10.176-8.6-11.807h.35v-2.614h-2.28s-6.34-3.476-11.78-12.907c-3.51-6.072-3.3-13.475-3.3-13.475h1.74v-2.012h-6.38a5.394 5.394 0 0 0-5.19-3.915 5.376 5.376 0 0 0-5.19 3.915h-6.39v2.012h1.64s.76 6.647-3.93 14.319c-4.81 7.868-10.66 12.063-10.66 12.063h-2.94v2.614h.83c-4.99 1.63-8.6 6.299-8.6 11.807 0 1.547.29 3.026.81 4.392h-3.8v19.644H1308v.972h1.66v43.545H1308v.972h.9v51.53h77.93v-51.53h.73v-.972h-1.66.01Zm-16.44-31.939v23.783h-17.42v-23.783h17.42Zm-14.76-28.72h6.05v16.694h-6.05V88.492Zm-12.23-28.375h10.79v16.698h-10.79V60.117Zm0 28.375h10.79v16.694h-10.79V88.492Zm-7.44 0h6.05v16.694h-6.05V88.492Zm-9.98 28.72h17.42v23.783h-17.42v-23.783Zm35.7 77.084h-45.93v-22.747h45.93v22.747Zm-29.54-27.192v-5.715h14.61v5.715h-14.61Zm17.04 0v-5.715h14.61v5.715h-14.61Zm19.55 30.801-5.53.378v-26.737l5.53-.379v26.738Zm12.07.378-11-.378v-26.738l11 .379v26.737Zm0-31.179h-14.61v-5.715h14.61v5.715Zm6.38-14.125h-76.97v-2.86h76.98v2.86h-.01Z"
    />
  </g>
  <g clip-path="url(#h)">
    <path
      d="M1603.31 149.151v-43.545h1.66v-.972h-1.66V84.99h-3.38c.52-1.366.81-2.845.81-4.392 0-5.508-3.61-10.176-8.6-11.807h.35v-2.614h-2.28s-6.34-3.476-11.78-12.907c-3.51-6.072-3.3-13.475-3.3-13.475h1.74v-2.012h-6.39a5.376 5.376 0 0 0-5.19-3.915 5.394 5.394 0 0 0-5.19 3.915h-6.38v2.012h1.64s.76 6.647-3.93 14.319c-4.81 7.868-10.66 12.063-10.66 12.063h-2.94v2.614h.83c-4.99 1.63-8.6 6.299-8.6 11.807 0 1.547.29 3.026.81 4.392h-3.8v19.644h-1.66v.972h1.66v43.545h-1.66v.972h.9v51.53h77.93v-51.53h.73v-.972h-1.66Zm-16.43-31.939v23.783h-17.42v-23.783h17.42Zm-14.76-28.72h6.05v16.694h-6.05V88.492Zm-12.23-28.375h10.79v16.698h-10.79V60.117Zm0 28.375h10.79v16.694h-10.79V88.492Zm-7.45 0h6.06v16.694h-6.06V88.492Zm-9.97 28.72h17.42v23.783h-17.42v-23.783Zm35.7 77.084h-45.94v-22.747h45.94v22.747Zm-29.54-27.192v-5.715h14.6v5.715h-14.6Zm17.04 0v-5.715h14.61v5.715h-14.61Zm19.55 30.801-5.53.378v-26.737l5.53-.379v26.738Zm12.06.378-10.99-.378v-26.738l10.99.379v26.737Zm0-31.179h-14.61v-5.715h14.61v5.715Zm6.39-14.125h-76.97v-2.86h76.98v2.86h-.01Z"
    />
  </g>
  <g clip-path="url(#i)">
    <path
      d="M1445.06 79.546a3.164 3.164 0 0 0-3.17-3.159 3.175 3.175 0 0 0-3.12 2.608s-6.45-.652-7.21-7.508c-.77-6.804 2.3-7.942 2.3-7.942v-5.456h1.23v-1.034h-5.35c.12-.378.18-.78.18-1.2a4.137 4.137 0 0 0-6.02-3.677c.56-.571.9-1.347.9-2.204a3.161 3.161 0 0 0-5.29-2.334 4.1 4.1 0 0 0 .88-2.543 4.13 4.13 0 0 0-4.14-4.128 4.13 4.13 0 0 0-4.14 4.128c0 .805.23 1.557.64 2.193a3.207 3.207 0 0 0-1.67-.475 3.158 3.158 0 0 0-2.26 5.363c-.56-.285-1.2-.45-1.88-.45a4.137 4.137 0 0 0-4.14 4.128c0 .418.07.82.18 1.199h-6.22v1.034h1.92v5.456s3.52 5.81 1.98 10.082c-1.27 3.537-5.39 5.271-6.77 5.766a3.158 3.158 0 0 0-3.16-3.006c-1.7 0-3.17 1.417-3.17 3.159 0 1.303.79 2.418 1.92 2.905l-1.92 1.372v1.066h1.05v116.765h55.08V84.885h1.37v-1.066l-2.46-1.2a3.16 3.16 0 0 0 2.46-3.077v.004Zm-25.96-31.468c-.08.101-.15.206-.21.314l-.08-.068c.1-.077.2-.161.28-.246h.01Zm-9.32 15.463h12.97v17.063h-12.97V63.541Zm-1.24 29.886h15.55v19.119h-15.55v-19.12Zm-15.11 0h13.03v19.119h-13.03v-19.12Zm0 27.758h19.8v24.008h-19.8v-24.008Zm14.48 68.137h-14.48v-34.485h14.48v34.485Zm13.62 10.404h-10.3v-30.489h10.3v30.489Zm0-33.366h-10.3v-11.523h10.3v11.523Zm17.03 22.962h-14.47v-34.485h14.47v34.485Zm.36-44.125h-19.8v-24.008h19.8v24.008Zm.41-32.651h-13.03v-19.12h13.03v19.12Z"
    />
  </g>
  <g clip-path="url(#j)">
    <path
      d="M1742.55 79.546a3.164 3.164 0 0 0-3.17-3.159 3.167 3.167 0 0 0-3.12 2.608s-6.45-.652-7.22-7.508c-.76-6.804 2.31-7.942 2.31-7.942v-5.456h1.23v-1.034h-5.35c.11-.378.17-.78.17-1.2a4.13 4.13 0 0 0-6.01-3.677c.56-.571.9-1.347.9-2.204a3.163 3.163 0 0 0-3.17-3.159c-.82 0-1.56.314-2.13.825.56-.7.89-1.581.89-2.543a4.137 4.137 0 0 0-4.14-4.128 4.13 4.13 0 0 0-3.51 6.32 3.166 3.166 0 0 0-4.83 2.684c0 .858.35 1.634.9 2.205a4.13 4.13 0 0 0-6.01 3.678c0 .418.06.82.18 1.199h-6.23v1.034h1.93v5.456s3.52 5.81 1.98 10.082c-1.28 3.537-5.39 5.271-6.77 5.766a3.168 3.168 0 0 0-3.17-3.006c-1.7 0-3.17 1.417-3.17 3.159 0 1.303.8 2.418 1.93 2.905l-1.93 1.372v1.066h1.06v116.765h55.07V84.885h1.37v-1.066l-2.45-1.2a3.163 3.163 0 0 0 2.45-3.077l.01.004Zm-25.97-31.468c-.07.101-.14.206-.21.314l-.07-.068c.1-.077.19-.161.28-.246Zm-9.31 15.463h12.96v17.063h-12.96V63.541Zm-1.25 29.886h15.55v19.119h-15.55v-19.12Zm-15.1 0h13.03v19.119h-13.03v-19.12Zm0 27.758h19.8v24.008h-19.8v-24.008Zm14.47 68.137h-14.47v-34.485h14.47v34.485Zm13.63 10.404h-10.31v-30.489h10.31v30.489Zm0-33.366h-10.31v-11.523h10.31v11.523Zm17.03 22.962h-14.48v-34.485h14.48v34.485Zm.36-44.125h-19.81v-24.008h19.81v24.008Zm.41-32.651h-13.03v-19.12h13.03v19.12Z"
    />
  </g>
  <g clip-path="url(#k)">
    <path d="M1494.15 176.466h-4.42l-9.21 7.505v6.446l17.85-14.554v-6.446l-4.22 3.438v3.611Z"/>
    <path
      d="M1517.35 57.048v-9.389h1.49v-1.653h-7.17v-8.178h1.53v-1.653h-6.17v-8.628h1.41v-1.653h-6.3V18.69h.79v-1.653h-6.08V9.83h1.56V8.178h-6.56V0h-13.58v8.178h-6.26v1.653h1.36v7.203h-5.96v1.653h.86v7.203h-6.14v1.652h.85v8.629h-5.71v1.653h1.07v8.178h-6.8v1.653h1.75v9.389h-6.65v1.653h1.92v142.957h73.63V58.701h1.64v-1.653h-6.48Zm-47.1 119.418h-16.96v-49.572h16.96v49.572Zm0-61.804h-16.96v-29.58h16.96v29.58Zm1.98-40.072H1460V54.523h12.23V74.59Zm45.12 10.488v29.58h-16.97v-29.58h16.97Zm0 41.812v57.118h-16.97V126.89h16.97Zm-18.87-72.371h12.23v20.067h-12.23V54.519Zm-19.22-25.894h12.87v17.373h-12.87V28.625Zm-1.86 25.894h16.54v20.067h-16.54V54.519Zm-.51 30.56h16.97v29.579h-16.97v-29.58Zm9.8 112.707h-4.22v-.872h4.22v.872Zm3.84-2.645h-4.21v-.872h4.21v.872Zm3.63-2.645h-4.22v-.872h4.22v.872Zm4.21-2.331h-4.21v-.872h4.21v.872Zm21.61-2.446h-21.61v-10.732l-17.85 14.555v7.533h2.37v.872h-4.21v-.872h.96v-6.814l-4.13 3.372-.56-.67 4.69-3.831v-6.446l-4.13 3.372-.56-.67 13.39-10.922h-11.16v-49.572h16.97v44.828l4.22-3.438v-.128h.87v18.691h20.73v.872h.01Z"/>
  </g>
  <g clip-path="url(#l)">
    <path d="M1653.78 176.466h-4.43l-9.2 7.505v6.446l17.84-14.554v-6.446l-4.21 3.438v3.611Z"/>
    <path
      d="M1676.97 57.048v-9.389h1.5v-1.653h-7.18v-8.178h1.53v-1.653h-6.17v-8.628h1.41v-1.653h-6.3V18.69h.8v-1.653h-6.09V9.83h1.56V8.178h-6.56V0h-13.58v8.178h-6.26v1.653h1.37v7.203h-5.97v1.653h.86v7.203h-6.14v1.652h.85v8.629h-5.71v1.653h1.07v8.178h-6.8v1.653h1.75v9.389h-6.65v1.653h1.92v142.957h73.63V58.701h1.65v-1.653h-6.49Zm-47.09 119.418h-16.97v-49.572h16.97v49.572Zm0-61.804h-16.97v-29.58h16.97v29.58Zm1.97-40.072h-12.23V54.523h12.23V74.59Zm45.12 10.488v29.58H1660v-29.58h16.97Zm0 41.812v57.118H1660V126.89h16.97Zm-18.87-72.371h12.24v20.067h-12.24V54.519Zm-19.21-25.894h12.87v17.373h-12.87V28.625Zm-1.87 25.894h16.55v20.067h-16.55V54.519Zm-.51 30.56h16.97v29.579h-16.97v-29.58Zm9.8 112.707h-4.21v-.872h4.21v.872Zm3.85-2.645h-4.22v-.872h4.22v.872Zm3.62-2.645h-4.22v-.872h4.22v.872Zm4.21-2.331h-4.21v-.872h4.21v.872Zm21.62-2.446h-21.62v-10.732l-17.85 14.555v7.533h2.38v.872h-4.22v-.872h.97v-6.814l-4.13 3.372-.57-.67 4.7-3.831v-6.446l-4.13 3.372-.57-.67 13.39-10.922h-11.16v-49.572h16.97v44.828l4.22-3.438v-.128h.88v18.691h20.73v.872h.01Z"/>
  </g>
  <g clip-path="url(#m)">
    <path
      d="M77.906 149.151v-43.545h1.653v-.972h-1.653V84.99h-3.385a12.36 12.36 0 0 0 .808-4.392c0-5.508-3.606-10.176-8.597-11.807h.346v-2.614h-2.28s-6.34-3.476-11.78-12.907c-3.503-6.072-3.294-13.475-3.294-13.475h1.74v-2.012h-6.389a5.385 5.385 0 0 0-5.19-3.915 5.382 5.382 0 0 0-5.188 3.915h-6.39v2.012h1.646s.761 6.647-3.93 14.319C21.215 61.982 15.36 66.177 15.36 66.177h-2.94v2.614h.83c-4.99 1.63-8.596 6.299-8.596 11.807 0 1.547.285 3.026.807 4.392h-3.8v19.644H0v.972h1.66v43.545H0v.972h.899v51.53H78.83v-51.53h.728v-.972h-1.657.004Zm-16.432-31.939v23.783H44.05v-23.783h17.423Zm-14.765-28.72h6.053v16.694H46.71V88.492ZM34.483 60.117H45.27v16.698H34.483V60.117Zm0 28.375H45.27v16.694H34.483V88.492Zm-7.447 0h6.054v16.694h-6.054V88.492Zm-9.975 28.72h17.422v23.783H17.061v-23.783Zm35.701 77.084H6.827v-22.747h45.935v22.747Zm-29.545-27.192v-5.715h14.61v5.715h-14.61Zm17.042 0v-5.715h14.609v5.715H40.259Zm19.555 30.801-5.532.378v-26.737l5.532-.379v26.738Zm12.061.378-10.992-.378v-26.738l10.992.379v26.737Zm0-31.179H57.267v-5.715h14.608v5.715Zm6.39-14.125H1.294v-2.86h76.973v2.86h-.004Z"
    />
  </g>
  <g clip-path="url(#n)">
    <path
      d="M295.314 149.151v-43.545h1.652v-.972h-1.652V84.99h-3.385c.518-1.366.807-2.845.807-4.392 0-5.508-3.605-10.176-8.597-11.807h.347v-2.614h-2.281s-6.339-3.476-11.78-12.907c-3.503-6.072-3.293-13.475-3.293-13.475h1.74v-2.012h-6.389a5.386 5.386 0 0 0-5.189-3.915 5.382 5.382 0 0 0-5.19 3.915h-6.389v2.012h1.645s.762 6.647-3.929 14.319c-4.809 7.868-10.664 12.063-10.664 12.063h-2.94v2.614h.83c-4.991 1.63-8.597 6.299-8.597 11.807 0 1.547.286 3.026.807 4.392h-3.799v19.644h-1.66v.972h1.66v43.545h-1.66v.972h.898v51.53h77.933v-51.53h.727v-.972h-1.656.004Zm-16.433-31.939v23.783h-17.422v-23.783h17.422Zm-14.765-28.72h6.054v16.694h-6.054V88.492Zm-12.225-28.375h10.786v16.698h-10.786V60.117Zm0 28.375h10.786v16.694h-10.786V88.492Zm-7.447 0h6.053v16.694h-6.053V88.492Zm-9.975 28.72h17.422v23.783h-17.422v-23.783Zm35.701 77.084h-45.936v-22.747h45.936v22.747Zm-29.545-27.192v-5.715h14.609v5.715h-14.609Zm17.042 0v-5.715h14.609v5.715h-14.609Zm19.554 30.801-5.532.378v-26.737l5.532-.379v26.738Zm12.062.378-10.992-.378v-26.738l10.992.379v26.737Zm0-31.179h-14.609v-5.715h14.609v5.715Zm6.389-14.125h-76.97v-2.86h76.974v2.86h-.004Z"
    />
  </g>
  <g clip-path="url(#o)">
    <path
      d="M137.061 79.546a3.163 3.163 0 0 0-3.167-3.159 3.168 3.168 0 0 0-3.12 2.608s-6.452-.652-7.219-7.508c-.762-6.804 2.308-7.942 2.308-7.942v-5.456h1.227v-1.034h-5.351a4.132 4.132 0 0 0-5.835-4.877c.557-.571.9-1.347.9-2.204a3.163 3.163 0 0 0-3.167-3.159c-.82 0-1.566.314-2.131.825.553-.7.884-1.581.884-2.543a4.133 4.133 0 0 0-4.141-4.128 4.132 4.132 0 0 0-4.14 4.128c0 .805.234 1.557.638 2.193a3.163 3.163 0 0 0-4.83 2.684c0 .857.343 1.633.899 2.204a4.132 4.132 0 0 0-5.835 4.877h-6.226v1.034h1.929v5.456s3.519 5.81 1.977 10.082c-1.275 3.537-5.387 5.271-6.771 5.766a3.163 3.163 0 0 0-3.164-3.006c-1.699 0-3.167 1.417-3.167 3.159 0 1.303.79 2.418 1.92 2.905l-1.92 1.372v1.066h1.053v116.765h55.073V84.885h1.372v-1.066l-2.457-1.2a3.16 3.16 0 0 0 2.457-3.077l.004.004Zm-25.963-31.468c-.076.101-.145.206-.209.314l-.077-.068c.097-.077.194-.161.282-.246h.004Zm-9.313 15.463h12.961v17.063h-12.961V63.541Zm-1.247 29.886h15.548v19.119h-15.548v-19.12Zm-15.108 0h13.03v19.119H85.43v-19.12Zm0 27.758h19.801v24.008H85.43v-24.008Zm14.478 68.137H85.43v-34.485h14.478v34.485Zm13.624 10.404h-10.306v-30.489h10.306v30.489Zm0-33.366h-10.306v-11.523h10.306v11.523Zm17.033 22.962h-14.479v-34.485h14.479v34.485Zm.355-44.125h-19.801v-24.008h19.801v24.008Zm.411-32.651h-13.03v-19.12h13.03v19.12Z"
    />
  </g>
  <g clip-path="url(#p)">
    <path
      d="M434.548 79.546a3.164 3.164 0 0 0-3.168-3.159 3.166 3.166 0 0 0-3.119 2.608s-6.453-.652-7.219-7.508c-.763-6.804 2.308-7.942 2.308-7.942v-5.456h1.227v-1.034h-5.351a4.132 4.132 0 0 0-5.835-4.877c.557-.571.9-1.347.9-2.204a3.169 3.169 0 0 0-5.299-2.334c.553-.7.884-1.581.884-2.543a4.132 4.132 0 0 0-4.14-4.128 4.132 4.132 0 0 0-4.14 4.128c0 .805.234 1.557.637 2.193a3.163 3.163 0 0 0-4.83 2.684c0 .857.343 1.633.9 2.204a4.132 4.132 0 0 0-5.835 4.877h-6.227v1.034h1.929v5.456s3.519 5.81 1.977 10.082c-1.275 3.537-5.387 5.271-6.771 5.766a3.163 3.163 0 0 0-3.163-3.006c-1.699 0-3.168 1.417-3.168 3.159 0 1.303.791 2.418 1.921 2.905l-1.921 1.372v1.066h1.053v116.765h55.074V84.885h1.372v-1.066l-2.458-1.2a3.161 3.161 0 0 0 2.458-3.077l.004.004Zm-25.963-31.468c-.077.101-.146.206-.21.314l-.077-.068c.097-.077.194-.161.283-.246h.004Zm-9.314 15.463h12.962v17.063h-12.962V63.541Zm-1.247 29.886h15.548v19.119h-15.548v-19.12Zm-15.108 0h13.03v19.119h-13.03v-19.12Zm0 27.758h19.801v24.008h-19.801v-24.008Zm14.479 68.137h-14.479v-34.485h14.479v34.485Zm13.623 10.404h-10.306v-30.489h10.306v30.489Zm0-33.366h-10.306v-11.523h10.306v11.523Zm17.033 22.962h-14.479v-34.485h14.479v34.485Zm.355-44.125h-19.801v-24.008h19.801v24.008Zm.412-32.651h-13.03v-19.12h13.03v19.12Z"
    />
  </g>
  <g clip-path="url(#q)">
    <path d="M186.155 176.466h-4.427l-9.203 7.505v6.446l17.845-14.554v-6.446l-4.215 3.438v3.611Z"/>
    <path
      d="M209.345 57.048v-9.389h1.499v-1.653h-7.176v-8.178h1.528v-1.653h-6.171v-8.628h1.416v-1.653h-6.304V18.69h.797v-1.653h-6.088V9.83h1.562V8.178h-6.562V0H170.27v8.178h-6.259v1.653h1.363v7.203h-5.964v1.653h.86v7.203h-6.139v1.652h.848v8.629h-5.711v1.653h1.068v8.178h-6.795v1.653h1.745v9.389h-6.649v1.653h1.923v142.957h73.628V58.701h1.644v-1.653h-6.487Zm-47.09 119.418h-16.969v-49.572h16.969v49.572Zm0-61.804h-16.969v-29.58h16.969v29.58Zm1.977-40.072h-12.235V54.523h12.235V74.59Zm45.117 10.488v29.58H192.38v-29.58h16.969Zm0 41.812v57.118H192.38V126.89h16.969Zm-18.871-72.371h12.235v20.067h-12.235V54.519Zm-19.216-25.894h12.871v17.373h-12.871V28.625Zm-1.864 25.894h16.545v20.067h-16.545V54.519Zm-.507 30.56h16.969v29.579h-16.969v-29.58Zm9.797 112.707h-4.215v-.872h4.215v.872Zm3.846-2.645h-4.216v-.872h4.216v.872Zm3.621-2.645h-4.215v-.872h4.215v.872Zm4.215-2.331h-4.215v-.872h4.215v.872Zm21.612-2.446H190.37v-10.732l-17.849 14.555v7.533h2.371v.872h-4.215v-.872h.968v-6.814l-4.133 3.372-.564-.67 4.697-3.831v-6.446l-4.133 3.372-.564-.67 13.393-10.922h-11.159v-49.572h16.969v44.828l4.215-3.438v-.128h.876v18.691h20.732v.872h.008Z"/>
  </g>
  <g clip-path="url(#r)">
    <path d="M345.778 176.466h-4.427l-9.203 7.505v6.446l17.845-14.554v-6.446l-4.215 3.438v3.611Z"/>
    <path
      d="M368.968 57.048v-9.389h1.5v-1.653h-7.177v-8.178h1.528v-1.653h-6.171v-8.628h1.416v-1.653h-6.304V18.69h.797v-1.653h-6.088V9.83h1.562V8.178h-6.562V0h-13.576v8.178h-6.259v1.653h1.363v7.203h-5.964v1.653h.86v7.203h-6.138v1.652h.847v8.629h-5.711v1.653h1.068v8.178h-6.795v1.653h1.745v9.389h-6.649v1.653h1.923v142.957h73.628V58.701h1.644v-1.653h-6.487Zm-47.09 119.418h-16.969v-49.572h16.969v49.572Zm0-61.804h-16.969v-29.58h16.969v29.58Zm1.977-40.072H311.62V54.523h12.235V74.59Zm45.117 10.488v29.58h-16.969v-29.58h16.969Zm0 41.812v57.118h-16.969V126.89h16.969Zm-18.871-72.371h12.235v20.067h-12.235V54.519Zm-19.215-25.894h12.87v17.373h-12.87V28.625Zm-1.865 25.894h16.545v20.067h-16.545V54.519Zm-.507 30.56h16.969v29.579h-16.969v-29.58Zm9.797 112.707h-4.215v-.872h4.215v.872Zm3.846-2.645h-4.216v-.872h4.216v.872Zm3.621-2.645h-4.215v-.872h4.215v.872Zm4.215-2.331h-4.215v-.872h4.215v.872Zm21.612-2.446h-21.612v-10.732l-17.849 14.555v7.533h2.371v.872H330.3v-.872h.968v-6.814l-4.133 3.372-.564-.67 4.697-3.831v-6.446l-4.133 3.372-.564-.67 13.393-10.922h-11.159v-49.572h16.969v44.828l4.215-3.438v-.128h.876v18.691h20.732v.872h.008Z"/>
  </g>
  <g clip-path="url(#s)">
    <path
      d="M513.906 149.151v-43.545h1.653v-.972h-1.653V84.99h-3.385c.518-1.366.808-2.845.808-4.392 0-5.508-3.606-10.176-8.597-11.807h.346v-2.614h-2.281s-6.339-3.476-11.779-12.907c-3.503-6.072-3.294-13.475-3.294-13.475h1.74v-2.012h-6.389a5.384 5.384 0 0 0-5.189-3.915 5.383 5.383 0 0 0-5.19 3.915h-6.388v2.012h1.645s.761 6.647-3.93 14.319c-4.808 7.868-10.664 12.063-10.664 12.063h-2.939v2.614h.83c-4.992 1.63-8.597 6.299-8.597 11.807 0 1.547.285 3.026.807 4.392h-3.8v19.644H436v.972h1.66v43.545H436v.972h.899v51.53h77.932v-51.53h.728v-.972h-1.657.004Zm-16.432-31.939v23.783h-17.423v-23.783h17.423Zm-14.765-28.72h6.053v16.694h-6.053V88.492Zm-12.226-28.375h10.787v16.698h-10.787V60.117Zm0 28.375h10.787v16.694h-10.787V88.492Zm-7.447 0h6.054v16.694h-6.054V88.492Zm-9.975 28.72h17.422v23.783h-17.422v-23.783Zm35.701 77.084h-45.935v-22.747h45.935v22.747Zm-29.545-27.192v-5.715h14.609v5.715h-14.609Zm17.042 0v-5.715h14.609v5.715h-14.609Zm19.555 30.801-5.532.378v-26.737l5.532-.379v26.738Zm12.061.378-10.991-.378v-26.738l10.991.379v26.737Zm0-31.179h-14.608v-5.715h14.608v5.715Zm6.389-14.125h-76.969v-2.86h76.973v2.86h-.004Z"
    />
  </g>
  <g clip-path="url(#t)">
    <path
      d="M731.314 149.151v-43.545h1.652v-.972h-1.652V84.99h-3.385c.518-1.366.807-2.845.807-4.392 0-5.508-3.605-10.176-8.597-11.807h.347v-2.614h-2.281s-6.339-3.476-11.78-12.907c-3.503-6.072-3.293-13.475-3.293-13.475h1.74v-2.012h-6.389a5.386 5.386 0 0 0-5.189-3.915 5.382 5.382 0 0 0-5.19 3.915h-6.389v2.012h1.645s.762 6.647-3.929 14.319c-4.809 7.868-10.664 12.063-10.664 12.063h-2.94v2.614h.83c-4.991 1.63-8.597 6.299-8.597 11.807 0 1.547.286 3.026.807 4.392h-3.799v19.644h-1.66v.972h1.66v43.545h-1.66v.972h.898v51.53h77.933v-51.53h.727v-.972h-1.656.004Zm-16.433-31.939v23.783h-17.422v-23.783h17.422Zm-14.765-28.72h6.054v16.694h-6.054V88.492Zm-12.225-28.375h10.786v16.698h-10.786V60.117Zm0 28.375h10.786v16.694h-10.786V88.492Zm-7.447 0h6.053v16.694h-6.053V88.492Zm-9.975 28.72h17.422v23.783h-17.422v-23.783Zm35.701 77.084h-45.936v-22.747h45.936v22.747Zm-29.545-27.192v-5.715h14.609v5.715h-14.609Zm17.042 0v-5.715h14.609v5.715h-14.609Zm19.554 30.801-5.532.378v-26.737l5.532-.379v26.738Zm12.062.378-10.992-.378v-26.738l10.992.379v26.737Zm0-31.179h-14.609v-5.715h14.609v5.715Zm6.389-14.125h-76.97v-2.86h76.974v2.86h-.004Z"
    />
  </g>
  <g clip-path="url(#u)">
    <path
      d="M573.061 79.546a3.163 3.163 0 0 0-3.167-3.159 3.168 3.168 0 0 0-3.12 2.608s-6.452-.652-7.219-7.508c-.762-6.804 2.308-7.942 2.308-7.942v-5.456h1.227v-1.034h-5.351a4.132 4.132 0 0 0-5.835-4.877c.557-.571.9-1.347.9-2.204a3.163 3.163 0 0 0-3.167-3.159c-.82 0-1.566.314-2.131.825.553-.7.884-1.581.884-2.543a4.133 4.133 0 0 0-4.141-4.128 4.132 4.132 0 0 0-4.14 4.128c0 .805.234 1.557.638 2.193a3.163 3.163 0 0 0-4.83 2.684c0 .857.343 1.633.899 2.204a4.132 4.132 0 0 0-5.835 4.877h-6.226v1.034h1.929v5.456s3.519 5.81 1.977 10.082c-1.275 3.537-5.387 5.271-6.771 5.766a3.163 3.163 0 0 0-3.164-3.006c-1.699 0-3.167 1.417-3.167 3.159 0 1.303.791 2.418 1.92 2.905l-1.92 1.372v1.066h1.053v116.765h55.073V84.885h1.372v-1.066l-2.457-1.2a3.16 3.16 0 0 0 2.457-3.077l.004.004Zm-25.963-31.468c-.076.101-.145.206-.209.314l-.077-.068c.097-.077.194-.161.282-.246h.004Zm-9.313 15.463h12.961v17.063h-12.961V63.541Zm-1.247 29.886h15.548v19.119h-15.548v-19.12Zm-15.108 0h13.03v19.119h-13.03v-19.12Zm0 27.758h19.801v24.008H521.43v-24.008Zm14.479 68.137H521.43v-34.485h14.479v34.485Zm13.623 10.404h-10.306v-30.489h10.306v30.489Zm0-33.366h-10.306v-11.523h10.306v11.523Zm17.033 22.962h-14.479v-34.485h14.479v34.485Zm.355-44.125h-19.801v-24.008h19.801v24.008Zm.411-32.651h-13.03v-19.12h13.03v19.12Z"
    />
  </g>
  <g clip-path="url(#v)">
    <path
      d="M870.548 79.546a3.164 3.164 0 0 0-3.168-3.159 3.166 3.166 0 0 0-3.119 2.608s-6.453-.652-7.219-7.508c-.763-6.804 2.308-7.942 2.308-7.942v-5.456h1.227v-1.034h-5.351a4.132 4.132 0 0 0-5.835-4.877c.557-.571.9-1.347.9-2.204a3.169 3.169 0 0 0-5.299-2.334c.553-.7.884-1.581.884-2.543a4.132 4.132 0 0 0-4.14-4.128 4.132 4.132 0 0 0-4.14 4.128c0 .805.234 1.557.637 2.193a3.163 3.163 0 0 0-4.83 2.684c0 .857.343 1.633.9 2.204a4.132 4.132 0 0 0-5.835 4.877h-6.227v1.034h1.929v5.456s3.519 5.81 1.977 10.082c-1.275 3.537-5.387 5.271-6.771 5.766a3.163 3.163 0 0 0-3.163-3.006c-1.699 0-3.168 1.417-3.168 3.159 0 1.303.791 2.418 1.921 2.905l-1.921 1.372v1.066h1.053v116.765h55.074V84.885h1.372v-1.066l-2.458-1.2a3.161 3.161 0 0 0 2.458-3.077l.004.004Zm-25.963-31.468c-.077.101-.146.206-.21.314l-.077-.068c.097-.077.194-.161.283-.246h.004Zm-9.314 15.463h12.962v17.063h-12.962V63.541Zm-1.247 29.886h15.548v19.119h-15.548v-19.12Zm-15.108 0h13.03v19.119h-13.03v-19.12Zm0 27.758h19.801v24.008h-19.801v-24.008Zm14.479 68.137h-14.479v-34.485h14.479v34.485Zm13.623 10.404h-10.306v-30.489h10.306v30.489Zm0-33.366h-10.306v-11.523h10.306v11.523Zm17.033 22.962h-14.479v-34.485h14.479v34.485Zm.355-44.125h-19.801v-24.008h19.801v24.008Zm.412-32.651h-13.03v-19.12h13.03v19.12Z"
    />
  </g>
  <g clip-path="url(#w)">
    <path d="M622.155 176.466h-4.427l-9.203 7.505v6.446l17.845-14.554v-6.446l-4.215 3.438v3.611Z"/>
    <path
      d="M645.345 57.048v-9.389h1.499v-1.653h-7.176v-8.178h1.528v-1.653h-6.171v-8.628h1.416v-1.653h-6.304V18.69h.797v-1.653h-6.088V9.83h1.562V8.178h-6.562V0H606.27v8.178h-6.259v1.653h1.363v7.203h-5.964v1.653h.86v7.203h-6.139v1.652h.848v8.629h-5.711v1.653h1.068v8.178h-6.795v1.653h1.745v9.389h-6.649v1.653h1.923v142.957h73.628V58.701h1.644v-1.653h-6.487Zm-47.09 119.418h-16.969v-49.572h16.969v49.572Zm0-61.804h-16.969v-29.58h16.969v29.58Zm1.977-40.072h-12.235V54.523h12.235V74.59Zm45.117 10.488v29.58H628.38v-29.58h16.969Zm0 41.812v57.118H628.38V126.89h16.969Zm-18.871-72.371h12.235v20.067h-12.235V54.519Zm-19.216-25.894h12.871v17.373h-12.871V28.625Zm-1.864 25.894h16.545v20.067h-16.545V54.519Zm-.507 30.56h16.969v29.579h-16.969v-29.58Zm9.797 112.707h-4.215v-.872h4.215v.872Zm3.846-2.645h-4.216v-.872h4.216v.872Zm3.621-2.645h-4.215v-.872h4.215v.872Zm4.215-2.331h-4.215v-.872h4.215v.872Zm21.612-2.446H626.37v-10.732l-17.849 14.555v7.533h2.371v.872h-4.215v-.872h.968v-6.814l-4.133 3.372-.564-.67 4.697-3.831v-6.446l-4.133 3.372-.564-.67 13.393-10.922h-11.159v-49.572h16.969v44.828l4.215-3.438v-.128h.876v18.691h20.732v.872h.008Z"/>
  </g>
  <g clip-path="url(#x)">
    <path d="M781.778 176.466h-4.427l-9.203 7.505v6.446l17.845-14.554v-6.446l-4.215 3.438v3.611Z"/>
    <path
      d="M804.968 57.048v-9.389h1.5v-1.653h-7.177v-8.178h1.528v-1.653h-6.171v-8.628h1.416v-1.653h-6.304V18.69h.797v-1.653h-6.088V9.83h1.562V8.178h-6.562V0h-13.576v8.178h-6.259v1.653h1.363v7.203h-5.964v1.653h.86v7.203h-6.138v1.652h.847v8.629h-5.711v1.653h1.068v8.178h-6.795v1.653h1.745v9.389h-6.649v1.653h1.923v142.957h73.628V58.701h1.644v-1.653h-6.487Zm-47.09 119.418h-16.969v-49.572h16.969v49.572Zm0-61.804h-16.969v-29.58h16.969v29.58Zm1.977-40.072H747.62V54.523h12.235V74.59Zm45.117 10.488v29.58h-16.969v-29.58h16.969Zm0 41.812v57.118h-16.969V126.89h16.969Zm-18.871-72.371h12.235v20.067h-12.235V54.519Zm-19.215-25.894h12.87v17.373h-12.87V28.625Zm-1.865 25.894h16.545v20.067h-16.545V54.519Zm-.507 30.56h16.969v29.579h-16.969v-29.58Zm9.797 112.707h-4.215v-.872h4.215v.872Zm3.846-2.645h-4.216v-.872h4.216v.872Zm3.621-2.645h-4.215v-.872h4.215v.872Zm4.215-2.331h-4.215v-.872h4.215v.872Zm21.612-2.446h-21.612v-10.732l-17.849 14.555v7.533h2.371v.872H766.3v-.872h.968v-6.814l-4.133 3.372-.564-.67 4.697-3.831v-6.446l-4.133 3.372-.564-.67 13.393-10.922h-11.159v-49.572h16.969v44.828l4.215-3.438v-.128h.876v18.691h20.732v.872h.008Z"/>
  </g>
  <defs>
    <clipPath id="a">
      <path fill="#fff" transform="translate(872 33.872)" d="M0 0h79.559v167.782H0z"/>
    </clipPath>
    <clipPath id="b">
      <path fill="#fff" transform="translate(1089.41 33.872)" d="M0 0h79.559v167.782H0z"/>
    </clipPath>
    <clipPath id="c">
      <path fill="#fff" transform="translate(951.559 40.96)" d="M0 0h57.503v160.693H0z"/>
    </clipPath>
    <clipPath id="d">
      <path fill="#fff" transform="translate(1249.04 40.96)" d="M0 0h57.503v160.693H0z"/>
    </clipPath>
    <clipPath id="e">
      <path fill="#fff" transform="translate(1010.64)" d="M0 0h77.195v201.654H0z"/>
    </clipPath>
    <clipPath id="f">
      <path fill="#fff" transform="translate(1170.26)" d="M0 0h77.195v201.654H0z"/>
    </clipPath>
    <clipPath id="g">
      <path fill="#fff" transform="translate(1308 33.872)" d="M0 0h79.559v167.782H0z"/>
    </clipPath>
    <clipPath id="h">
      <path fill="#fff" transform="translate(1525.41 33.872)" d="M0 0h79.559v167.782H0z"/>
    </clipPath>
    <clipPath id="i">
      <path fill="#fff" transform="translate(1387.56 40.96)" d="M0 0h57.503v160.693H0z"/>
    </clipPath>
    <clipPath id="j">
      <path fill="#fff" transform="translate(1685.04 40.96)" d="M0 0h57.503v160.693H0z"/>
    </clipPath>
    <clipPath id="k">
      <path fill="#fff" transform="translate(1446.64)" d="M0 0h77.195v201.654H0z"/>
    </clipPath>
    <clipPath id="l">
      <path fill="#fff" transform="translate(1606.26)" d="M0 0h77.195v201.654H0z"/>
    </clipPath>
    <clipPath id="m">
      <path fill="#fff" transform="translate(0 33.872)" d="M0 0h79.559v167.782H0z"/>
    </clipPath>
    <clipPath id="n">
      <path fill="#fff" transform="translate(217.408 33.872)" d="M0 0h79.559v167.782H0z"/>
    </clipPath>
    <clipPath id="o">
      <path fill="#fff" transform="translate(79.559 40.96)" d="M0 0h57.503v160.693H0z"/>
    </clipPath>
    <clipPath id="p">
      <path fill="#fff" transform="translate(377.045 40.96)" d="M0 0h57.503v160.693H0z"/>
    </clipPath>
    <clipPath id="q">
      <path fill="#fff" transform="translate(138.637)" d="M0 0h77.195v201.654H0z"/>
    </clipPath>
    <clipPath id="r">
      <path fill="#fff" transform="translate(298.26)" d="M0 0h77.195v201.654H0z"/>
    </clipPath>
    <clipPath id="s">
      <path fill="#fff" transform="translate(436 33.872)" d="M0 0h79.559v167.782H0z"/>
    </clipPath>
    <clipPath id="t">
      <path fill="#fff" transform="translate(653.408 33.872)" d="M0 0h79.559v167.782H0z"/>
    </clipPath>
    <clipPath id="u">
      <path fill="#fff" transform="translate(515.559 40.96)" d="M0 0h57.503v160.693H0z"/>
    </clipPath>
    <clipPath id="v">
      <path fill="#fff" transform="translate(813.045 40.96)" d="M0 0h57.503v160.693H0z"/>
    </clipPath>
    <clipPath id="w">
      <path fill="#fff" transform="translate(574.637)" d="M0 0h77.195v201.654H0z"/>
    </clipPath>
    <clipPath id="x">
      <path fill="#fff" transform="translate(734.26)" d="M0 0h77.195v201.654H0z"/>
    </clipPath>
  </defs>
</svg>