<svg xmlns="http://www.w3.org/2000/svg" viewBox="0 0 512 256">
  <path d="M209.6 102.6c3.6 0 7.3-.2 10.9.1 2 .2 3.9 1.2 5.8 1.9-1.6 1.3-3.3 2.5-5.7 4.4v7.1c1.8 1.1 3.7 2.2 5.5 3.3-2.4 2.9-4.6 5.5-6.8 8.1.4.5.9 1.1 1.3 1.6 10.6 0 21.3.4 31.9-.2 4.9-.3 7.1 1.7 8.8 5.6.4 1.1.8 2.2 1.3 3.2 4.4 8.9 10.6 17.4 12.9 26.9 2.2 9.3.6 19.5.4 29.4-.2 10.2-.7 20.4-1.2 30.5-.5 9.9-1.2 19.8-1.8 30H159.8c-.4-8-.9-15.9-1.2-23.8-.5-13.6-.8-27.2-1.3-40.8-.1-2.7-.7-5.5-1.2-8.2-3-16 6.3-28.3 12.4-41.5 1.1-2.5 2.2-4.9 3.3-7.4 3.7.3 7.5.7 11.2 1 7.9.8 15.8 1.2 23.6 2.4 5.1.8 5.5-3.9 7.8-6.2.8-.9-.4-4.2-1.3-6.1-.9-1.9-3.5-3.4-3.6-5.2-.3-5.2 0-10.7.1-16.1zm6.2 95.5h24.8c12.2 0 13.5.1 15-12 1.4-11.7.5-23.8-.6-35.6-.5-5.1-4.1-8.5-10.9-8.2-18.3.6-36.6.6-54.9 0-6.7-.2-9.4 2.4-11.2 8.3-4.1 13.5-1.9 27-.5 40.5.7 6.4 3.9 7.3 9.4 7.1 9.5-.4 19.2-.1 28.9-.1z" fill="#1d1d1b"/>
  <path d="M92.1 160.8c-3.4.4-6.9.9-9.7 1.2 0-19.9.8-39.1-.3-58.2-.6-11.3-3.9-22.4-6.3-33.6-1.6-7.5.6-13.6 6.2-18.6 5.2-4.7 10.9-6 17.5-3.5 7.2 2.8 14.5 5.7 21.7 8.5-.1 3.9.1 7.9-.2 11.8-.4 4.3.4 7.6 5.1 8.8-1.4 3.5-1.9 7.9-4.4 10.4-3.1 3.2-3.2 5.9-1.7 9.4l9.3 21.3 2.4 4.8c3.4 8.7 6.8 17.3 10.6 26.8-5.7 1.9-11.8 3.9-17.9 5.8-1.9.2-3.9.3-5.8.6-8.7 1.5-17.6 3-26.5 4.5z" fill="#2f9e37"/>
  <path d="M209.6 102.6c0 5.5-.4 10.9.1 16.3.1 1.8 2.8 3.3 3.6 5.2.9 1.9 2.1 5.2 1.3 6.1-2.2 2.3-2.6 6.9-7.8 6.2-7.8-1.1-15.8-1.6-23.6-2.4-3.7-.4-7.5-.7-11.2-1-11-2.9-21.9-5.7-32.9-8.7-2-.5-3.8-1.7-5.8-2.5l-1.5-3.5c7.9-7.2 12.9-15.7 15-26.4 1.1-5.6 4.3-11 7.2-16.1 1-1.7 3.7-2.8 5.8-3.5 9.8-3.3 19.7-6.4 29.5-9.7 5.6-1.8 13.9 1 16.4 6.6 1.8 4 3.1 8.5 3.5 12.9.7 6.8.3 13.6.4 20.5z" fill="#2f9e37"/>
  <path d="M92.1 160.8c8.9-1.5 17.7-3 26.6-4.4 1.9-.3 3.9-.4 5.8-.6l-3.3 36c-.5 5.7-.8 11.5-1.3 17.2-.7 8.3-1.6 16.5-2.4 24.8-.4 3.5.3 5.6 4.4 6.8 7.3 2 10.3 7 9.7 14.1H100c-.6-7.1-1.2-14.4-1.8-21.6-1.6-17.6-3.3-35.1-4.8-52.6-.6-6.6-.9-13.2-1.3-19.7zM45.4 50.2c10.6-5 11.2-15.4 15.2-23.6 2.9-5.9 3.7-12.8 12.4-13.9 2.4-.3 4.1-4.7 6.5-6.8 7.4-6.7 15.8-6.4 24.1-2.3 9.2 4.6 12.8 12.6 11.6 22.5-1 8.1-5.1 14.2-12.9 17.5-10.6 4.3-21 1.8-30.5-12v12.2c0 5.2.7 10.6-5.7 13-6.3 2.4-12 1.1-17.1-3-1.2-.8-2-1.9-3.6-3.6zM126.2 77.2c-4.7-1.2-5.5-4.5-5.1-8.8.4-3.9.2-7.8.2-11.8 7.9 4.2 15.8 2.8 23.9.7 8.9-2.4 18-4.5 27-6.8 1.6-.4 3-1.4 4.5-2.2 1.3-.3 2.6-.7 4-1 8.4-2.2 15 1.2 17.8 9.1-17.7 6.1-35.4 12.3-53.2 18.3-6.2 2.1-12.3 5.6-19.1 2.5z" fill="#1d1d1b"/>
  <path d="M198.5 56.4c-2.8-7.9-9.4-11.3-17.8-9.1-1.3.3-2.6.7-4 1-4.6-5-5.1-10.7-1.4-17.4 5.9 2.4 12.7 3.8 17.5 7.6 4.8 3.8 9.4 5.6 16 4.4-2.4 6.5-3.5 12.2-10.3 13.5z" fill="#2f9e37"/>
  <path d="m131.8 118.3 1.5 3.5-1.4 1.4-2.4-4.8c.8-.1 1.5-.1 2.3-.1zM215.8 198.1c-9.7 0-19.3-.3-29 .1-5.5.2-8.7-.7-9.4-7.1-1.4-13.6-3.6-27 .5-40.5 1.8-5.9 4.4-8.5 11.2-8.3 18.3.6 36.6.6 54.9 0 6.8-.2 10.4 3.1 10.9 8.2 1.1 11.8 2 23.9.6 35.6-1.5 12.1-2.7 12-15 12h-24.7zm.9-6.1c7.6 0 15.2.1 22.9-.1 1.2 0 2.5-1 3.7-1.6-1.1-.6-2.3-1.9-3.4-1.9-15.4-.1-30.9-.1-46.3 0-1.1 0-2.3 1.2-3.4 1.9 1.2.6 2.5 1.6 3.7 1.6 7.5.2 15.1.1 22.8.1z" fill="#f8f8f8"/>
  <path d="M216.7 192c-7.6 0-15.2.1-22.9-.1-1.2 0-2.5-1-3.7-1.6 1.1-.7 2.3-1.9 3.4-1.9 15.4-.1 30.9-.1 46.3 0 1.1 0 2.3 1.2 3.4 1.9-1.2.6-2.5 1.6-3.7 1.6-7.6.2-15.2.1-22.8.1z" fill="#1d1d1b"/>
  <path fill="#181314" d="M373.7 255.2c.3-6.9 4-11.4 10.4-13.5 3.2-1 4.3-2.4 4-6-2.6-34.8-5.3-69.7-7.4-104.6-.8-13.7-.2-27.5-.2-41.2V68c-1.4-.1-2.7-.2-4-.2-12.2.5-24.5 1-36.7 1.4-2 .1-4.1-.4-6-1.1-10.8-3.8-21.5-7.9-32.4-11.6-2.5-.9-5.5-1-8.2-.6-7.7 1.2-13.9-2.6-16-10.6 6.6-1.7 13.2-3.6 19.8-5.1 1.3-.3 2.9.3 4.3.7 8.6 2.5 17.4 4.6 25.6 7.9C337 53 347 52.1 357 50.7c21.9-2.9 43.8-2 65.8-2.1 2.2 0 4.5-.2 6.7-.1 4.7.1 8 2.4 9.5 6.8 4.5 13.1 9.6 26.1 13.1 39.4 3.2 11.9 4.5 24.3 6.8 36.5.4 2.3 1.3 4.6 1.9 6.9 0 0 12.1 10.3 1.5 21.1-4.9-4.8-9.5-9.1-13.8-13.7-1.4-1.4-2.4-3.5-2.9-5.4-1.8-6.9-3.2-13.9-4.9-20.9-2.6-11.1-4.7-22.3-10.5-32.5 1.6 51.3-5.5 102.1-7.9 153.5 8.7 1.8 14.1 5.8 15 14.9"/>
  <path d="M405.4.7c11.9.1 21.6 9.8 21.7 21.7.1 12-10 22-21.9 21.9-12.1-.1-21.8-10.1-21.6-22.2.1-11.8 9.9-21.4 21.8-21.4z" fill="#191415"/>
  <path d="M380.6 130.9c-.8-13.7-.2-27.5-.2-41.2V67.8c-1.4-.1-2.7-.2-4-.2-12.2.5-24.5 1-36.7 1.4-2 .1-4.1-.4-6-1.1-8.4-3-16.8-6.1-25.2-9.1-2.4-.8-4.8-1.7-7.2-2.5-2.5-.9 8.6-13.2 12.9-11.9 4.3 1.2 8.6 2.6 12.7 4.3 9.9 4.1 19.9 3.2 29.9 1.9 13.8-1.8 21-2.1 34.8-2.2 3.1 0 25.9.1 31 0 2.2 0 4.5-.2 6.7-.1 4.7.1 8 2.4 9.5 6.8 4.5 13.1 9.6 26.1 13.1 39.4 3.2 11.9 8.1 41.1 8.7 43.4 0 0-14.7 4-15.2 2-.5-2.1-1.1-4.3-1.5-6.4-1.1-4.8-2.2-9.7-3.3-14.5-2.6-11.1-4.7-22.3-10.5-32.5.4 14.4.2 28.8-.4 43.1" fill="#00a0ed"/>
  <path d="M268.9 17.3h14l8.1 5.6 18.8-5.6-12.7 23-19 4.7zM281.9 53.1s-27.8 21.4-27.8 36.2c0 14.8 1.8 33.2 1.8 33.2s0 9.1-1.8 11 51.2 3.6 54.2 0 14-3.6 14-7.3c0-3.7-9.2-29.5-9.2-40.6s-15.5-28.3-15.5-28.3l-15.7-4.2z" fill="#b7b7b7"/>
</svg>
