<svg xmlns="http://www.w3.org/2000/svg" viewBox="0 0 222.4 208" style="enable-background:new 0 0 222.4 208">
  <style>.st0{fill:#323232}.st0,.st1,.st2,.st3,.st4,.st5{fill-rule:evenodd;clip-rule:evenodd}.st2,.st3,.st4,.st5{fill:#ec0000}.st3,.st4,.st5{fill:#767676}.st4,.st5{fill:#d08c4c}.st5{fill:#004699}</style>
  <g transform="matrix(-1 0 0 1 298.647 115.124)">
    <path class="st0" d="M271.8 26.1c-2.2 0-8.2 1.2-10.4 3.2-2.2 2-6.1 13.7-6.3 20.8-.2 6.6-7.5 19.9-6.6 21.7.1.1 11.9-.1 11.9-.1.3 0 21.1.6 21.8 0 0 0 13.5-1.3 13.6-1.4.9-1.6-9.6-10.8-8.6-12.1 1.1-1.4-2-22.3-3.6-24.5-1.6-2.3-2.1-7.6-11.8-7.6z"/>
    <path class="st0" d="M271.8 26.8c1.4-.1 2.7-2.7 3.8-7.9l-4.6 1.5-4.2-1.1c1.9 5.1 3.6 7.6 5 7.5z"/>
  </g>
  <g transform="translate(63.998)">
    <g transform="translate(24.591 77.258)">
      <path class="st1" d="m111.2 17.7-15 52.6L85.3 109h-8c.5-18.1 1.4-32.3 2.6-42.5s4.3-26.5 9-48.8h22.3z"/>
      <path class="st1" d="M115.2 17.7c.4 27.1-4.2 41.8-3.9 44.3.4 2.5-3 15.1 3 46.1H106C96.8 77 94.2 68.7 94.2 65.3s2-21.8-5.4-47.7h26.4v.1z"/>
      <g transform="translate(4.128 90.066)">
        <path class="st2" d="m110.4 26.4-.4-8.7h-8.7c-4.1 2.9-9.5 5.2-16.1 7v1.7H101l5.4-.8v.8h4z"/>
      </g>
      <g transform="translate(32.202 90.066)">
        <path class="st2" d="m54.2 26.4-.4-8.7h-8.7c-4.1 2.9-9.5 5.2-16.1 7v1.7h15.8l5.4-.8v.8h4z"/>
      </g>
    </g>
    <path class="st3" d="M83.2 110.7c-2.2.3-7.9 2.5-9.8 4.9-1.9 2.5-3.9 15.6-3.1 23.2.7 7.1-4.4 22.4-3.2 24.2.1.1 11.7-1.8 11.8-1.8.3 0 21-2.3 21.6-3 0 0 13.2-3.3 13.3-3.4.6-1.8-11.2-10.3-10.4-11.9.8-1.7-5.4-23.8-7.2-25.9-2.1-2.1-3.4-7.7-13-6.3z"/>
    <g transform="translate(13.032)">
      <g transform="translate(21.997 7.652)">
        <path class="st4" d="M76.9 22.7c-3.2 5.9-2.8 21 1.3 22.1 1.6.4 5.1-.6 8.6-2.8l-2.2 15.8h13.1l-4.5-21.2c2.5-3 4.2-6.6 3.9-10.7-.7-11.7-17-9.1-20.2-3.2z"/>
      </g>
      <path class="st1" d="M105.5 23.6c-3.7.3-7 2.5-7.9 3.2 0 3.5.7 4.5 6.5 4.4 1.4.7 2.5 2 3.6 3.7-.5 7.1-1.8 10.6-4 10.6-3.2 0-5.9-2.1-7.3-2.1-1 0-.8 1.3-.1 2.3.6.8 4.3-.2 4.3 1.8s-3.1 1.3-3.1 2c0 1.2-.4 3.5 1.7 3.5s8.1-.8 9.1-4c.7-2 1.1-6.3 1.3-12.6h.5c1.8 0 3.2.2 4 1.8.7 1.5-.6 2.7-1.2 3.3.8 1.1 2 4.6 3 5.8 5.8-2.7 7.4-11.7 3.8-17.9-1-3-4-4.1-6.7-4.9-2.3-.8-5.6-1.4-7.5-.9z"/>
      <path class="st2" d="M121.9 35.4c-3.9 0-17-9.9-17.8-12s9.8-2.7 13.4 0c3.6 2.7 8.3 12 4.4 12z"/>
    </g>
    <g transform="translate(0 33.878)">
      <path class="st4" d="M99.5 56.5 87.3 70.1c-2.5 2-3 2.2-5.3 3.9-.5.4-2 2.6-2 3.1-.1 2.5.5 2.9 1.1 2.3.5-.5.7-2.2 1-2.6.7-1 1.7-1.2 2-.6.5.9-2.5 1.7-1.6 2.8.6.7 3.9-1 7.4-6.5l13.9-8.2-4.3-7.8z"/>
      <path class="st4" d="M155.6 69.8c-5.7 10.8-8.7 17.1-8.9 18.9-.2 1.3 1.4 6.8 2.8 10.2.5 1.4-.5 2-1 2-4.4-.2-4.9-3.8-6.8-6.9-2-3.4-4.4.7-6-1.9 1.8-1.1 5.5-3 6-5.5.2-1.1 2.5-8.3 6.7-21.6l7.2 4.8z"/>
      <path class="st5" d="m125.2 19.9-3.6-.6c-6.1 15.4-16.9 29.3-32.2 41.9l11.6 14c15.3-17.9 24.8-36.3 24.2-55.3z"/>
      <path d="M142.4 64.8h-31.8c7.4-17.9 11-33.1 11-45.7 1.3.4 2.3.6 3 .4 1.5-.2 3.7-.8 6.6-1.9 7.6 12.2 9.7 27.1 11.2 47.2z" style="fill-rule:evenodd;clip-rule:evenodd;fill:#ffe600"/>
      <path class="st5" d="M130.9 17.7c-.7 0-1.9.1-3.4.1l-2.3 6.6c-.2 8.1-1.7 24.4-4.3 48.8h20.8c-.1 1.7-.1 3.4-.3 5.1h15.5c-2.3-26.2-10.8-46.4-25.4-60.7h-.6v.1z"/>
      <path d="M135.8 73.5h5.8c.3-7.6-.2-14.8-1.4-21.8-.5 10.5-2 17.8-4.4 21.8z" style="fill-rule:evenodd;clip-rule:evenodd;fill-opacity:.1"/>
      <path style="fill-rule:evenodd;clip-rule:evenodd;fill:#fff;fill-opacity:.2" d="m137 60.6-10.3-4.7v4.7z"/>
    </g>
    <path class="st3" d="M83.3 111.4c1.4-.3 2.3-3.3 2.5-9.1l-4.3 2.3-4.3-.6c2.7 5.2 4.7 7.7 6.1 7.4z"/>
    <path class="st3" d="M.2 140.8c-2.2 0-8.2 1.3-10.4 3.5s-6.1 14.9-6.3 22.6c-.2 7.1-7.5 21.6-6.6 23.5.1.1 11.9-.1 11.9-.1.3 0 21.1.6 21.8 0 0 0 13.5-1.4 13.6-1.5.9-1.7-9.6-11.7-8.6-13.2 1.1-1.5-2-24.3-3.6-26.7s-2.1-8.1-11.8-8.1z"/>
    <path class="st3" d="M.2 141.5c1.4-.1 2.7-2.9 3.8-8.6l-4.6 1.7-4.2-1.2c1.9 5.5 3.6 8.2 5 8.1z"/>
  </g>
</svg>