<svg xmlns="http://www.w3.org/2000/svg" viewBox="0 0 295.8 208" fill="#000">
  <style>.st0{fill:#323232}.st0,.st1{fill-rule:evenodd;clip-rule:evenodd}.st10,.st2,.st3,.st4,.st5,.st6,.st9{fill-rule:evenodd;clip-rule:evenodd;fill:#ec0000}.st10,.st3,.st4,.st5,.st6,.st9{fill:#767676}.st10,.st4,.st5,.st6,.st9{fill:#d08c4c}.st10,.st5,.st6,.st9{fill:#004699}.st10,.st6,.st9{fill:#ffe600}.st10,.st9{fill:#eab98b}.st10{fill:#7e4815}</style>
  <g transform="matrix(-1 0 0 1 298.647 115.124)">
    <path class="st0" d="M138.1 26.1c2.2 0 8.2 1.2 10.4 3.2 2.2 2 6.1 13.7 6.3 20.8.2 6.6 7.5 19.9 6.6 21.7-.1.1-11.9-.1-11.9-.1-.3 0-21.1.6-21.8 0 0 0-13.5-1.3-13.6-1.4-.9-1.6 9.6-10.8 8.6-12.1-1.1-1.4 2-22.3 3.6-24.5 1.6-2.3 2.1-7.6 11.8-7.6z" />
    <path class="st0" d="M138.1 26.8c-1.4-.1-2.7-2.7-3.8-7.9l4.6 1.5 4.2-1.1c-1.9 5.1-3.6 7.6-5 7.5z" />
  </g>
  <g>
    <g transform="translate(24.591 77.258)">
      <path class="st1" d="m248.6 17.7-15 52.6-10.9 38.7h-8c.5-18.1 1.4-32.3 2.6-42.5s4.3-26.5 9-48.8h22.3z" />
      <path class="st1" d="M252.6 17.7c.4 27.1-4.2 41.8-3.9 44.3.4 2.5-3 15.1 3 46.1h-8.3c-9.2-31.1-11.8-39.4-11.8-42.8s2-21.8-5.4-47.7l26.4.1z" />
      <g transform="translate(4.128 90.066)">
        <path class="st2" d="m247.8 26.4-.4-8.7h-8.7c-4.1 2.9-9.5 5.2-16.1 7v1.7h15.8l5.4-.8v.8h4z" />
      </g>
      <g transform="translate(32.202 90.066)">
        <path class="st2" d="m191.6 26.4-.4-8.7h-8.7c-4.1 2.9-9.5 5.2-16.1 7v1.7h15.8l5.4-.8v.8h4z" />
      </g>
    </g>
    <path class="st3" d="M220.6 110.7c-2.2.3-7.9 2.5-9.8 4.9-1.9 2.5-3.9 15.6-3.1 23.2.7 7.1-4.4 22.4-3.2 24.2.1.1 11.7-1.8 11.8-1.8.3 0 21-2.3 21.6-3 0 0 13.2-3.3 13.3-3.4.6-1.8-11.2-10.3-10.4-11.9.8-1.7-5.4-23.8-7.2-25.9-2.1-2.1-3.4-7.7-13-6.3z" />
    <g transform="translate(13.032)">
      <g transform="translate(21.997 7.652)">
        <path class="st4" d="M214.3 22.7c-3.2 5.9-2.8 21 1.3 22.1 1.6.4 5.1-.6 8.6-2.8L222 57.8h13.1l-4.5-21.2c2.5-3 4.2-6.6 3.9-10.7-.7-11.7-17-9.1-20.2-3.2z" />
      </g>
      <path class="st1" d="M242.9 23.6c-3.7.3-7 2.5-7.9 3.2 0 3.5.7 4.5 6.5 4.4 1.4.7 2.5 2 3.6 3.7-.5 7.1-1.8 10.6-4 10.6-3.2 0-5.9-2.1-7.3-2.1-1 0-.8 1.3-.1 2.3.6.8 4.3-.2 4.3 1.8s-3.1 1.3-3.1 2c0 1.2-.4 3.5 1.7 3.5s8.1-.8 9.1-4c.7-2 1.1-6.3 1.3-12.6h.5c1.8 0 3.2.2 4 1.8.7 1.5-.6 2.7-1.2 3.3.8 1.1 2 4.6 3 5.8 5.8-2.7 7.4-11.7 3.8-17.9-1-3-4-4.1-6.7-4.9-2.3-.8-5.6-1.4-7.5-.9z" />
      <path class="st2" d="M259.3 35.4c-3.9 0-17-9.9-17.8-12-.8-2.1 9.8-2.7 13.4 0s8.3 12 4.4 12z" />
    </g>
    <g transform="translate(0 33.878)">
      <path class="st4" d="m236.9 56.5-12.2 13.6c-2.5 2-3 2.2-5.3 3.9-.5.4-2 2.6-2 3.1-.1 2.5.5 2.9 1.1 2.3.5-.5.7-2.2 1-2.6.7-1 1.7-1.2 2-.6.5.9-2.5 1.7-1.6 2.8.6.7 3.9-1 7.4-6.5l13.9-8.2-4.3-7.8z" />
      <path class="st4" d="M293 69.8c-5.7 10.8-8.7 17.1-8.9 18.9-.2 1.3 1.4 6.8 2.8 10.2.5 1.4-.5 2-1 2-4.4-.2-4.9-3.8-6.8-6.9-2-3.4-4.4.7-6-1.9 1.8-1.1 5.5-3 6-5.5.2-1.1 2.5-8.3 6.7-21.6l7.2 4.8z" />
      <path class="st5" d="m262.6 19.9-3.6-.6c-6.1 15.4-16.9 29.3-32.2 41.9l11.6 14c15.3-17.9 24.8-36.3 24.2-55.3z" />
      <path class="st6" d="M279.8 64.8H248c7.4-17.9 11-33.1 11-45.7 1.3.4 2.3.6 3 .4 1.5-.2 3.7-.8 6.6-1.9 7.6 12.2 9.7 27.1 11.2 47.2z" />
      <path class="st5" d="M268.3 17.7c-.7 0-1.9.1-3.4.1l-2.3 6.6c-.2 8.1-1.7 24.4-4.3 48.8h20.8c-.1 1.7-.1 3.4-.3 5.1h15.5c-2.3-26.2-10.8-46.4-25.4-60.7h-.6v.1z" />
      <path d="M273.2 73.5h5.8c.3-7.6-.2-14.8-1.4-21.8-.5 10.5-2 17.8-4.4 21.8z" style="fill-rule:evenodd;clip-rule:evenodd;fill-opacity:.1" />
      <path style="fill-rule:evenodd;clip-rule:evenodd;fill:#fff;fill-opacity:.2" d="m274.4 60.6-10.3-4.7v4.7z" />
    </g>
  </g>
  <path class="st3" d="M220.7 111.4c1.4-.3 2.3-3.3 2.5-9.1l-4.3 2.3-4.3-.6c2.7 5.2 4.7 7.7 6.1 7.4z" />
  <path class="st3" d="M123.2 140.8c2.2 0 8.2 1.3 10.4 3.5s6.1 14.9 6.3 22.6c.2 7.1 7.5 21.6 6.6 23.5-.1.1-11.9-.1-11.9-.1-.3 0-21.1.6-21.8 0 0 0-13.5-1.4-13.6-1.5-.9-1.7 9.6-11.7 8.6-13.2-1.1-1.5 2-24.3 3.6-26.7 1.6-2.4 2.1-8.1 11.8-8.1z" />
  <path class="st3" d="M123.2 141.5c-1.4-.1-2.7-2.9-3.8-8.6l4.6 1.7 4.2-1.2c-1.9 5.5-3.6 8.2-5 8.1z" />
  <g transform="matrix(-1 0 0 1 298.647 115.124)">
    <path class="st0" d="M234.6-13.6c2 .2 7.2 2 8.9 4 1.7 2 3.9 12.8 3.3 19.2-.5 5.9 4.5 18.5 3.5 20-.1.1-10.6-1.4-10.6-1.4-.3 0-18.8-1.8-19.4-2.4 0 0-11.9-2.6-11.9-2.7-.6-1.5 9.7-8.6 9-9.8-.8-1.4 4.2-19.6 5.9-21.4 1.6-1.9 2.6-6.5 11.3-5.5z" />
  </g>
  <g>
    <g transform="translate(72.692)">
      <g transform="translate(61.27 35.173)">
        <path class="st9" d="M-92.8.1c2.6 4.9 3.6 16.9-1.1 18.1-1.8.5-4.6-.3-7.4-1.9l2.1 12.6H-110l3.6-17c-2.1-2.5-3.4-5.7-3.2-9.1.8-9.7 14.2-7.6 16.8-2.7z" />
      </g>
      <path class="st10" d="M-30.9 35.3c-2.1.4-6.2 2.4-9.6 5.2-.4-.2-.8-.3-1.3-.3-1.5 0-2.8 1.2-2.8 2.7 0 .6.2 1.2.6 1.6-.7 1.1-1.1 2.2-1.3 3.4-2.3 0-10.6-8.6-2.3-16.7s20.3 3.4 16.7 4.1z" />
      <path class="st10" d="M-44.5 28.2s-1-8.9-8-6.5-7.5 4-9.3 9c-1.8 5.1 1.8 12.5 3.7 14.8 1.9 2.3 3.7 3.4 0 7.9s-1.8 5.6 1.6 2.8c3.4-2.8 10.3-11.5 7.9-14.1-2.5-2.6 4.1-13.9 4.1-13.9z" />
      <ellipse transform="rotate(-38.001 -47.137 30.656)" class="st2" cx="-47.1" cy="30.7" rx="2.5" ry="1.4" />
    </g>
    <g transform="translate(0 202)">
      <path class="st9" d="M35.3-54.3c-.1-.1-.2-.3-.2-.4-.9-2.5-12.5-23.1-18.5-35.3-1.8-3.6 1-6.4.5-7.8h17.3c1.4 4.7 7.9 34.2 8.8 40 2.9 9.3 8.8 39.3 9.5 41.4.8 2.2-3.7 4.5-4.9 1.8-1.8-4.3-6.3-16.1-8.3-23.4-.6-2.2-2.4-4.7-2.9-6.7-1.2-4.1-.8-7.3-1.3-9.6z" />
      <path class="st9" d="M18.5-59.9c0-.1 0-.3.1-.4 1-2.8 7.5-37.2 9.8-42.5l14.7 12.4c-1.8 4-14.4 28.1-17.1 32.7-3.4 8-16.8 32.2-17.4 34.1-.7 2-5.1 1-4.4-1.6 1.2-4.1 3.3-12.1 6.1-18.2 1-2.2 2.1-6.8 3.1-8.8 1.4-3.1 4.2-6 5.1-7.7z" />
      <path class="st9" d="M11.9-30.1c-1.6 2.8-1.5 10.3.4 13.8S7-16 7-19.3s6.5-13.6 4.9-10.8zm38.5 3.2c1.2 4.3 4.2 11.1 7.9 12.3 3.3 2.2-5.6 2.4-7.1-.5-1.6-2.9-.7-15.1-.8-11.8z" />
      <g transform="rotate(32 -256.573 249.51)">
        <path class="st6" d="M-182.3-122.2c-.4 1.2-.7 2.1-.7 2.7 0 .7.1 1.8.4 3.1h22.4c.6-1.9.2-3-1-3.1s-2.3-.3-3.1-.4l-10.4-4.6c-.2-.1-.4 0-.5.2l-.7 1.6c-1.2.5-2.1.8-2.8.8-.6 0-1.4-.2-2.4-.7-.6-.2-1 0-1.2.4z" />
      </g>
      <path class="st6" d="M-142.1-214.4c-.4 1.2-.7 2.1-.7 2.7 0 .7.1 1.8.4 3.1h22.4c.6-1.9.2-3-1-3.1-1.3-.2-2.3-.3-3.1-.4l-10.4-4.6c-.2-.1-.4 0-.5.2l-.7 1.6c-1.2.5-2.1.8-2.8.8-.6 0-1.4-.2-2.4-.7-.5-.2-1 0-1.2.4z" transform="translate(189 199)" />
      <path class="st2" d="M17.6-101.1h25.8c6.5 22.4 8.7 38.5 6.7 42-15.1-2.7-34.9 2.7-38-2.4-2.7-5-1.5-19.6 5.5-39.6z" />
    </g>
    <g transform="translate(22 97)">
      <path class="st9" d="m26.1-10.1 11.6 10c3.5.9 6.3 2 8.7 3.3.6.5 1.2 1.5-1 1.3-2.3-.1-4.6-.2-4.9.6-.3.8 1.1 1.7.5 2.7-.4.7-2.4-1-6-5.1-7.3-4.1-11.7-6.8-13-8.2-1.3-1.4-3.2-8.3-5.6-20.6l7.2-3.9 2.5 19.9z" />
      <path class="st5" d="M11.4-40.1c6.5.7 10.2 1.7 10.9 3 1.1 1.9 1.9 2.8 1.9 6.2S18.4-27 16.3-27c-1.5-.1-3.1-4.4-4.9-13.1z" />
      <ellipse class="st9" cx="8" cy="-36.5" rx="6.8" ry="5.2" />
      <path class="st5" d="M-5.9 5.5c13.6 3.7 22.2 3.8 27.8.1 0-3.5-1.4-11.5-2.1-20.5-.2-2.3.3-4.5-.1-6.8-.5-2.8-2-5.6-2.6-8.2-.9-4.1-.9-7.5-3.8-10-1.6 4.6-2.8 6.9-3.4 6.8-1.4-.2-3.3-2.9-5.8-8.2C-.2-34.4-2.7-29.1-4-19.5c-.5 2.7 1.2 7 1 10.6C-3.3-3.8-5.5.8-5.9 5.5z" />
      <path class="st9" d="M6.7 11.2c.9.8 2.9 5.5 3.8 8.7.4 1.3 1.4 1.1 1.8.8 3-2.6 1.3-5.4.8-8.6-.5-3.5 3.4-2 3.1-4.7-1.9.2-5.5 1-7.3-.4C8.2 6.3-6.8-3.5-7-6.9c-.1-2.3 1.8-10.3 5.7-24l-7.2-3.7C-12.3-18.3-14.2-8.5-14-5.2-13.8-.4 4.9 9.5 6.7 11.2z" />
      <path class="st5" d="M4-41.3c-6.5.7-10.2 1.7-10.9 3-1.1 1.9-4 4.3-2.8 6.9s5.1 3.3 7.2 3.3c1.4 0 3.6-4.4 6.5-13.2z" />
    </g>
  </g>
  <path class="st0" d="M63.1 102c1.2-.2 2.2-2.6 2.9-7.3l-4 1.6-3.8-.7c2 4.5 3.7 6.6 4.9 6.4z" />
</svg>