<svg xmlns="http://www.w3.org/2000/svg" viewBox="0 0 512 256">
  <path d="M112 148.147c.4-2.5.9-5.1 1.3-7.6 3.3-8.2 7.3-16.2 9.7-24.7 4.5-15.8 15.4-26.4 27.5-36.2 10.8-8.8 22.3-17 32.1-26.9 8.1-8.2 16.7-8.6 26.5-6.8 1.7.4 3.3.7 5 1.1 1.5 1.9 3 3.8 4.4 5.7.4 9.5.8 19.1 1.3 28.6h-16.6c-2.2 8.5-4.1 15.9-5.9 23.2-12.1-1.3-18.4 8.6-26.7 14.4-1.2.8-1.6 3.2-1.8 5-.9 9.3-1.5 18.7-2.3 28.1-11.3-.5-22.6-1.1-33.9-1.6-6.9-.8-13.8-1.5-20.6-2.3Z" fill="#9a0879"/>
  <path d="M218.5 52.747c-1.5-1.9-3-3.8-4.4-5.7v-20.4c-8.4 2.6-14.6 14.7-25.4 6.9-7.1-5.1-7.3-12.5-6.2-21.1 12.5 6.1 22.7-2.1 33.7-4.7 13.9-3.2 37.7 4.3 43 14.5 5.1 9.7 3.4 23.7-3.7 30.3-7.7 7.3-23.6 8.1-32.8 1.9-1.3-.9-2.8-1.2-4.2-1.7Z" fill="#181615"/>
  <path d="M132.6 150.347c11.3.5 22.6 1.1 33.9 1.6-1.8 20.5-3.6 40.9-5.4 61.4-7.5-.7-15-1.5-22.5-2.2-2-20.2-4-40.5-6-60.8Z" fill="#606060"/>
  <path d="M252.1 134.847c1 5.1 5.4 3.4.8 7.9-3 3-6.2 5.3-11 6-10.7-9.2-32.2-22.2-42.3-32.1-2.4-2.4-1.7-8-2.4-12.1 1.9-7.3 3.7-14.7 5.9-23.2h16.6c.1.6.5 1.3.3 1.8-9.9 25.4 11.1 35.8 24.4 49.8 1.5 1.7 5.1 1.3 7.7 1.9Z" fill="#181615"/>
  <path d="M138.6 211.147c7.5.7 15 1.5 22.5 2.2 0 3.8.1 7.5-.1 11.3-.2 5.3 1.3 8.5 6 11.1 7.5 4.2 7.5 6.1 7.4 11.9H142c-.5-8.8-2.9-27.7-3.4-36.5Z" fill="#9a0879"/>
  <path d="m250.9 126.747 1.6 15.8s-12.7 5.5-18.6 13.3c-5.9 7.8-11 41.9-11 41.9l-3.1 10.1s16.1-2.9 30.1 0 32.4 3.3 32.4 3.3l5.7-1.4s-4-12-8-17-6-30-6-30-10-20-12-20-3-4-3-4l8-13-19-3 2.9 4Z" fill="#b3b3b3" stroke="#020202" stroke-linecap="butt" stroke-linejoin="miter" stroke-width="2"/>
  <path d="m259.9 136.747 10 7-3 2.8-7-3.8v-6Zm-16 36-7.5 34.5h3.8l3.7-34.5Zm89.2 15.2s-18.2 11.8-19.2 21.8-2 17-2 17l-2 18 14 1 20-2 18.2 2s1.8-27-2.2-36-12-17-12-17l-6.7-4.8 10.7-6.1-28.7-3.7 9.9 9.8Z" fill="#181615"/>
  <path d="M356.9 242.247s-12.3-16.2-8.8-24.1c3.5-7.9 13.6-18.9 13.6-18.9l-7.8-4.5 21.4-2.8-7.8 6.7 17.5 5.5 15.6 6.1.7 12.9-4.7 16.4c-.1.2-38.7 4-39.7 2.7Zm-29.4-10.1s1.8-19-3.2-24.9c-5-5.9-15.5-12.1-15.5-12.1l3.3-6.8-14.5 5.1 7.4 3.3-9 11.2-7.6 11 4.3 11.9 9 13.1c-.1 0 25.6-10.3 25.8-11.8Z" fill="#181615"/>
  <path d="m253.8 140.447 5 1.2-5 .1 6.6 2.5-9-1.2" fill="none" stroke="#181615" stroke-linecap="butt" stroke-linejoin="miter"/>
</svg>
