<svg xmlns="http://www.w3.org/2000/svg" viewBox="0 0 512 256">
  <path d="M297.8 169.4h54.7c.7-4.3 1.4-8.3 2-12.4.7-4.4 1.2-8.9 1.8-13.3.6-4.3 1.3-8.6 2.2-12.8.6-3 0-5.7-1.1-8.5-.7-1.6-1-3.2-1.6-4.8l-5.7-16.8c-.1-.4-.6-.8-1-.9-7.3-1.8-14.5-3.4-21.8-5.2-5-1.2-15.1-3.7-15.1-3.7l-5.6.3s-3.9 4.2-6 6.2c-2 1.9-3 3.9-3 6.7l.2 65.2z" fill="#3a3a3a"/>
  <path d="M312.3 90.9c.2-2.5.4-4.8.6-7.1l3.9-.6c0-.2-.1-.5-.2-.7-1.3-.1-2.5-.1-3.8-.2v-3.2c1-.2 1.8-.4 2.6-.6-.1-.2-.1-.4-.2-.6l-2.4-.3v-2.9c.9-.1 1.6-.2 2.9-.3-1.9-3.4-5.1-1.9-7.5-2.2-1.5-.1-3.5-.2-3.3 2.2.9.1 1.7.1 2.5.2v3c-.9.1-1.7.2-2.5.3 0 .2-.1.4-.1.6.9.2 1.7.4 2.6.6v3.4h-3.8l-.1.8c1.3.2 2.6.4 4 .6l-.8 7.4 5.6-.4z" fill="#767676"/>
  <path d="M243.4 216.6h80.4c1-6.3 2.1-12.2 3-18.1 1-6.5 1.7-13.1 2.7-19.6 1-6.3 1.9-12.6 3.2-18.9.9-4.4.1-8.4-1.6-12.5-1-2.3-1.5-4.7-2.3-7.1-2.8-8.2-5.5-16.5-8.4-24.7-.2-.5-.9-1.2-1.5-1.3-10.7-2.6-21.3-5.1-32-7.6-7.4-1.8-22.1-5.5-22.1-5.5l-8.3.4s-5.8 6.2-8.8 9.1c-2.9 2.8-4.4 5.8-4.3 9.9v95.9z" fill="#282828"/>
  <path d="M264.7 101.4c.3-3.7.6-7.1.9-10.5 2-.3 3.8-.6 5.7-.9-.1-.3-.1-.7-.2-1-1.9-.1-3.7-.2-5.5-.3V84c1.4-.3 2.6-.6 3.9-.9l-.3-.9c-1.2-.2-2.4-.3-3.6-.4v-4.3c1.3-.1 2.4-.2 4.3-.4-2.7-4.9-7.4-2.9-11.1-3.2-2.2-.2-5.1-.2-4.9 3.3 1.3.1 2.4.2 3.6.2v4.4c-1.3.1-2.5.3-3.6.4-.1.3-.1.6-.2.9 1.3.3 2.5.6 3.8.9v5H252l-.2 1.1c1.9.3 3.8.5 5.9.8l-1.2 10.9 8.2-.4zM454.9 145.6c3.1.4 6.2.8 8.7 1.1 0-18-.7-35.3.3-52.6.5-10.2 3.5-20.2 5.7-30.3C471 57 469 51.6 464 47c-4.7-4.2-9.9-5.5-15.8-3.1-6.5 2.6-13.1 5.1-19.6 7.7.1 3.5-.1 7.1.2 10.6.4 3.9-.4 6.8-4.6 7.9 1.3 3.2 1.8 7.1 4 9.4 2.8 2.9 2.9 5.4 1.5 8.5l-8.4 19.2c-.7 1.5-1.5 2.9-2.2 4.4-3.1 7.8-6.2 15.7-9.5 24.2 5.2 1.7 10.7 3.5 16.1 5.3 1.8.2 3.5.3 5.3.6 7.8 1.2 15.8 2.6 23.9 3.9z" fill="#c2ce00"/>
  <path d="M348.8 93c0 4.9.4 9.9 0 14.8-.1 1.6-2.5 3-3.3 4.7-.8 1.7-1.9 4.7-1.1 5.5 2 2.1 2.4 6.3 7 5.6 7.1-1 14.2-1.5 21.4-2.2 3.4-.3 6.8-.6 10.1-.9 9.9-2.6 19.8-5.1 29.7-7.8 1.8-.5 3.5-1.5 5.2-2.3.4-1.1.9-2.1 1.3-3.2-7.1-6.5-11.7-14.2-13.5-23.8-1-5.1-3.9-9.9-6.5-14.5-.9-1.6-3.3-2.5-5.2-3.1-8.9-3-17.8-5.8-26.7-8.7-5.1-1.7-12.5.9-14.8 5.9-1.7 3.6-2.8 7.7-3.2 11.6-.6 6.1-.3 12.3-.4 18.4z" fill="#c2ce00"/>
  <path d="M454.9 145.6c-8-1.3-16-2.7-24-4-1.7-.3-3.5-.4-5.3-.6 1 10.8 2 21.7 3 32.5.5 5.2.7 10.4 1.2 15.6.7 7.5 1.4 14.9 2.2 22.4.3 3.1-.3 5.1-4 6.1-6.5 1.8-9.3 6.4-8.7 12.8h28.5c.5-6.4 1.1-13 1.7-19.6 1.4-15.9 2.9-31.7 4.3-47.5.5-5.9.7-11.8 1.1-17.7zM497.1 45.7c-9.6-4.5-10.1-13.9-13.7-21.3-2.6-5.3-3.3-11.5-11.2-12.5-2.2-.3-3.7-4.2-5.9-6.1-6.7-6-14.2-5.8-21.7-2.1-8.3 4.1-11.5 11.3-10.4 20.4.9 7.3 4.6 12.9 11.7 15.8 9.5 3.9 19 1.7 27.5-10.9v11c0 4.7-.6 9.6 5.1 11.8 5.7 2.2 10.8 1 15.4-2.7 1-.8 1.8-1.9 3.2-3.4zM424.1 70.1c4.2-1.1 5-4.1 4.6-7.9-.3-3.5-.2-7.1-.2-10.6-7.1 3.8-14.3 2.6-21.6.6-8.1-2.2-16.2-4-24.3-6.1-1.4-.4-2.7-1.3-4.1-2l-3.6-.9c-7.5-2-13.6 1.1-16.1 8.2 16 5.5 32 11.1 48.1 16.5 5.6 1.9 11 5.1 17.2 2.2z" fill="#1d1d1b"/>
  <path d="M358.8 51.4c2.5-7.1 8.5-10.2 16.1-8.2l3.6.9c4.1-4.5 4.6-9.7 1.3-15.7-5.3 2.2-11.5 3.4-15.8 6.9-4.3 3.5-8.5 5-14.5 4 2.1 5.7 3.2 10.9 9.3 12.1z" fill="#c2ce00"/>
  <path d="M107.7 255.1c-.3-6.9-4-11.4-10.4-13.5-3.2-1-4.3-2.4-4-6 2.6-34.8 5.3-69.6 7.4-104.5.8-13.7.2-27.4.2-41.2V68c1.4-.1 2.7-.2 4-.2 12.2.5 24.4 1 36.7 1.4 2 .1 4.1-.4 6-1.1 10.8-3.8 21.5-7.9 32.4-11.6 2.5-.9 5.5-1 8.2-.6 7.7 1.2 13.9-2.6 15.9-10.5-6.6-1.7-13.2-3.6-19.8-5.1-1.3-.3-2.9.3-4.3.7-8.6 2.5-17.4 4.5-25.6 7.9-9.9 4.1-19.9 3.2-29.9 1.9-21.8-2.9-43.8-2-65.7-2.1-2.2 0-4.5-.2-6.7-.1-4.7.1-8 2.4-9.5 6.8-4.5 13.1-9.6 26-13.1 39.4-3.2 11.9-4.5 24.3-6.8 36.5-.4 2.3-1.3 4.6-1.9 6.9 0 0-12.1 10.3-1.5 21.1 4.9-4.8 9.5-9.1 13.8-13.7 1.4-1.4 2.4-3.5 2.9-5.4 1.8-6.9 3.2-13.9 4.8-20.9 2.6-11.1 4.7-22.3 10.5-32.5-1.6 51.2 5.5 102 7.9 153.4-8.7 1.8-14.1 5.8-15 14.9" fill="#181314"/>
  <path d="M76.1.8c-11.9.1-21.6 9.8-21.7 21.7-.1 12 10 22 21.9 21.9 12.1-.1 21.8-10.1 21.6-22.2C97.8 10.3 88 .7 76.1.8z" fill="#191415"/>
  <path d="M100.9 130.9c.8-13.7.2-27.4.2-41.2V67.8c1.4-.1 2.7-.2 4-.2 12.2.5 24.4 1 36.7 1.4 2 .1 4.1-.4 6.1-1.1 8.4-3 16.8-6.1 25.2-9.1 2.4-.8 4.8-1.7 7.1-2.5 2.5-.9-8.6-13.2-12.9-11.9s-8.6 2.6-12.7 4.3c-9.9 4.1-19.9 3.2-29.9 1.9-13.8-1.8-21-2.1-34.8-2.2-3.1 0-25.9.1-31 0-2.2 0-4.5-.2-6.7-.1-4.7.1-8 2.4-9.5 6.8-4.5 13.1-9.6 26-13.1 39.4-3.2 11.9-8.1 41.1-8.7 43.3 0 0 14.7 4 15.1 2 .5-2.1 1.1-4.3 1.5-6.4 1.1-4.8 2.2-9.7 3.3-14.5 2.6-11.1 4.7-22.3 10.5-32.5-.4 14.4-.2 28.7.4 43.1" fill="#00a0ed"/>
  <path d="M212.5 17.4h-14l-8.1 5.5-18.7-5.5 12.6 22.9 19 4.7zM199.6 53.1s27.7 21.4 27.7 36.1-1.8 33.2-1.8 33.2 0 9.1 1.8 11-51.2 3.6-54.2 0-14-3.6-14-7.3 9.2-29.5 9.2-40.6 15.5-28.3 15.5-28.3l15.8-4.1z" fill="#b7b7b7"/>
  <path d="M173.4 255.4h95.3c1.2-7.4 2.5-14.5 3.5-21.5 1.1-7.7 2-15.5 3.2-23.2 1.1-7.5 2.3-14.9 3.8-22.4 1.1-5.2.1-10-2-14.8-1.1-2.7-1.8-5.6-2.7-8.4-3.3-9.8-6.6-19.5-9.9-29.3-.2-.6-1.1-1.4-1.8-1.6-12.6-3.1-25.3-6-37.9-9-8.7-2.1-26.2-6.5-26.2-6.5l-9.8.5s-6.8 7.3-10.4 10.8c-3.4 3.3-5.2 6.9-5.1 11.7v113.7z" fill="#000000"/>
  <path d="M198.5 118.8c.4-4.3.7-8.4 1.1-12.4 2.3-.3 4.5-.7 6.7-1l-.3-1.2c-2.2-.1-4.4-.2-6.6-.4v-5.6c1.7-.4 3.1-.8 4.6-1.1-.1-.4-.2-.7-.3-1.1-1.4-.2-2.9-.4-4.2-.5v-5.1c1.5-.1 2.9-.2 5-.4-3.2-5.8-8.8-3.4-13.1-3.8-2.6-.2-6-.3-5.8 3.9 1.6.1 2.9.2 4.3.3v5.2c-1.6.2-2.9.3-4.3.5-.1.4-.2.7-.3 1.1 1.5.3 3 .7 4.5 1.1v6h-6.5l-.3 1.3c2.2.3 4.5.6 7.1 1l-1.5 12.9 9.9-.7z" fill="#fb8d00"/>
</svg>
