<svg xmlns="http://www.w3.org/2000/svg" viewBox="0 0 200.8 208" style="enable-background:new 0 0 200.8 208">
  <style>.st3,.st4,.st5,.st6,.st7{fill-rule:evenodd;clip-rule:evenodd}.st4,.st5,.st6,.st7{fill:#ec0000}.st5,.st6,.st7{fill:#767676}.st6,.st7{fill:#d08c4c}.st7{fill:#004699}</style>
  <g transform="translate(107 33)">
    <path style="fill:#b4b4b4" d="M-28.4 149.7h-72.8l-2.4-58.4L-91.8 67h53.9l11.7 24.3z"/>
    <path style="fill:none" d="M-28.4 149.7h-72.8l-2.4-58.4L-91.8 67h53.9l11.7 24.3z"/>
    <path d="M-42.3 111.6h-45s-3-.4-3-20.3c0-13.4 4.5-15.1 4.5-15.1h42.2s4.5 2.2 4.5 15.1c-.2 20.2-3.2 20.3-3.2 20.3" style="fill:#fff"/>
    <path d="M-47.2 107.7c0 .7-.4 1.3-.9 1.3h-32.3c-.5 0-.9-.5-.9-1.3 0-.7.4-1.3.9-1.3H-48c.4 0 .8.6.8 1.3"/>
  </g>
  <path d="M49.3 93.6c0 .7-.7 1.5-1.5 1.5H37.7c-.9 0-1.5-.6-1.5-1.5 0-.7.7-1.5 1.5-1.5h10.2c.8 0 1.4.8 1.4 1.5"/>
  <path d="M49.3 83.1c0 .9-.7 1.5-1.5 1.5H37.7c-.9 0-1.5-.6-1.5-1.5 0-.7.7-1.5 1.5-1.5h10.2c.8 0 1.4.8 1.4 1.5"/>
  <path d="M45.4 103.4c0 1.4-1.2 2-2.6 2s-2.6-.5-2.6-2V84.3c0-1.4 1.2-2.6 2.6-2.6s2.6 1.2 2.6 2.6v19.1z"/>
  <g transform="translate(23 566)">
    <g transform="matrix(-1 0 0 1 329 0)">
      <g transform="translate(63.998)">
        <g transform="translate(24.591 77.258)">
          <path class="st3" d="m86.2-548.4 15 52.6 10.9 38.7h8c-.5-18.1-1.4-32.3-2.6-42.5-1.2-10.2-4.3-26.5-9-48.8H86.2z"/>
          <path class="st3" d="M82.2-548.4c-.4 27.1 4.2 41.9 3.9 44.4-.4 2.5 3 15.1-3 46.1h8.3c9.1-31.1 11.7-39.4 11.7-42.8s-2-21.8 5.4-47.7H82.2z"/>
          <g transform="translate(4.128 90.066)">
            <path class="st4" d="m78.8-539.7.4-8.7h8.7c4.1 2.9 9.5 5.2 16.1 7v1.7H88.2l-5.4-.8v.8h-4z"/>
          </g>
          <g transform="translate(32.202 90.066)">
            <path class="st4" d="m78.8-539.7.4-8.7h8.7c4.1 2.9 9.5 5.2 16.1 7v1.7H88.2l-5.4-.8v.8h-4z"/>
          </g>
        </g>
        <path class="st5" d="M163.4-455.4c2.2.3 7.9 2.5 9.8 4.9 1.9 2.5 3.9 15.6 3.1 23.2-.7 7.1 4.4 22.4 3.2 24.2-.1.1-11.7-1.8-11.8-1.8-.3 0-21-2.3-21.6-3 0 0-13.2-3.3-13.3-3.4-.6-1.8 11.2-10.3 10.4-11.9-.8-1.7 5.4-23.8 7.2-25.9 2.1-2 3.4-7.6 13-6.3z"/>
        <g transform="translate(13.032)">
          <g transform="translate(21.997 7.652)">
            <path class="st6" d="M99.6-543.4c3.2 5.9 2.8 21-1.3 22.1-1.6.4-5.1-.6-8.6-2.8l2.2 15.8H78.8l4.5-21.2c-2.5-3-4.2-6.6-3.9-10.7.7-11.7 17-9.1 20.2-3.2z"/>
          </g>
          <path class="st3" d="M115-542.4c3.7.3 7 2.5 7.9 3.2 0 3.5-.7 4.5-6.5 4.4-1.4.7-2.5 2-3.6 3.7.5 7.1 1.8 10.6 4 10.6 3.2 0 5.9-2.1 7.3-2.1 1 0 .8 1.3.1 2.3-.6.8-4.3-.2-4.3 1.8s3.1 1.3 3.1 2c0 1.2.4 3.5-1.7 3.5s-8.1-.8-9.1-4c-.7-2-1.1-6.3-1.3-12.6h-.5c-1.8 0-3.2.2-4 1.8-.7 1.5.6 2.7 1.2 3.3-.8 1.1-2 4.6-3 5.8-5.8-2.7-7.4-11.7-3.8-17.9 1-3 4-4.1 6.7-4.9 2.3-.8 5.6-1.5 7.5-.9z"/>
          <path class="st4" d="M98.6-530.7c3.9 0 17-9.9 17.8-12 .8-2.1-9.8-2.7-13.4 0s-8.3 12-4.4 12z"/>
        </g>
        <g transform="translate(0 33.878)">
          <path class="st6" d="m147.1-509.5 12.2 13.6c2.5 2 3 2.2 5.3 3.9.5.4 2 2.6 2 3.1.1 2.5-.5 2.9-1.1 2.3-.5-.5-.7-2.2-1-2.6-.7-1-1.7-1.2-2-.6-.5.9 2.5 1.7 1.6 2.8-.6.7-3.9-1-7.4-6.5l-13.9-8.2 4.3-7.8z"/>
          <path class="st6" d="M91-496.2c5.7 10.8 8.7 17.1 8.9 18.9.2 1.3-1.4 6.8-2.8 10.2-.5 1.4.5 2 1 2 4.4-.2 4.9-3.8 6.8-6.9 2-3.4 4.4.7 6-1.9-1.8-1.1-5.5-3-6-5.5-.2-1.1-2.5-8.3-6.7-21.6l-7.2 4.8z"/>
          <path class="st7" d="m121.4-546.2 3.6-.6c6.1 15.4 16.9 29.3 32.2 41.9l-11.6 14.1c-15.3-17.9-24.8-36.4-24.2-55.4z"/>
          <path d="M104.2-501.3H136c-7.4-17.9-11-33.1-11-45.7-1.3.4-2.3.6-3 .4-1.5-.2-3.7-.8-6.6-1.9-7.6 12.3-9.7 27.2-11.2 47.2z" style="fill-rule:evenodd;clip-rule:evenodd;fill:#ffe600"/>
          <path class="st7" d="M115.7-548.4c.7 0 1.9.1 3.4.1l2.3 6.6c.2 8.1 1.7 24.4 4.3 48.8h-20.8c.1 1.7.1 3.4.3 5.1H89.7c2.3-26.2 10.8-46.4 25.4-60.7l.6.1z"/>
          <path d="M110.8-492.6H105c-.3-7.6.2-14.8 1.4-21.8.5 10.5 2 17.8 4.4 21.8z" style="fill-rule:evenodd;clip-rule:evenodd;fill-opacity:.1"/>
          <path style="fill-rule:evenodd;clip-rule:evenodd;fill:#fff;fill-opacity:.2" d="m109.6-505.4 10.3-4.8v4.8z"/>
        </g>
        <path class="st5" d="M163.3-454.7c-1.4-.3-2.3-3.3-2.5-9.1l4.3 2.3 4.3-.6c-2.7 5.2-4.7 7.7-6.1 7.4z"/>
      </g>
    </g>
  </g>
</svg>