<svg xmlns="http://www.w3.org/2000/svg" viewBox="0 0 260.1 208" fill="#000">
  <style>.st3,.st4{fill-rule:evenodd;clip-rule:evenodd}.st4{fill:#ec0000}.st11,.st12,.st13,.st5,.st6,.st7,.st8{fill-rule:evenodd;clip-rule:evenodd;fill:#767676}.st11,.st12,.st13,.st6,.st7,.st8{fill:#d08c4c}.st11,.st12,.st13,.st7,.st8{fill:#004699}.st11,.st12,.st13,.st8{fill:#ffe600}.st11,.st12,.st13{fill:#323232}.st12,.st13{fill:#eab98b}.st13{fill:#7e4815}</style>
  <g transform="translate(107 33)">
    <path style="fill:#b4b4b4" d="M48.7 149.7h-72.8l-2.4-58.4L-14.7 67h53.9l11.7 24.3z"/>
    <path style="fill:none" d="M48.7 149.7h-72.8l-2.4-58.4L-14.7 67h53.9l11.7 24.3z"/>
    <path d="M34.8 111.6h-45s-3-.4-3-20.3c0-13.4 4.5-15.1 4.5-15.1h42.2S38 78.4 38 91.3c-.2 20.2-3.2 20.3-3.2 20.3" style="fill:#fff"/>
    <path d="M29.9 107.7c0 .7-.4 1.3-.9 1.3H-3.3c-.5 0-.9-.5-.9-1.3 0-.7.4-1.3.9-1.3h32.4c.4 0 .8.6.8 1.3"/>
  </g>
  <path d="M126.4 93.6c0 .7-.7 1.5-1.5 1.5h-10.1c-.9 0-1.5-.6-1.5-1.5 0-.7.7-1.5 1.5-1.5H125c.8 0 1.4.8 1.4 1.5"/>
  <path d="M126.4 83.1c0 .9-.7 1.5-1.5 1.5h-10.1c-.9 0-1.5-.6-1.5-1.5 0-.7.7-1.5 1.5-1.5H125c.8 0 1.4.8 1.4 1.5"/>
  <path d="M122.5 103.4c0 1.4-1.2 2-2.6 2s-2.6-.5-2.6-2V84.3c0-1.4 1.2-2.6 2.6-2.6s2.6 1.2 2.6 2.6v19.1z"/>
  <g>
    <g transform="translate(23 566)">
      <g transform="matrix(-1 0 0 1 329 0)">
        <g transform="translate(63.998)">
          <g>
            <g transform="translate(24.591 77.258)">
              <path class="st3" d="m27.2-548.4 15 52.6 10.9 38.7h8c-.5-18.1-1.4-32.3-2.6-42.5-1.2-10.2-4.3-26.5-9-48.8H27.2z"/>
              <path class="st3" d="M23.2-548.4c-.4 27.1 4.2 41.9 3.9 44.4-.4 2.5 3 15.1-3 46.1h8.3c9.1-31.1 11.7-39.4 11.7-42.8s-2-21.8 5.4-47.7H23.2z"/>
              <g
                transform="translate(4.128 90.066)">
                <path class="st4" d="m19.8-539.7.4-8.7h8.7c4.1 2.9 9.5 5.2 16.1 7v1.7H29.2l-5.4-.8v.8h-4z"/>
              </g>
              <g transform="translate(32.202 90.066)">
                <path class="st4" d="m19.8-539.7.4-8.7h8.7c4.1 2.9 9.5 5.2 16.1 7v1.7H29.2l-5.4-.8v.8h-4z"/>
              </g>
            </g>
            <path class="st5" d="M104.4-455.4c2.2.3 7.9 2.5 9.8 4.9 1.9 2.5 3.9 15.6 3.1 23.2-.7 7.1 4.4 22.4 3.2 24.2-.1.1-11.7-1.8-11.8-1.8-.3 0-21-2.3-21.6-3 0 0-13.2-3.3-13.3-3.4-.6-1.8 11.2-10.3 10.4-11.9-.8-1.7 5.4-23.8 7.2-25.9 2.1-2 3.4-7.6 13-6.3z"/>
            <g transform="translate(13.032)">
              <g transform="translate(21.997 7.652)">
                <path class="st6" d="M40.6-543.4c3.2 5.9 2.8 21-1.3 22.1-1.6.4-5.1-.6-8.6-2.8l2.2 15.8H19.8l4.5-21.2c-2.5-3-4.2-6.6-3.9-10.7.7-11.7 17-9.1 20.2-3.2z"/>
              </g>
              <path class="st3" d="M56-542.4c3.7.3 7 2.5 7.9 3.2 0 3.5-.7 4.5-6.5 4.4-1.4.7-2.5 2-3.6 3.7.5 7.1 1.8 10.6 4 10.6 3.2 0 5.9-2.1 7.3-2.1 1 0 .8 1.3.1 2.3-.6.8-4.3-.2-4.3 1.8s3.1 1.3 3.1 2c0 1.2.4 3.5-1.7 3.5s-8.1-.8-9.1-4c-.7-2-1.1-6.3-1.3-12.6h-.5c-1.8 0-3.2.2-4 1.8-.7 1.5.6 2.7 1.2 3.3-.8 1.1-2 4.6-3 5.8-5.8-2.7-7.4-11.7-3.8-17.9 1-3 4-4.1 6.7-4.9 2.3-.8 5.6-1.5 7.5-.9z"/>
              <path class="st4" d="M39.6-530.7c3.9 0 17-9.9 17.8-12s-9.8-2.7-13.4 0c-3.6 2.7-8.3 12-4.4 12z"/>
            </g>
            <g transform="translate(0 33.878)">
              <path class="st6" d="m88.1-509.5 12.2 13.6c2.5 2 3 2.2 5.3 3.9.5.4 2 2.6 2 3.1.1 2.5-.5 2.9-1.1 2.3-.5-.5-.7-2.2-1-2.6-.7-1-1.7-1.2-2-.6-.5.9 2.5 1.7 1.6 2.8-.6.7-3.9-1-7.4-6.5l-13.9-8.2 4.3-7.8z"/>
              <path class="st6" d="M32-496.2c5.7 10.8 8.7 17.1 8.9 18.9.2 1.3-1.4 6.8-2.8 10.2-.5 1.4.5 2 1 2 4.4-.2 4.9-3.8 6.8-6.9 2-3.4 4.4.7 6-1.9-1.8-1.1-5.5-3-6-5.5-.2-1.1-2.5-8.3-6.7-21.6l-7.2 4.8z"/>
              <path class="st7" d="m62.4-546.2 3.6-.6c6.1 15.4 16.9 29.3 32.2 41.9l-11.6 14.1c-15.3-17.9-24.8-36.4-24.2-55.4z"/>
              <path class="st8" d="M45.2-501.3H77c-7.4-17.9-11-33.1-11-45.7-1.3.4-2.3.6-3 .4-1.5-.2-3.7-.8-6.6-1.9-7.6 12.3-9.7 27.2-11.2 47.2z"/>
              <path class="st7" d="M56.7-548.4c.7 0 1.9.1 3.4.1l2.3 6.6c.2 8.1 1.7 24.4 4.3 48.8H45.9c.1 1.7.1 3.4.3 5.1H30.7c2.3-26.2 10.8-46.4 25.4-60.7l.6.1z"/>
              <path d="M51.8-492.6H46c-.3-7.6.2-14.8 1.4-21.8.5 10.5 2 17.8 4.4 21.8z" style="fill-rule:evenodd;clip-rule:evenodd;fill-opacity:.1"/>
              <path style="fill-rule:evenodd;clip-rule:evenodd;fill:#fff;fill-opacity:.2" d="m50.6-505.4 10.3-4.8v4.8z"/>
            </g>
          </g>
          <path class="st5" d="M104.3-454.7c-1.4-.3-2.3-3.3-2.5-9.1l4.3 2.3 4.3-.6c-2.7 5.2-4.7 7.7-6.1 7.4z"/>
        </g>
      </g>
    </g>
  </g>
  <g>
    <g transform="matrix(-1 0 0 1 298.647 115.124)">
      <path class="st11" d="M233.1-15.3c2 .2 7.2 2 8.9 4 1.7 2 3.9 12.8 3.3 19.2-.5 5.9 4.5 18.5 3.5 20-.1.1-10.6-1.4-10.6-1.4-.3 0-18.8-1.8-19.4-2.4 0 0-11.9-2.6-11.9-2.7-.6-1.5 9.7-8.6 9-9.8-.8-1.4 4.2-19.6 5.9-21.4 1.7-1.9 2.7-6.6 11.3-5.5z"/>
    </g>
    <g>
      <g transform="translate(72.692)">
        <g transform="translate(61.27 35.173)">
          <path class="st12" d="M-91.3-1.7c2.6 4.9 3.6 16.9-1.1 18.1-1.8.5-4.6-.3-7.4-1.9l2.1 12.6h-10.8l3.6-17c-2.1-2.5-3.4-5.7-3.2-9.1.7-9.7 14.2-7.5 16.8-2.7z"/>
        </g>
        <path class="st13" d="M-29.4 33.5c-2.1.4-6.2 2.4-9.6 5.2-.4-.2-.8-.3-1.3-.3-1.5 0-2.8 1.2-2.8 2.7 0 .6.2 1.2.6 1.6-.7 1.1-1.1 2.2-1.3 3.4-2.3 0-10.6-8.6-2.3-16.7s20.3 3.5 16.7 4.1z"/>
        <path class="st13" d="M-43.1 26.5s-1-8.9-8-6.5-7.5 4-9.3 9 1.8 12.5 3.7 14.8c1.9 2.3 3.7 3.4 0 7.9s-1.8 5.6 1.6 2.8c3.4-2.8 10.3-11.5 7.9-14.1-2.5-2.6 4.1-13.9 4.1-13.9z"/>
        <ellipse transform="rotate(-38.001 -45.685 28.927)" class="st4" cx="-45.7" cy="28.9" rx="2.5" ry="1.4"/>
      </g>
      <g transform="translate(0 202)">
        <path class="st12" d="M36.7-56c-.1-.1-.2-.3-.2-.4-.9-2.5-12.4-23.2-18.5-35.3-1.8-3.6 1-6.4.5-7.8h17.3c1.4 4.7 7.9 34.2 8.8 40 2.9 9.3 8.8 39.3 9.5 41.4.8 2.2-3.7 4.5-4.9 1.8-1.9-4.3-6.4-16.1-8.4-23.4-.6-2.2-2.4-4.7-2.9-6.7-1-4.1-.6-7.3-1.2-9.6z"/>
        <path class="st12" d="M19.9-61.7c0-.1 0-.3.1-.4 1-2.8 7.5-37.2 9.8-42.5l14.7 12.4C42.8-88.1 30.2-64 27.4-59.4c-3.4 8-16.7 32.2-17.4 34-.7 2-5.1 1-4.4-1.6 1.2-4 3.3-12 6.1-18.2 1-2.2 2.1-6.8 3.1-8.8 1.5-3 4.2-5.9 5.1-7.7z"/>
        <path class="st12" d="M13.3-31.8c-1.6 2.8-1.4 10.3.4 13.8 1.9 3.5-5.3.3-5.3-3s6.6-13.7 4.9-10.8zm38.5 3.1c1.2 4.3 4.2 11.1 7.9 12.3 3.3 2.2-5.6 2.4-7.1-.5-1.6-2.8-.7-15-.8-11.8z"/>
        <g transform="rotate(32 -256.573 249.51)">
          <path class="st8" d="M-182-124.4c-.4 1.2-.7 2.1-.7 2.7 0 .7.1 1.8.4 3.1h22.4c.6-1.9.2-3-1-3.1s-2.3-.3-3.1-.4l-10.4-4.6c-.2-.1-.4 0-.5.2l-.7 1.6c-1.2.5-2.1.8-2.8.8-.6 0-1.4-.2-2.4-.7-.5-.2-1 0-1.2.4z"/>
        </g>
        <path class="st8" d="M-140.6-216.1c-.4 1.2-.7 2.1-.7 2.7 0 .7.1 1.8.4 3.1h22.4c.6-1.9.2-3-1-3.1-1.3-.2-2.3-.3-3.1-.4l-10.4-4.6c-.2-.1-.4 0-.5.2l-.7 1.6c-1.2.5-2.1.8-2.8.8-.6 0-1.4-.2-2.4-.7-.6-.2-1-.1-1.2.4z" transform="translate(189 199)"/>
        <path class="st4" d="M19.1-102.8h25.8c6.5 22.4 8.7 38.5 6.7 42-15.1-2.7-34.9 2.7-38-2.4-2.7-5-1.6-19.6 5.5-39.6z"/>
      </g>
      <g transform="translate(22 97)">
        <path class="st12" d="m27.6-11.8 11.6 10c3.5.9 6.3 2 8.7 3.3.6.5 1.2 1.5-1 1.3-2.3-.1-4.6-.2-4.9.6-.3.8 1.1 1.7.5 2.7-.4.7-2.4-1-6-5.1-7.3-4.1-11.7-6.8-13-8.2-1.3-1.4-3.2-8.3-5.6-20.6l7.2-3.9 2.5 19.9z"/>
        <path class="st7" d="M12.9-41.9c6.5.7 10.2 1.7 10.9 3 1.1 1.9 1.9 2.8 1.9 6.2s-5.8 3.9-7.9 3.9c-1.5 0-3.1-4.4-4.9-13.1z"/>
        <ellipse class="st12" cx="9.4" cy="-38.3" rx="6.8" ry="5.2"/>
        <path class="st7" d="M-4.4 3.7c13.6 3.8 22.2 3.8 27.7.2 0-3.5-1.4-11.5-2.1-20.5-.2-2.3.3-4.5-.1-6.8-.5-2.8-2-5.6-2.6-8.2-.9-4.1-.9-7.5-3.8-10-1.6 4.6-2.8 6.9-3.4 6.8C9.9-35 8-37.7 5.5-43c-4.3 6.9-6.8 12.2-8.1 21.8-.4 2.8 1.4 7.1 1.1 10.6-.4 5.1-2.6 9.7-2.9 14.3z"/>
        <path class="st12" d="M8.1 9.4c.9.9 2.9 5.6 3.9 8.7.4 1.3 1.4 1.1 1.8.8 3-2.6 1.3-5.4.8-8.6-.5-3.5 3.4-2 3.1-4.7-1.9.2-5.5 1-7.3-.4C9.7 4.6-5.3-5.2-5.5-8.7-5.6-11-3.7-19 .2-32.7L-7-36.4C-10.9-20-12.7-10.2-12.6-7-12.3-2.1 6.3 7.8 8.1 9.4z"/>
        <path class="st7" d="M5.4-43c-6.5.7-10.2 1.7-10.9 3-1.1 1.9-4 4.3-2.8 6.9s5.1 3.3 7.2 3.3c1.4 0 3.6-4.4 6.5-13.2z"/>
      </g>
    </g>
    <path class="st11" d="M64.6 100.3c1.2-.2 2.2-2.6 2.9-7.3l-4 1.6-3.8-.7c1.9 4.5 3.6 6.6 4.9 6.4z"/>
  </g>
</svg>