<svg xmlns="http://www.w3.org/2000/svg" viewBox="0 0 267.8 208" fill="#000">
  <style>.st0{fill:#004699}.st1{fill:#ffe600}.st2{fill:#b4b4b4}.st3{fill:none}.st4{fill:#fff}.st5{fill:#7e4815}.st5,.st6,.st7,.st9{fill-rule:evenodd;clip-rule:evenodd}.st7,.st9{fill:#004699}.st9{fill:#ec0000}</style>
  <path class="st0" d="M242.4 103.9c0 .6-.6 1.1-1.1 1.1h-7.8c-.7 0-1.1-.4-1.1-1.1 0-.6.6-1.1 1.1-1.1h7.8c.7 0 1.1.6 1.1 1.1" />
  <path class="st0" d="M242.4 95.9c0 .7-.6 1.1-1.1 1.1h-7.8c-.7 0-1.1-.4-1.1-1.1 0-.6.6-1.1 1.1-1.1h7.8c.7 0 1.1.6 1.1 1.1" />
  <path class="st0" d="M239.4 111.4c0 1.1-.9 1.5-2 1.5s-2-.4-2-1.5V96.8c0-1.1.9-2 2-2s2 .9 2 2v14.6z" />
  <path d="M111.9 103.9c0 .6-.6 1.1-1.1 1.1H103c-.7 0-1.1-.4-1.1-1.1 0-.6.6-1.1 1.1-1.1h7.8c.7 0 1.1.6 1.1 1.1" />
  <path d="M111.9 95.9c0 .7-.6 1.1-1.1 1.1H103c-.7 0-1.1-.4-1.1-1.1 0-.6.6-1.1 1.1-1.1h7.8c.7 0 1.1.6 1.1 1.1" />
  <path d="M108.9 111.4c0 1.1-.9 1.5-2 1.5s-2-.4-2-1.5V96.8c0-1.1.9-2 2-2s2 .9 2 2v14.6z" />
  <path class="st1" d="M178.9 103.9c0 .6-.6 1.1-1.1 1.1H170c-.7 0-1.1-.4-1.1-1.1 0-.6.6-1.1 1.1-1.1h7.8c.7 0 1.1.6 1.1 1.1" />
  <path class="st1" d="M178.9 95.9c0 .7-.6 1.1-1.1 1.1H170c-.7 0-1.1-.4-1.1-1.1 0-.6.6-1.1 1.1-1.1h7.8c.7 0 1.1.6 1.1 1.1" />
  <path class="st1" d="M175.9 111.4c0 1.1-.9 1.5-2 1.5s-2-.4-2-1.5V96.8c0-1.1.9-2 2-2s2 .9 2 2v14.6z" />
  <path d="M111.9 103.9c0 .6-.6 1.1-1.1 1.1H103c-.7 0-1.1-.4-1.1-1.1 0-.6.6-1.1 1.1-1.1h7.8c.7 0 1.1.6 1.1 1.1" />
  <path d="M111.9 95.9c0 .7-.6 1.1-1.1 1.1H103c-.7 0-1.1-.4-1.1-1.1 0-.6.6-1.1 1.1-1.1h7.8c.7 0 1.1.6 1.1 1.1" />
  <path d="M108.9 111.4c0 1.1-.9 1.5-2 1.5s-2-.4-2-1.5V96.8c0-1.1.9-2 2-2s2 .9 2 2v14.6z" />
  <g transform="translate(-23 -937)">
    <g transform="translate(23 937)">
      <g transform="translate(107 33)">
        <path class="st2" d="M27.2 137.8h-55.5l-1.8-44.5 9-18.5H20l8.9 18.5z" />
        <path class="st3" d="M27.2 137.8h-55.5l-1.8-44.5 9-18.5H20l8.9 18.5z" />
        <path class="st4" d="M16.6 108.8h-34.3s-2.3-.3-2.3-15.5c0-10.2 3.4-11.5 3.4-11.5h32.2S19 83.5 19 93.3c-.1 15.4-2.4 15.5-2.4 15.5" />
        <path d="M12.9 105.8c0 .5-.3 1-.7 1h-24.6c-.4 0-.7-.4-.7-1 0-.5.3-1 .7-1h24.7c.3 0 .6.5.6 1" />
      </g>
      <g
        transform="translate(172.517 33)">
        <path class="st2" d="M27.6 137.8h-55.4l-1.8-44.5 9-18.5h41.1l8.9 18.5z" />
        <path class="st3" d="M27.6 137.8h-55.4l-1.8-44.5 9-18.5h41.1l8.9 18.5z" />
        <path class="st4" d="M17.1 108.8h-34.3s-2.3-.3-2.3-15.5c0-10.2 3.4-11.5 3.4-11.5h32.2s3.4 1.7 3.4 11.5c-.1 15.4-2.4 15.5-2.4 15.5" />
        <path d="M12.4 105.8c0 .5-.3 1-.7 1h-24.6c-.4 0-.7-.4-.7-1 0-.5.3-1 .7-1h24.6c.4 0 .7.5.7 1" />
      </g>
      <g transform="translate(238.034 33)">
        <path class="st2" d="M27.1 137.8h-55.4l-1.8-44.5 9-18.5H20l8.9 18.5z" />
        <path class="st3" d="M27.1 137.8h-55.4l-1.8-44.5 9-18.5H20l8.9 18.5z" />
        <path class="st4" d="M16.6 108.8h-34.4s-2.3-.3-2.3-15.5c0-10.2 3.4-11.5 3.4-11.5h32.2s3.4 1.7 3.4 11.5c0 15.4-2.3 15.5-2.3 15.5" />
        <path d="M12.9 105.8c0 .5-.3 1-.7 1h-24.6c-.4 0-.7-.4-.7-1 0-.5.3-1 .7-1h24.6c.4 0 .7.5.7 1" />
      </g>
      <g transform="translate(29.998)">
        <g transform="translate(35.002)">
          <path class="st5" d="M-10.6 70.9c1.8 3.4 2.5 11.7-.7 12.5-1.2.3-3.2-.2-5-1.3l1.4 8.7h-7.4l2.5-11.8c-1.4-1.7-2.3-3.9-2.2-6.3.5-6.6 9.7-5.1 11.4-1.8z" />
          <path class="st6" d="M-16.5 67.1c3.6 0 4.7 1.7 5.7 3.1-.7 2.5-3.5 2.9-6 4.4-.3-.2-.7-.4-1.1-.4-1 0-1.9.8-1.9 1.9 0 .4.1.7.3 1-.5.8-.9 1.8-1.2 3.1-.4.3-.8.3-1.4 0l-.3-8.4c1.6-3.1 3.6-4.7 5.9-4.7z" />
          <ellipse class="st6" cx="-22.5" cy="74.2" rx="2.6" ry="2.7" />
          <ellipse class="st6" cx="-21.3" cy="69.5" rx="2.6" ry="2.7" />
          <ellipse class="st6" cx="-22.5" cy="82.9" rx="2.6" ry="2.7" />
          <ellipse class="st6" cx="-20.3" cy="79.5" rx="2.6" ry="2.7" />
          <ellipse class="st6" cx="-24.6" cy="79.8" rx="2.6" ry="2.7" />
          <ellipse class="st6" cx="-22.5" cy="76.6" rx="2.6" ry="2.7" />
          <ellipse class="st6" cx="-26.2" cy="76.3" rx="2.6" ry="2.7" />
          <ellipse class="st6" cx="-25" cy="72.3" rx="2.6" ry="2.7" />
          <ellipse class="st6" cx="-25" cy="67.6" rx="2.6" ry="2.7" />
          <ellipse class="st6" cx="-19.1" cy="67" rx="2.6" ry="2.7" />
          <ellipse class="st6" cx="-14.5" cy="67" rx="2.6" ry="2.7" />
          <ellipse class="st6" cx="-27.4" cy="71.3" rx="2.6" ry="2.7" />
          <ellipse class="st6" cx="-21.3" cy="65.4" rx="2.6" ry="2.7" />
          <ellipse class="st6" cx="-17.2" cy="64.5" rx="2.6" ry="2.7" />
        </g>
        <g transform="translate(0 53)">
          <path class="st7" d="M.3 93.9C7.7 96 14.2 97 19.6 97s10.4-1.6 15.1-4.8c-7.3-2.1-13.3-3.2-18-3.2S6.5 90.6.3 93.9z" />
          <path d="M26 100.1c-.1-.1-.1-.2-.2-.4-1-2.6-16.9-31.1-18.5-36.4h18c1.2 4 6.6 28.8 7.4 33.8 2.4 7.8 7.4 33.2 8 34.9.7 1.8-3.1 3.8-4.1 1.5-1.6-3.6-5.4-13.6-7.1-19.7-1.6-5.7-2.8-10.8-3.5-13.7z" style="fill-rule:evenodd;clip-rule:evenodd;fill:#b28b67" />
          <path class="st5" d="M26 100.1c-.1-.1-.1-.2-.2-.4-1-2.6-16.9-31.1-18.5-36.4h18c1.2 4 6.6 28.8 7.4 33.8 2.4 7.8 7.4 33.2 8 34.9.7 1.8-3.1 3.8-4.1 1.5-1.6-3.6-5.4-13.6-7.1-19.7-1.6-5.7-2.8-10.8-3.5-13.7z" />
          <path class="st5" d="M11.3 103.5c-7.3 1.8-34 5.2-35.8 5.7-1.9.5-3.5-3.4-1.2-4.2 3.7-1.3 13.9-4.4 20.1-5.7 5-1 9.5-1.8 12.6-2.3-.3-8.6-1.4-29.2-.7-33.7h15.9c-.7 4.3-7 35.4-8.2 38.6-.3 1.1-1.4 1.6-2.7 1.6z" />
          <g transform="rotate(80 -21.427 24.525)">
            <path class="st9" d="M55.7 44.1v.3c0 .6.1 1.4.3 2.5h17.5c.5-1.5.2-2.3-.8-2.4s-1.8-.2-2.4-.3l-7.5-3.4c-.5-.2-1.1 0-1.3.5l-.3.6c-.9.4-1.6.6-2.2.6-.2 0-.5 0-.7-.1-1.1-.3-2.2.3-2.5 1.4 0 .1-.1.2-.1.3z" />
          </g>
          <g transform="translate(64.996 69.455)">
            <path class="st9" d="M-30 65.6v.3c0 .6.1 1.4.3 2.5h17.5c.5-1.5.2-2.3-.8-2.4s-1.8-.2-2.4-.3l-7.6-3.4c-.5-.2-1.1 0-1.3.5l-.3.6c-.9.4-1.6.6-2.2.6-.2 0-.5 0-.7-.1-1.1-.3-2.2.4-2.5 1.4v.3z" />
          </g>
          <path class="st7" d="M6.4 63.3c7-2 13.6-2 19.9 0 2.2 10 7.5 13.9 8.4 29.2-10.6 5.3-23.6-3.8-34.5 1.4-3.1-7.2 1.2-24.5 6.2-30.6z" />
        </g>
        <g transform="translate(8.002 22)">
          <path class="st5" d="m31 86 11.3-5c2-2 3.9-3.5 5.7-4.5.6-.2 1.5-.2.5 1.2s-2 3.1-1.6 3.6 1.6-.1 2 .8c.3.6-1.7 1.2-5.9 2l-8.5 6.5L31 86zm-45.6 1.4 6.4 1.3c-6.4 12-9.9 18.3-10.3 19-1 1.6-.1 4.6.3 6.1-2.3.5-1.4-2.9-4.2-2.2-2.6.6-4.8 2.3-7.3.1-.3-.3-.5-1.1.5-1.6 2.5-1.1 6.3-3.2 6.9-4 .8-1.1 3.3-7.3 7.7-18.7z" />
          <path class="st9" d="m9.1 63.5 2.7-.5c5.9 5.7 8.3 19.4 12.2 21.2 3.7 1.7 8.9.1 15.2-2.2l1.9 4.3c-5.7 6.1-17.7 11.3-22.6 8.3-7.9-4.7-9.7-21.6-9.4-31.1z" />
          <path d="M-2.6 97.3h23.8c1.1 0 .9-1.6.7-2.4-1.8-9.2-8.9-19-8.9-32.1l-6.9-1.1C.4 71-1.5 82.2-2.6 97.3z" style="fill-rule:evenodd;clip-rule:evenodd;fill:#ffe600" />
          <path class="st9" d="M8.4 61.8c6.2 21 7.9 35 5.1 42H-7.9C-7.6 98.7-6.5 93.3-5 88c-4.9 8.8-8.9 15.1-12.2 18.9l-5-1C-19 86.1-9.7 71.3 5.7 61.8h2.7z" />
        </g>
      </g>
      <circle class="st9" cx="125.9" cy="184.8" r="10" />
    </g>
  </g>
</svg>