<svg xmlns="http://www.w3.org/2000/svg" viewBox="0 0 287 255" fill="#000">
  <path d="M79.591 99.414c-2.471.248-8.897 2.478-10.998 4.956-2.101 2.478-4.82 15.86-4.078 23.79.618 7.31-5.561 22.922-4.326 24.781.124.124 13.1-1.735 13.1-1.735.37 0 23.233-2.23 23.974-2.974 0 0 14.706-3.221 14.706-3.345.741-1.859-11.987-10.656-11.122-12.143.988-1.734-5.19-24.285-7.291-26.515-2.101-2.354-3.337-8.178-13.965-6.815Z" fill="#323232" />
  <path d="M51.31 17.203c3.213 6.07 4.449 20.94-1.36 22.426-2.224.62-5.684-.371-9.144-2.354l2.595 15.612H30.055l4.449-21.064c-2.596-3.097-4.202-7.062-3.955-11.275.865-12.019 17.548-9.293 20.761-3.345Z" fill="#EAB98B" />
  <path d="M52.09 17.236c-2.596.496-7.662 2.974-11.864 6.443a3.413 3.413 0 0 0-1.606-.372c-1.854 0-3.46 1.487-3.46 3.346 0 .743.247 1.487.74 1.982a11.015 11.015 0 0 0-1.606 4.213c-2.842 0-13.099-10.656-2.842-20.692s25.086 4.337 20.638 5.08Z" fill="#7E4815" />
  <path d="M35.16 8.563S33.924-2.465 25.273.509c-8.65 2.974-9.268 4.956-11.493 11.151-2.224 6.196 2.225 15.488 4.573 18.338 2.348 2.85 4.572 4.213 0 9.789-4.573 5.575-2.225 6.938 1.977 3.469 4.202-3.47 12.729-14.249 9.763-17.47-3.09-3.222 5.067-17.223 5.067-17.223Z" fill="#7E4815" />
  <path d="M32.995 12.922c1.345-1.054 1.958-2.52 1.37-3.275-.589-.754-2.156-.513-3.5.54-1.345 1.054-1.958 2.52-1.37 3.275.589.755 2.156.513 3.5-.54Z" fill="#EC0000" />
  <path d="M43.943 156.628c-.124-.124-.247-.371-.247-.495-1.112-3.098-15.324-28.746-22.862-43.738-2.225-4.461 1.236-7.93.618-9.665H42.83c1.73 5.823 9.762 42.375 10.875 49.562 3.583 11.523 10.875 48.694 11.74 51.296.988 2.726-4.573 5.576-6.056 2.23-2.348-5.327-7.909-19.948-10.38-28.993-.742-2.726-2.966-5.824-3.584-8.302-1.236-5.08-.742-9.045-1.483-11.895Z" fill="#EAB98B" />
  <path d="M23.182 149.566c0-.124 0-.372.123-.496 1.236-3.469 9.269-46.092 12.111-52.66l18.166 15.365c-2.1 5.08-17.672 34.941-21.132 40.64-4.201 9.913-20.637 39.898-21.502 42.128-.865 2.478-6.303 1.239-5.438-1.983 1.483-4.956 4.078-14.868 7.538-22.55 1.236-2.726 2.596-8.426 3.831-10.904 1.854-3.717 5.19-7.31 6.303-9.54Z" fill="#EAB98B" />
  <path d="M15.026 186.613c-1.978 3.469-1.73 12.762.494 17.099 2.348 4.337-6.55.372-6.55-3.717s8.156-16.975 6.056-13.382Zm47.577 3.841c1.483 5.328 5.19 13.754 9.763 15.24 4.078 2.726-6.92 2.974-8.774-.619-1.977-3.469-.865-18.586-.989-14.621Z" fill="#EAB98B" />
  <path d="M4.53 191.238c-1.204.997-2.107 1.745-2.5 2.375-.458.735-1.072 1.956-1.609 3.518.84.525 8.7 5.452 23.48 14.714 1.873-1.601 2.173-3.019.98-3.912-1.192-.893-2.214-1.826-2.987-2.456l-7.892-11.662c-.144-.236-.42-.263-.655-.118l-1.78 1.22c-1.586-.263-2.725-.539-3.46-.999-.628-.394-1.336-1.13-2.057-2.312-.393-.538-1.048-.657-1.52-.368ZM58.402 204.827c-.495 1.487-.865 2.602-.865 3.345 0 .868.123 2.231.494 3.841h27.682c.741-2.354.247-3.717-1.236-3.841-1.607-.248-2.843-.371-3.831-.495l-12.852-5.7c-.248-.124-.495 0-.618.248l-.865 1.982c-1.483.62-2.595.992-3.46.992-.742 0-1.73-.248-2.966-.868-.742-.248-1.236-.124-1.483.496Z" fill="#FFE600" />
  <path d="M22.193 98.641h31.884c8.032 27.755 10.75 47.703 8.28 52.04-18.661-3.345-43.13 3.345-46.96-2.974-3.337-6.195-1.978-24.285 6.796-49.066Z" fill="#EC0000" />
  <path d="m59.885 81.294 14.335 12.39c4.325 1.116 7.785 2.479 10.751 4.09.742.62 1.483 1.858-1.236 1.61-2.842-.123-5.684-.247-6.055.744-.37.991 1.36 2.106.618 3.345-.494.868-2.966-1.239-7.415-6.319-9.021-5.08-14.458-8.425-16.065-10.16-1.606-1.735-3.954-10.284-6.92-25.524l8.897-4.832 3.09 24.656Z" fill="#EAB98B" />
  <path d="M41.719 44c8.032.867 12.605 2.106 13.47 3.716 1.359 2.355 2.348 3.47 2.348 7.682 0 4.213-7.168 4.833-9.763 4.833-1.854 0-3.831-5.452-6.055-16.232Z" fill="#004699" />
  <path d="M37.393 54.903c4.642 0 8.404-2.885 8.404-6.443 0-3.559-3.762-6.443-8.404-6.443-4.64 0-8.403 2.884-8.403 6.443 0 3.558 3.762 6.443 8.403 6.443Z" fill="#EAB98B" />
  <path d="M20.34 100.5c16.806 4.708 27.434 4.708 34.23.247 0-4.336-1.73-14.249-2.594-25.4-.247-2.85.37-5.576-.124-8.425-.618-3.47-2.471-6.94-3.213-10.16-1.112-5.08-1.112-9.294-4.696-12.391-1.977 5.7-3.46 8.55-4.201 8.425-1.73-.247-4.079-3.593-7.168-10.16-5.314 8.55-8.403 15.117-10.01 27.011-.494 3.47 1.73 8.798 1.36 13.134-.495 6.32-3.213 12.019-3.584 17.719Z" fill="#004699" />
  <path d="M35.787 107.562c1.112 1.115 3.584 6.939 4.82 10.78.494 1.611 1.73 1.363 2.224.991 3.707-3.221 1.606-6.691.988-10.656-.617-4.336 4.202-2.478 3.831-5.823-2.348.248-6.796 1.239-9.02-.496-.866-.743-19.403-12.886-19.65-17.223-.123-2.85 2.225-12.762 7.044-29.737l-8.897-4.584c-4.82 20.32-7.044 32.463-6.92 36.428.37 6.071 23.355 18.338 25.58 20.32Z" fill="#EAB98B" />
  <path d="M32.45 42.636c-8.032.868-12.605 2.107-13.47 3.717-1.36 2.355-4.943 5.328-3.46 8.55 1.483 3.221 6.303 4.089 8.898 4.089 1.73 0 4.448-5.452 8.032-16.356Z" fill="#004699" />
  <path d="M78.421 100.004c1.483-.248 2.72-3.222 3.584-9.045l-4.943 1.983-4.696-.868c2.348 5.576 4.449 8.178 6.055 7.93Z" fill="#323232" />
  <path d="M143.28 82.72h7.44v-2.1c0-2.94 2.7-5.4 5.4-8.1 2.46-2.52 4.92-5.52 4.92-10.2 0-6.36-5.16-10.32-12.9-10.32-6.24 0-10.08 1.92-13.14 6.18l6.24 4.98c1.62-2.28 3.42-3.36 5.58-3.36 3.06 0 4.86 1.44 4.86 3.9 0 3.36-2.16 4.86-4.2 6.84-2.1 2.04-4.2 4.26-4.2 8.64v3.54ZM147 96.88c3.12 0 5.4-2.22 5.4-5.34 0-3.06-2.34-5.34-5.4-5.34-3.06 0-5.4 2.28-5.4 5.34 0 3.12 2.28 5.34 5.4 5.34Z" />
  <path d="m258.682 125.464-19.527 68.653-14.189 50.511h-10.414c.651-23.624 1.822-42.158 3.385-55.471 1.562-13.313 5.597-34.587 11.715-63.693h29.03Z" />
  <path d="M263.889 125.464c.521 35.371-5.467 54.688-5.077 57.951.521 3.263-3.905 19.708 3.905 60.169h-10.804c-11.846-40.591-15.231-51.425-15.231-55.862 0-4.438 2.604-28.454-7.03-62.258h34.237Z" />
  <path d="m262.941 254.373-.521-11.356h-11.325c-5.338 3.785-12.367 6.787-20.959 9.137v2.219h20.568l7.03-1.045v1.045h5.207ZM226.396 254.373l-.521-11.356h-11.326c-5.337 3.785-12.366 6.787-20.958 9.137v2.219h20.568l7.029-1.045v1.045h5.208Z" fill="#EC0000" />
  <path d="M190.198 146.01c-2.864.392-10.284 3.263-12.758 6.395-2.473 3.263-5.077 20.362-4.035 30.281.911 9.267-5.728 29.237-4.166 31.586.13.13 15.231-2.349 15.361-2.349.39 0 27.337-3.002 28.118-3.916 0 0 17.183-4.307 17.314-4.438.781-2.349-14.58-13.443-13.539-15.532 1.042-2.218-7.029-31.063-9.372-33.804-2.734-2.611-4.427-9.92-16.923-8.223Z" fill="#767676" />
  <path d="M227.651 41.14c-4.166 7.7-3.645 27.41 1.692 28.845 2.083.522 6.639-.783 11.195-3.655l-2.863 20.622h17.053l-5.858-27.67c3.254-3.915 5.467-8.614 5.077-13.965-.912-15.271-22.13-11.878-26.296-4.177Z" fill="#D08C4C" />
  <path d="M236.239 32.457c-4.817.392-9.112 3.263-10.284 4.177 0 4.568.911 5.873 8.461 5.743 1.823.914 3.255 2.61 4.687 4.83-.651 9.266-2.343 13.834-5.207 13.834-4.166 0-7.681-2.74-9.503-2.74-1.302 0-1.042 1.696-.13 3.001.781 1.044 5.597-.26 5.597 2.35 0 2.61-4.035 1.697-4.035 2.61 0 1.566-.521 4.568 2.213 4.568s10.544-1.044 11.846-5.22c.911-2.61 1.432-8.223 1.692-16.446h.651c2.343 0 4.166.261 5.207 2.35.911 1.957-.781 3.523-1.562 4.306 1.041 1.436 2.604 6.004 3.905 7.57 7.551-3.523 9.633-15.27 4.947-23.362-1.302-3.916-5.207-5.352-8.722-6.396-2.994-1.044-7.29-1.958-9.763-1.175Z" />
  <path d="M257.588 47.728c-5.077 0-22.13-12.921-23.171-15.662-1.042-2.741 12.757-3.524 17.443 0 4.687 3.524 10.805 15.662 5.728 15.662Z" fill="#EC0000" />
  <path d="m211.416 119.616-15.881 17.751c-3.255 2.61-3.905 2.871-6.9 5.09-.65.522-2.603 3.394-2.603 4.046-.13 3.263.651 3.785 1.432 3.002.651-.653.911-2.871 1.302-3.393.911-1.306 2.213-1.567 2.603-.784.651 1.175-3.254 2.219-2.083 3.655.781.914 5.077-1.305 9.633-8.484l18.095-10.702-5.598-10.181ZM284.445 136.975c-7.42 14.096-11.325 22.319-11.585 24.668-.261 1.697 1.822 8.876 3.645 13.314.651 1.827-.651 2.61-1.302 2.61-5.728-.261-6.379-4.96-8.852-9.006-2.604-4.438-5.728.914-7.811-2.48 2.344-1.436 7.16-3.915 7.811-7.178.26-1.436 3.254-10.834 8.722-28.193l9.372 6.265Z" fill="#D08C4C" />
  <path d="m244.872 71.715-4.687-.783c-7.94 20.1-21.999 38.242-41.917 54.688l15.101 18.403c19.917-23.363 32.284-47.51 31.503-72.308Z" fill="#004699" />
  <path d="M267.262 130.319h-41.396c9.633-23.363 14.319-43.202 14.319-59.648 1.693.522 2.994.783 3.906.522 1.952-.261 4.816-1.044 8.591-2.48 9.894 16.054 12.627 35.502 14.58 61.606Z" fill="#FFE600" />
  <path d="M252.292 68.844c-.911 0-2.474.13-4.426.13l-2.994 8.614c-.261 10.573-2.213 31.847-5.598 63.694h27.077c-.13 2.219-.13 4.438-.391 6.657h20.178c-2.994-34.196-14.059-60.561-33.065-79.226l-.781.13Z" fill="#004699" />
  <path d="M258.67 141.674h7.551c.39-9.92-.261-19.317-1.823-28.454-.651 13.705-2.603 23.233-5.728 28.454Z" fill-opacity=".1" />
  <path d="m260.233 124.967-13.409-6.265v6.265h13.409Z" fill="#fff" fill-opacity=".2" />
  <path d="M190.328 146.923c1.822-.391 2.994-4.307 3.254-11.877l-5.597 3.002-5.598-.783c3.515 6.787 6.118 10.05 7.941 9.658Z" fill="#767676" />
</svg>