<svg xmlns="http://www.w3.org/2000/svg" viewBox="0 0 256 512">
  <path
    d="M178.972 480.42h-49.759c-.185-11.283.555-22.382 2.035-33.665 1.48-10.914 1.295-22.013 2.405-33.111.555-5.364.37-10.729 1.11-16.093 1.294-10.358 3.514-20.532 0-30.891-1.295-3.699-1.48-7.954-2.22-11.838-1.295-5.549-2.59-11.284-3.885-16.833-1.664 3.515-2.774 6.844-3.144 10.174-1.48 12.578-7.029 24.416-4.995 37.92 1.85 12.023 2.59 24.416 3.33 36.625 1.11 19.237 4.439 38.475 3.515 57.712H77.605c0-9.989 4.44-17.203 13.319-21.457 2.59-1.295 6.844-1.48 7.768-3.33.925-2.034-1.11-5.549-1.664-8.509-4.255-21.827-8.694-43.654-13.874-65.296-.554-2.589-2.034-5.179-1.294-7.769 1.85-6.474 1.11-13.133 2.034-19.607 1.295-10.544 1.48-21.457 2.405-32.001 1.295-14.428 3.7-29.041 4.07-43.469.74-28.856.184-57.897.37-86.938 0-2.96-1.11-3.885-3.515-4.625-17.388-5.179-34.775-10.173-51.978-15.723-6.29-2.034-13.503-2.774-17.203-9.618v-12.024c1.85-1.849 2.96-4.069 5.365-5.549 15.722-8.879 31.445-18.127 47.353-27.006 1.85-1.11 2.22-2.22 2.59-4.07 1.665-10.543 7.214-17.572 17.942-19.792 6.29-1.295 7.4-.185 5.92 6.104-.185.925 0 2.035 0 3.515 13.503-26.082 48.463-26.452 62.521-.37 1.295-2.035-1.295-3.515-.74-5.55.37-1.48-.185-2.59 2.035-2.774 9.619-1.48 19.422 5.919 21.272 16.463.37 2.404 0 5.364 3.145 7.214 12.948 7.214 25.711 14.798 38.659 22.197 5.735 3.329 12.394 5.734 14.429 13.133v5.364c-2.22 6.289-6.66 9.249-13.134 11.099-18.497 5.364-36.81 11.468-55.307 17.017-2.775.74-4.255 1.48-4.07 4.81 1.11 35.145-1.849 70.29 2.035 105.436 1.85 15.538 1.85 31.445 3.7 46.983.554 5.18.924 10.544 1.479 15.908.74 6.289 2.59 12.948 1.11 19.238-1.665 6.659-3.144 13.318-4.624 19.977-3.885 17.573-7.399 35.33-11.469 52.903-.74 3.699.555 4.624 3.7 5.734 10.543 2.96 16.463 11.099 17.018 22.382ZM62.807 151.349c43.469 9.619 86.014 9.434 128.928-.555-3.7-3.329-7.954-5.549-11.469-8.324-6.844-5.364-16.832-7.584-19.052-18.682-2.96 14.613-13.873 24.972-28.301 27.191-8.509 1.295-16.648-.74-24.047-5.734-7.214-4.809-11.098-11.838-13.503-19.977-7.954 12.578-22.012 16.278-32.556 26.081Zm73.99 123.379v-76.21c0-11.654 0-11.469-11.468-11.469-3.7 0-4.81.925-4.81 4.81.185 20.162.555 40.509-.184 60.672-.185 8.693 1.109 14.983 9.988 17.942 1.85.555 3.515 2.22 6.474 4.255Zm-8.879-93.228c1.11 0 2.22-.185 3.145 0 4.439.74 5.919-.925 5.734-5.549-.37-10.914 0-10.914-11.653-10.914h-1.665c-3.144-.555-4.809.74-4.254 4.07.185 1.295 0 2.589 0 3.699.185 8.694.185 8.694 8.693 8.694Z"
    fill="#181615"/>
  <path d="M137.537 28.34c8.139 2.59 8.879 14.059 2.775 19.978-2.59 2.59-6.844 4.44-6.474 9.249 0 .925-3.7 1.11-8.694.74-.37 0-1.48.74-1.48-.925 0-3.33.185-6.29 2.775-8.694 1.849-1.665 3.514-3.7 5.549-5.364 1.85-1.48 2.405-3.145 1.665-5.365-.555-1.85-2.035-2.034-3.7-2.22-2.589-.184-5.179 1.11-5.364 3.145-.37 2.96-1.85 2.405-3.7 2.22-1.479 0-3.144-.185-4.624-.185-2.59.185-2.775-1.11-2.405-3.33 1.48-9.988 14.983-14.797 23.677-9.248Zm-3.699 41.805c-2.035 3.7-4.81 4.44-8.509 2.405-2.775-1.665-3.885-5.364-2.22-8.51 1.48-2.774 5.364-3.884 8.509-2.219 3.515 1.85 4.254 4.81 2.22 8.324Z" fill="#767676"/>
  <path d="m70.206 117.684 11.839 20.162-19.423 13.318s44.024 7.584 62.892 7.029c19.237-.555 65.851-7.584 65.851-7.584l-21.457-14.613 18.127-16.463 44.949 25.342s8.879 7.769 6.659 13.873c-3.329 8.879-14.243 11.099-14.243 11.099l-55.307 17.017s-3.885 1.295-3.885 2.59c.37 9.619-.37 54.383-.37 54.383l1.85 50.868s-30.336 2.405-39.77 1.85c-9.433-.555-39.4.185-39.4.185L86.67 187.419l-62.706-18.682s-5.365-3.7-6.475-6.659c-1.11-3.145-2.034-11.099-1.11-13.133.925-2.035 9.99-7.399 9.99-7.399l43.838-23.862Z" fill="#2f9e37"/>
  <path d="M136.797 272.878c-2.959-2.035-4.439-3.7-6.474-4.44-8.879-2.959-10.358-9.433-9.988-17.942.554-20.162.369-40.51.184-60.672 0-3.884 1.11-4.809 4.81-4.809 11.468.185 11.468 0 11.468 11.468v76.395Zm-8.879-93.228c-8.508 0-8.508 0-8.508-8.508 0-1.295.185-2.59 0-3.7-.555-3.514 1.109-4.624 4.254-4.069h1.665c11.468 0 11.283 0 11.653 10.913.185 4.625-1.295 6.289-5.734 5.549-1.11-.185-2.22-.185-3.33-.185Z" fill="#ffffff"/>
</svg>
