<svg xmlns="http://www.w3.org/2000/svg" viewBox="0 0 311 276">
  <path d="M225.271 192h-90.294L132 119.794l14.636-30.044h66.852L228 119.794 225.271 192Z" fill="#B4B4B4" />
  <path d="M208.031 144.893h-55.814s-3.721-.495-3.721-25.099c0-16.568 5.581-18.669 5.581-18.669h52.342s5.581 2.72 5.581 18.669c-.248 24.975-3.969 25.099-3.969 25.099Z" fill="#fff" />
  <path d="M201.954 140.071c0 .866-.497 1.608-1.117 1.608h-40.062c-.62 0-1.116-.619-1.116-1.608 0-.865.496-1.607 1.116-1.607h40.186c.496 0 .993.742.993 1.607ZM188.93 81.837c0 .865-.868 1.854-1.86 1.854h-12.527c-1.117 0-1.861-.742-1.861-1.854 0-.866.868-1.855 1.861-1.855h12.651c.992 0 1.736.99 1.736 1.855ZM188.93 68.855c0 1.112-.868 1.854-1.86 1.854h-12.527c-1.117 0-1.861-.742-1.861-1.854 0-.866.868-1.855 1.861-1.855h12.651c.992 0 1.736.99 1.736 1.855Z" fill="#000" />
  <path d="M184.093 93.953c0 1.731-1.488 2.473-3.225 2.473-1.736 0-3.225-.618-3.225-2.473V70.338c0-1.73 1.489-3.214 3.225-3.214 1.737 0 3.225 1.483 3.225 3.214v23.615Z" fill="#000" />
  <path d="M64.478 63.934c3.66 6.918 3.242 24.425-1.516 25.682-1.726.472-5.23-.524-8.89-2.568l2.3 16.458H42.516l4.55-21.752c-3.714-3.721-6.433-8.543-6.014-14.047.94-13.68 19.766-10.692 23.427-3.773Z" fill="#EAB98B" />
  <path d="M42.096 56.491a5.288 5.288 0 0 0-5.281 5.294 5.288 5.288 0 0 0 5.281 5.294 5.288 5.288 0 0 0 5.282-5.294 5.288 5.288 0 0 0-5.282-5.294Z" fill="#B4B4B4" />
  <path d="M67.308 72.11c0-2.113-1.71-3.83-3.824-3.83a3.827 3.827 0 0 0-3.823 3.83c0 2.114 1.71 3.83 3.823 3.83a3.827 3.827 0 0 0 3.824-3.83Zm-3.824-1.83c1.006 0 1.824.817 1.824 1.83 0 1.013-.818 1.83-1.824 1.83a1.827 1.827 0 0 1-1.823-1.83c0-1.013.818-1.83 1.823-1.83Z" fill="#979797" />
  <path d="m60.312 71.11-5.962-.104-.035 2 5.962.104.035-2Z" fill="#979797" />
  <path d="M54.333 72.005a3.985 3.985 0 0 0-1.412-.262c-2.144 0-3.713.21-4.602 2.097-.836 1.73.68 3.197 1.412 3.879-.889 1.257-2.405 5.398-3.556 6.76-6.746-3.196-8.733-13.627-4.497-20.86 1.15-3.564 4.759-4.822 7.844-5.66 2.51-1.049 6.432-1.835 8.629-1.206 4.34.367 8.21 2.988 9.308 3.774 0 4.088-.785 5.294-7.583 5.189-2.196 1.1-3.713 3.354-5.543 6.29Z" fill="#B4B4B4" />
  <path d="m35.246 144.808 19.349 67.876 14.119 50.055h10.302c-.628-23.376-1.726-41.669-3.452-54.824-1.673-13.156-5.543-34.174-11.609-63.107H35.246Z" fill="#EC0000" />
  <path d="M30.069 144.808c-.47 35.013 5.49 54.091 5.02 57.236-.47 3.197 3.818 19.446-3.922 59.595h10.668c11.923-40.149 15.27-50.842 15.27-55.245 0-4.35-2.51-28.146 6.955-61.638H30.069v.052Z" fill="#EC0000" />
  <path d="m30.958 272.342.523-11.217h11.19c5.335 3.722 12.237 6.762 20.814 9.068v2.149h-20.29l-6.955-1.048v1.048h-5.282ZM67.274 272.342l.523-11.217H79.04c5.334 3.774 12.237 6.762 20.813 9.068v2.149h-20.29l-6.955-1.048v1.048h-5.334Z" fill="#000" />
  <path d="m78.911 131.076 17.257 12.265c4.654 1.153 8.524 2.673 11.661 4.455.733.681 1.674 1.991-1.412 1.834-3.033-.157-6.222-.209-6.64.839-.42 1.048 1.463 2.254.627 3.669-.523.943-3.242-1.363-8.106-6.919l-16.995-6.709 3.608-9.434ZM9.256 147.901c12.655 16.772 19.4 26.259 20.238 28.46.627 1.625.209 9.016-.523 13.733-.262 1.887 1.15 2.358 1.83 2.201 5.49-1.52 5.072-6.29 6.537-10.692 1.568-4.822 5.7-.42 7.007-4.193-2.615-.891-7.792-2.149-9.204-5.189-.627-1.363-6.693-12.16-18.302-32.497l-7.583 8.177Z" fill="#D08C4C" />
  <path d="M26.304 154.033c21.022 4.979 35.246 4.979 42.724 0 0-7.39-5.178-27.517-9.1-45.81-1.202-5.608-1.202-10.168-5.177-13.522-1.725.524-3.033.733-3.87.576-1.882-.262-4.706-1.1-8.523-2.463-9.779 15.829-14.172 35.222-16.054 61.219Z" fill="#000" />
  <path d="M36.449 96.011S3.504 135.95 5.595 142.607c2.092 6.656 2.772 6.552 7.74 14.466 3.713 5.923 5.804 17.716 10.825 19.708 5.02 1.991 10.824-9.173 10.824-11.06 0-1.887-13.857-19.34-16.002-22.642-2.091-3.303 8.524-10.955 11.453-16.354 1.935-3.616 3.922-7.337 5.961-11.216 3.504-9.749 5.439-17.297 5.857-22.59-1.62-1.416-5.804 3.092-5.804 3.092ZM55.065 96.588c-.627-2.83-.575-1.625 2.876-1.153 3.452.471 9.36 24.844 11.557 29.508 2.197 4.665 24.63 8.544 24.683 11.479.052 2.935-2.406 12.108-3.87 12.108-1.412 0-29.18-11.951-30.905-18.293-5.857-21.28-4.027-32.182-4.34-33.65Z" fill="#000" />
  <path d="m134.009 239.976 22.117 22.804-2.154 2.089-22.117-22.805 2.154-2.088Z" fill="#B4B4B4" />
  <path d="m156.126 242.113-23.107 22.756-2.105-2.137 23.107-22.756 2.105 2.137Z" fill="#B4B4B4" />
  <path d="m144.474 236.461 1.037 32.403-2.998.096-1.037-32.403 2.998-.096Z" fill="#B4B4B4" />
  <path d="m127.819 250.246 32.126 1.04-.097 2.999-32.126-1.041.097-2.998Z" fill="#B4B4B4" />
  <path d="M143.964 242.004c-5.943 0-10.753 4.81-10.753 10.733 0 5.923 4.81 10.732 10.753 10.732 5.943 0 10.753-4.809 10.753-10.732 0-5.923-4.81-10.733-10.753-10.733Zm-16.753 10.733c0-9.246 7.505-16.733 16.753-16.733 9.248 0 16.753 7.487 16.753 16.733 0 9.245-7.505 16.732-16.753 16.732-9.248 0-16.753-7.487-16.753-16.732Z" fill="#000" />
  <path d="m79.54 242.902 19.865 20.555-2.157 2.085-19.865-20.555 2.157-2.085Z" fill="#B4B4B4" />
  <path d="m99.719 245.042-20.861 20.5-2.103-2.14 20.861-20.5 2.103 2.14Z" fill="#B4B4B4" />
  <path d="m89.055 239.749 1.049 29.153-2.998.107-1.05-29.152 2.999-.108Z" fill="#B4B4B4" />
  <path d="m73.977 251.912 29.197.993-.102 2.998-29.197-.993.102-2.998Z" fill="#B4B4B4" />
  <path d="M88.55 245.298c-5.02 0-9.08 4.06-9.08 9.055s4.06 9.055 9.08 9.055c5.021 0 9.08-4.06 9.08-9.055s-4.059-9.055-9.08-9.055Zm-15.08 9.055c0-8.32 6.758-15.055 15.08-15.055 8.323 0 15.081 6.735 15.081 15.055 0 8.321-6.758 15.055-15.08 15.055-8.323 0-15.08-6.734-15.08-15.055Z" fill="#000" />
  <path d="M128.328 180.554c-.209 21.438.262 32.811 1.412 34.069 1.726 1.887 13.126 6.133 23.48 15.096v7.966c-4.549 9.645-7.216 14.938-7.948 15.882-1.151 1.415-4.759 0-3.556-2.202.784-1.467 3.451-6.761 8.001-15.933v-4.089c-9.413-6.446-18.512-11.269-22.382-11.269-2.563 0-6.223 2.936-10.877 8.858-10.773 11.793-16.159 17.664-16.159 17.664s-4.968 5.241-8.942 9.172c-1.046 1.101-4.079 1.52-5.596-.314-1.516-1.835-1.307-3.46.262-5.346a310.898 310.898 0 0 1 9.099-9.33l23.009-26.155c2.563-3.616 3.87-6.184 3.87-7.704V186.32h-2.772v-4.665l9.099-1.101Z" fill="#00387A" />
  <path d="M143.807 252.728c.636 0 1.151-.516 1.151-1.153a1.152 1.152 0 1 0-2.301 0c0 .637.515 1.153 1.15 1.153ZM88.062 254.353c.636 0 1.15-.516 1.15-1.153a1.152 1.152 0 1 0-2.3 0c0 .637.515 1.153 1.15 1.153Z" fill="#000" />
  <path d="M127.492 165.04v15.305l-5.962.838V165.04h5.962Z" fill="#B4B4B4" />
  <path d="M119.125 149.525c-.471 0-.994.472-1.517 1.363l-12.864.262c-1.098.105-1.673.786-1.673 2.044s.418 2.097 1.307 2.464h14.015c1.621-.053 2.405.681 2.405 2.254v7.39h6.955c.209-3.774-.366-6.919-1.726-9.277-.836-1.415-2.719-2.988-4.235-4.508-.628-.629-.419-1.205-1.151-1.677-.523-.315-.784-.315-1.516-.315ZM131.205 190.303H99.41c-.993 0-1.778.786-1.778 1.782s.784 1.782 1.778 1.782h31.795c.993 0 1.778-.786 1.778-1.782s-.785-1.782-1.778-1.782Z" fill="#000" />
  <path d="m120.832 245.025 23.214 23.959-2.155 2.087-23.214-23.958 2.155-2.088Z" fill="#B4B4B4" />
  <path d="m144.046 247.161-24.256 23.911-2.106-2.137 24.256-23.91 2.106 2.136Z" fill="#B4B4B4" />
  <path d="m131.819 241.301 1.09 34.027-2.999.096-1.089-34.027 2.998-.096Z" fill="#B4B4B4" />
  <path d="m114.38 255.819 33.747 1.093-.097 2.998-33.747-1.092.097-2.999Z" fill="#B4B4B4" />
  <path d="M131.362 246.792c-6.405 0-11.59 5.184-11.59 11.571s5.185 11.571 11.59 11.571c6.404 0 11.59-5.184 11.59-11.571s-5.186-11.571-11.59-11.571Zm-17.59 11.571c0-9.708 7.879-17.571 17.59-17.571s17.59 7.863 17.59 17.571c0 9.708-7.879 17.571-17.59 17.571s-17.59-7.863-17.59-17.571Z" fill="#000" />
  <path d="m63.3 248.008 20.964 21.653-2.155 2.087-20.965-21.653 2.156-2.087Z" fill="#B4B4B4" />
  <path d="m84.63 250.149-22.012 21.599-2.101-2.141 22.012-21.599 2.102 2.141Z" fill="#B4B4B4" />
  <path d="m73.34 244.593 1.1 30.777-2.998.107-1.1-30.777 2.997-.107Z" fill="#B4B4B4" />
  <path d="m57.532 257.487 30.818 1.103-.107 2.998-30.818-1.103.107-2.998Z" fill="#B4B4B4" />
  <path d="M72.888 250.141c-5.482 0-9.917 4.435-9.917 9.894 0 5.459 4.435 9.894 9.917 9.894 5.481 0 9.916-4.435 9.916-9.894 0-5.459-4.435-9.894-9.916-9.894Zm-15.917 9.894c0-8.783 7.131-15.894 15.917-15.894 8.785 0 15.916 7.111 15.916 15.894 0 8.783-7.131 15.894-15.916 15.894-8.786 0-15.917-7.111-15.917-15.894Z" fill="#000" />
  <path d="M131.048 258.546c.635 0 1.15-.516 1.15-1.153a1.151 1.151 0 1 0-2.301 0c0 .637.515 1.153 1.151 1.153ZM72.218 260.171c.635 0 1.15-.516 1.15-1.153a1.152 1.152 0 1 0-2.3 0c0 .637.514 1.153 1.15 1.153Z" fill="#000" />
  <path d="M114.211 139.229c-2.274 0-8.464 1.33-10.801 3.609-2.273 2.279-6.316 15.446-6.505 23.486-.19 7.343-7.769 22.409-6.821 24.372.126.127 12.316-.127 12.316-.127.316 0 21.853.633 22.548 0 0 0 13.958-1.456 14.084-1.582.948-1.773-9.916-12.155-8.905-13.674 1.137-1.583-2.084-25.195-3.727-27.727-1.642-2.469-2.147-8.357-12.189-8.357Z" fill="#767676" />
  <path d="M114.211 139.926c1.452-.127 2.779-3.039 3.915-8.926l-4.737 1.773-4.358-1.267c1.958 5.761 3.727 8.547 5.18 8.42Z" fill="#767676" />
  <path d="M114.68 182.127c-.209 22.642.261 34.593 1.516 35.956 1.831 1.991 13.806 6.499 24.683 15.933v8.387c-4.811 10.168-7.583 15.776-8.367 16.772-1.203 1.52-4.968 0-3.765-2.359.836-1.572 3.608-7.18 8.419-16.772v-4.35c-9.936-6.814-19.506-11.898-23.584-11.898-2.72 0-6.537 3.092-11.453 9.329-11.347 12.422-16.995 18.66-16.995 18.66s-5.23 5.503-9.413 9.696c-1.098 1.153-4.288 1.573-5.91-.314-1.62-1.887-1.411-3.617.315-5.609 3.242-3.459 6.432-6.761 9.57-9.853l24.211-27.622c2.72-3.827 4.079-6.5 4.079-8.177v-21.752h-2.928v-4.874l9.622-1.153Z" fill="#004699" />
  <path d="M113.895 165.931v16.196l-6.275.891v-17.087h6.275Z" fill="#B4B4B4" />
  <path d="M105.215 149.525c-.523 0-1.046.472-1.621 1.468l-13.597.262c-1.15.105-1.725.839-1.725 2.149s.47 2.201 1.411 2.621h14.747c1.726-.053 2.563.733 2.563 2.358v7.758h7.321c.209-3.984-.419-7.234-1.831-9.749-.836-1.52-2.876-3.145-4.445-4.77-.627-.681-.47-1.258-1.255-1.782-.575-.315-.784-.315-1.568-.315ZM285.241 88.518l-18.124 63.465-13.17 46.693h-9.666c.604-21.839 1.691-38.972 3.141-51.278 1.45-12.307 5.196-31.974 10.875-58.88h26.944Z" fill="#000" />
  <path d="M290.075 88.518c.483 32.698-5.075 50.555-4.713 53.571.484 3.016-3.624 18.219 3.625 55.622h-10.029c-10.995-37.524-14.136-47.538-14.136-51.641 0-4.102 2.416-26.302-6.525-57.552h31.778Z" fill="#000" />
  <path d="m289.194 207.683-.483-10.496h-10.512c-4.954 3.499-11.479 6.274-19.453 8.445v2.051h19.09l6.525-.965v.965h4.833ZM255.274 207.683l-.484-10.496h-10.512c-4.954 3.499-11.478 6.274-19.453 8.445v2.051h19.091l6.525-.965v.965h4.833Z" fill="#EC0000" />
  <path d="M221.675 107.511c-2.658.362-9.545 3.017-11.841 5.912-2.296 3.017-4.712 18.823-3.746 27.992.846 8.567-5.316 27.027-3.866 29.199.121.12 14.137-2.172 14.258-2.172.362 0 25.374-2.775 26.099-3.62 0 0 15.949-3.981 16.07-4.102.725-2.172-13.533-12.427-12.566-14.358.966-2.051-6.525-28.716-8.7-31.249-2.537-2.413-4.108-9.17-15.708-7.602Z" fill="#767676" />
  <path d="M256.439 10.568c-3.866 7.119-3.383 25.338 1.571 26.665 1.933.483 6.162-.724 10.391-3.378l-2.658 19.063h15.829l-5.438-25.579c3.021-3.62 5.075-7.963 4.713-12.91-.846-14.116-20.541-10.98-24.408-3.86Z" fill="#D08C4C" />
  <path d="M264.41 2.542c-4.47.362-8.458 3.017-9.545 3.861 0 4.223.846 5.43 7.854 5.309 1.691.845 3.021 2.413 4.35 4.464-.605 8.567-2.175 12.79-4.834 12.79-3.866 0-7.128-2.534-8.82-2.534-1.208 0-.967 1.568-.121 2.775.725.965 5.196-.241 5.196 2.172 0 2.413-3.746 1.568-3.746 2.413 0 1.448-.483 4.223 2.054 4.223 2.538 0 9.787-.965 10.996-4.827.845-2.413 1.329-7.6 1.57-15.202h.605c2.174 0 3.866.241 4.833 2.172.845 1.81-.725 3.258-1.45 3.981.966 1.328 2.416 5.55 3.625 6.998 7.008-3.257 8.941-14.116 4.591-21.597-1.208-3.62-4.833-4.947-8.095-5.912-2.78-.965-6.767-1.81-9.063-1.086Z" fill="#000" />
  <path d="M284.226 16.659c-4.712 0-20.54-11.945-21.507-14.479-.967-2.534 11.841-3.257 16.191 0 4.35 3.258 10.029 14.479 5.316 14.479Z" fill="#EC0000" />
  <path d="m241.37 83.112-14.741 16.41c-3.02 2.413-3.625 2.654-6.404 4.705-.604.483-2.416 3.137-2.416 3.74-.121 3.017.604 3.499 1.329 2.775.604-.603.846-2.654 1.208-3.137.846-1.206 2.054-1.447 2.417-.724.604 1.086-3.021 2.052-1.934 3.379.725.844 4.713-1.207 8.942-7.843l16.795-9.893-5.196-9.412ZM309.155 99.16c-6.887 13.03-10.512 20.632-10.754 22.804-.241 1.568 1.692 8.204 3.383 12.306.605 1.689-.604 2.413-1.208 2.413-5.316-.241-5.92-4.585-8.216-8.325-2.417-4.102-5.317.845-7.25-2.292 2.175-1.327 6.646-3.62 7.25-6.636.242-1.327 3.021-10.015 8.095-26.062l8.7 5.792Z" fill="#D08C4C" />
  <path d="m272.423 38.833-4.35-.724c-7.37 18.58-20.42 35.351-38.906 50.554l14.016 17.012c18.486-21.597 29.965-43.918 29.24-66.842Z" fill="#004699" />
  <path d="M293.206 93.007h-38.424c8.941-21.598 13.291-39.937 13.291-55.14 1.571.483 2.779.724 3.625.483 1.813-.241 4.471-.965 7.975-2.292 9.183 14.84 11.72 32.818 13.533 56.949Z" fill="#FFE600" />
  <path d="M279.31 36.178c-.845 0-2.295.12-4.108.12l-2.779 7.964c-.241 9.773-2.054 29.44-5.195 58.879h25.132c-.121 2.052-.121 4.103-.363 6.154h18.729c-2.779-31.612-13.05-55.984-30.691-73.237h-.725v.12Z" fill="#004699" />
  <path d="M285.231 103.503h7.008c.363-9.17-.242-17.856-1.692-26.302-.604 12.668-2.416 21.476-5.316 26.302Z" fill="#000" fill-opacity=".1" />
  <path d="m286.681 88.06-12.445-5.792v5.791h12.445Z" fill="#fff" fill-opacity=".2" />
  <path d="M221.796 108.356c1.692-.362 2.779-3.982 3.021-10.98l-5.196 2.776-5.196-.724c3.263 6.274 5.679 9.29 7.371 8.928Z" fill="#767676" />
</svg>