<svg viewBox="0 0 355 135" fill="none" fill-rule="evenodd" clip-rule="evenodd" xmlns="http://www.w3.org/2000/svg">
  <path d="M28.4418 86.3485C28.3809 86.2561 28.3295 86.1556 28.2887 86.0467C27.4445 83.7933 13.9228 59.4835 12.5757 55.0391H27.7993C28.8235 58.4183 33.4334 79.6244 34.0822 83.8553C36.1291 90.5291 40.3436 112.143 40.8816 113.641C41.4476 115.216 38.263 116.857 37.4144 114.92C36.0641 111.839 32.8467 103.313 31.4142 98.1071C30.9841 96.5443 29.6834 94.7332 29.3146 93.3172C28.5318 90.3113 28.806 88.0394 28.4418 86.3485Z" fill="#7E4815"/>
  <path d="M16.4575 82.3032C16.4685 82.2037 16.4907 82.1042 16.5251 82.0051C17.236 79.9546 21.8555 55.2507 23.4772 51.3923L33.9934 60.2991C32.7604 63.2327 23.767 80.5786 21.7855 83.8808C19.3671 89.6886 9.86625 107.085 9.37803 108.434C8.86443 109.853 5.72222 109.124 6.24807 107.29C7.08477 104.371 8.60423 98.5907 10.6042 94.1564C11.332 92.5426 12.1343 89.2399 12.7943 87.8398C13.8344 85.6331 15.8101 83.5462 16.4575 82.3032Z" fill="#7E4815"/>
  <path d="M11.748 103.772C10.5775 105.809 11.2708 111.767 12.5938 114.275C13.9168 116.782 8.25952 113.912 8.25952 111.563C8.25952 109.214 12.9185 101.735 11.748 103.772ZM39.179 106.054C39.0929 108.407 42.4765 113.339 44.8109 114.926C47.1453 116.513 40.8151 116.66 39.7227 114.586C38.6303 112.512 39.2651 103.7 39.179 106.054Z" fill="#7E4815"/>
  <path d="M7.46558 102.92C7.23181 102.773 5.48423 103.236 4.66614 104.044C3.84805 104.852 3.77125 105.217 3.70691 105.593C3.64256 105.969 3.57093 107.825 3.14645 108.51C2.86347 108.967 2.3538 109.869 1.61744 111.216L2.12896 111.539C3.24369 109.739 3.86914 108.729 4.00533 108.509C4.20961 108.179 4.74789 107.782 5.21319 108.075C5.6785 108.369 6.65432 109.765 6.73064 110.909C6.80697 112.052 7.00084 113.552 7.24732 114.147C7.4938 114.741 7.9498 115.455 9.52501 116.316C11.1002 117.176 15.556 118.667 15.556 118.667C15.556 118.667 16.0885 118.162 15.5367 117.585C14.9849 117.007 12.9214 115.063 12.8624 114.775C12.8034 114.488 12.0567 114.775 10.5997 113.633C9.75119 112.968 9.18527 109.267 8.57496 106.419C8.13733 104.377 7.69934 103.068 7.46558 102.92Z" fill="#000"/>
  <path d="M34.4256 108.278C34.1502 108.278 32.9129 109.608 32.6435 110.732C32.3741 111.857 32.5008 112.209 32.6435 112.563C32.7862 112.917 33.6989 114.532 33.6989 115.341C33.6989 115.881 33.7403 116.921 33.823 118.46H34.4256C34.4256 116.333 34.4256 115.14 34.4256 114.88C34.4256 114.49 34.6736 113.864 35.2217 113.864C35.7698 113.864 37.3288 114.528 37.9934 115.459C38.658 116.389 39.6093 117.56 40.1298 117.933C40.6502 118.306 41.4115 118.669 43.1972 118.555C44.983 118.442 49.5404 117.322 49.5404 117.322C49.5404 117.322 49.7267 116.608 48.9562 116.413C48.1857 116.218 45.4176 115.671 45.2167 115.459C45.0159 115.246 44.5339 115.89 42.7007 115.701C41.633 115.59 39.2121 112.749 37.201 110.656C35.7589 109.155 34.701 108.278 34.4256 108.278Z" fill="#000"/>
  <path d="M14.1282 50.1758H33.4199C38.0872 66.4987 39.6975 75.9473 38.2508 78.5217C27.3636 76.537 11.6606 81.2209 9.39319 77.5131C7.48634 73.8715 9.06467 64.7591 14.1282 50.1758Z" fill="#EC0000"/>
  <path d="M22.8803 19.3529C26.1068 19.3529 27.2803 15.4721 29.1134 13.3423C30.4249 11.8186 32.6633 12.2729 33.3258 10.1397C34.9919 4.77546 30.5327 1 24.7153 1C18.898 1 14.9756 4.31119 14.1287 9.28879C13.2817 14.2664 17.063 19.3529 22.8803 19.3529Z" fill="#000"/>
  <path d="M31.6725 8.69614C33.3084 11.7597 33.9353 19.3197 30.9997 20.0782C29.874 20.369 28.1088 19.9014 26.3839 18.872L27.6796 26.8106H20.9042L23.1872 16.1201C21.8998 14.5289 21.0496 12.5567 21.2025 10.3672C21.6264 4.29731 30.0365 5.6326 31.6725 8.69614Z" fill="#7E4815"/>
  <path d="M32.0789 8.71333C30.7831 8.95772 28.1734 10.2006 26.0928 11.9834C25.8468 11.8524 25.5647 11.7781 25.2649 11.7781C24.3049 11.7781 23.5268 12.54 23.5268 13.4799C23.5268 13.8635 23.6564 14.2175 23.8751 14.5021C23.4633 15.184 23.1822 15.9006 23.0901 16.6372C21.6627 16.6372 16.4531 11.2108 21.6428 6.10547C26.8326 1.0001 34.3325 8.28829 32.0789 8.71333Z" fill="#000"/>
  <path d="M37.0332 43.6447L45.2767 50.8108C47.7294 51.4345 49.7832 52.228 51.4382 53.1915C51.8312 53.5415 52.3113 54.2559 50.7046 54.1594C49.0979 54.0628 47.4036 54.0344 47.1918 54.5923C46.98 55.1502 47.9624 55.7955 47.5277 56.5509C47.2379 57.0545 45.8068 55.8299 43.2344 52.8771C38.0302 49.9436 34.9608 47.971 34.0259 46.9594C33.0911 45.9478 31.7611 41.0104 30.0359 32.1472L35.1548 29.3614L37.0332 43.6447Z" fill="#7E4815"/>
  <path d="M26.619 22.791C31.2591 23.2995 33.8309 24.0159 34.3342 24.9402C35.0893 26.3267 35.6592 26.9616 35.6592 29.3613C35.6592 31.761 31.539 32.1471 30.0359 32.1471C29.0339 32.1471 27.8949 29.0284 26.619 22.791Z" fill="#EC0000"/>
  <path d="M24.1486 29.0757C26.7983 29.0757 28.9462 27.4131 28.9462 25.3621C28.9462 23.3111 26.7983 21.6484 24.1486 21.6484C21.499 21.6484 19.3511 23.3111 19.3511 25.3621C19.3511 27.4131 21.499 29.0757 24.1486 29.0757Z" fill="#7E4815"/>
  <path d="M13.6154 55.547C23.2718 58.2565 30.0754 58.2884 34.026 55.6426C34.026 51.7034 32.6896 39.8568 30.6161 30.1096C29.9829 27.1329 29.9829 24.6934 27.8855 22.9227C26.7179 26.253 25.9043 27.8836 25.4445 27.8142C24.4476 27.6639 23.0763 25.7038 21.3306 21.9341C16.179 30.3208 14.6327 41.6935 13.6154 55.547Z" fill="#EC0000"/>
  <path d="M23.2376 60.3745C23.8582 60.9652 25.2631 64.3505 25.9659 66.6154C26.248 67.5245 26.9935 67.4151 27.2522 67.1848C29.357 65.3115 28.1519 63.2763 27.837 60.9937C27.492 58.4928 30.2775 59.5571 30.0345 57.5841C28.6936 57.7518 26.1216 58.3184 24.8577 57.2834C24.3405 56.8597 13.6824 49.8439 13.5537 47.3577C13.4679 45.7002 14.8194 39.9407 17.6081 30.0791L12.5215 27.4205C9.75426 39.2024 8.43075 46.2541 8.55095 48.5756C8.73124 52.058 21.9682 59.1662 23.2376 60.3745Z" fill="#7E4815"/>
  <path d="M21.3305 21.9341C16.6904 22.4426 14.1187 23.1589 13.6153 24.0833C12.8602 25.4698 10.7847 27.1506 11.5972 29.0757C12.4096 31.0008 15.2077 31.418 16.7108 31.418C17.7129 31.418 19.2528 28.2567 21.3305 21.9341Z" fill="#EC0000"/>
  <path d="M77.6372 37.6185C76.4477 39.8669 75.994 45.4153 78.1252 45.9706C78.9419 46.1844 80.2245 45.8404 81.4778 45.086L80.536 50.9121H85.4581L83.8003 43.0662C84.7346 41.899 85.3527 40.4517 85.2423 38.8447C84.9333 34.3898 78.8242 35.3702 77.6347 37.6185H77.6372Z" fill="#7E4815"/>
  <path d="M81.5636 35.0925C79.1871 35.0925 78.4391 36.213 77.799 37.1664C78.2748 38.8226 80.1142 39.0732 81.7549 40.0979C81.9584 39.9455 82.2111 39.8546 82.4857 39.8546C83.1651 39.8546 83.7169 40.4148 83.7169 41.1029C83.7169 41.3609 83.6384 41.6017 83.506 41.8032C83.8518 42.3511 84.1363 43.0293 84.3202 43.8795C84.5679 44.0736 84.8794 44.0736 85.2546 43.8795L85.4827 38.3041C84.4526 36.1639 83.1455 35.095 81.5611 35.095L81.5636 35.0925Z" fill="#000"/>
  <path d="M85.5637 41.5452C84.6006 41.5452 83.8199 40.7531 83.8199 39.776C83.8199 38.7989 84.6006 38.0068 85.5637 38.0068C86.5267 38.0068 87.3074 38.7989 87.3074 39.776C87.3074 40.7531 86.5267 41.5452 85.5637 41.5452Z" fill="#000"/>
  <path d="M84.742 38.4222C83.779 38.4222 82.9983 37.6301 82.9983 36.653C82.9983 35.6759 83.779 34.8838 84.742 34.8838C85.705 34.8838 86.4857 35.6759 86.4857 36.653C86.4857 37.6301 85.705 38.4222 84.742 38.4222Z" fill="#000"/>
  <path d="M85.5637 47.3736C84.6006 47.3736 83.8199 46.5815 83.8199 45.6044C83.8199 44.6273 84.6006 43.8352 85.5637 43.8352C86.5267 43.8352 87.3074 44.6273 87.3074 45.6044C87.3074 46.5815 86.5267 47.3736 85.5637 47.3736Z" fill="#000"/>
  <path d="M84.1265 45.0836C83.1635 45.0836 82.3828 44.2915 82.3828 43.3144C82.3828 42.3373 83.1635 41.5452 84.1265 41.5452C85.0896 41.5452 85.8702 42.3373 85.8702 43.3144C85.8702 44.2915 85.0896 45.0836 84.1265 45.0836Z" fill="#000"/>
  <path d="M86.9984 45.2923C86.0353 45.2923 85.2546 44.5002 85.2546 43.5231C85.2546 42.546 86.0353 41.7539 86.9984 41.7539C87.9614 41.7539 88.7421 42.546 88.7421 43.5231C88.7421 44.5002 87.9614 45.2923 86.9984 45.2923Z" fill="#000"/>
  <path d="M85.5637 43.211C84.6006 43.211 83.8199 42.4189 83.8199 41.4418C83.8199 40.4647 84.6006 39.6726 85.5637 39.6726C86.5267 39.6726 87.3074 40.4647 87.3074 41.4418C87.3074 42.4189 86.5267 43.211 85.5637 43.211Z" fill="#000"/>
  <path d="M88.0259 43.0023C87.0629 43.0023 86.2822 42.2102 86.2822 41.2331C86.2822 40.256 87.0629 39.4639 88.0259 39.4639C88.989 39.4639 89.7697 40.256 89.7697 41.2331C89.7697 42.2102 88.989 43.0023 88.0259 43.0023Z" fill="#000"/>
  <path d="M87.2043 40.2969C86.2413 40.2969 85.4606 39.5048 85.4606 38.5277C85.4606 37.5506 86.2413 36.7585 87.2043 36.7585C88.1673 36.7585 88.948 37.5506 88.948 38.5277C88.948 39.5048 88.1673 40.2969 87.2043 40.2969Z" fill="#000"/>
  <path d="M87.2043 37.1739C86.2413 37.1739 85.4606 36.3818 85.4606 35.4047C85.4606 34.4276 86.2413 33.6355 87.2043 33.6355C88.1673 33.6355 88.948 34.4276 88.948 35.4047C88.948 36.3818 88.1673 37.1739 87.2043 37.1739Z" fill="#000"/>
  <path d="M83.3073 36.7586C82.3443 36.7586 81.5636 35.9665 81.5636 34.9894C81.5636 34.0123 82.3443 33.2202 83.3073 33.2202C84.2703 33.2202 85.051 34.0123 85.051 34.9894C85.051 35.9665 84.2703 36.7586 83.3073 36.7586Z" fill="#000"/>
  <path d="M80.2296 36.7586C79.2665 36.7586 78.4858 35.9665 78.4858 34.9894C78.4858 34.0123 79.2665 33.2202 80.2296 33.2202C81.1926 33.2202 81.9733 34.0123 81.9733 34.9894C81.9733 35.9665 81.1926 36.7586 80.2296 36.7586Z" fill="#000"/>
  <path d="M88.845 39.6729C87.882 39.6729 87.1013 38.8808 87.1013 37.9037C87.1013 36.9266 87.882 36.1345 88.845 36.1345C89.8081 36.1345 90.5887 36.9266 90.5887 37.9037C90.5887 38.8808 89.8081 39.6729 88.845 39.6729Z" fill="#000"/>
  <path d="M84.742 35.7169C83.779 35.7169 82.9983 34.9248 82.9983 33.9477C82.9983 32.9706 83.779 32.1785 84.742 32.1785C85.705 32.1785 86.4857 32.9706 86.4857 33.9477C86.4857 34.9248 85.705 35.7169 84.742 35.7169Z" fill="#000"/>
  <path d="M82.0762 35.0926C81.1132 35.0926 80.3325 34.3005 80.3325 33.3234C80.3325 32.3463 81.1132 31.5542 82.0762 31.5542C83.0393 31.5542 83.8199 32.3463 83.8199 33.3234C83.8199 34.3005 83.0393 35.0926 82.0762 35.0926Z" fill="#000"/>
  <path d="M93.7991 88.8735C88.7911 90.2791 84.4698 90.9818 80.8353 90.9818C77.2007 90.9818 73.8261 89.9007 70.709 87.7358C75.6115 86.2935 79.6483 85.571 82.8193 85.571C85.9904 85.571 89.6519 86.6719 93.7991 88.8735Z" fill="#193E69"/>
  <path d="M76.4993 93.0067C76.5484 92.9329 76.5876 92.8543 76.622 92.7683C77.2915 90.9917 88.0162 71.828 89.083 68.324H77.0094C76.1977 70.9876 72.541 87.7065 72.026 91.0409C70.4025 96.3018 67.0597 113.343 66.633 114.522C66.1842 115.763 68.7102 117.058 69.3822 115.532C70.454 113.102 73.0045 106.381 74.14 102.278C75.2044 98.4297 76.0726 94.97 76.4969 93.0091L76.4993 93.0067Z" fill="#AE8767"/>
  <path d="M76.4993 93.0067C76.5484 92.9329 76.5876 92.8543 76.622 92.7683C77.2915 90.9917 88.0162 71.828 89.083 68.324H77.0094C76.1977 70.9876 72.541 87.7065 72.026 91.0409C70.4025 96.3018 67.0597 113.343 66.633 114.522C66.1842 115.763 68.7102 117.058 69.3822 115.532C70.454 113.102 73.0045 106.381 74.14 102.278C75.2044 98.4297 76.0726 94.97 76.4969 93.0091L76.4993 93.0067Z" fill="#7E4815"/>
  <path d="M86.378 95.3459C91.2805 96.5893 109.216 98.8376 110.444 99.189C111.71 99.5527 112.821 96.9333 111.256 96.3657C108.767 95.4639 101.905 93.3777 97.7453 92.5275C94.4001 91.842 91.3467 91.2842 89.2965 90.9574C89.4706 85.1805 90.2627 71.3169 89.7428 68.3215H79.0598C79.5577 71.194 83.7759 92.1442 84.5607 94.2402C84.8084 94.9896 85.5515 95.3189 86.378 95.3435V95.3459Z" fill="#7E4815"/>
  <path d="M111.271 95.6555C111.859 95.5523 112.298 95.5277 112.583 95.5769C112.953 95.6432 113.485 95.8005 114.174 96.0487C114.098 96.4787 113.416 100.354 112.129 107.669C111.079 107.794 110.569 107.524 110.606 106.86C110.64 106.197 110.665 105.642 110.675 105.202L109.233 99.4347C109.196 99.2897 109.284 99.1448 109.429 99.1079C109.431 99.1079 109.434 99.1079 109.436 99.1079L110.28 98.9236C110.667 98.3707 110.893 97.9063 110.959 97.5304C111.008 97.2453 110.969 96.8399 110.841 96.314C110.77 96.0266 110.947 95.7341 111.236 95.6653C111.249 95.6629 111.258 95.6604 111.271 95.658V95.6555Z" fill="#E80000"/>
  <path d="M70.1939 115.458C70.3975 116.023 70.498 116.448 70.498 116.738C70.498 117.117 70.4343 117.667 70.3092 118.392H58.5324C58.2258 117.377 58.4024 116.829 59.0621 116.748C59.7218 116.667 60.2687 116.593 60.7053 116.529L66.1228 114.107C66.2577 114.045 66.4171 114.107 66.4784 114.242C66.4784 114.242 66.4784 114.247 66.4809 114.249L66.8095 115.048C67.4202 115.333 67.9156 115.475 68.2982 115.475C68.5876 115.475 68.98 115.367 69.4729 115.148C69.7451 115.028 70.0615 115.151 70.1792 115.424C70.1841 115.434 70.189 115.446 70.1915 115.456L70.1939 115.458Z" fill="#E80000"/>
  <path d="M89.7084 68.3239C84.9997 66.9724 80.546 66.9724 76.3449 68.3239C74.8832 75.0149 71.332 77.6687 70.7066 87.9275C77.8066 91.4659 86.5742 85.404 93.8826 88.8539C95.9696 84.0255 93.0463 72.4004 89.706 68.3239H89.7084Z" fill="#004695"/>
  <path d="M67.9917 62.8539L60.4405 59.5244C59.1186 58.2 57.8408 57.195 56.6097 56.5069C56.2418 56.389 55.6115 56.3546 56.2835 57.3375C56.9555 58.3228 57.6177 59.3892 57.3479 59.7333C57.0806 60.0773 56.3031 59.6964 55.9966 60.2591C55.793 60.6326 57.1026 61.0798 59.9254 61.6032L65.5809 65.9574L67.9917 62.8564V62.8539ZM98.5177 63.7704L94.2479 64.6206C98.5422 72.6582 100.845 76.919 101.157 77.4006C101.858 78.4867 101.203 80.4746 100.963 81.5213C102.478 81.8752 101.88 79.5851 103.8 80.0618C105.551 80.4991 107.035 81.6196 108.669 80.1084C108.87 79.9217 109.017 79.3418 108.333 79.0445C106.628 78.3024 104.107 76.9116 103.7 76.3735C103.143 75.6388 101.417 71.4369 98.5201 63.7704H98.5177Z" fill="#7E4815"/>
  <path d="M82.6427 47.7251L80.8401 47.4155C76.9162 51.2389 75.3147 60.4265 72.6979 61.6403C70.2258 62.7903 66.7188 61.6772 62.552 60.1758L61.2767 63.0385C65.0633 67.1518 73.1295 70.6263 76.3987 68.6434C81.6249 65.4711 82.8316 54.1409 82.6427 47.7251Z" fill="#E80000"/>
  <path d="M90.498 70.4665H74.5545C73.8261 70.4665 73.9634 69.4099 74.0689 68.8766C75.2853 62.7238 80.0284 56.0918 80.0284 47.3318L84.6268 46.6069C88.4306 52.75 89.7451 60.3157 90.498 70.464V70.4665Z" fill="#FFE200"/>
  <path d="M83.1013 46.6094C78.9738 60.7433 77.8334 70.1617 79.6874 74.8624H94.0393C93.8113 71.4223 93.0829 67.7832 92.0872 64.2374C95.3367 70.1249 98.0688 74.366 100.283 76.9559L103.626 76.2974C101.473 62.8884 95.2386 52.9932 84.9235 46.6094H83.1037H83.1013Z" fill="#E80000"/>
  <path d="M299.694 89.8986C299.694 89.8986 308.013 86.8201 308.714 86.8201C309.415 86.8201 311.079 86.0317 311.955 86.0317C312.831 86.0317 314.671 86.5573 315.634 86.5573C316.598 86.5573 332.635 88.9319 333.248 88.9319C333.861 88.9319 336.057 89.9956 336.927 90.8653C337.797 91.735 338.541 93.3744 338.898 94.4318C339.417 95.9679 342.014 104.631 342.536 105.557C343.237 106.802 343.941 112.483 344.467 113.009C344.992 113.535 345.655 115.208 345.684 116.084C345.709 116.913 346.488 118.243 345.23 118.7C344.016 119.144 340.888 119.375 340.888 119.375L331.949 95.0606C331.949 95.0606 321.766 90.7652 317.299 90.7652C312.831 90.7652 299.691 89.9017 299.691 89.9017L299.694 89.8986Z" fill="#00387A"/>
  <path
    d="M341.238 116.838C341.401 116.588 341.948 116.888 342.402 116.754C342.705 116.666 343.159 116.597 343.763 116.547C343.663 116.059 343.663 115.768 343.763 115.678C343.913 115.54 345.092 114.77 345.092 114.77C345.092 114.77 345.446 115.121 345.368 115.121C345.289 115.121 345.518 115.136 345.649 115.296C345.737 115.402 345.806 115.612 345.859 115.925C346.04 116.125 346.162 116.263 346.225 116.335C346.287 116.406 346.359 116.516 346.441 116.66C346.647 116.71 346.75 116.807 346.75 116.948C346.75 117.088 346.782 117.198 346.841 117.27L347.135 117.73C347.289 117.658 347.439 117.658 347.589 117.73C347.814 117.839 347.583 118.237 347.914 118.415C348.246 118.593 349.432 119.851 349.882 119.964C350.333 120.076 350.326 120.345 350.667 120.345C351.008 120.345 353.905 120.971 353.905 120.971C353.905 120.971 354.309 121.303 354.309 121.472C354.309 121.64 354.409 121.453 354.547 121.753C354.684 122.053 354.797 122.404 354.309 122.795C353.821 123.186 352.263 123.618 350.392 123.852C348.521 124.087 340.706 123.915 340.615 123.743C340.553 123.627 340.594 123.114 340.734 122.204C340.816 119.932 340.859 118.772 340.866 118.718C340.875 118.64 341.129 118.718 341.129 118.718C341.129 118.718 341.075 117.082 341.235 116.832L341.238 116.838Z"
    fill="#B4B4B4"/>
  <path d="M305.817 89.4169H313.466C315.131 89.4169 320.318 90.4712 323.556 91.0187C324.566 91.1907 329.691 91.9854 330.761 92.5454C333.335 93.8938 332.829 94.4851 334.099 96.7094C334.793 97.9296 342.796 116.82 342.796 117.871C342.796 118.922 344.792 120.205 342.796 120.674C340.8 121.143 337.587 121.609 337.587 121.609L336.257 116.923C336.257 116.923 332.106 108.613 331.452 107.002C329.4 101.943 328.871 100.823 328.008 99.9162C327.144 99.0058 316.241 100.166 315.353 100.166C314.464 100.166 298.89 101.337 297.448 98.2987C296.006 95.2609 296.469 90.2209 297.117 90.052C303.464 88.3938 305.82 89.4169 305.82 89.4169H305.817Z" fill="#004699"/>
  <path
    d="M338.851 118.95C339.014 118.7 339.561 119 340.015 118.866C340.318 118.778 340.772 118.709 341.376 118.659C341.276 118.171 341.276 117.88 341.376 117.789C341.526 117.652 342.705 116.882 342.705 116.882C342.705 116.882 343.059 117.232 342.981 117.232C342.902 117.232 343.131 117.248 343.262 117.408C343.35 117.514 343.419 117.724 343.472 118.037C343.653 118.237 343.775 118.374 343.838 118.446C343.9 118.518 343.972 118.628 344.054 118.772C344.26 118.822 344.363 118.919 344.363 119.06C344.363 119.2 344.395 119.31 344.454 119.382L344.748 119.842C344.902 119.77 345.052 119.77 345.202 119.842C345.427 119.951 345.196 120.348 345.527 120.527C345.859 120.705 347.045 121.963 347.495 122.075C347.946 122.188 347.939 122.457 348.28 122.457C348.621 122.457 351.518 123.083 351.518 123.083C351.518 123.083 351.922 123.414 351.922 123.583C351.922 123.752 352.022 123.565 352.16 123.865C352.297 124.165 352.41 124.516 351.922 124.907C351.434 125.298 349.876 125.73 348.005 125.964C346.134 126.199 338.319 126.027 338.228 125.855C338.166 125.739 338.207 125.226 338.347 124.315C338.429 122.044 338.473 120.883 338.479 120.83C338.488 120.752 338.742 120.83 338.742 120.83C338.742 120.83 338.688 119.194 338.848 118.944L338.851 118.95Z"
    fill="#D8D8D8"/>
  <path d="M336.924 116.3L342.433 125.867C342.652 126.249 342.521 126.737 342.142 126.956C341.761 127.175 341.276 127.047 341.057 126.665L335.547 117.098C335.328 116.716 335.46 116.228 335.838 116.009C336.22 115.79 336.705 115.919 336.924 116.3Z" fill="#000"/>
  <path d="M339.004 125.98H349.942C350.386 125.98 350.746 126.34 350.746 126.784C350.746 127.228 350.386 127.588 349.942 127.588H339.004C338.56 127.588 338.2 127.228 338.2 126.784C338.2 126.34 338.56 125.98 339.004 125.98Z" fill="#000"/>
  <path d="M336.248 120.799C333.561 116.081 330.595 110.957 327.432 105.576L327.407 105.544C326.615 104.534 325.796 103.486 323.687 103.486C323.502 103.486 323.318 103.464 323.136 103.417L295.061 103.849L295.005 100.095L323.418 99.6597C323.612 99.6565 323.803 99.6847 323.984 99.7379C327.717 99.8474 329.431 102.04 330.363 103.232L330.46 103.358C330.513 103.423 330.56 103.495 330.604 103.567C333.798 109.005 336.792 114.179 339.508 118.944L336.245 120.802L336.248 120.799Z" fill="#EC0000"/>
  <path d="M296.406 104.296C295.255 104.296 294.251 103.448 294.085 102.275L290.005 73.1548L283.792 72.1599C282.513 71.9566 281.64 70.7521 281.846 69.4725C282.05 68.193 283.254 67.3201 284.534 67.5266L292.458 68.7968C293.475 68.9594 294.27 69.7666 294.41 70.7865L298.731 101.624C298.909 102.907 298.014 104.093 296.732 104.274C296.622 104.29 296.513 104.296 296.403 104.296H296.406Z" fill="#000"/>
  <path d="M315.373 96.5301L285.741 127.194L287.26 128.661L316.892 97.9976L315.373 96.5301Z" fill="#B4B4B4"/>
  <path d="M287.227 96.5116L285.746 98.0173L316.888 128.642L318.369 127.136L287.227 96.5116Z" fill="#B4B4B4"/>
  <path d="M301.761 91.005L300.44 134.728L302.551 134.792L303.872 91.0688L301.761 91.005Z" fill="#B4B4B4"/>
  <path d="M323.369 110.647L280.266 111.979L280.332 114.089L323.434 112.757L323.369 110.647Z" fill="#B4B4B4"/>
  <path d="M301.528 134.915C289.508 134.915 279.728 125.135 279.728 113.115C279.728 101.095 289.508 91.3157 301.528 91.3157C313.548 91.3157 323.327 101.095 323.327 113.115C323.327 125.135 313.548 134.915 301.528 134.915ZM301.528 96.4746C292.352 96.4746 284.89 103.939 284.89 113.112C284.89 122.285 292.355 129.75 301.528 129.75C310.701 129.75 318.165 122.285 318.165 113.112C318.165 103.939 310.701 96.4746 301.528 96.4746Z" fill="#000"/>
  <path d="M301.531 115.756C303.041 115.756 304.265 114.526 304.265 113.009C304.265 111.492 303.041 110.262 301.531 110.262C300.021 110.262 298.797 111.492 298.797 113.009C298.797 114.526 300.021 115.756 301.531 115.756Z" fill="#000"/>
  <path d="M330.279 122.764H327.463C327.463 111.285 331.502 109.449 332.312 109.195L333.148 111.883C333.148 111.883 333.176 111.876 333.223 111.858C333.195 111.87 330.279 113.281 330.279 122.764Z" fill="#EC0000"/>
  <path d="M332.884 123.386L323.953 132.628L324.408 133.067L333.339 123.825L332.884 123.386Z" fill="#000"/>
  <path d="M324.398 123.382L323.955 123.833L333.342 133.063L333.785 132.613L324.398 123.382Z" fill="#000"/>
  <path d="M328.784 121.732L328.384 134.909L329.019 134.929L329.419 121.751L328.784 121.732Z" fill="#000"/>
  <path d="M335.293 127.653L322.304 128.054L322.323 128.686L335.313 128.285L335.293 127.653Z" fill="#000"/>
  <path d="M328.712 134.952C325.095 134.952 322.151 132.008 322.151 128.392C322.151 124.775 325.095 121.831 328.712 121.831C332.328 121.831 335.272 124.775 335.272 128.392C335.272 132.008 332.328 134.952 328.712 134.952ZM328.712 124.178C326.387 124.178 324.497 126.067 324.497 128.392C324.497 130.716 326.387 132.606 328.712 132.606C331.036 132.606 332.926 130.716 332.926 128.392C332.926 126.067 331.036 124.178 328.712 124.178Z" fill="#000"/>
  <path d="M328.743 129.381C329.285 129.381 329.725 128.938 329.725 128.392C329.725 127.846 329.285 127.403 328.743 127.403C328.2 127.403 327.76 127.846 327.76 128.392C327.76 128.938 328.2 129.381 328.743 129.381Z" fill="#000"/>
  <path d="M312.618 41.3161C314.458 44.7481 315.165 53.2138 311.861 54.0648C310.594 54.3902 308.608 53.8677 306.668 52.7133L308.126 61.6045H300.502L303.07 49.6317C301.622 47.8484 300.664 45.6397 300.836 43.1901C301.312 36.3918 310.776 37.8872 312.618 41.3192V41.3161Z" fill="#CB874C"/>
  <path d="M307.356 37.4616C310.87 37.4616 312.087 39.0228 313.05 40.4306L313.141 40.562L313.185 40.6277C312.449 43.1555 309.599 43.5372 307.059 45.1015C306.743 44.8668 306.352 44.7292 305.927 44.7292C304.875 44.7292 304.021 45.5833 304.021 46.6344C304.021 47.0286 304.218 47.3571 304.347 47.7013C304.885 49.1279 305.301 49.5721 305.01 50.8673C304.625 51.1645 303.696 59.0797 303.114 58.7825L299.247 70.7866C299.247 70.7866 295.152 71.5124 294.382 67.5986C293.61 63.6817 297.652 46.5375 300.239 42.3578C301.834 39.0916 304.9 37.4585 307.353 37.4585L307.356 37.4616Z" fill="#7E4815"/>
  <path d="M318.538 80.4194L328.452 85.0809C330.914 85.2436 333.026 85.6378 334.784 86.2697C335.225 86.5356 335.813 87.1394 334.255 87.3334C332.697 87.5274 331.07 87.8058 330.967 88.3815C330.864 88.9571 331.921 89.4045 331.643 90.2085C331.455 90.7466 329.863 89.8206 326.866 87.4367L317.618 85.5908L318.538 80.4163V80.4194Z" fill="#D08C4C"/>
  <path d="M296.41 90.3679C305.942 95.821 311.135 98.9933 311.993 99.888C312.622 100.545 313.929 104.18 314.552 106.602C314.802 107.575 315.6 107.5 315.891 107.271C318.234 105.419 317.064 103.214 316.854 100.795C316.626 98.1454 319.529 99.4219 319.382 97.332C317.946 97.4321 315.178 97.8858 313.889 96.7282C313.316 96.212 308.167 92.2607 298.434 84.8743L296.41 90.3679Z" fill="#D08C4C"/>
  <path d="M296.866 88.0249C307.885 90.6184 311.77 90.6184 315.691 88.0249C315.691 84.1611 312.962 73.665 310.904 64.1042C310.275 61.1853 310.275 58.792 308.195 57.0557C307.29 57.3278 306.612 57.428 306.155 57.3623C305.166 57.2152 304.753 57.769 302.767 57.065C297.651 65.2899 297.877 74.4377 296.866 88.0249Z" fill="#FFE600"/>
  <path d="M299.982 60.303C299.982 60.303 291.11 85.7754 293.475 88.5473C295.84 91.3192 296.14 91.1252 300.17 93.9064C303.18 95.9838 306.596 101.218 309.415 101.152C312.237 101.086 312.775 94.5259 312.393 93.6249C312.011 92.7239 301.75 87.1833 300.057 86.0257C298.365 84.8713 301.95 79.0116 302.254 75.8111C302.457 73.6775 302.657 71.4718 302.851 69.2005C302.576 64.342 304.491 60.4438 303.758 57.8221C303.674 57.5249 303.646 57.0869 302.585 57.0306C301.515 56.724 299.982 60.2999 299.982 60.2999V60.303Z" fill="#FFE600"/>
  <path d="M308.019 58.2882C307.807 57.2954 308.088 56.8814 308.864 57.0462C310.641 57.2996 314.327 76.1176 315.45 78.5547C316.573 80.9918 326.221 80.4412 326.246 81.9617C326.271 83.4853 324.995 88.2907 324.256 88.2907C323.518 88.2907 311.157 84.6178 310.256 81.3172C307.234 70.2329 308.182 59.0547 308.019 58.2882Z" fill="#FFE600"/>
  <path d="M268.237 14.6109C270.468 18.8532 269.798 30.3098 268.237 30.3098H266.007C264.89 30.3098 263.031 29.6403 261.17 28.5234L262.731 39.6078H253.358L256.559 24.5784C254.772 22.4197 253.583 19.8168 253.73 16.9166C254.4 8.51029 266.007 10.3686 268.237 14.6109Z" fill="#E5B486"/>
  <path d="M261.267 19.7291C260.97 19.579 260.672 19.579 260.3 19.579C258.886 19.579 257.844 19.7291 257.175 21.0681C256.58 22.257 257.622 23.2988 258.142 23.7461C257.547 24.6378 256.505 27.466 255.761 28.4327C251.221 26.202 249.957 18.9845 252.71 13.9257C253.455 11.4698 255.911 10.5782 257.991 9.98379C259.703 9.23921 262.306 8.71987 263.795 9.16412C266.695 9.38625 269.301 11.2477 270.046 11.767C270.046 14.5952 269.526 15.4118 264.987 15.3367C263.573 16.1564 262.531 17.6424 261.267 19.726V19.7291Z" fill="#7E4815"/>
  <path d="M262.03 100.07C261.955 99.9947 261.955 99.8476 261.88 99.7726C261.21 97.5419 249.457 73.2114 248.487 68.8972L259.199 69.4165C259.943 72.617 268.944 96.1998 269.019 96.2749C270.508 102.748 272.292 123.803 272.292 125.364C272.292 126.925 269.241 128.117 268.572 126.184C267.455 123.133 264.258 116.141 263.291 111.079C262.399 106.468 262.324 102.523 262.027 100.067L262.03 100.07Z" fill="#E5B486"/>
  <path d="M249.604 97.9891C249.604 97.9141 249.604 97.767 249.679 97.6919C250.198 95.6834 249.009 74.7036 250.348 70.9087L257.416 72.7702C256.449 75.6703 257.935 97.3228 256.227 100.595C254.293 106.324 243.206 119.642 242.762 120.981C242.389 122.395 239.264 121.872 239.636 120.089C240.231 117.261 242.389 111.905 244.026 107.515C245.587 103.423 248.787 100.001 249.607 97.9923L249.604 97.9891Z" fill="#E5B486"/>
  <path
    d="M268.159 125.983C268.381 125.686 269.051 126.058 269.573 125.908C269.945 125.833 270.54 125.686 271.284 125.686C271.134 125.091 271.134 124.719 271.284 124.569C271.507 124.419 272.921 123.452 272.921 123.452C272.921 123.452 273.368 123.9 273.293 123.9C273.218 123.9 273.515 123.9 273.665 124.122C273.74 124.272 273.887 124.494 273.887 124.866C274.109 125.088 274.26 125.314 274.335 125.386C274.41 125.461 274.485 125.608 274.632 125.758C274.854 125.833 275.004 125.908 275.004 126.13C275.004 126.352 275.004 126.427 275.079 126.502L275.452 127.097C275.674 127.022 275.824 127.022 276.046 127.097C276.343 127.247 276.046 127.691 276.418 127.917C276.866 128.139 278.28 129.703 278.874 129.85C279.469 130 279.394 130.297 279.841 130.297C280.288 130.297 283.858 131.042 283.858 131.042C283.858 131.042 284.305 131.561 284.305 131.787C284.305 132.012 284.456 131.787 284.603 132.159C284.75 132.531 284.9 132.978 284.305 133.423C283.711 133.942 281.774 134.465 279.469 134.762C277.163 135.059 267.49 134.837 267.414 134.612C267.339 134.461 267.414 133.867 267.565 132.678C267.64 129.85 267.715 128.436 267.715 128.364C267.715 128.292 268.012 128.364 268.012 128.364C268.012 128.364 267.937 126.355 268.162 125.983H268.159Z"
    fill="#000"/>
  <path
    d="M239.023 118.712C239.386 118.628 239.658 119.344 240.153 119.563C240.484 119.745 241.038 120.014 241.607 120.493C241.876 119.942 242.114 119.657 242.324 119.638C242.59 119.667 244.295 119.836 244.295 119.836C244.295 119.836 244.351 120.464 244.295 120.417C244.238 120.371 244.467 120.561 244.435 120.827C244.398 120.99 244.367 121.256 244.129 121.541C244.157 121.857 244.129 122.123 244.135 122.226C244.145 122.332 244.107 122.492 244.123 122.701C244.245 122.902 244.313 123.055 244.17 123.227C244.073 123.34 243.979 123.455 243.988 123.559L243.891 124.253C244.054 124.291 244.223 124.435 244.292 124.588C244.423 124.894 243.91 125.045 244.051 125.454C244.248 125.911 244.329 128.017 244.689 128.514C245.049 129.012 244.802 129.19 245.143 129.478C245.484 129.766 247.742 132.631 247.742 132.631C247.742 132.631 247.855 133.307 247.758 133.423C247.614 133.595 247.871 133.52 247.745 133.898C247.62 134.28 247.448 134.718 246.704 134.677C245.912 134.693 244.098 133.848 242.139 132.594C240.181 131.339 232.916 124.951 233.001 124.732C233.038 124.569 233.479 124.162 234.359 123.346C236.139 121.34 237.093 120.202 237.143 120.145C237.193 120.089 237.371 120.336 237.371 120.336C237.371 120.336 238.663 118.797 239.026 118.712H239.023Z"
    fill="#000"/>
  <path d="M246.406 68.0056L245.737 80.2819C245.959 90.8469 246.557 96.2029 247.67 96.2029C248.49 96.2029 251.093 96.7974 253.474 96.9475C255.482 97.0977 257.118 97.2447 258.013 97.1697C258.163 97.1697 258.386 97.0195 258.461 96.9475C259.205 96.6503 260.619 87.052 262.775 68.0807L246.406 68.0056Z" fill="#000"/>
  <path d="M252.432 68.0055C256.449 86.6045 258.83 96.1278 259.499 96.5C259.574 96.5751 259.721 97.0945 259.872 97.0945C261.805 97.3917 269.617 95.7555 269.989 95.0109C270.211 94.4915 268.353 85.4877 264.408 67.9304H252.432V68.0055Z" fill="#000"/>
  <path d="M252.779 61.4387C268.362 64.0197 276.963 65.1147 278.69 64.8457C279.415 64.7675 281.149 64.1167 283.996 64.4734C286.239 64.805 287.931 65.5214 289.47 66.2473C291.007 66.9731 290.803 68.7313 290.162 68.6124C286.858 68.0649 284.903 67.239 283.736 67.8209C281.002 69.2037 287.8 68.384 286.145 69.7606C284.515 71.0714 281.405 69.5259 278.73 68.3997C277.491 67.8772 267.993 68.1713 250.267 69.2162L252.779 61.4419V61.4387Z" fill="#E5B486"/>
  <path d="M265.418 41.288L267.949 66.435C267.355 76.7779 266.908 81.9086 266.761 81.9086C266.614 81.9086 259.915 82.0588 246.747 82.2809H245.631C245.408 80.7198 245.333 79.75 245.333 79.6029C245.333 79.3057 245.408 78.1137 245.631 77.8165C245.781 77.5944 245.781 73.8746 245.631 66.5069V50.0635C245.631 49.8413 246.45 41.6571 247.12 40.9125C247.789 40.168 249.501 33.695 255.751 34.5147C259.843 34.9621 263.116 37.2678 265.425 41.2848L265.418 41.288Z" fill="#004694"/>
  <path d="M265.049 38.3846C264.38 37.3428 262.149 34.6648 260.66 33.6981C259.693 33.0286 257.237 32.2089 253.22 31.3173C252.401 30.4976 251.659 30.1284 251.137 30.1284C250.317 30.1284 250.245 30.7979 249.723 31.3173C249.203 31.8366 248.233 31.9868 248.233 32.8784C248.233 33.77 248.384 33.2507 247.564 33.6981C246.819 34.2174 246.447 34.962 246.447 35.7066C246.447 36.5262 245.778 37.2677 245.778 38.3846C245.778 39.4264 245.405 39.4264 245.778 40.0208C246.15 40.6152 246.075 41.4349 247.192 40.5401C248.308 39.6485 248.083 36.6701 252.473 35.7034C256.862 34.7367 258.201 37.8621 260.732 38.3814C263.263 38.9008 264.974 42.1013 265.569 41.1345C266.088 40.1678 265.719 39.4983 265.049 38.3814V38.3846Z" fill="#E70000"/>
  <path d="M267.68 59.0767C267.073 58.038 266.82 42.1139 266.82 41.9575C266.82 41.4287 266.304 40.6779 265.284 39.73L265.709 39.2732C266.895 40.3744 267.446 41.2254 267.446 41.9575C267.446 43.7251 267.78 57.8785 268.225 58.767L267.684 59.0798L267.68 59.0767Z" fill="#004694"/>
  <path d="M252.714 38.4253C250.893 38.8132 249.735 39.4389 249.379 40.2742C248.753 41.6258 248.046 50.9957 248.165 52.2627C248.193 53.4735 249.801 64.2387 250.261 64.977C250.649 65.731 254.221 67.8615 255.758 68.2964C257.278 68.6562 263.964 71.1152 265.04 70.8086C266.116 70.502 269.751 70.7961 270.784 70.2705C271.813 69.748 272.433 69.0816 273.221 69.2193C273.762 69.2568 275.045 69.213 277.113 68.9221C277.254 66.0032 277.322 64.5422 277.219 64.4108C277.1 64.2074 273.925 63.5911 273.168 63.6005C272.395 63.5379 271.191 62.8809 270.462 63.0342C269.808 63.175 269.532 62.2427 268.76 62.1801C267.987 62.1176 264.74 61.5138 263.748 61.4981C262.756 61.4825 262.994 61.886 262.077 60.7879C261.173 59.7618 260.454 59.2331 260.319 58.9578C260.184 58.6824 262.265 50.9362 261.814 48.8276C261.364 46.7159 259.753 41.0814 257.832 40.2742C256.627 39.6173 255.742 38.6943 252.72 38.4253H252.714Z" fill="#E70000"/>
  <path d="M162 32H166V111H162V32Z" fill="#000"/>
  <path d="M181 17.5C181 27.165 173.165 35 163.5 35C153.835 35 146 27.165 146 17.5C146 7.83502 153.835 0 163.5 0C173.165 0 181 7.83502 181 17.5Z" fill="#fff"/>
  <path d="M163.5 31C170.956 31 177 24.9558 177 17.5C177 10.0442 170.956 4 163.5 4C156.044 4 150 10.0442 150 17.5C150 24.9558 156.044 31 163.5 31ZM163.5 35C173.165 35 181 27.165 181 17.5C181 7.83502 173.165 0 163.5 0C153.835 0 146 7.83502 146 17.5C146 27.165 153.835 35 163.5 35Z" fill="#EC0000"/>
  <path d="M134 77.6052H153.848V67.7104H134V77.6052Z" fill="#EC0000"/>
  <path d="M153.848 77.6052H173.696V67.7104H153.848V77.6052Z" fill="#fff"/>
  <path d="M173.696 77.6052H193.544V67.7104H173.696V77.6052Z" fill="#EC0000"/>
  <path d="M193.544 77.6052H213.392V67.7104H193.544V77.6052Z" fill="#fff"/>
  <path d="M212.152 77.6052H232V67.7104H212.152V77.6052Z" fill="#EC0000"/>
  <path d="M134 103.579H153.848V93.6843H134V103.579Z" fill="#EC0000"/>
  <path d="M153.848 103.579H173.696V93.6843H153.848V103.579Z" fill="#fff"/>
  <path d="M173.696 103.579H193.544V93.6843H173.696V103.579Z" fill="#EC0000"/>
  <path d="M193.544 103.579H213.392V93.6843H193.544V103.579Z" fill="#fff"/>
  <path d="M212.152 103.579H232V93.6843H212.152V103.579Z" fill="#EC0000"/>
  <path d="M219.595 111H223.316V64H219.595V111Z" fill="#000"/>
  <path d="M143.924 111H147.646V64H143.924V111Z" fill="#000"/>
</svg>
