<svg xmlns="http://www.w3.org/2000/svg" viewBox="0 0 512 288">
  <path d="M521 172s-187.6 4.2-174.8 8.5c12.8 4.3 74.1 17.1 55.4 25.7s-144 58.2-145.7 66.8c-1.7 8.6.9 15 .9 15H0s341.1-73.8 342.8-82.4c1.7-8.6-33.2-23.9-22.1-27.6s200.3-6 200.3-6z" fill="#bcbcbc"/>
  <path d="M267 179.7V80.2l-10.9.1L241 54.6l-2.9-1.5h-37.7l-3 1.7-11.9 23.8-3 1.7h-11v-14l4.5-.3-16-26.4-3-1.6h-39.2l-2.9 1.7-11 17.1V32.5H89.5v-10H76.7V11.6H63.2V.7H42.1v10.7H28.7v11H15.8v10.1H1.4v147.2z" fill="#e7e7e7"/>
  <path
    d="M229.9 180v-36h-23.4v36h23.4zm32.8-92h-87.2c-.1.8-.1 1.5-.2 2.5h87.3c.1-.8.1-1.6.1-2.5zm-72.9 79.8v-6.1h-6.9v6.1h6.9zm2.7-6.1v6h6.9v-6h-6.9zm44.3 6.1h6.9v-6h-6.9v6zm16.5-6h-6.8v6h6.8v-6zm-94.5-38.3h-4.9v8h4.9v-8zm-7.8 8v-8.1h-4.7v8.1h4.7zm-24.5 0v-8h-4.8v8h4.8zm-7.7-8.1H114v8h4.8v-8zm35.1 30.9v8c.3.1.6.2 1 .2 4.9 0 4 .2 4.1-3.2v-4.9c-1.9-.1-3.5-.1-5.1-.1zm-35.1-53.7v-8H114v8h4.8zm7.7 0v-8h-4.8v8h4.8zm27.4-8.1v8h4.8v-8h-4.8zm-27.3 61.8h-4.9v8h4.9v-8zm-12.6 8.1h4.8v-8H114v8zm32-2.3c-.2 2 .7 2.8 3 2.4.6-.1 1.2-.1 2-.1v-8.1h-5c0 2.1.2 4 0 5.8zm.2-59.5h4.8v-8.1h-4.8v8.1zM47.9 29c-.2 5.2.3 5.5 7 4.5v-5.4H48c0 .5-.1.7-.1.9zm135 118.4v5.2c.4.1.7.2 1.1.2 6.2.4 6.8-.1 5.7-5.4h-6.8zm9.5 5.2h7v-5.1h-7v5.1zm51.4-5.2H237c-.1.1-.2.2-.2.3-.6 5.3 0 5.7 7 4.8v-5.1zM132.5 60.3c-.1 1.7 1.6 3.2 3.7 3.3 2.2.1 4.1-1.4 4.1-3.2 0-1.7-1.8-3.1-3.9-3.2-2.1 0-3.8 1.3-3.9 3.1zm120.8 92.4v-5.2h-6.7v5.2h6.7zm-108.9-50c.6 1.9 1.6 2.3 7.7 2.2 3 0 6.4.9 9-2.2h-16.7zm-.5 61.8c2.4 3 5.7 2.1 8.6 2.1 2.9 0 6.1.9 8.4-2.1h-17zm-18.9 2.1c1.2.1 2.5-.9 3.7-1.5-.1-.2-.2-.4-.2-.6H112c3.8 3.6 8.7 1.7 13 2.1zm-13-64-.3.6c1.3.5 2.6 1.6 3.8 1.5 4.4-.3 9.3 1.6 13-2.2-5.5.1-11 .1-16.5.1zm45.3 33.1c1.1.1 2.4-1 3.6-1.5-.1-.2-.2-.4-.2-.6h-16.4c3.7 3.7 8.6 1.7 13 2.1zm-45.6-2.2c2.3 3.1 5.7 2.2 8.6 2.2 2.9 0 6.2.9 8.7-2.2h-17.3zm78.1 21.3h-7v4.7h7v-4.7zm53.9 4.9v-4.8h-6.8v4.8h6.8zm-17.3-91.4-7.3-7.3c-2.4 2.4-4.7 4.7-7.4 7.3h14.7zm-33.9 86.5v4.8h6.8v-4.8h-6.8zm26.9-48.2v6.7h4.5v-6.7h-4.5zm27.1 53h6.8v-4.7h-6.8v4.7zm8.4-14c.1-.2.3-.4.4-.6-.6-.4-1.2-1.1-1.8-1.1-5.7-.1-11.4-.1-17 0-.6 0-1.1.8-1.7 1.2l.5.5h19.6zm-72.3 0c5.7.1 11.4.1 17.1 0 .6 0 1.2-.7 1.7-1.1-.2-.2-.3-.4-.5-.5h-19.6l-.5.5c.7.4 1.2 1.1 1.8 1.1zm41.5-27.1c0-3.5-.2-3.6-4.7-2.8v6.3h4.7v-3.5zm26.8-5.2v-6.7h-4.4v6.7h4.4zm-11.6-6.7v6.7h4.4v-6.7h-4.4zm-26.9.1v6.7h4.4v-6.7h-4.4zm-15.5 0h-4.5v6.6h4.5v-6.6zm-11.5 0v6.7h4.4v-6.7h-4.4zm53.8 8.8v6.4h4.5v-6.4h-4.5zm-49.4.1h-4.4v6.4h4.4v-6.4zm61.3 6.4c0-1.9.1-3.7-.1-5.4 0-.4-.8-1-1.4-1.1-.9-.2-1.9 0-3.1 0v6.6c1.6-.1 3-.1 4.6-.1zm-34.3 0v-6.5h-4.3v6.5h4.3zm-24.3-6.5v6.4h4.5v-6.4h-4.5zM13.7 58.7v5.1h4.8v-5.1h-4.8zm36.4 105.1v-5.1h-4.8v5.1h4.8zm34.2-.8c0 .4.8.9 1.3 1 1.1.1 2.2 0 3.6 0v-5.3h-4.9c0 1.5-.1 2.9 0 4.3zm-65.7-4.3h-4.9v5.1h4.9v-5.1zm26.7-100v5.2H50v-5.2h-4.7zm44 5.2v-5.2h-4.8v5.2h4.8zm-39.4 66.6c.7-6.1.6-5.5-4.7-5v5h4.7zm27 28.1v5.2h4.7v-5.2h-4.7zM50.1 97.2v-5h-4.8v5h4.8zm34.5-5.1c-1.3 5-.8 5.5 4.7 5v-5h-4.7zm-66.3 38.4c1.2-5.1.7-5.6-4.7-5v5h4.7zm70.9 0v-4.9c-5.8-.9-5.2-.4-4.7 4.9h4.7zM13.6 97.1h4.9v-5h-4.9v5zm63.2-33.3h4.8v-5.1h-4.8v5.1zm120.4 41.1c.6 0 1.1-.6 1.6-.9-.5-.3-1-.8-1.5-.8-4.2-.1-8.4-.1-12.6 0-.5 0-.9.6-1.3.9.5.3.9.8 1.4.8 2.1.1 4.2 0 6.3 0 2.1 0 4.1.1 6.1 0zM57.7 58.7H53v5.1h4.7v-5.1zm-.1 105.2v-5.2h-4.7v5.2h4.7zm-31.5-5.2h-4.7v5.2h4.7v-5.2zm0-100h-4.7v5.1h4.7v-5.1zm225.2 44.5c-4.1-.1-8.2-.1-12.3 0-.6 0-1.1.8-1.7 1.2l.5.5h14.8c.2-.2.3-.4.5-.5-.7-.5-1.2-1.2-1.8-1.2zm-39.3 1.7c4.1.1 8.2.1 12.3 0 .5 0 1-.5 1.5-.8-.5-.3-1-.9-1.5-.9-4.5-.1-8.9 0-13.4 0-.2.2-.4.4-.7.6.6.4 1.2 1.1 1.8 1.1zM52.8 130.5h4.8v-5.1h-4.8v5.1zm105.7-40.3c.9-2.8-.8-5-4.6-5.9v5.9h4.6zm-32.2 0c.7-3-1-5.1-4.6-5.8v5.8h4.6zm-49.5 35.2v5.1h4.7v-5.1h-4.7zm77-4.4h4.7c.8-2.8-.9-5-4.7-5.8v5.8zm0 31h4.7c.7-2.9-1-5-4.7-5.8v5.8zM76.9 92v5h4.7v-5h-4.7zm-24 5.1h4.7V92h-4.7v5.1zm65.9 54.9v-5.8c-3.4.5-4.9 2.2-4.9 5.8h4.9zm7.5 0c.7-3-.9-5.1-4.6-5.8v5.8h4.6zm-7.5-67.6c-3.7.8-5.1 2.5-4.8 5.8h4.8v-5.8zm106.1-9.2v-5h-4.5v5h4.5zm-110.8 45.9h4.7v-5.8c-3.7.9-5.1 2.6-4.7 5.8zm99.2-50.9v4.9h4.5v-4.9h-4.5zM26.1 130.6v-5.1h-4.6v5.1h4.6zm95.6-9.5h4.6c.7-2.9-.9-4.9-4.6-5.8v5.8zM151 90.2v-5.8c-3.6.8-5 2.5-4.7 5.8h4.7zM26.1 92.1h-4.7v5h4.7v-5zM150.9 152v-5.8c-3.4.6-4.9 2.3-4.8 5.8h4.8zm74-70.4v-4.7h-4.5v4.7h4.5zm-11.6-.1h4.3c1.3-4.5.8-5.2-4.3-4.7v4.7zm-66.9 39.6h4.6v-5.8c-3.8.9-5.2 2.7-4.6 5.8zm-132.7-1.9v3.9h4.7v-3.9h-4.7zm31.5 0v3.8H50v-3.8h-4.8zm39.5 0c-1.4 3.8-.6 4.4 4.5 3.8v-3.8h-4.5zm-6.4 4h3.3v-4h-4.7v3.9c.5.1 1 .1 1.4.1zm-20.6-4h-4.8v3.8h4.8v-3.8zm31.5-62.8v-3.7h-4.7v3.7h4.7zM50 156.4v-3.8h-4.7v3.8H50zm0-100v-3.7h-4.8v3.7H50zm-31.5 96.2h-4.9v3.7h4.9v-3.7zm70.7 3.8v-3.8h-4.8v3.8h4.8zM13.7 52.6v3.8h4.8v-3.8h-4.8zm75.6 37.2V86h-4.8v3.8h4.8zM45.2 86v3.7H50V86h-4.8zm-31.6 3.7h4.8v-3.8h-4.8v3.8zm7.8 29.5v3.8h4.7v-3.8h-4.7zm31.5 37.2h4.7v-3.8h-4.7v3.8zm23.9-3.8v3.8h4.8v-3.8h-4.8zM57.7 56.4v-3.8h-4.8v3.8h4.8zm19.1-3.8v3.8h4.8v-3.8h-4.8zm-.1 37.1h4.8V86h-4.8v3.7zm-55.4 66.6H26v-3.6h-4.7v3.6zm.1-99.9h4.7v-3.8h-4.7v3.8zm31.5 29.5v3.8h4.7v-3.8h-4.7zm-26.8 3.9V86h-4.7v3.8h4.7zm-7.6-6.2v-2.9h-4.9v2.9h4.9zm30.1.1c.4 0 .8-.1 1.4-.1v-2.9h-4.8v3c1.4.1 2.4.1 3.4 0zm40.7-.1v-2.8c-4.9-.8-5.4-.5-4.7 2.8h4.7zm-12.5-2.8v2.8c.8.1 1.6.1 2.3.1h2.2c.9-3.3.4-3.6-4.5-2.9zm-23.9 2.8h4.7v-2.9h-4.7v2.9zm-31.5-2.9v2.9h4.7v-2.9h-4.7zm63-33.3v2.9h4.8v-2.9h-4.8zM13.7 114v2.9h4.8V114h-4.8zm36.4 36.3v-2.8c-1.5-.1-3-.1-4.8-.2v3h4.8zM45.2 47.4v2.9H50v-2.9h-4.8zm4.8 69.5v-2.8h-4.7v2.8H50zm-36.3 30.5v2.9h4.8v-2.9h-4.8zm75.5 2.9v-2.8h-4.8v2.8h4.8zm.1-36.3h-4.9v2.8h4.9V114zM18.5 50.3v-2.8h-4.9v2.8h4.9zm63 0v-2.8h-4.7v2.8h4.7zM52.9 114v2.9h4.7V114h-4.7zm28.7 33.4h-4.7v2.9h4.7v-2.9zm-24 2.9v-2.9h-4.7v2.9h4.7zm0-100v-2.8h-4.7v2.8h4.7zm24 63.7h-4.7v2.8h4.7V114zm-55.5 33.5h-4.7v2.8h4.7v-2.8zm-4.8-97.3h4.8v-2.8h-4.8v2.8zm4.9 63.8h-4.8v2.8h4.8V114zm156.8 9.7v.4h16.3v-.4H183zm70.2.5v-.4h-16.1v.4h16.1zm-27-.1v-.4h-16.3v.4h16.3z"
    fill="#fff"/>
  <path d="M206.5 180h23.4v-36h-23.4v36z" fill="#c6c6c6"/>
  <path
    d="M262.7 90.4v-2.5h-87.2c-.1.8-.1 1.5-.2 2.5h87.4zM183 167.8h6.9v-6.1H183v6.1zM199.4 161.7h-6.9v6h6.9v-6zM236.8 161.7v6h6.9v-6h-6.9zM253.3 167.8v-6h-6.8v6h6.8zM158.8 131.5v-8h-4.9v8h4.9zM146.2 131.5h4.7v-8.1h-4.7v8.1zM121.7 131.5h4.8v-8h-4.8v8zM118.8 131.4v-8H114v8h4.8zM158.9 154.3h-5v8c.3.1.6.2 1 .2 4.9 0 4 .2 4.1-3.2-.1-1.6-.1-3.3-.1-5zM114 100.6h4.8v-8H114v8zM121.7 100.6h4.8v-8h-4.8v8zM158.7 92.5h-4.8v8h4.8v-8zM126.6 162.4v-8h-4.9v8h4.9zM114 154.3v8h4.8v-8H114zM146 154.3c0 2.1.2 4 0 5.8-.2 2 .7 2.8 3 2.4.6-.1 1.2-.1 2-.1v-8.1h-5zM146.2 92.5v8.1h4.8v-8.1h-4.8zM48 28.1c-.1.4-.1.6-.2.9-.2 5.2.3 5.5 7 4.5v-5.4H48zM189.7 147.4h-6.8v5.2c.4.1.7.2 1.1.2 6.1.4 6.7-.2 5.7-5.4zM192.4 147.5v5.1h7v-5.1h-7zM243.8 152.5v-5.1H237c-.1.1-.2.2-.2.3-.6 5.4 0 5.7 7 4.8zM136.4 57.2c-2.1 0-3.8 1.3-3.9 3.1-.1 1.7 1.6 3.2 3.7 3.3 2.2.1 4.1-1.4 4.1-3.2 0-1.7-1.8-3.1-3.9-3.2zM246.6 152.7h6.7v-5.2h-6.7v5.2zM161.1 102.7h-16.7c.6 1.9 1.6 2.3 7.7 2.2 3-.1 6.3.8 9-2.2zM161 164.5h-17.1c2.4 3 5.7 2.1 8.6 2.1 2.9.1 6.2.9 8.5-2.1zM112 164.5c3.8 3.6 8.6 1.7 13 2.1 1.2.1 2.5-.9 3.7-1.5-.1-.2-.2-.4-.2-.6H112zM128.5 102.6H112l-.3.6c1.3.5 2.6 1.6 3.8 1.5 4.4-.3 9.3 1.6 13-2.1zM144.2 133.5c3.8 3.7 8.7 1.8 13.1 2.1 1.1.1 2.4-1 3.6-1.5-.1-.2-.2-.4-.2-.6h-16.5zM128.9 133.5h-17.2c2.3 3.1 5.7 2.2 8.6 2.2 2.8 0 6.1.9 8.6-2.2zM189.8 159.6v-4.7h-7v4.7h7zM236.9 159.7h6.8v-4.8h-6.8v4.8zM219.1 61l7.3 7.3h-14.7c2.7-2.6 5-4.9 7.4-7.3zM199.3 154.8h-6.8v4.8h6.8v-4.8zM223.9 106.6h-4.5v6.7h4.5v-6.7zM246.5 154.9v4.7h6.8v-4.7h-6.8zM235.4 145.6h19.5c.1-.2.3-.4.4-.6-.6-.4-1.2-1.1-1.8-1.1-5.7-.1-11.4-.1-17 0-.6 0-1.1.8-1.7 1.2.2.1.4.3.6.5zM180.9 144.5c.6.4 1.1 1.1 1.7 1.1 5.7.1 11.4.1 17.1 0 .6 0 1.2-.7 1.7-1.1-.2-.2-.3-.4-.5-.5h-19.6c-.1.2-.3.3-.4.5zM224.1 122v-3.4c0-3.5-.2-3.6-4.7-2.8v6.3c1.5-.1 3-.1 4.7-.1zM246.5 113.3h4.4v-6.7h-4.4v6.7zM243.7 106.6h-4.4v6.7h4.4v-6.7zM216.8 106.7h-4.4v6.7h4.4v-6.7zM196.9 113.3v-6.6h-4.5v6.6h4.5zM189.8 106.7h-4.4v6.7h4.4v-6.7zM243.7 115.5h-4.5v6.4h4.5v-6.4zM189.8 122v-6.4h-4.4v6.4h4.4zM246.6 122h4.5c0-1.9.1-3.7-.1-5.4 0-.4-.8-1-1.4-1.1-.9-.2-1.9 0-3.1 0 .1 2.1.1 4.2.1 6.5zM212.5 122h4.3v-6.5h-4.3v6.5zM196.9 115.5h-4.5v6.4h4.5v-6.4zM18.5 58.7h-4.8v5.1h4.8v-5.1zM45.3 163.8h4.8v-5.1h-4.8v5.1zM84.3 158.7c0 1.5-.1 2.9.1 4.3 0 .4.8.9 1.3 1 1.1.1 2.2 0 3.6 0v-5.3h-5zM18.6 163.8v-5.1h-4.9v5.1h4.9zM50 58.7h-4.7v5.2H50v-5.2zM84.4 63.9h4.8v-5.2h-4.8v5.2zM45.2 130.5h4.7c.7-6.1.6-5.5-4.7-5v5zM81.6 158.6h-4.7v5.2h4.7v-5.2zM45.3 97.2h4.8v-5h-4.8v5zM89.3 92.1h-4.7c-1.3 5-.8 5.5 4.7 5v-5zM13.7 130.5h4.7c1.2-5.1.7-5.6-4.7-5v5zM84.5 130.5h4.7v-4.9c-5.8-.9-5.1-.4-4.7 4.9zM13.6 92.1v5h4.9v-5h-4.9zM76.8 58.7v5.1h4.8v-5.1h-4.8zM191.2 104.9c2 0 4 .1 6 0 .6 0 1.1-.6 1.6-.9-.5-.3-1-.8-1.5-.8-4.2-.1-8.4-.1-12.6 0-.5 0-.9.6-1.3.9.5.3.9.8 1.4.8 2.1.1 4.3.1 6.4 0 0 .1 0 .1 0 0zM57.7 63.8v-5.1H53v5.1h4.7zM52.9 163.9h4.7v-5.2h-4.7v5.2zM26.1 163.9v-5.2h-4.7v5.2h4.7zM26.1 63.8v-5.1h-4.7v5.1h4.7zM253 104.3c-.6-.4-1.2-1.1-1.7-1.1-4.1-.1-8.2-.1-12.3 0-.6 0-1.1.8-1.7 1.2l.5.5h14.8c.1-.2.3-.4.4-.6zM210.3 103.8c.6.4 1.2 1.1 1.8 1.1 4.1.1 8.2.1 12.3 0 .5 0 1-.5 1.5-.8-.5-.3-1-.9-1.5-.9-4.5-.1-8.9 0-13.4 0-.3.2-.5.4-.7.6zM52.8 125.4v5.1h4.8v-5.1h-4.8zM153.9 90.2h4.6c.9-2.8-.8-5-4.6-5.9v5.9zM121.7 90.2h4.6c.7-3-1-5.1-4.6-5.8v5.8zM81.6 125.4h-4.7v5.1h4.7v-5.1zM153.8 115.2v5.8h4.7c.8-2.7-.9-4.9-4.7-5.8zM153.8 146.2v5.8h4.7c.8-2.9-.9-5.1-4.7-5.8zM81.6 92h-4.7v5h4.7v-5zM52.9 92.1v5.1h4.7v-5.1h-4.7zM114 152h4.9v-5.8c-3.5.6-5 2.2-4.9 5.8zM121.7 152h4.6c.7-3-.9-5.1-4.6-5.8v5.8zM118.8 90.1v-5.8c-3.7.8-5.1 2.5-4.8 5.8h4.8zM220.5 75.2h4.5v-5h-4.5v5zM118.8 115.3c-3.7.9-5.1 2.6-4.7 5.8h4.7v-5.8zM217.8 70.2h-4.5v4.9h4.5v-4.9zM21.5 130.6h4.6v-5.1h-4.6v5.1zM121.7 115.3v5.8h4.6c.7-2.9-.8-5-4.6-5.8zM146.2 90.2h4.7v-5.8c-3.5.7-4.9 2.4-4.7 5.8zM26.1 97.1v-5h-4.7v5h4.7zM146.2 152h4.8v-5.8c-3.5.6-4.9 2.4-4.8 5.8zM220.4 81.6h4.5v-4.7h-4.5v4.7zM213.3 76.9v4.7h4.3c1.3-4.5.7-5.2-4.3-4.7zM150.9 115.3c-3.7.9-5.2 2.7-4.6 5.8h4.6v-5.8zM18.4 119.2h-4.7v3.9h4.7v-3.9zM50 119.2h-4.8v3.8H50v-3.8zM89.3 119.2h-4.5c-1.4 3.8-.6 4.4 4.5 3.8v-3.8zM76.9 123.1c.5 0 1 .1 1.4.1h3.3v-4h-4.7v3.9zM57.7 123.1v-3.8h-4.8v3.8h4.8zM84.5 56.4h4.7v-3.7h-4.7v3.7zM45.3 156.4H50v-3.8h-4.7v3.8zM45.3 56.4h4.8v-3.7h-4.8v3.7zM18.5 156.3v-3.7h-4.9v3.7h4.9zM84.5 156.4h4.8v-3.8h-4.8v3.8zM18.5 52.6h-4.8v3.8h4.8v-3.8zM84.5 89.8h4.8V86h-4.8v3.8zM50 86h-4.8v3.7H50V86zM13.6 85.9v3.8h4.8v-3.8h-4.8zM26.1 119.2h-4.7v3.8h4.7v-3.8zM52.9 152.6v3.8h4.7v-3.8h-4.7zM81.6 152.6h-4.8v3.8h4.8v-3.8zM52.9 56.4h4.8v-3.8h-4.8v3.8zM81.6 52.6h-4.8v3.8h4.8v-3.8zM76.7 86v3.7h4.8V86h-4.8zM21.3 152.7v3.6H26v-3.6h-4.7zM21.4 52.6v3.8h4.7v-3.8h-4.7zM57.7 85.9H53v3.8h4.7v-3.8zM21.4 89.8h4.7V86h-4.7v3.8zM13.6 83.6h4.9v-2.9h-4.9v2.9zM45.2 83.8h3.4c.4 0 .8-.1 1.4-.1v-2.9h-4.8v3zM84.6 83.6h4.7v-2.8c-4.9-.7-5.4-.5-4.7 2.8zM81.4 83.8c.8-3.4.3-3.7-4.6-3v2.8c.8.1 1.6.1 2.3.1.7.1 1.4.1 2.3.1zM52.9 80.7v2.9h4.7v-2.9h-4.7zM26 80.7h-4.7v2.9H26v-2.9zM89.2 47.4h-4.8v2.9h4.8v-2.9zM18.4 114h-4.8v2.9h4.8V114zM45.3 150.3h4.8v-2.8c-1.5-.1-3-.1-4.8-.2v3zM50.1 47.4h-4.8v2.9h4.8v-2.9zM45.3 116.9H50v-2.8h-4.7v2.8zM18.5 147.4h-4.8v2.9h4.8v-2.9zM84.4 150.3h4.8v-2.8h-4.8v2.8zM89.3 116.9v-2.8h-4.9v2.8h4.9zM13.6 50.3h4.9v-2.8h-4.9v2.8zM76.9 50.3h4.7v-2.8h-4.7v2.8zM57.6 114h-4.7v2.9h4.7V114zM81.6 150.2v-2.9h-4.7v2.9h4.7zM53 150.3h4.7v-2.9H53v2.9zM52.9 50.3h4.7v-2.8h-4.7v2.8zM81.6 116.8V114h-4.7v2.8h4.7zM26.1 150.2v-2.8h-4.7v2.8h4.7zM21.3 47.5v2.8h4.8v-2.8h-4.8zM26.2 116.9v-2.8h-4.8v2.8h4.8zM199.2 123.7h-16.3v.4h16.3v-.4zM237 124.2h16.1v-.4H237c.1.1 0 .3 0 .4zM210 124.1h16.3v-.4H210v.4z"
    fill="#fff"/>
  <path d="M410.4 82.1h39.4l1.1 36.3 3.1 36.3-47.8-.5 3.7-53.5z" fill="#fff"/>
  <path d="M245.3 116.3h61.3v18.8h-61.3zM348.1 116.3h61.3v18.8h-61.3zM451 116.3h61.3v18.8H451zM245.3 162.7h61.3v18.8h-61.3zM348.1 162.7h61.3v18.8h-61.3zM451 162.7h61.3v18.8H451z" fill="#e50000"/>
  <path d="M267.1 111.3h8.9v89.1h-8.9zM477.7 111.3h8.9v89.1h-8.9zM325.4 49h4.9v146.4h-4.9z"/>
  <path d="M306.6 116.3h41.6v18.8h-41.6zM306.6 162.7h41.6v18.8h-41.6zM409.5 116.3h41.6v18.8h-41.6zM409.5 162.7h41.6v18.8h-41.6z" fill="#fff"/>
  <path
    d="M406.8 149c-.4 1.7-.8 3.4-.6 5.2-2.1.2-1.9-1.5-2-2.7-.3-2.3-1-4.5-.9-6.7.1-3.2-2-5-3.7-6.9-5.8-6.4-11.8-12.6-17.7-18.9-.9-1-1.7-2.2-2.6-3.3V110c8.4-8.5 16.9-17 25.3-25.6 1.6-1.7 3.5-2.5 5.8-2.4.8 7.2.7 14.5 1.1 21.7-.1 1.6-.1 3.1-.2 4.7-1.1 2.5.3 5.4-1.4 7.8v-15.6c-1.7 1-2.8 2-3.9 3.1-3.2 3-6.4 5.9-9.7 8.7-1.4 1.1-.7 2 0 3 3.8 4.6 7.7 9.2 11.6 13.9.3 6.6-1.1 13.1-1.1 19.7zM448.7 109v-5.2c0-3.5.1-7.1.1-10.6 0-3.8.3-7.5 1.1-11.1 2 0 3.7.8 5.1 2.2 5.5 5.5 11.1 10.9 16.4 16.5 2.7 2.9 5.3 5.8 8.2 8.5.7.7.6 1.7 1.4 2.2v4.2c-1.9 3.5-5.1 5.8-7.6 8.8-3.4 4.2-7.4 7.9-11.1 11.8-1.6 1.7-3.4 3.2-4.5 5.2-1.3 2.2-1.2 5-1.6 7.5-.2 1.6-.9 3.1-.6 4.8.2 1.2-.9.7-1.4.8-.1-.4 0-.9-.5-1-.1-1.6-.1-3.1-.2-4.7-.7-6.6-1.5-13.1-1.4-19.7 4.6-4.4 8.1-9.8 12.5-14.4.5-.6.4-.7-.3-1.3-3.1-2.7-6-5.6-9.1-8.3-1.7-1.5-3.4-2.9-5.4-4.6v14.6c-1-1.9-1.1-4-1.1-6.2zM443.6 247.7c0-.1-.1-.2-.1-.2-3.4.1-3.3-2-2.9-4.4 7.7.1 15.1-1.6 22.3-4.2 2.4 2.5 3.4 5.5 3.5 8.8h-22.8zM453.4 167.3c1 9.9 1.1 19.9 1.1 29.8 0 3 1.2 6 .9 9.1-.4 3.5-.9 6.9 0 10.4.2.8-.3.9-1 1-2.5.4-4.9 1.4-7.4 1.4-3.1 0-6.1.8-9.2.7-1.2 0-1.6-.3-1.6-1.6.1-8.6-2.4-16.8-3.7-25.2-.8-5.2-1.7-10.3-2.4-15.5-.1-.7.1-1.4-.9-1.7-.9 7-1.7 14-2.8 21-1 6.9-1.9 13.8-3.6 20.6-.7 2.6-2 2.1-4.1 2-5.2-.3-10.2-1.4-15.3-2.2-1.1-.2-1.5-.5-1.4-1.5.5-4.8 1.1-9.6 1.4-14.4.2-3.3 1-6.6 1-9.8.1-5.5.8-11 .6-16.5-.1-2.6.6-5.1.6-7.6H425c1.4 0 2.1-.3 2.4-1.9.6-3.6 1.5-7.2 2.3-11.2.8 3.7 1.8 6.9 2.1 10.3.3 2.5 1.4 2.9 3.5 2.9 6.2-.2 12.2-.1 18.1-.1z"
    fill="#181615"/>
  <path d="M453.4 167.3c-5.9 0-11.9-.1-17.8-.1-2.1 0-3.3-.4-3.5-2.9-.4-3.3-1.3-6.6-2.1-10.3-.9 4-1.8 7.6-2.3 11.2-.3 1.7-1 1.9-2.4 1.9h-19.4c-1.1-1.5-.8-3.2-.5-4.7.6-2.8.1-5.6.9-8.3 5.1 0 10.2.4 15.3-.1 4.5-.4 9-.8 13.4-.3 5.4.6 10.8.2 16.2.4.8 0 1.7.4 2.4-.5.5.2.4.7.5 1-.5 3.6.8 7.1.4 10.7-.1.9.3 1.9-1.1 2z" fill="#f19000"/>
  <path d="M415 242.6c0 4.6 0 4.6-4.5 4.6-6.3 0-12.6-.1-18.9.1-2.7.1-2.3-1.4-2-2.9.7-3 2.5-5.3 5-7.1 6.4 3.5 13.2 5.3 20.4 5.3z" fill="#181615"/>
  <path d="M462.8 238.8c-7.2 2.5-14.6 4.2-22.3 4.2.1-2.2-.6-4.2-1.4-6.1-.5-1.3-.1-1.6 1.2-1.7 5.6-.6 11.3-.3 16.8-2 1.3-.4 2.8-.2 3 1.7.3 1.8 1.8 2.6 2.7 3.9zM415 242.6c-7.2 0-14-1.7-20.3-5.3.5-.7 1.2-1.3 1.4-2.1.6-3 2.2-3.4 4.9-2.6 5.5 1.7 11.3 1.8 17.2 2.3-1.1 2.6-1.4 5.4-3.2 7.7zM401.3 222.1c4.1.7 7.8 1.5 11.6 2 1.7.2 3.5-.1 5.1.3 1 .2 3-.3 2.6 1.8-.9 4.5-.3 4.6-3.5 4.1-3.9-.5-7.8-.5-11.7-1.3-1.8-.4-3.7-.7-5.5-1.1-.2 0-.7-.1-.7-.2-.3-1.9 1-3.3 1.2-5 .2-1 .7-.7.9-.6zM442.3 230.5h-1.5c-3.6 0-4.7-1.3-4.5-4.9.1-.7.4-.8 1-.8 6.1 0 12.2-.6 18.2-2 .8-.2 1.3.2 1.6 1 1.7 4.4 1.6 4.9-3 5.6-4.1.6-8 1.3-11.8 1.1zM439.9 128.9c0 6-.1 11.9 0 17.9 0 1.9-.5 2.3-2.3 2.3-5.2-.1-10.4-.1-15.5 0-1.4 0-1.9-.3-1.9-1.9.1-12.3.1-24.6 0-36.8 0-1.5.5-1.9 1.9-1.9 5.3.1 10.5.1 15.8 0 1.9 0 2.1.7 2 2.3v18.1z" fill="#f19000"/>
  <path d="M429.6 59.7c4.3 0 8.6.1 13 0 1.8-.1 2.4.6 2.6 2.3.6 8.6-4.6 15.3-12.5 16.8-7.6 1.4-15.2-2.2-17.8-10.7-.7-2.4-1-4.9-.4-7.4.3-1.3 1-.9 1.7-.9 4.4-.1 8.9-.1 13.4-.1z" fill="#181615"/>
  <path d="M434.5 58.7c-6.4.5-13.9-.9-21.5-.5-1.2.1-2-.4-1.6-1.6.4-1.2-1.5-3.4 1.3-3.6 1.1-.1 1.4-.6 1.9-1.7 1.5-3.8 4.2-6.6 7.6-8.7 1.5-.9 2.3-.8 2.2 1.3-.1 2.6 0 5.2-.1 7.8-.1 2.2.9 3.5 3 3.7 2 .2 4 .3 5.9 0 1.5-.2 2.7-1.2 2.6-3.2-.1-2.9 0-5.9 0-8.8 0-1.4.5-1.6 1.7-.9 3.8 2.1 6.4 5.2 8.1 9.1.3.6.4 1.1 1 1.3.7.3 1.9-.6 2.1.8.1 1.5.1 3-.1 4.4-.1.9-1.2.5-1.8.5-3.7.1-7.4.1-12.3.1zM436.8 82.1c4-.2 3.8-.2 3.7 3.8-.1 5.3-1 10.6-.5 16 .1 1.6-.4 2.1-2 2-5.3-.1-10.5-.1-15.8 0-1.7 0-1.8-.6-2-2.1-.9-6.5.1-13-1.3-19.6 1.5-.3 3-.2 4.5-.1 1.2 6.5 3.3 12.7 6.5 18.6 1.5-2.2 2.5-4.5 3.3-6.9 1.2-3.8 2.4-7.7 3.6-11.7zM406.8 149c0-6.6 1.3-13.1 1-19.7.9-.9.4-1.9.4-2.9-.1-3.5-.1-6.9 1.7-10.1 1.7-2.4.3-5.3 1.4-7.8.2.2.4.4.6.4 1.1.3 2.8-.5 3.4.5.6 1 .3 2.5.3 3.8.1 11.3-.9 22.5-.5 33.8.1 1.6-.5 2.1-2 2-2.1-.1-4.2 0-6.3 0zM451.9 129.3c-.1 6.6.7 13.2 1.4 19.7H446c-1.1 0-1.5-.3-1.5-1.5v-37.1c0-1.1.4-1.6 1.5-1.5.9.1 1.7 0 2.6 0 .1 2.1.2 4.2 1 6.2 1.9 4.7 1.9 9.5 2.3 14.2z" fill="#f19000"/>
  <path d="M436.8 82.1c-1.2 3.9-2.4 7.8-3.7 11.8-.8 2.4-1.8 4.7-3.3 6.9-3.2-6-5.3-12.2-6.5-18.6 4.5-.1 9-.1 13.5-.1z" fill="#181615"/>
  <path d="M449.8 82.1c-.7 3.7-1.1 7.4-1.1 11.1 0 3.5 0 7.1-.1 10.6-4.1 0-4 0-4.1-4.1 0-4.8 0-9.6.5-14.4.5-3.4.4-3.4 4.8-3.2zM411.5 103.9c-.4-7.2-.4-14.5-1.1-21.7.7 0 1.4 0 2.1-.1 1.8-.3 1.9.6 2.2 2.1.9 5.7-.1 11.5.9 17.2.6 3.9-2.5 2-4.1 2.5zM427 46.5v-2.8c0-3.3.3-3.7 3.2-3.6 2.8 0 3.5.7 3.6 3.7 0 2 .1 4 0 6-.1 2.5-.9 2.8-4.6 2.9-2.3 0-2.2-1.4-2.1-2.9-.1-1.2-.1-2.3-.1-3.3zM276 201l-72.8-23.1-35.6 12.1-38.7-26.3-48.5-2.4-47.1 16.6L0 201.4z" fill="#f19000"/>
  <path d="M356.8 82H302c-2.6 0-4.9-1.5-6-3.8l-6.6-14.4c-.8-1.7-.8-3.7 0-5.5l6.6-14.4c1.1-2.3 3.4-3.8 6-3.8h54.8c3.6 0 6.6 2.9 6.6 6.6v28.9c-.1 3.5-3 6.4-6.6 6.4z" fill="#ffd62e" stroke="#000" stroke-miterlimit="10" stroke-width="4"/>
  <text font-family="AmsterdamSans-ExtraBold" font-size="36" transform="translate(316.99 73.41)">H</text>
  <path d="M52 215h36l-.4-1.2h-2.9l-12.3-42-2.4.1-14.5 41.9h-2.9z" fill="#ec1c24"/>
  <path d="M66.9 181.3h8.4l1.8 5.7H64.8zM62.7 192.8h16.2l1.7 5.9-19.9-.4zM58.6 204.5h23.2l1.7 5.8H56.7z" fill="#fcfcfc"/>
  <path
    d="M132.5 119.3c-.7.8-1.3 1.5-2 2.4-2.3-2.3-4.4-4.6-6.7-6.7-2.3-2-2.4-4.5-.2-7 2.7-3 5.4-5.9 8.1-8.9 1.9-2.1 3.8-4.2 5.6-6.4 2.1-2.6 5.2-3.2 8.6-.2 3.1 2.8 6.2 5.7 9.3 8.5 1.7 1.6 3.5 3.1 5.3 4.5 3 2.4 3.9 5.9 5.2 9.2 3.3 9 6.8 18 10.1 27 1.1 3 2.2 6 3.4 8.9.3.8.8 1.5 1.4 2.1 2.9 2.9 3.8 6.1 2.2 9.9-1.6 1.8-1.6 1.8-3.5 0-1.5-1.5-3.1-3-4.6-4.6-.7-.8-1.4-1.7-1.9-2.6-1.1-2-2.1-4.1-3.1-6.2 0-.4 0-.8-.1-1.1-2.1-4.7-4.2-9.4-6.3-14.2-1.9-4.3-3.7-8.6-5.5-12.9-1-2.2-2-4.4-3-6.7-.2.1-.5.1-.7.2.1 1 .1 2.1.5 3 .9 2.2 2 4.3 2.8 6.4.2.5-.1 1.5-.5 2-1.7 1.9-3.6 3.8-5.4 5.6l-3.1 3.1c-.8.7-1.6 1.4-2.5 2.1 3.6 3.8 7 7.3 10.4 10.7 1.6 1.7 3.3 3.2 4.9 4.9 1.6 1.7 2.2 3.8 1.7 6.2-.6 3-1.1 6.1-1.7 9.1-.9 5.3-1.8 10.6-2.8 15.9-.2 1.3-.3 1.9 1.3 2.4 3.8 1.2 6.1 3.8 6.1 8h-17.3v-31.8c0-.6-.1-1.5-.5-1.8-4.5-3.2-9-6.4-13.6-9.4-.3-.2-1.3-.1-1.5.1-4.6 5.5-9.1 11-13.7 16.5-5.2 6.2-10.5 12.5-15.8 18.7 2.5.9 4.1 2.7 4.8 5.2.2.8.3 1.7.5 2.5H91.4V186c.9-1.2 1.9-2.3 2.6-3.6 6.1-10.6 12-21.1 18.1-31.7 3.8-6.6 7.4-13.4 11.7-19.8 2.4-3.5 5.9-6.3 8.9-9.4.4-.5.8-1.1 1.1-1.6l3.1-3.1h.4c3.3-3.4 6.6-6.9 9.6-10-1.7-1.8-3.6-3.6-5.3-5.4l-10 10c.2.3.5.7.7 1 .2.2.3.4.5.6l.1-.1c-.3 2.3-.4 4.4-.4 6.4z"
    fill="#1d1d1b"/>
  <path d="M206 177.7c-.8 2.5-1.4 5-2.3 7.5-.3.7-1 1.5-1.7 1.7-2.5.8-5 1.4-7.5 2-.4.1-.9 0-1.2-.2-4.3-4.2-8.6-8.5-13-12.8 1.6-1.5 3.1-2.9 4.6-4.4-.7-.8-1.2-1.3-1.6-1.7-11.3-11.3-22.6-22.5-33.9-33.8-.4-.4-.8-.9-1.2-1.4l3.1-3.1c5.6 5.5 11.1 11 16.7 16.5.5.4 1.1.7 1.6 1.1 1 2.1 2 4.2 3.1 6.2.5 1 1.2 1.8 1.9 2.6 1.5 1.6 3.1 3.1 4.6 4.6 1.9 1.9 1.9 1.9 3.5 0 1.8 1.7 3.6 3.4 5.5 5.2 1.3-1.3 2.7-2.8 4.2-4.3 4.7 4.5 9.1 8.9 13.6 13.3v1z" fill="#e10613"/>
  <path d="M170.3 88c.8.2 1.6.3 2.3.7 4 1.7 7 5.2 6.3 10.7-.6 4.5-3 7.4-7.6 8.3-7.3 1.3-12.7-3.7-12.1-10.7.4-4.5 3.8-8.2 8.3-8.7.1 0 .2-.2.3-.3h2.5z" fill="#3a3a3a"/>
  <path d="m136.7 117.1-3.1 3.1c-.4-.3-.8-.6-1.1-.9.1-2 .1-4 .2-6.1 1.3 1.3 2.6 2.6 4 3.9zM132.1 112.7c.2.2.3.4.5.6-.2-.2-.3-.4-.5-.6z" fill="#e10613"/>
  <path d="M120.5 133.5c2.4-3.5 8.9-8.7 11.9-11.8l4.5-4.7c3.3-3.4 6.6-6.9 9.6-10-1.7-1.8-3.6-3.6-5.3-5.4l-10 10c.2.3.5.7.7 1 .2.2.3.4.5.6l.1-.1c-.1 2 2.3 1.8 2.2 3.8-.7.8-3.7 3.8-4.4 4.6-2.3-2.3-4.4-4.6-6.7-6.7-2.3-2-2.4-4.5-.2-7 2.7-3 5.4-5.9 8.1-8.9 1.9-2.1 3.8-4.2 5.6-6.4 2.1-2.6 5.2-3.2 8.6-.2 3.1 2.8 6.2 5.7 9.3 8.5 1.7 1.6 3.5 3.1 5.3 4.5 3 2.4 3.9 5.9 5.2 9.2 3.3 9 6.8 18 10.1 27 1.1 3 2.2 6 3.4 8.9l-8.2 2.1c-1.1-2-.4-1.4-1.4-3.5 0-.4 0-.8-.1-1.1-2.1-4.7-4.2-9.4-6.3-14.2-1.9-4.3-2.3-4.8-4.2-9.1l-2.2 1.1c-1.7 1.9-3.6 3.8-5.4 5.6l-3.1 3.1c-.8.7-1.6 1.4-2.5 2.1l-5.6-1-19.5-2zM161.4 89.2c2.1-2.6 5.3-4.2 8.9-4.2 6.3 0 12.2 5.2 11.5 11.5-.4 3.2.4 7 .4 8.8 0 1.7-20.8-16.1-20.8-16.1z" fill="#f19000"/>
  <path d="m164.8 86.4 16.9 13.5v-2l-15.6-12.1z" fill="#fcfafa"/>
  <path d="m144.4 109.2 12.2 16.7-1.8 2-12.3-16.6zM140.1 113.4l12.1 16.8-1.8 1.9-12.3-16.6z" fill="#fcfbfa"/>
</svg>
