<svg xmlns="http://www.w3.org/2000/svg" viewBox="0 0 256 256">
  <path
    d="M114.782 80.6c-.6-2-.9-4-.2-6 .6-1.5-.1-2.4-1.3-3.2-3.4-2.2-6.2-1.6-10.5 2.1 0-6-.5-12.1 0-18.1.6-5.9.3-11.5-1.2-17.3-1-4.1 2.9-9.7 7-11 1-.3 1.4.2 1.6.8 2 8 5 15.8 4.5 24.3-.3 5.7 1 11.4.8 17.2 1.5-6.6 3.5-13.2 4.5-19.9 1.2-7.6 5.4-13.7 8.8-20.2.6-1.2 1.1-.6 1.9-.2 3.7 1.8 6.2 8.8 3.8 12.8-2.9 4.9-3 10.5-4 15.9-.9 4.7-1.6 9.5-2.5 14.2-.4 1.9-.3 3.3 1.3 4.6 2.6 2.2 5.2 4.4 7.8 6.7 1.2 1.1 1.5.9 2.3-.4 1.7-2.7 1.6-5.5 1.7-8.5.1-5.5-1.3-11 2.3-16.2 2.4-3.4 8.4-6 12.9-5.4 2.9.4 5.3 1.4 7.3 3.4 1.4 1.3 3.1 1.3 4.7 1.7 7.7 2 13.9 8 13.1 18.4-.6 7.3-5.6 13.5-13.9 15-5.9 1-11.4-.6-15.6-5.2-.6-.7-1-.9-1.3-.2-1.3 2.6-4 3-6.4 4.1l2.7 3c-3.5 0-6.415.598-8.515 3.998-1.2 2 .192 4.559-.008 6.659-1 .3-2.677-1.357-3.177-1.857-6.3-6.2-12.5-12.5-18.8-18.7-.4-1-1-1.7-1.6-2.5Zm81.6 85c4.8-5.2 10.1-9.9 14-15.9.6-.9 1.2-1.7 1.9-2.6 3.3-.3 6.4 2.3 7.6 5.9l13.2 39c.4 1.2 1 2.1 2.4 2.7 4.6 1.8 8.9 3.9 10.3 9.4.9 3.8.9 4.1-2.9 3.8-5.1-.4-10.2-.7-15.3-1.1-.8-.1-1.7-.3-2.6-.4 2.4 6.7 4.6 13.3 7.2 19.8.9 2.4.2 2.3-1.8 2.6-6.9 1-10.6-3.4-14.1-8-.8-1.1-1.8-1.5-2.9-1.9-13.5-4-27-8.1-40.5-12.1-2.1-.6-3.7-1.8-5-3.6-3.5-5-7.2-9.8-10.4-15 6.5-2.6 13-5.4 19.3-8.7.9 1.8 1.9 3.5 2.7 5.4 1.6 3.7 3.8 6.3 7.8 7.8 10.3 4 20.4 8.8 30.5 13.2 1.7.7 3.1.5 3.6-1.4.5-1.8.7-3.8-.2-5.5-5.1-10.6-10.2-21.2-15.2-31.8-.5-1.2-1.2-1.6-2.4-1.6-2.4.1-4.8 0-7.2 0Zm-6.5-59.7c.4-4.6-1-7.8-4.5-8.9-2.1-.7-4.4-.7-6.6-1 5-7.4 10-14.8 14.8-22.3 1.7-2.7 1.9-6 2.6-9.1 1.7-6.8 3-13.6 4.6-20.4.6-2.5.4-4.9.3-7.3-.1-4.5 3.7-8.1 7-9.2 1.5-.5 3-.7 3.1 2.1.1 4 1 7.9 1.5 11.9.4 2.9-.7 5.7-1.2 8.5-1 6.7-3 13.4-3.6 20.1-.6 6.6-3.6 11.9-6.8 17.3l-10.5 17.7c0 .2-.4.4-.7.6Zm-106.9-32c.9 8.3-7.6 17.5-17.7 16.8-9.5-.7-16.2-7.6-16.1-16.8.1-10.7 6.9-16.9 17.1-17.2 9-.2 17.2 7.3 16.7 17.2Zm-47.8-4.7c-6-2.9-10.6-.5-11 6-4.6-9.5-9.3-19-13.8-28.5-.7-1.4-.3-2.9.1-4.4 1.1-4 1.9-8.1 2.8-12.1.3-1.6.9-1.8 2.4-1.1 5.1 2.3 7.3 6.2 6.4 11.8-.7 4.2 2.3 7.1 3.9 10.5 2.9 6 6.9 11.5 9.2 17.8Zm88.4-53.9c.8-3.6 2.3-6.9 4.9-10 .6 2.6-2.2 8.6-4.9 10Zm-19.9-7.7c.9 1 1.9 2.1 2.8 3.2 1.1 1.2 2.1 2.4 3.1 3.7.3.4.5 1.1-.1 1.4-.3.2-1.1.1-1.2-.1-1.3-2.5-4-3.8-5.3-6.3-.3-.7-.6-1.3.7-1.9Zm11-2.3c.5-.8-.6-2.3.8-2.3 1.1 0 .8 1.3 1 2.2.5 2 .3 4 1 6 .2.6.6 1.8-.5 2.1-1.4.3-1-.9-1.1-1.6-.4-2.2-.9-4.4-1.2-6.4ZM90.782 157c.5 3.6 1.1 7.1 1.6 10.7.7 5.1 1.4 10.2 2.1 15.4.6 4.9 1.1 9.8 1.7 14.6.7 5.4 1.2 10.8 2.1 16.2.8 5 1.2 10.1 1.7 15.2.3 3.2 1.1 6.3 1.2 9.6 0 1.3.8 2.3 2.6 2.8 5.1 1.4 9.2 4.2 10.3 9.9.3 1.5.2 2.1-1.6 2.1-7.3-.1-14.6 0-21.9 0-.8 0-1.7.2-1.6-1.2.4-8.3-2.8-15.8-4.8-23.6l-10.2-40.8c-.8.3-.9.8-.9 1.5-.5 7.1-.9 14.2-1.7 21.2-.8 8.1-1.5 16.3-2.2 24.4-.5 6.4-1.5 12.7-1.6 19.1h-24.7c0-5.2 3-9.4 8.5-10.9 2.6-.7 3.1-1.9 3.1-4.3.1-9.4-.6-18.7-.8-28.1-.1-5.5.1-11.1-.5-16.6-.7-6.1.1-12.2-.6-18.2-.6-5.5-.3-10.9-.4-16.3 1.7 4.1 4.6 6.1 9.3 6.1 5.9 0 11.7-1.1 17.5-1.2 5.4-.1 10-1.9 11.8-7.6Z"/>
  <path d="M147.082 92.7c4.7.1 8.1 2.9 12 5 4 2.1 8.9 2.3 12.7-1.5 1.2-1.2 2.7-.9 4.1-.5 1 .3 1.9.3 2.9.2 2.2.3 4.5.3 6.6 1 3.5 1.2 4.9 4.3 4.5 8.9-1.1 3.2-3 5.9-5 8.5-3.1 4-4.2 8.4-4.3 13.2-.1 3.5-.4 7-1.1 10.4-.3 1.8 1.4 1.5 2.2 1.7 4.1 1.1 8.4 1.8 12.5 2.9 6 1.5 12.2 2.4 18.1 4.5-.6.9-1.3 1.7-1.9 2.6-3.9 6-9.2 10.7-14 15.9-6.2 5.1-12.8 9.8-19.7 13.9-6.3 3.3-12.7 6.1-19.3 8.7-4.5 1-8.9 2.4-13.5 3-2.5.4-4.9.1-7.3.2-.8 0-1.2-.2-1.1-1.3.3-3.2.4-6.5.8-9.7.5-4.6 1-9.1 1.6-13.6.8-6.4 1.2-12.9 2.1-19.3.5-4.1.8-8.2 1.2-12.4.7-7.1 1.3-14.1 2.2-21.2.5-4-2.4-5.9-4.2-8.6-.4-.6-.9-1.1-1.4-1.6.049-.245-.331-.391-.388-.589-.059-.206.197-.46-.212-.511l.1.1c.2-2.1-.2-4.3 1-6.3 2-3.4 5.3-3.6 8.8-3.6Z" fill="#e60000"/>
  <path d="M90.782 158c-1.8 5.7-6.3 7.5-11.6 7.6-5.9.1-11.6 1.2-17.5 1.2-4.6 0-7.5-2-9.3-6.1-1-8.7-1.6-17.4-2.3-26.1-.3-4-1-8-1.1-12.1 0-2.4-1.7-4.4-2.8-6.3-6.1-10.1-11.2-20.6-16.8-30.9-1.8-3.3-3.8-6.5-5.1-10.1.4-6.5 5-9 11-6 4.3 5.7 7.6 12.1 11.4 18.2 1.4 2.2 2.7 4.4 4 6.7.7 1.3 1.7 1.7 3.1 1.4 5.9-.9 11.8-1.2 17.7-1.7 3.4-.3 6.8-.6 10.2-1.1 2.1-.3 3.2-2.3 4.6-3.6 5.7-5 11.1-10.3 16.7-15.6 4.3-3.7 7.1-4.3 10.5-2.1 1.2.7 1.8 1.6 1.3 3.2-.7 2-.4 4 .2 6-1.7 2.4-3.9 4.3-6 6.3-7 7-14 14.1-20.8 21.3-1.9 2.1-1.4 4.4-1 6.4.5 2.8.5 5.6.8 8.3 1.1 9.3 1.4 18.7 2.4 28 .1 2.4 0 4.8.4 7.1Z" fill="#f19000"/>
</svg>
