<svg xmlns="http://www.w3.org/2000/svg" viewBox="0 0 512 256">
  <path fill="#323232" d="M289.4 120.5c18.2 0 36.5-.1 54.7-.1 3.7 1 7.6.2 11.2 1.6 4.2 10.9 8.5 21.9 12.6 32.8.6 1.6 1.4 2.3 3.2 2.3 4.9-.1 9.8 0 14.7 0 4.4 0 5.3.8 5.3 5.2V249c0 1.7-.4 3.1-1.5 4.4h-130c-.9-1.2-.7-2.6-.7-4 0-41.4 0-82.8-.1-124.2 0-2.4.6-4 2.9-4.8 3 .3 5.4 2.8 8.6 2.2 5.4-1.2 10.9-.4 16.4-.7 1.2 0 2.6.5 2.7-1.4Z"/>
  <path fill="#181615" d="M288.3 121.7c-.1 1.8-1.5 1.3-2.6 1.4-5.3.2-10.7-.5-16 .7-3.1.7-5.5-1.9-8.4-2.2-9.3-3.9-18.7-7.8-28-11.8-4-1.7-8.5-2.5-10.9-6.7-1.6.9-.7 2.4-1 3.6-2.5 10.6-4.5 21.2-5.4 32-.9 10.5-1.7 20.9-2.7 31.4-.8 7.8-1.3 15.7-2.1 23.5-1 9.6-1.1 19.2-2.3 28.7-.4 3.5-.1 7-1.1 10.5-.7 2.5-.7 5.2 3.2 6.2 7.3 1.8 10.6 7.2 11.1 14.6h-31.6c.1-8.3-.4-16.5-1.3-24.8-1-9.3-1.3-18.7-2.2-28-.3-3.1-.2-6.2-.6-9.2-1.4-9-1.8-18.1-2.6-27.2-.6-6.6-1.2-13.2-1.7-19.8-.2-2.9.6-6.1-1.1-8.9v-14.6c1.1-5.3 2.4-10.6 3.4-16 1.3-6.9 2.4-13.8 3.6-20.7 1.3-7 2.8-13.9 3.9-20.9 1.8-10.7 13.2-17 22.6-14.3 9.7 2.8 13.2 9.7 13.9 18.4.3 4.3 2.5 8.1 3.6 12.2.8 2.9 2.5 5.6 3.1 8.5.7 3.9 2.9 5.9 6.3 7.4 9.3 4.2 18.5 8.6 27.8 13 .9.4 1.6.6 2.6.6 10.7.2 12.9 1.9 16.5 12.4ZM406 253.5c-.4-7 3.1-11.5 9.3-14.1 1.5-.6 4.1-.9 4.4-1.9.7-2.2.8-5 .2-7.3-1.1-3.9-.6-7.8-1.1-11.7-1.2-9.2-1.4-18.6-2.3-27.9-1.1-11.1-2.5-22.2-2.8-33.4h31.6c-.9 9.2-1.9 18.4-2.8 27.7-.6 6.5-.8 13.1-1.5 19.6-1 9.4-1.6 18.7-2.6 28.1-.7 6.9-1.3 13.9-.9 20.9H406ZM476.3 48c-3.9 5.3-8.7 8.5-15.7 7.8-4.5-.5-8.1-3.5-9-8-.7-3.7-.6-7.4-.7-11 0-2.3.4-4.7-1-6.7-4.1 9.8-11.6 14.9-22.4 14.3-9.1-.4-18.4-8.4-19.5-18-1.3-11.7 3.4-20 15.5-24.9h11.2c4.7 1.8 9.1 4.2 12 8.4 1 1.5 2.2 2.3 3.7 2.6 4.3.9 7 3.8 8.7 7.5 2.3 5.1 4.3 10.4 6.6 15.6 2.2 5 4.8 9.8 10.5 11.6l.1.8ZM221.1 1.5c5.1 1.4 9.6 3.6 13.1 7.8 6.8 8 6.9 20.1-.1 28.1-8.6 9.9-21.8 10-31.8 1.9-5.7-4.6-8.1-16-5.4-23.3 2.9-7.9 8.9-12 16.4-14.5h7.8Zm189.9 101V98c-2.4 4.4-6.5 6.4-10.7 8.4-9.4 4.6-18.7 9.2-28 13.9-4 2-7.7 4.3-12.5 2.7-1.3-.5-3 0-4.5 0-3.6-1.5-7.6-.6-11.2-1.6-1-5.8 6.5-13.6 12.5-12.5 6.5 1.2 10.9-3.4 16-5.9 6.3-3.1 12.1-7.1 18.3-10.4 3.4-1.8 5.6-4.4 7.4-7.7 5-9.7 9.9-19.4 15.5-28.7 4.5-7.5 11.5-9.6 18.3-8.3 8.8 1.7 13.9 6.4 15.4 15.4 1.5 9.4.3 18.9.7 28.3.1 3.6 0 7.3-.1 10.9H411Z"/>
  <path fill="#2f9e37" d="M411 102.5h37c1.8 8.4 3.5 16.7 5.3 25.1l6 27c.3 1.4-.2 1.8-1.7 2.2-4.1 1.1-8.3 0-12.3 1.4h-31.6c-4.9-.8-9.9-.5-14.6-1.8 1.5-7.9 3.8-15.6 4.8-23.5 2.5-9.3 4.4-18.8 6.2-28.2.3-.8.6-1.5.9-2.2Z"/>
  <path fill="#181615" d="M410.1 104.6c-1.8 9.5-3.7 18.9-6.2 28.3-3 2-5.2 4.9-7.8 7.4-2.4 2.4-5.2 3.7-8.5 3.7-5.4.1-10.8-.1-16.1.1-2.2.1-2.3-1-2.1-2.5 1.1-6.2 5.2-11.6 12.1-11.6 5.7-.1 8.6-4.6 11.7-8.2 5.4-6.1 11.2-11.6 16.9-17.2Z"/>
  <path fill="#171316" d="M35.8 246.7c0 1.4.2 2.7 0 4-.5 2.9.5 4 3.4 3.4.7-1 1.7-1 2.7-1.4 7.3-2.8 14.6-5.8 22-8.7v-4c-.9-1.8-1.8-3.7-1.9-5.7-.1-12.4.3-24.8-.7-37.1-.2-2.4.9-2.6 2.7-2.2 1.6 0 3.1-.1 4.7-.1 13.4 0 26.8-.1 40.2-.1 7.3-2.9 12.4-9.4 12.2-18.5-.4-18.9-.2-37.9-.1-56.9 0-7-3.4-12.3-9.2-15.1-6.3-3.1-13.1-2.6-19.2 1.7-3.9 2.8-8 5.5-12.4 8.6 2.6-8.1 5-15.6 7.5-23.4.7.7 1.2 1.1 1.7 1.6 5.9 5.5 16 7 23.4 3.4 5.8-2.8 8.6-7.5 10.9-12.9V72.5c-1.7-3.1-2.7-6.4-5.2-9.1-2.7-2.9-6.2-4.1-9.5-5.7H98.2c-.1.8-.8.5-1.3.7-5.8 2.2-10.2 5.8-12.1 12 5.2 0 10.5.1 15.7.1 1.6 0 2.4.3 2.4 2.2-.1 4.8-.1 9.7 0 14.5 0 1.8-.6 2.3-2.3 2.3-3.3-.1-6.7-.1-10 0-1.5 0-2.3-.1-2.5-2.1-.5-4.6-2.6-8.3-6.9-10.6-1.8-1-2.4-.4-3 1.3-1.3 3.8-2.8 7.6-4.1 11.4-.4 1.2-.8 2.4-1.3 3.6-5 13.3-10 26.7-15 40-.4 1-.3 1.8-.1 2.9 1.6 6.5 8.1 8.6 13.5 4.7 4.6-3.3 9.7-6 15-9.3 0 9.5-.1 18.4.1 27.4.1 3.2-.4 4.9-4.2 4.9-1.7 0-3.6.5-5.4.9-8.2 1.6-16.4 3.2-24.7 4.3-7.3.9-13.4 3.2-16 10.9v5.4c.5.1.6.5.7 1 .8 7 2.6 13.9 3.8 20.8 1.6 8.9 3.2 17.7 4.9 26.6.1.8.6 1.5-.4 2.2-4.4 2.3-7.6 5.9-9.2 10.9Z"/>
  <path fill="#da007a" d="M63.9 239v4c0 3.4.1 6.7.1 10.1h56.9c0-18.8 0-37.7.1-56.5 0-2.2-.5-2.9-2.7-2.8-3.1.2-6.2 0-9.3-.1-13.4 0-26.8.1-40.2.1-1.6 0-3.1.1-4.7.1-.2 15.1-.2 30.1-.2 45.1ZM84.7 70.2c-4.1 0-8.2.2-12.3.1-2.4-.1-3.3.4-3.2 3.1.2 3.8.1 7.6.1 11.4 0 3 1.5 4.5 4.6 4.5l4.2-11.4c.6-1.6 1.3-2.2 3-1.3 4.3 2.3 6.4 6 6.9 10.6.2 2 1 2.1 2.5 2.1 3.4-.1 6.7-.1 10 0 1.7.1 2.4-.4 2.3-2.3-.1-4.8-.1-9.7 0-14.5.1-1.9-.8-2.2-2.4-2.2-5.2 0-10.4-.1-15.7-.1Z"/>
  <path fill="#00a0ed" d="M271.1 123.6c-3.1.7-5.6-1.9-8.6-2.2-9.5-3.9-19.1-7.8-28.6-11.9-4.1-1.7-8.7-2.5-11.2-6.8-1.6.9-.7 2.4-1 3.6-1.1 4.7-4.3 32.8-4.3 32.8s-36.1-2.1-37.1-3.6v-14.8c1.2-5.4 2.4-10.7 3.5-16.1 1.3-6.9 2.4-13.9 3.7-20.8 1.3-7 2.8-14.1 4-21.1 1.8-10.8 13.5-17.2 23.1-14.5 9.9 2.8 13.5 9.8 14.2 18.5.3 4.3 2.5 8.2 3.7 12.3.8 2.9 2.6 5.6 3.1 8.6.7 3.9 3 6 6.4 7.5 9.5 4.2 18.9 8.7 28.4 13.1.9.5 6.1 14.3.7 15.4Z"/>
</svg>
