<svg xmlns="http://www.w3.org/2000/svg" viewBox="0 0 240 270" fill-rule="evenodd" clip-rule="evenodd">
  <path fill="#D08C4C" d="M170.457 38.97c5.876 5.841 12.584 22.687 6.396 26.442-2.236 1.356-6.136 1.617-10.452.678l3.692 22.687h-16.224l5.408-25.138c-5.356-2.712-10.14-7.198-11.596-13.508-3.276-14.186 16.9-17.003 22.776-11.161Z" />
  <path fill="#000" d="M170.981 38.458c-2.819 1.464-7.924 6.139-11.407 11.677-.638-.13-1.331-.082-2.027.132-2.189.672-3.449 2.967-2.797 5.11a3.963 3.963 0 0 0 1.509 2.099c-.475 1.835-.621 3.679-.304 5.434-3.284 1.009-18.938-7.702-10.647-23.001 8.29-15.3 30.544-4.037 25.673-1.451Z" />
  <path fill="#000" d="M148.376 34.378s-5.295-12.386-14.352-5.844c-9.057 6.542-8.956 9.02-9.393 17.059-.437 8.04 8.088 17.09 11.743 19.62 3.705 2.515 6.764 3.267 3.446 11.318-3.318 8.052-.144 8.822 3.519 3.336 3.664-5.487 9.724-20.977 5.102-23.647-4.623-2.67-.065-21.842-.065-21.842Z" />
  <path fill="#EC0000" d="M144.026 37.835c-1.171 1.676-1.376 3.556-.459 4.2.916.644 2.608-.193 3.779-1.87 1.17-1.675 1.375-3.556.459-4.2-.917-.643-2.609.194-3.779 1.87Z"/>
  <path fill="#D08C4C" d="M168.448 192.274a1.928 1.928 0 0 1-.26-.573c-1.56-4.12-26.364-48.452-28.808-56.535h27.924c1.872 6.154 10.348 44.8 11.544 52.519 3.744 12.152 11.492 51.58 12.48 54.292 1.04 2.869-4.784 5.842-6.344 2.347-2.496-5.632-8.372-21.174-11.024-30.666-.78-2.869-3.172-6.155-3.848-8.71-1.456-5.424-.988-9.544-1.664-12.674Z" />
  <path fill="#D08C4C" d="M146.504 184.921c0-.157.052-.365.104-.522 1.3-3.755 9.776-48.764 12.74-55.805l19.292 16.22c-2.288 5.372-18.772 36.977-22.412 42.975-4.42 10.587-21.892 42.297-22.776 44.748-.936 2.608-6.708 1.252-5.72-2.086 1.56-5.319 4.316-15.855 8.008-23.939 1.352-2.92 2.808-8.97 4.004-11.526 1.924-4.015 5.564-7.823 6.76-10.065Z" />
  <path fill="#D08C4C" d="M137.82 224.036c-2.132 3.703-.884 14.551 1.56 19.141 2.444 4.589-7.956-.678-7.956-4.955 0-4.276 8.58-17.889 6.396-14.186Zm50.336 4.173c-.156 4.276 6.032 13.299 10.348 16.167 4.264 2.869-7.332 3.182-9.36-.625-1.976-3.756-.832-19.819-.988-15.542Z" />
  <path fill="#004699" d="M126.669 229.014c-1.311 1.022-2.181 1.828-2.594 2.491-.496.795-1.079 2.027-1.778 3.74l24.877 15.595c1.983-1.706 2.329-3.148 1.044-4.138-1.301-1.062-2.365-1.913-3.209-2.626l-8.308-12.46c-.166-.227-.485-.304-.711-.138l-1.879 1.341c-1.664-.183-2.888-.581-3.682-1.079-.661-.415-1.378-1.233-2.239-2.51-.304-.497-.97-.608-1.466-.304l-.055.088ZM183.684 243.385c-.572 1.565-.884 2.712-.884 3.495 0 .939.156 2.295.468 4.12h29.328c.78-2.503.312-3.912-1.3-4.068-1.664-.209-3.016-.365-4.108-.522l-13.624-6.154c-.26-.104-.572 0-.676.261l-.884 2.138c-1.508.73-2.756 1.043-3.692 1.043-.78 0-1.82-.313-3.224-.938-.52-.261-1.144 0-1.404.521v.104Z" />
  <path fill="#FFE600" d="M142.188 126.351H177.6c8.58 29.781 11.492 46.991 8.84 51.685-19.968-3.598-48.776 4.903-52.936-1.825-3.484-6.676-.572-23.261 8.684-49.86Z" />
  <path fill="#D08C4C" d="m196.283 109.714 17.732-7.823c3.12-3.13 6.084-5.476 8.996-7.093.884-.26 2.34-.365.78 1.93-1.56 2.295-3.12 4.798-2.496 5.633.624.834 2.444-.105 3.172 1.251.468.887-2.6 1.93-9.204 3.129l-13.364 10.223-5.616-7.25Zm-71.708 2.139 10.036 1.981c-10.088 18.828-15.496 28.842-16.224 29.989-1.664 2.556-.104 7.197.468 9.649-3.536.834-2.132-4.538-6.656-3.443-4.108 1.044-7.592 3.651-11.44.105-.468-.417-.832-1.773.78-2.504 4.004-1.721 9.932-5.006 10.868-6.258 1.3-1.721 5.356-11.526 12.168-29.519Z" />
  <path fill="#EC0000" d="m161.859 74.197 4.212-.73c9.204 8.97 13 30.51 19.136 33.379 5.824 2.712 14.04.104 23.816-3.442l3.016 6.728c-8.892 9.648-27.82 17.784-35.516 13.142-12.272-7.458-15.132-34.004-14.664-49.077Z" />
  <path fill="#FFE600" d="M143.399 127.551h37.44c1.716 0 1.404-2.503 1.144-3.703-2.86-14.447-13.988-30.04-13.988-50.537l-10.816-1.721c-8.944 14.394-12.012 32.179-13.78 55.961Z" />
  <path fill="#EC0000" d="M160.767 71.59c9.672 33.17 12.376 55.231 8.008 66.288h-33.696c.52-8.084 2.236-16.585 4.576-24.93-7.644 13.821-14.04 23.73-19.24 29.832l-7.852-1.565c5.044-31.449 19.708-54.657 43.94-69.625h4.264Z" />
  <path fill="#EAB98B" d="M98.06 18.576c4.65 8.71 3.292 32.357 0 32.357h-4.598c-2.353 0-6.084-1.332-9.963-3.697l3.212 22.836H67.453l6.602-30.921c-3.661-4.419-6.172-9.836-5.754-15.825 1.205-17.255 25.11-13.459 29.76-4.75Z" />
  <path fill="#7E4815" d="M83.767 29.125a5.164 5.164 0 0 0-1.947-.38c-2.94 0-5.097.301-6.38 3.03-1.161 2.466.955 4.552 1.944 5.55-1.231 1.795-3.298 7.688-4.88 9.623-9.316-4.587-12.02-19.465-6.21-29.815 1.606-5.07 6.537-6.854 10.83-8.112 3.479-1.502 8.864-2.587 11.912-1.686 5.974.529 11.309 4.24 12.821 5.358 0 5.838-1.096 7.57-10.457 7.417-3.002 1.637-5.098 4.815-7.633 9.015Z" />
  <path fill="#EAB98B" d="M85.29 194.588a2.847 2.847 0 0 1-.268-.619c-1.36-4.547-25.55-54.605-27.55-63.502l22.087 1.125c1.488 6.619 20.096 55.051 20.22 55.312 3.055 13.365 6.817 56.699 6.817 59.888 0 3.188-6.293 5.623-7.727 1.687-2.283-6.262-8.928-20.641-10.957-31.029-1.903-9.739-1.972-17.933-2.621-22.862Z" />
  <path fill="#EAB98B" d="M59.757 190.206c.008-.198.038-.398.093-.598 1.132-4.147-1.33-47.278 1.366-55.121l14.575 3.818c-2.05 5.963 1.085 50.552-2.403 57.347-4.012 11.803-26.889 39.274-27.674 42.005-.827 2.874-7.18 1.871-6.387-1.823 1.263-5.879 5.601-16.898 8.97-25.931 3.158-8.468 9.634-15.539 11.46-19.697Z" />
  <path
    fill="#D8D8D8"
    d="M97.87 247.905c.412-.639 1.804.125 2.966-.212.775-.225 1.931-.4 3.47-.525-.257-1.245-.257-1.986 0-2.221.384-.354 3.383-2.314 3.383-2.314s.903.895.698.895c-.204 0 .385.041.715.445.219.269.397.803.533 1.602.461.51.772.86.935 1.048.162.189.345.466.549.832.529.131.793.376.793.737s.076.635.227.824l.746 1.173a1.271 1.271 0 0 1 1.158 0c.577.279-.02 1.29.828 1.748.848.457 3.862 3.665 5.016 3.953 1.154.287 1.13.973 2.001.973.872 0 8.25 1.594 8.25 1.594s1.028.844 1.028 1.277c0 .433.251-.05.605.72.353.77.636 1.66-.605 2.659-1.24.998-5.208 2.101-9.976 2.7-4.768.599-24.671.163-24.906-.279-.157-.294-.055-1.603.306-3.927.21-5.793.322-8.757.337-8.892.023-.203.667 0 .667 0s-.137-4.171.275-4.81ZM37.825 232.821c.727-.224 1.303 1.257 2.41 1.746.737.326 1.736.936 2.995 1.829.603-1.118 1.079-1.686 1.427-1.702.522-.023 4.078.404 4.078.404s.117 1.266-.04 1.135c-.156-.131.268.279.261.8-.004.348-.21.871-.62 1.571.025.687.04 1.155.042 1.404.003.249-.035.579-.114.99.322.44.366.798.135 1.075-.232.276-.35.535-.355.777l-.183 1.378c.416.107.712.355.887.745.263.585-.843.976-.488 1.871.356.896.604 5.292 1.303 6.254.7.962.24 1.473.908 2.033.668.561 5.296 6.527 5.296 6.527s.246 1.308-.032 1.64c-.278.331.224.123 0 .94s-.58 1.681-2.17 1.648c-1.592-.033-5.34-1.741-9.378-4.348-4.038-2.608-19.004-15.743-18.901-16.233.069-.326.988-1.263 2.758-2.812 3.881-4.302 5.871-6.5 5.97-6.594.148-.141.511.429.511.429s2.574-3.283 3.3-3.507Z"
    />
  <path fill="#000" d="m53.056 128.515-1.357 25.279c.389 21.815 1.693 32.723 3.914 32.723 1.645 0 7.126 1.178 11.98 1.482 4.209.263 7.534.598 9.401.402.34-.036.69-.339.866-.402 1.503-.542 4.468-20.37 8.897-59.484H53.056Z" />
  <path fill="#000" d="M65.54 128.515c8.276 38.302 13.108 57.868 14.496 58.699.144.086.527 1.201.82 1.246 3.944.605 20.122-2.778 20.81-4.251.493-1.055-3.34-19.619-11.5-55.694H65.54Z" />
  <path fill="#004699" d="m92.264 73.592 7.676 55.022c-6.514 19.49-9.96 29.235-10.338 29.235H51.371c-.45-3.282-.674-5.13-.674-5.543 0-.62.11-3.116.644-3.737.357-.413.357-8.18 0-23.3V91.366c0-.444 1.7-17.243 2.992-18.843 1.292-1.6 4.845-14.777 17.81-13.146 8.643 1.087 15.35 5.825 20.121 14.215Z" />
  <path fill="#000" fill-opacity=".1" d="M52.248 96.685c3.403 31.015 7.024 51.403 10.863 61.164H51.37c-.518-3.181-.743-5.367-.674-6.559.068-1.191.293-2.085.674-2.681l.145-.823.732-51.101Z" />
  <path fill="#EAB98B" d="m91.184 139.75 5.293 3.635c1.746 3.818 1.133 5.726-1.839 5.726s-5.776-.926-8.411-2.78l4.957-6.581Z" />
  <path fill="#FFE600" d="M91.492 67.59c-1.411-2.209-6.02-7.607-9-9.646-1.986-1.36-7.118-3.006-15.396-4.936-1.729-1.672-3.144-2.509-4.243-2.509-1.65 0-1.871 1.404-2.937 2.509-1.067 1.104-3.13 1.33-3.13 3.247 0 1.917.234.692-1.365 1.689-1.599.996-2.32 2.576-2.32 4.201 0 1.626-1.432 3.236-1.432 5.445 0 2.208-.785 2.107 0 3.365.784 1.257.585 2.983 2.968 1.08 2.383-1.9 1.788-8.002 10.86-9.89 9.072-1.887 11.728 4.387 16.995 5.445 5.268 1.058 8.718 7.621 9.972 5.627 1.254-1.993.439-3.42-.972-5.627Z" />
  <path stroke="#FFE600" stroke-width="2" d="M92.46 69.847c2.222 2.023 3.334 3.706 3.334 5.05 0 2.015.54 33.118 1.653 34.895"/>
  <path fill="#FFE600" d="M99.755 127.891c-.357 0-3.676.187-9.956.561 3.57 9.193 4.321 14.623 2.252 16.291-2.069 1.667-6.296 2.938-12.681 3.811 8.855 9.033 13.862 13.373 15.022 13.02 1.74-.529 3.724-1.644 3.724-3.078 0-1.433-.504-2.352.567-3.794 1.072-1.441 2.301-5.08 2.301-6.732 0-1.652 1.291-2.252.645-4.075-.645-1.823-1.874-3.35-1.874-4.394s.536-11.61 0-11.61Z" />
  <path fill="#FFE600" d="M69.526 70.103c-3.688-1.173-6.327-1.173-7.917 0-2.385 1.759-8.901 16.723-10.039 19.004-1.137 2.281-8.977 23.167-8.977 24.942 0 1.774 4.178 9.202 6.578 11.422 2.4 2.221 11.936 13.251 14.165 13.827 2.23.576 8.542 4.732 10.895 4.732 2.354 0 4.159-.452 5.47.53.873.655 3.331 1.756 7.373 3.303 3.175-5.044 4.763-7.733 4.763-8.065 0-.5-5.153-4.763-6.508-5.585-1.356-.822-2.882-3.211-4.255-3.687-1.374-.476-.935-2.335-2.214-3.234-1.278-.899-6.592-5.247-8.323-6.161-1.73-.914-1.746-.076-2.322-2.88-.577-2.804-1.403-4.402-1.403-5.032 0-.629 11.515-12.491 12.888-16.753 1.373-4.262 2.54-14.234 0-17.598-1.692-2.244-5.084-5.165-10.174-8.765Z" />
  <path fill="#EAB98B" d="M85.29 194.588a2.847 2.847 0 0 1-.268-.619c-1.36-4.547-25.55-54.605-27.55-63.502l22.087 1.125c1.488 6.619 20.096 55.051 20.22 55.312 3.055 13.365 6.817 56.699 6.817 59.888 0 3.188-6.293 5.623-7.727 1.687-2.283-6.262-8.928-20.641-10.957-31.029-1.903-9.739-1.972-17.933-2.621-22.862Z" />
  <path fill="#EAB98B" d="M59.757 190.206c.008-.198.038-.398.093-.598 1.132-4.147-1.33-47.278 1.366-55.121l14.575 3.818c-2.05 5.963 1.085 50.552-2.403 57.347-4.012 11.803-26.889 39.274-27.674 42.005-.827 2.874-7.18 1.871-6.387-1.823 1.263-5.879 5.601-16.898 8.97-25.931 3.158-8.468 9.634-15.539 11.46-19.697Z" />
  <path fill="#D8D8D8"
        d="M97.87 247.905c.412-.639 1.804.125 2.966-.212.775-.225 1.931-.4 3.47-.525-.257-1.245-.257-1.986 0-2.221.384-.354 3.383-2.314 3.383-2.314s.903.895.698.895c-.204 0 .385.041.715.445.219.269.397.803.533 1.602.461.51.772.86.935 1.048.162.189.345.466.549.832.529.131.793.376.793.737s.076.635.227.824l.746 1.173a1.271 1.271 0 0 1 1.158 0c.577.279-.02 1.29.828 1.748.848.457 3.862 3.665 5.016 3.953 1.154.287 1.13.973 2.001.973.872 0 8.25 1.594 8.25 1.594s1.028.844 1.028 1.277c0 .433.251-.05.605.72.353.77.636 1.66-.605 2.659-1.24.998-5.208 2.101-9.976 2.7-4.768.599-24.671.163-24.906-.279-.157-.294-.055-1.603.306-3.927.21-5.793.322-8.757.337-8.892.023-.203.667 0 .667 0s-.137-4.171.275-4.81ZM37.825 232.821c.727-.224 1.303 1.257 2.41 1.746.737.326 1.736.936 2.995 1.829.603-1.118 1.079-1.686 1.427-1.702.522-.023 4.078.404 4.078.404s.117 1.266-.04 1.135c-.156-.131.268.279.261.8-.004.348-.21.871-.62 1.571.025.687.04 1.155.042 1.404.003.249-.035.579-.114.99.322.44.366.798.135 1.075-.232.276-.35.535-.355.777l-.183 1.378c.416.107.712.355.887.745.263.585-.843.976-.488 1.871.356.896.604 5.292 1.303 6.254.7.962.24 1.473.908 2.033.668.561 5.296 6.527 5.296 6.527s.246 1.308-.032 1.64c-.278.331.224.123 0 .94s-.58 1.681-2.17 1.648c-1.592-.033-5.34-1.741-9.378-4.348-4.038-2.608-19.004-15.743-18.901-16.233.069-.326.988-1.263 2.758-2.812 3.881-4.302 5.871-6.5 5.97-6.594.148-.141.511.429.511.429s2.574-3.283 3.3-3.507Z"
        />
  <path fill="#000" d="m53.056 128.515-1.357 25.279c.389 21.815 1.693 32.723 3.914 32.723 1.645 0 7.126 1.178 11.98 1.482 4.209.263 7.534.598 9.401.402.34-.036.69-.339.866-.402 1.503-.542 4.468-20.37 8.897-59.484H53.056Z" />
  <path fill="#000" d="M65.54 128.515c8.276 38.302 13.108 57.868 14.496 58.699.144.086.527 1.201.82 1.246 3.944.605 20.122-2.778 20.81-4.251.493-1.055-3.34-19.619-11.5-55.694H65.54Z" />
  <path fill="#004699" d="m92.264 73.592 7.676 55.022c-6.514 19.49-9.96 29.235-10.338 29.235H51.371c-.45-3.282-.674-5.13-.674-5.543 0-.62.11-3.116.644-3.737.357-.413.357-8.18 0-23.3V91.366c0-.444 1.7-17.243 2.992-18.843 1.292-1.6 4.845-14.777 17.81-13.146 8.643 1.087 15.35 5.825 20.121 14.215Z" />
  <path fill="#000" fill-opacity=".1" d="M52.248 96.685c3.403 31.015 7.024 51.403 10.863 61.164H51.37c-.518-3.181-.743-5.367-.674-6.559.068-1.191.293-2.085.674-2.681l.145-.823.732-51.101Z" />
  <path fill="#EAB98B" d="m91.184 139.75 5.293 3.635c1.746 3.818 1.133 5.726-1.839 5.726s-5.776-.926-8.411-2.78l4.957-6.581Z" />
  <path fill="#FFE600" d="M91.492 67.59c-1.411-2.209-6.02-7.607-9-9.646-1.986-1.36-7.118-3.006-15.396-4.936-1.729-1.672-3.144-2.509-4.243-2.509-1.65 0-1.871 1.404-2.937 2.509-1.067 1.104-3.13 1.33-3.13 3.247 0 1.917.234.692-1.365 1.689-1.599.996-2.32 2.576-2.32 4.201 0 1.626-1.432 3.236-1.432 5.445 0 2.208-.785 2.107 0 3.365.784 1.257.585 2.983 2.968 1.08 2.383-1.9 1.788-8.002 10.86-9.89 9.072-1.887 11.728 4.387 16.995 5.445 5.268 1.058 8.718 7.621 9.972 5.627 1.254-1.993.439-3.42-.972-5.627Z" />
  <path stroke="#FFE600" stroke-width="2" d="M92.46 69.847c2.222 2.023 3.334 3.706 3.334 5.05 0 2.015.54 33.118 1.653 34.895"/>
  <path fill="#FFE600" d="M99.755 127.891c-.357 0-3.676.187-9.956.561 3.57 9.193 4.321 14.623 2.252 16.291-2.069 1.667-6.296 2.938-12.681 3.811 8.855 9.033 13.862 13.373 15.022 13.02 1.74-.529 3.724-1.644 3.724-3.078 0-1.433-.504-2.352.567-3.794 1.072-1.441 2.301-5.08 2.301-6.732 0-1.652 1.291-2.252.645-4.075-.645-1.823-1.874-3.35-1.874-4.394s.536-11.61 0-11.61Z" />
  <path fill="#FFE600" d="M69.526 70.103c-3.688-1.173-6.327-1.173-7.917 0-2.385 1.759-8.901 16.723-10.039 19.004-1.137 2.281-8.977 23.167-8.977 24.942 0 1.774 4.178 9.202 6.578 11.422 2.4 2.221 11.936 13.251 14.165 13.827 2.23.576 8.542 4.732 10.895 4.732 2.354 0 4.159-.452 5.47.53.873.655 3.331 1.756 7.373 3.303 3.175-5.044 4.763-7.733 4.763-8.065 0-.5-5.153-4.763-6.508-5.585-1.356-.822-2.882-3.211-4.255-3.687-1.374-.476-.935-2.335-2.214-3.234-1.278-.899-6.592-5.247-8.323-6.161-1.73-.914-1.746-.076-2.322-2.88-.577-2.804-1.403-4.402-1.403-5.032 0-.629 11.515-12.491 12.888-16.753 1.373-4.262 2.54-14.234 0-17.598-1.692-2.244-5.084-5.165-10.174-8.765Z" />
</svg>