<svg width="200" height="78" xmlns="http://www.w3.org/2000/svg">
  <g fill="#000" fill-rule="evenodd">
    <g>
      <path d="M21.5 24.938c7.46 0 13.562 6.103 13.562 13.562 0 7.46-6.103 13.562-13.562 13.562-7.46 0-13.562-6.103-13.562-13.562 0-7.46 6.103-13.562 13.562-13.562m0-1.938C12.975 23 6 29.975 6 38.5S12.975 54 21.5 54 37 47.025 37 38.5 30.025 23 21.5 23Z"/>
      <path d="M34.364 0H7.636C3.436 0 0 3.424 0 7.61v62.78C0 74.576 3.436 78 7.636 78h26.728c4.2 0 7.636-3.424 7.636-7.61V7.61C42 3.424 38.562 0 34.362 0Zm5.727 70.39c0 3.139-2.577 5.708-5.727 5.708H7.636c-3.15 0-5.727-2.57-5.727-5.709V7.61c0-3.139 2.577-5.708 5.727-5.708h1.91c.477 0 .954.476.954.952v.951c0 1.047.86 1.903 1.91 1.903h17.18c1.05 0 1.91-.856 1.91-1.903v-.951c0-.476.477-.952.954-.952h1.91c3.15 0 5.727 2.569 5.727 5.708v62.78Z"/>
      <path d="M21.5 27C15.175 27 10 32.175 10 38.5S15.175 50 21.5 50 33 44.825 33 38.5 27.825 27 21.5 27Zm0 2.396c1.054 0 1.917.862 1.917 1.916A1.922 1.922 0 0 1 21.5 33.23a1.922 1.922 0 0 1-1.917-1.917c0-1.054.863-1.916 1.917-1.916Zm6.805 5.75-3.833.383c-.383 0-.96.095-1.534.095v3.833c0 .48.096 1.246.288 1.63l1.82 5.079c.096.383-.095.766-.479.958h-.287a.722.722 0 0 1-.671-.479l-1.821-5.08c-.096-.574-.288-1.531-.288-2.106 0 .575-.192 1.533-.383 2.108l-1.821 5.08a.721.721 0 0 1-.671.478h-.288c-.383-.096-.574-.575-.479-.959l1.821-5.079c.192-.383.288-1.15.288-1.629v-3.833c-.48 0-1.055-.096-1.534-.096l-3.833-.383c-.383 0-.671-.383-.671-.766s.383-.672.767-.672l3.833.383c.479.096 1.341.096 1.82.096h1.917c.48 0 1.342 0 1.821-.096l3.833-.383c.383-.095.767.288.767.672 0 .383 0 .766-.382.766Z"/>
    </g>
    <path
      d="m109.422 50.172 10.766-10.766-23.766-23.562-8.531 8.531-7.72-7.719-23.155 23.157L67.984 50.78l-2.437 2.438a5.89 5.89 0 0 0 0 8.531 5.89 5.89 0 0 0 4.266 1.828 6.297 6.297 0 0 0 1.828 4.469 6.703 6.703 0 0 0 4.468 1.625 6.703 6.703 0 0 0 1.625 4.469 6.297 6.297 0 0 0 4.47 1.828 5.484 5.484 0 0 0 4.265-1.828l2.437-2.438 1.828 1.828A6.703 6.703 0 0 0 95 75.36a6.906 6.906 0 0 0 4.469-1.828 6.297 6.297 0 0 0 1.828-4.469 5.89 5.89 0 0 0 4.266-1.828 5.484 5.484 0 0 0 1.828-4.265 6.297 6.297 0 0 0 6.093-6.094 6.297 6.297 0 0 0-1.828-4.469l-2.234-2.234Zm-13-28.64 17.875 17.874-7.11 7.313-.609.61-14.625-14.626-4.875 4.875a2.438 2.438 0 0 1-3.25 0 2.438 2.438 0 0 1 0-3.453l12.594-12.594ZM71.438 58.905c-.859.8-2.19.8-3.047 0a2.031 2.031 0 0 1 0-2.843l2.437-2.438 3.047 2.844-2.438 2.437ZM77.53 65c-.858.8-2.188.8-3.047 0a1.828 1.828 0 0 1-.609-1.422 2.234 2.234 0 0 1 .61-1.422l2.437-2.437 3.047 3.047L77.53 65Zm6.094 6.297a2.031 2.031 0 0 1-2.844 0 2.234 2.234 0 0 1-.61-1.625 2.234 2.234 0 0 1 .61-1.422l2.235-2.438 3.046 3.047-2.437 2.438Zm25.188-13a2.031 2.031 0 0 1-2.844 0l-6.703-6.703-3.25 3.25 6.703 6.703c.774.79.774 2.054 0 2.844-.387.366-.89.582-1.422.609a2.234 2.234 0 0 1-1.625-.61l-6.5-6.5-3.25 3.047 6.703 6.704c.8.858.8 2.188 0 3.046a2.234 2.234 0 0 1-1.625.61 2.234 2.234 0 0 1-1.422-.61L62.703 39.814l.406-.407 17.063-17.062 4.875 4.875-4.063 4.062a6.297 6.297 0 0 0 0 9.14 6.703 6.703 0 0 0 9.141 0l1.828-1.827 16.86 16.86c.774.789.774 2.053 0 2.843ZM151.531 19.094a6.094 6.094 0 1 1 12.188 0 6.094 6.094 0 0 1-12.188 0Zm4.063 54.843c-6.731 0-12.188-5.456-12.188-12.187a12.39 12.39 0 0 1 4.063-9.14v-4.876a16.047 16.047 0 0 0-8.125 14.016 16.25 16.25 0 0 0 31.89 4.063h-4.265a12.188 12.188 0 0 1-11.375 8.124Zm17.469-22.343h-11.375V41.03l6.093 6.5H182v-8.125h-10.156L161.688 29.25h-6.094a4.469 4.469 0 0 0-4.063 4.063v22.546l5.89 5.891h13.61l12.188 12.188h12.187l-22.344-22.344Z"/>
  </g>
</svg>
